<svg width="135" height="176" viewBox="0 0 135 176" fill="none" xmlns="http://www.w3.org/2000/svg">
<rect width="135" height="176" fill="#1E1E1E"/>
<rect id="Rectangle 34" x="-2632" y="-731" width="6835" height="1503" stroke="white" stroke-width="4"/>
<g id="Burnout RIch">
<rect width="1440" height="1024" transform="translate(-786 -457)" fill="#F9EFE5"/>
<g id="Rectangle 4">
<rect x="-188" y="-309" width="786" height="820" rx="12" fill="white"/>
<rect x="-187.5" y="-308.5" width="785" height="819" rx="11.5" stroke="black" stroke-opacity="0.5"/>
</g>
<rect id="Rectangle 49" x="-43" y="-15" width="205" height="205" rx="10" fill="white" stroke="#99BBE0" stroke-width="4"/>
<g id="Group 73">
<g id="Group 7">
<g id="Group 6">
<path id="Vector" d="M97.3364 20.2831C99.4856 21.728 101.591 23.2336 103.691 24.7488C104.804 25.5489 105.927 26.3333 107.052 27.1164C107.541 27.4579 107.541 27.4579 108.041 27.8063C108.262 27.9602 108.483 28.1142 108.711 28.2728C108.286 29.3707 108.018 29.8671 106.986 30.4723C106.652 30.6051 106.317 30.7379 105.972 30.8747C105.638 31.0108 105.303 31.1468 104.959 31.287C104.668 31.4025 104.377 31.5179 104.077 31.6369C103.66 31.845 103.66 31.845 103.234 32.0574C102.515 32.0868 101.795 32.0929 101.075 32.0837C100.692 32.0799 100.308 32.0761 99.9134 32.0722C99.6191 32.0673 99.6627 32.0772 99.3594 32.0722C99.3594 32.3438 99.2995 32.6125 99.4428 32.8984C99.4849 34.0753 99.5016 35.2415 99.4987 36.4186C99.4993 36.7793 99.4998 37.14 99.5004 37.5117C99.5012 38.6985 99.4985 39.8853 99.4954 41.0721C99.4949 41.6756 99.4949 41.6756 99.4943 42.2912C99.4858 50.0987 99.305 57.8963 99.0215 65.6983C97.3292 65.4545 96.1731 64.9253 94.7265 64.0261C94.3209 63.7789 93.9152 63.5317 93.4973 63.2771C92.6476 62.7512 91.7985 62.2245 90.9499 61.6969C90.3431 61.3277 90.3431 61.3277 89.724 60.9511C89.3557 60.7226 88.9875 60.494 88.608 60.2585C87.6137 59.6617 87.6137 59.6617 86.3834 60.2317C85.6385 61.2465 85.6385 61.2465 84.9353 62.4656C84.0007 64.0289 83.0908 65.3005 81.7495 66.5393C81.3992 66.3572 81.0489 66.1751 80.6881 65.9874C80.2303 65.7532 79.7725 65.5191 79.3008 65.2778C78.8463 65.0436 78.3918 64.8094 77.9235 64.5682C76.7268 63.93 76.7268 63.93 75.4304 64.0163C77.5157 65.8896 77.5157 65.8896 79.6431 67.8009C79.243 69.3985 78.9989 69.8984 77.9975 71.1042C77.7537 71.4004 77.5099 71.6966 77.2587 72.0019C76.875 72.4592 76.875 72.4592 76.4836 72.9258C76.2278 73.2356 75.9721 73.5454 75.7085 73.8646C73.8672 76.0894 73.8672 76.0894 73.3241 76.6316C73.3917 79.2118 73.8133 81.7957 74.1508 84.3514C74.6042 87.8972 74.8851 91.4456 75.1309 95.0109C75.1769 95.6596 75.2229 96.3083 75.269 96.957C75.3643 98.3028 75.4583 99.6488 75.5514 100.995C75.6699 102.707 75.7915 104.42 75.914 106.132C76.0092 107.466 76.1028 108.801 76.1959 110.136C76.2401 110.767 76.2847 111.398 76.3299 112.029C76.5561 115.203 76.7517 118.347 76.6271 121.531C76.7033 122.593 76.9947 123.214 77.5368 124.123C78.7959 126.243 78.5229 128.489 78.3793 130.878C77.6842 131.016 76.9891 131.155 76.273 131.298C76.299 131.68 76.3251 132.061 76.352 132.454C76.273 133.821 76.273 133.821 75.8254 134.82C74.6134 135.834 73.5867 135.618 72.0603 135.503C72.0649 135.759 72.0696 136.015 72.0744 136.279C72.1004 138.816 71.952 141.279 71.6588 143.797C71.6165 144.174 71.5743 144.55 71.5308 144.939C71.3942 146.148 71.2536 147.357 71.1124 148.565C71.0651 148.976 71.0178 149.387 70.9691 149.81C68.9428 167.378 68.9428 167.378 67.8476 169.565C68.2451 169.566 68.2451 169.566 68.6506 169.568C71.6057 169.701 73.3016 170.471 75.4304 172.508C77.1155 174.358 77.1155 174.358 77.1155 175.452C75.4223 175.546 73.7301 175.614 72.0348 175.66C71.4592 175.679 70.8839 175.704 70.309 175.737C68.4518 175.841 66.7175 175.864 64.8987 175.452C63.9702 174.581 63.5034 173.775 62.9374 172.641C62.0217 171.066 60.5932 170.367 59.001 169.565C59.0612 168.329 59.1229 167.094 59.1853 165.859C59.2018 165.516 59.2184 165.174 59.2354 164.822C59.3277 163.015 59.4534 161.222 59.6394 159.423C59.9299 156.316 59.9636 153.208 59.9751 150.09C59.9767 149.772 59.9782 149.454 59.9798 149.127C59.9924 142.509 59.2177 136.147 58.1584 129.616C58.0127 128.635 57.8738 127.654 57.7371 126.672C56.903 126.672 56.0689 126.672 55.2095 126.672C55.2095 129.309 55.2095 131.946 55.2095 134.662C52.9852 134.662 50.7609 134.662 48.4692 134.662C48.2772 133.622 48.0853 132.581 47.8933 131.541C47.6759 130.466 47.6759 130.466 47.1742 129.608C46.5597 128.296 46.7879 127.054 46.878 125.636C46.8403 124.316 46.8403 124.316 45.5203 122.467C45.5203 120.247 45.5203 118.027 45.5203 115.739C53.5834 115.739 61.6465 115.739 69.9539 115.739C69.8149 114.351 69.6759 112.964 69.5327 111.534C69.5006 110.616 69.4829 109.698 69.4848 108.779C69.4849 108.035 69.4849 108.035 69.4849 107.275C69.4871 106.754 69.4893 106.233 69.4915 105.696C69.4921 105.151 69.4927 104.607 69.4933 104.045C69.4949 102.612 69.4991 101.178 69.5037 99.7442C69.5081 98.2754 69.51 96.8066 69.5121 95.3378C69.5166 92.4665 69.5238 89.5952 69.5327 86.7239C70.0888 86.7239 70.6448 86.7239 71.2178 86.7239C71.2178 97.8254 71.2178 108.927 71.2178 120.365C72.4689 120.365 73.7201 120.365 75.0092 120.365C74.8378 118.27 74.6655 116.176 74.4924 114.082C74.4337 113.37 74.3753 112.659 74.3171 111.948C74.2331 110.921 74.1481 109.894 74.063 108.866C74.0375 108.553 74.012 108.239 73.9858 107.916C73.8608 106.417 73.7138 104.927 73.5204 103.436C73.3739 102.262 73.2654 101.134 73.2352 99.9535C73.2185 99.4404 73.2185 99.4404 73.2015 98.9168C73.1898 98.5532 73.1782 98.1895 73.1661 97.8148C73.0118 93.8049 72.6738 89.8214 72.2709 85.8303C72.2159 85.2792 72.1608 84.7281 72.1041 84.1603C71.8294 81.2077 71.8294 81.2077 71.2178 78.3136C70.9614 78.2616 70.7051 78.2096 70.441 78.1559C62.5185 76.2952 55.9995 71.6146 50.9968 65.2778C50.9968 65.0003 50.9968 64.7227 50.9968 64.4368C44.4591 66.7102 41.2803 70.4448 38.3292 76.4936C36.4954 80.4805 35.3815 84.506 34.5147 88.8001C34.4054 89.3389 34.2962 89.8777 34.1836 90.4328C32.5555 98.6999 32.2643 106.909 32.0397 115.319C32.7348 115.319 33.4299 115.319 34.1461 115.319C34.1688 116.484 34.1855 117.649 34.1987 118.814C34.2058 119.145 34.2129 119.475 34.2201 119.815C34.2229 120.134 34.2256 120.452 34.2284 120.78C34.2328 121.073 34.2372 121.366 34.2417 121.668C34.1461 122.467 34.1461 122.467 33.3036 123.729C33.0255 123.729 32.7475 123.729 32.461 123.729C30.951 118.453 30.5153 113.564 30.5916 108.091C30.5944 107.713 30.5971 107.335 30.5999 106.946C30.6423 101.251 30.8959 95.6825 32.0397 90.088C32.0984 89.7793 32.157 89.4707 32.2175 89.1527C33.5694 82.1348 35.8786 75.3416 40.0439 69.4829C40.2459 69.1913 40.4479 68.8996 40.656 68.5992C42.7512 65.8708 46.0644 63.8317 49.3118 62.7547C49.8678 62.7547 50.4239 62.7547 50.9968 62.7547C51.1071 62.514 51.2173 62.2734 51.3309 62.0254C51.8771 61.002 52.5001 60.1838 53.2348 59.2855C53.5297 58.9223 53.8246 58.5591 54.1284 58.1849C54.7142 57.4698 55.3015 56.756 55.8894 56.0426C56.3809 55.4459 56.8719 54.8488 57.3623 54.2513C57.8517 53.6551 58.3427 53.0602 58.8353 52.4666C59.0626 52.1897 59.29 51.9128 59.5242 51.6276C59.7278 51.3813 59.9314 51.135 60.1411 50.8812C60.7096 50.1073 61.1236 49.3261 61.5286 48.4573C61.351 48.2546 61.1734 48.0519 60.9905 47.843C60.6443 47.4446 60.6443 47.4446 60.2911 47.0381C60.0614 46.7747 59.8317 46.5112 59.595 46.2398C58.3054 44.6637 58.4405 43.1829 58.4612 41.2117C58.6268 39.5837 59.1438 38.7035 60.2648 37.524C60.6297 37.3853 60.9946 37.2465 61.3706 37.1035C61.8658 36.8954 61.8658 36.8954 62.3711 36.683C62.6637 35.846 62.9429 35.0043 63.2136 34.16C66.7783 27.6743 71.8122 20.677 78.4057 17.0504C79.8534 16.8967 80.1215 17.1074 81.2755 17.9177C81.721 18.2777 82.1621 18.6432 82.592 19.0216C82.3835 18.6226 82.175 18.2236 81.9601 17.8126C81.3282 16.4985 81.3282 16.4985 81.3282 15.6575C86.9874 13.7744 92.7352 17.307 97.3364 20.2831Z" fill="black"/>
<path id="Vector_2" d="M50.9969 64.4365C51.7505 65.2233 51.7505 65.2233 52.524 66.3025C56.8217 71.8938 63.2712 76.5913 70.4098 77.5479C71.2178 77.8929 71.2178 77.8929 71.668 78.8007C72.0942 80.0986 72.2684 81.2763 72.4042 82.6351C72.4824 83.4071 72.4824 83.4071 72.5622 84.1946C72.6138 84.743 72.6654 85.2913 72.7185 85.8563C72.7461 86.1393 72.7737 86.4223 72.8021 86.7139C73.1763 90.559 73.4428 94.3954 73.5701 98.257C73.7251 102.373 74.1543 106.466 74.5813 110.561C74.9128 113.844 75.0893 117.065 75.0092 120.365C73.758 120.365 72.5069 120.365 71.2178 120.365C71.2178 109.263 71.2178 98.1615 71.2178 86.7236C70.6617 86.7236 70.1056 86.7236 69.5327 86.7236C69.6717 96.2987 69.8107 105.874 69.954 115.739C61.8909 115.739 53.8278 115.739 45.5204 115.739C45.3881 121.911 45.3881 121.911 47.2054 124.57C47.2844 125.698 47.2844 125.698 47.2054 126.856C47.1407 128.866 47.498 129.941 48.4692 131.718C48.4692 132.69 48.4692 133.661 48.4692 134.662C50.6935 134.662 52.9178 134.662 55.2096 134.662C55.2096 132.025 55.2096 129.389 55.2096 126.672C55.3486 126.672 55.4876 126.672 55.6308 126.672C55.6308 129.448 55.6308 132.223 55.6308 135.082C52.1554 135.082 48.6799 135.082 45.0991 135.082C44.9601 133.695 44.8211 132.307 44.6778 130.877C44.3998 130.877 44.1218 130.877 43.8353 130.877C43.6963 131.571 43.5573 132.265 43.414 132.98C42.0538 133.029 40.6938 133.059 39.333 133.085C38.9488 133.099 38.5646 133.113 38.1687 133.128C35.2851 133.17 35.2851 133.17 33.664 132.132C33.406 131.857 33.1481 131.582 32.8823 131.298C32.7433 132.547 32.6043 133.796 32.461 135.082C31.7659 135.082 31.0708 135.082 30.3547 135.082C30.226 133.798 30.1782 132.58 30.3547 131.298C30.8618 130.685 31.3722 130.072 31.9361 129.511C33.0262 127.983 33.0857 125.973 33.3036 124.149C33.0255 124.01 32.7475 123.872 32.461 123.729C32.7391 123.729 33.0171 123.729 33.3036 123.729C33.6676 122.638 33.7989 121.903 33.8581 120.78C33.8758 120.462 33.8934 120.143 33.9116 119.815C33.9282 119.485 33.9447 119.154 33.9618 118.814C33.98 118.479 33.9982 118.143 34.0169 117.798C34.0615 116.971 34.104 116.145 34.1461 115.318C33.451 115.318 32.7559 115.318 32.0398 115.318C31.7205 100.873 31.8691 81.0282 42.1502 69.4827C44.5978 66.9554 47.3097 64.4365 50.9969 64.4365Z" fill="white"/>
<path id="Vector_3" d="M84.2771 21.9648C85.3534 23.0159 86.3473 24.0912 87.305 25.2501C90.3525 28.7416 93.5707 30.9289 98.179 31.6366C98.1287 34.7764 98.0761 37.9162 98.0221 41.056C98.0041 42.1203 97.9865 43.1846 97.9695 44.2489C97.868 50.5655 97.7101 56.868 97.3364 63.1749C95.8029 62.697 94.4301 62.1906 93.0546 61.3615C92.7473 61.1783 92.4399 60.995 92.1232 60.8063C91.8104 60.6166 91.4976 60.4268 91.1754 60.2314C90.547 59.8542 89.9184 59.4775 89.2895 59.1012C89.0144 58.9348 88.7393 58.7684 88.4558 58.597C87.6398 58.1245 86.8101 57.7 85.9622 57.2878C85.859 57.58 85.7558 57.8721 85.6495 58.1732C85.0343 59.5863 84.2506 60.772 83.3819 62.0448C83.0767 62.4942 82.7715 62.9436 82.4571 63.4065C82.2236 63.7464 81.9901 64.0863 81.7495 64.4365C81.4394 64.3118 81.1293 64.1871 80.8098 64.0587C75.9191 62.0992 75.9191 62.0992 70.8228 62.9121C69.5028 63.4516 69.5028 63.4516 69.1114 64.4365C69.5198 64.4018 69.9281 64.3671 70.3489 64.3313C72.3783 64.3396 74.1669 65.0072 75.8517 66.1185C76.6068 66.9275 77.275 67.7684 77.9581 68.6416C77.4856 69.1969 77.4856 69.1969 77.0036 69.7635C76.5845 70.2568 76.1655 70.7501 75.7464 71.2435C75.5395 71.4866 75.3326 71.7297 75.1194 71.9802C74.9158 72.2201 74.7121 72.4599 74.5023 72.7071C74.1996 73.0611 74.1996 73.0611 73.8908 73.4223C73.3806 74.0399 72.907 74.6871 72.4388 75.3369C71.639 76.2108 71.639 76.2108 70.7932 76.3833C63.8097 75.2386 57.3537 70.9129 53.0242 65.3563C52.2607 64.016 52.2607 64.016 52.2837 63.2554C52.8892 61.8543 53.9061 60.825 54.9199 59.7057C56.886 57.4781 58.7452 55.1963 60.5281 52.8198C60.7422 52.5362 60.9563 52.2526 61.1769 51.9603C62.1255 50.6863 62.9499 49.4744 63.6349 48.0365C63.4269 47.8387 63.2189 47.6408 63.0047 47.437C62.7348 47.1752 62.4649 46.9133 62.1868 46.6436C61.918 46.385 61.6492 46.1265 61.3722 45.8601C60.1619 44.5071 60.125 43.0761 60.1413 41.31C60.3353 39.9858 61.01 39.2753 61.9498 38.3648C63.4127 37.6346 64.988 37.6912 66.5838 37.9443C67.7447 38.8617 68.4525 39.5724 69.1114 40.8878C69.1407 41.5355 69.147 42.1844 69.1377 42.8327C69.1339 43.1764 69.1301 43.52 69.1262 43.8741C69.1213 44.1376 69.1164 44.401 69.1114 44.6724C69.6675 44.8112 70.2236 44.95 70.7965 45.093C70.8975 44.8116 70.9985 44.5303 71.1026 44.2404C71.7723 42.6799 72.6099 41.2653 73.4821 39.8103C73.6656 39.5017 73.849 39.1931 74.0381 38.8752C74.6408 37.863 75.2461 36.8523 75.8517 35.8417C76.0621 35.4897 76.2726 35.1377 76.4894 34.775C79.0541 30.4856 81.6388 26.2096 84.2771 21.9648Z" fill="white"/>
<path id="Vector_4" d="M69.5326 86.7236C70.0887 86.7236 70.6448 86.7236 71.2177 86.7236C71.2736 90.9944 71.3286 95.2651 71.3825 99.5359C71.4076 101.521 71.4329 103.505 71.459 105.49C71.5848 115.074 71.6742 124.656 71.639 134.241C72.3341 134.241 73.0292 134.241 73.7453 134.241C73.5368 134.866 73.5368 134.866 73.3241 135.503C72.907 135.503 72.49 135.503 72.0603 135.503C72.0649 135.759 72.0696 136.015 72.0744 136.279C72.1004 138.816 71.952 141.278 71.6587 143.797C71.6165 144.173 71.5743 144.55 71.5308 144.938C71.3941 146.148 71.2536 147.356 71.1124 148.565C71.0651 148.976 71.0178 149.387 70.9691 149.81C68.9428 167.378 68.9428 167.378 67.8476 169.564C68.1126 169.565 68.3776 169.567 68.6506 169.568C71.6057 169.701 73.3016 170.471 75.4304 172.508C77.1155 174.358 77.1155 174.358 77.1155 175.451C75.4222 175.546 73.73 175.614 72.0348 175.659C71.4592 175.678 70.8839 175.704 70.309 175.737C68.4517 175.841 66.7174 175.864 64.8987 175.451C63.9702 174.58 63.5034 173.775 62.9374 172.641C62.0217 171.066 60.5932 170.367 59.0009 169.564C59.0612 168.329 59.1228 167.094 59.1852 165.859C59.2018 165.516 59.2184 165.174 59.2354 164.821C59.3277 163.015 59.4534 161.222 59.6394 159.423C59.9298 156.316 59.9636 153.208 59.9751 150.089C59.9766 149.772 59.9782 149.454 59.9797 149.127C59.9924 142.508 59.2176 136.147 58.1584 129.616C58.0127 128.635 57.8737 127.654 57.7371 126.672C56.903 126.672 56.0689 126.672 55.2095 126.672C55.2095 129.309 55.2095 131.945 55.2095 134.662C52.9852 134.662 50.7609 134.662 48.4692 134.662C48.2772 133.622 48.0852 132.581 47.8933 131.541C47.6759 130.465 47.6759 130.465 47.1741 129.608C46.5597 128.295 46.7879 127.054 46.8779 125.636C46.8402 124.315 46.8402 124.315 45.5203 122.467C45.5203 120.247 45.5203 118.026 45.5203 115.739C53.5834 115.739 61.6465 115.739 69.9539 115.739C69.8149 114.351 69.6759 112.964 69.5326 111.534C69.5005 110.616 69.4828 109.697 69.4848 108.779C69.4849 108.283 69.4849 107.786 69.4849 107.275C69.4871 106.754 69.4893 106.233 69.4915 105.696C69.4921 105.151 69.4927 104.606 69.4933 104.045C69.4949 102.611 69.499 101.178 69.5037 99.744C69.5081 98.2752 69.51 96.8064 69.5121 95.3375C69.5166 92.4662 69.5237 89.5949 69.5326 86.7236Z" fill="black"/>
<path id="Vector_5" d="M8.27677 24.2055C8.61124 24.2032 8.94571 24.201 9.29031 24.1986C10.3947 24.1934 11.4986 24.2003 12.603 24.2079C13.371 24.2078 14.1391 24.2072 14.9071 24.206C16.5163 24.2054 18.1254 24.2107 19.7345 24.2203C21.7972 24.2322 23.8595 24.2311 25.9222 24.2257C27.508 24.2228 29.0938 24.2261 30.6796 24.2313C31.4401 24.2332 32.2006 24.2333 32.9612 24.2317C34.0241 24.2305 35.0867 24.2374 36.1496 24.2466C36.6211 24.2437 36.6211 24.2437 37.1021 24.2408C38.4266 24.2598 39.3549 24.345 40.526 24.9869C41.1703 25.678 41.1703 25.678 41.3349 26.8131C41.3153 27.2277 41.2958 27.6424 41.2756 28.0697C41.2604 28.4876 41.2452 28.9055 41.2295 29.3361C41.21 29.6554 41.1904 29.9747 41.1703 30.3036C41.7177 30.295 42.2651 30.2863 42.8291 30.2773C43.3995 30.2683 43.9707 30.2736 44.5405 30.3036C45.21 30.972 45.0164 31.6657 45.0177 32.5902C45.0182 32.9664 45.0188 33.3425 45.0193 33.7301C45.0177 34.1258 45.0161 34.5216 45.0144 34.9293C45.016 35.325 45.0176 35.7207 45.0193 36.1284C45.0188 36.5046 45.0182 36.8808 45.0177 37.2683C45.0172 37.6158 45.0167 37.9633 45.0162 38.3213C44.9617 39.1344 44.9617 39.1344 44.5405 39.5549C43.4154 39.6142 42.2975 39.5727 41.1703 39.5549C41.1923 39.9883 41.1923 39.9883 41.2147 40.4304C41.2261 40.8093 41.2375 41.1882 41.2493 41.5786C41.2713 42.1421 41.2713 42.1421 41.2937 42.7169C41.1703 43.76 41.1703 43.76 40.7414 44.4453C39.438 45.3449 38.0645 45.2004 36.5347 45.1914C36.0198 45.1958 36.0198 45.1958 35.4944 45.2002C34.3584 45.2079 33.2227 45.2062 32.0867 45.2038C31.2982 45.2058 30.5096 45.208 29.7211 45.2105C28.068 45.2143 26.4149 45.2133 24.7618 45.2091C22.641 45.2043 20.5205 45.2128 18.3997 45.225C16.7713 45.2327 15.1429 45.2326 13.5145 45.2302C12.7324 45.2302 11.9504 45.2327 11.1684 45.2379C10.076 45.2442 8.9841 45.2397 7.89171 45.2325C7.56735 45.2366 7.24299 45.2406 6.9088 45.2448C5.53417 45.2257 4.73328 45.2126 3.68791 44.2765C3.23565 43.2951 3.09411 42.6668 3.08589 41.5925C3.08055 41.2529 3.0752 40.9133 3.0697 40.5634C3.07094 40.2002 3.07217 39.8371 3.07345 39.4629C3.07124 39.0866 3.06903 38.7103 3.06675 38.3225C3.06405 37.528 3.06461 36.7334 3.0682 35.9388C3.07179 34.7232 3.05966 33.5084 3.04629 32.2928C3.04561 31.5203 3.04586 30.7477 3.04712 29.9751C3.04238 29.6119 3.03765 29.2488 3.03278 28.8746C3.03673 28.535 3.04068 28.1954 3.04475 27.8454C3.04482 27.548 3.04489 27.2505 3.04496 26.944C3.72151 24.2349 5.87878 24.1745 8.27677 24.2055Z" fill="white"/>
<path id="Vector_6" d="M21.0867 144.333C21.7433 144.679 21.7433 144.679 22.4131 145.032C25.5626 146.666 28.5094 148.147 32.0397 148.749C32.5366 148.846 32.5366 148.846 33.0435 148.946C33.8306 149.099 34.62 149.241 35.4099 149.38C35.4099 150.49 35.4099 151.6 35.4099 152.744C37.6342 152.744 39.8585 152.744 42.1502 152.744C42.1502 151.634 42.1502 150.523 42.1502 149.38C42.5781 149.283 43.006 149.186 43.4469 149.086C48.0715 148.004 52.2198 146.464 56.4733 144.333C56.4941 146.893 56.5094 149.453 56.5196 152.013C56.5238 152.884 56.5296 153.755 56.5369 154.627C56.5471 155.877 56.5519 157.127 56.5556 158.378C56.5599 158.769 56.5643 159.16 56.5688 159.563C56.5688 159.925 56.5689 160.287 56.569 160.66C56.5708 160.979 56.5727 161.299 56.5746 161.628C56.4733 162.415 56.4733 162.415 55.6308 163.257C54.557 163.34 53.529 163.371 52.4548 163.365C52.1273 163.367 51.7998 163.368 51.4624 163.37C50.3769 163.373 49.2914 163.371 48.2059 163.368C47.4535 163.369 46.7012 163.37 45.9488 163.371C44.3707 163.372 42.7927 163.37 41.2146 163.366C39.1888 163.361 37.163 163.364 35.1372 163.369C33.5832 163.372 32.0293 163.371 30.4753 163.369C29.7282 163.368 28.9811 163.369 28.234 163.371C27.191 163.373 26.1482 163.37 25.1052 163.365C24.7944 163.367 24.4837 163.369 24.1635 163.37C22.0255 163.353 22.0255 163.353 21.0867 162.415C20.9854 161.628 20.9854 161.628 20.9911 160.66C20.9911 160.298 20.9912 159.936 20.9913 159.563C20.9956 159.172 21 158.781 21.0044 158.378C21.0056 157.978 21.0068 157.578 21.008 157.165C21.0128 155.884 21.0234 154.603 21.0341 153.322C21.0383 152.455 21.0421 151.587 21.0456 150.72C21.0549 148.591 21.0694 146.462 21.0867 144.333Z" fill="black"/>
<path id="Vector_7" d="M24.1636 136.23C24.6297 136.232 24.6297 136.232 25.1053 136.235C25.4328 136.234 25.7603 136.232 26.0977 136.231C27.1832 136.227 28.2687 136.229 29.3542 136.232C30.1066 136.232 30.8589 136.231 31.6113 136.23C33.1894 136.228 34.7674 136.23 36.3455 136.234C38.3713 136.239 40.3971 136.236 42.4229 136.231C43.9769 136.228 45.5308 136.229 47.0848 136.231C47.8319 136.232 48.579 136.231 49.3261 136.229C50.3691 136.227 51.4119 136.23 52.4549 136.235C52.7657 136.233 53.0764 136.232 53.3966 136.23C55.5346 136.248 55.5346 136.248 56.4734 137.185C56.836 139.202 56.8711 141.06 56.4734 143.072C55.3214 144.475 53.9413 144.978 52.2607 145.595C51.4917 145.891 51.4917 145.891 50.7073 146.193C47.8902 147.226 45.1623 147.96 42.1502 148.118C42.1502 147.286 42.1502 146.453 42.1502 145.595C39.9259 145.595 37.7016 145.595 35.4099 145.595C35.4099 146.428 35.4099 147.26 35.4099 148.118C24.6409 147.122 24.6409 147.122 21.4603 143.499C20.6003 141.548 20.7888 139.256 21.0868 137.185C22.1318 136.142 22.7373 136.242 24.1636 136.23Z" fill="black"/>
<path id="Vector_8" d="M37.9375 79.1543C38.3545 79.1543 38.7716 79.1543 39.2013 79.1543C39.3308 81.5247 39.1022 83.6302 38.6484 85.9613C36.5214 97.3254 36.4033 108.844 36.2524 120.364C38.4767 120.364 40.701 120.364 42.9927 120.364C42.9878 119.885 42.9829 119.406 42.9779 118.912C42.8815 105.686 44.271 92.5581 46.7841 79.5748C47.3402 79.5748 47.8963 79.5748 48.4692 79.5748C48.0943 83.1978 47.5578 86.7926 47.0153 90.3939C45.9578 97.6066 45.3586 104.845 45.0042 112.125C44.9616 112.968 44.9148 113.811 44.8643 114.654C44.7901 115.895 44.7277 117.135 44.6679 118.377C44.6434 118.751 44.6189 119.126 44.5937 119.512C44.4973 121.885 44.8343 123.069 46.3629 124.99C46.5274 126.035 46.5274 126.035 46.4682 126.987C46.453 127.306 46.4378 127.625 46.4221 127.953C46.4025 128.224 46.383 128.495 46.3629 128.775C46.285 129.752 46.285 129.752 47.2054 130.877C47.2877 131.92 47.2877 131.92 47.258 133.059C47.2504 133.437 47.2428 133.816 47.235 134.207C47.2252 134.496 47.2155 134.785 47.2054 135.082C46.5103 135.082 45.8152 135.082 45.099 135.082C44.96 133.695 44.821 132.307 44.6778 130.877C44.3997 130.877 44.1217 130.877 43.8352 130.877C43.6962 131.571 43.5572 132.265 43.414 132.98C42.0538 133.029 40.6938 133.059 39.3329 133.085C38.9487 133.099 38.5645 133.113 38.1687 133.128C35.2851 133.169 35.2851 133.169 33.6639 132.132C33.406 131.857 33.148 131.581 32.8822 131.298C32.7432 132.547 32.6042 133.796 32.461 135.082C31.7659 135.082 31.0708 135.082 30.3546 135.082C30.0172 131.714 30.0172 131.714 31.3551 130.062C31.6451 129.771 31.6451 129.771 31.941 129.474C32.8035 128.314 32.8873 127.013 33.0698 125.606C33.3035 124.57 33.3035 124.57 33.9451 123.677C34.7715 122.07 34.7023 120.645 34.6463 118.886C34.6353 118.16 34.6245 117.433 34.6138 116.707C34.606 116.326 34.5981 115.946 34.59 115.553C34.3658 103.875 34.2069 90.3258 37.9375 79.1543Z" fill="black"/>
<path id="Vector_9" d="M63.7402 76.4208C64.1225 76.6289 64.5048 76.8371 64.8987 77.0515C65.2202 77.225 65.5417 77.3985 65.8729 77.5772C66.5838 78.3131 66.5838 78.3131 67.0314 79.4695C66.999 81.1518 66.4984 81.7036 65.3743 82.896C64.2421 84.9999 64.9771 88.0177 65.3595 90.2681C65.4555 90.8512 65.5515 91.4343 65.6475 92.0175C65.799 92.918 65.9517 93.8183 66.1051 94.7185C67.7242 104.281 67.7242 104.281 65.399 107.567C65.0732 107.995 65.0732 107.995 64.7408 108.432C64.5268 108.734 64.3128 109.036 64.0924 109.347C62.9537 110.917 62.9537 110.917 62.3711 111.533C62.0931 111.533 61.815 111.533 61.5286 111.533C60.5013 110.487 59.6354 109.301 58.7377 108.143C58.4803 107.827 58.2229 107.51 57.9577 107.185C57.5927 106.715 57.5927 106.715 57.2204 106.236C56.9964 105.952 56.7723 105.668 56.5414 105.375C55.4122 103.09 56.1537 100.608 56.7597 98.2512C56.8325 97.9563 56.9053 97.6615 56.9803 97.3577C57.2118 96.4227 57.448 95.489 57.6845 94.5553C57.8401 93.9323 57.9953 93.3092 58.1502 92.686C58.2256 92.3831 58.301 92.0803 58.3786 91.7682C58.5269 91.1713 58.6747 90.5743 58.8221 89.9772C59.1204 88.7697 59.4222 87.5643 59.7475 86.3638C60.242 84.4535 60.3504 83.2969 59.4486 81.5195C58.5422 79.6868 58.5422 79.6868 59.001 78.3131C60.4792 76.9995 61.7434 76.1141 63.7402 76.4208Z" fill="black"/>
<path id="Vector_10" d="M7.57157 24.2773C7.90604 24.275 8.24051 24.2727 8.58511 24.2704C9.6895 24.2651 10.7934 24.2721 11.8978 24.2796C12.6658 24.2796 13.4339 24.2789 14.2019 24.2778C15.8111 24.2772 17.4202 24.2825 19.0293 24.2921C21.092 24.304 23.1543 24.3028 25.217 24.2975C26.8028 24.2946 28.3886 24.2978 29.9744 24.3031C30.7349 24.305 31.4954 24.3051 32.256 24.3035C33.3189 24.3022 34.3815 24.3092 35.4444 24.3183C35.9159 24.3155 35.9159 24.3155 36.3969 24.3126C37.7214 24.3316 38.6497 24.4168 39.8208 25.0587C40.4651 25.7498 40.4651 25.7498 40.6297 26.8848C40.6101 27.2995 40.5906 27.7142 40.5704 28.1414C40.5552 28.5594 40.54 28.9773 40.5243 29.4079C40.5048 29.7272 40.4852 30.0465 40.4651 30.3754C41.0125 30.3667 41.5599 30.3581 42.1239 30.3491C42.6943 30.3401 43.2655 30.3453 43.8353 30.3754C44.5048 31.0438 44.3112 31.7374 44.3125 32.6619C44.313 33.0381 44.3136 33.4143 44.3141 33.8019C44.3125 34.1976 44.3109 34.5933 44.3092 35.001C44.3108 35.3967 44.3124 35.7924 44.3141 36.2001C44.3136 36.5763 44.313 36.9525 44.3125 37.3401C44.312 37.6876 44.3115 38.0351 44.311 38.393C44.2565 39.2061 44.2565 39.2061 43.8353 39.6267C42.7102 39.686 41.5923 39.6445 40.4651 39.6267C40.4871 40.06 40.4871 40.06 40.5095 40.5022C40.5209 40.8811 40.5323 41.26 40.5441 41.6504C40.5661 42.2138 40.5661 42.2138 40.5885 42.7887C40.4651 43.8318 40.4651 43.8318 40.0362 44.5171C38.7328 45.4166 37.3593 45.2721 35.8295 45.2632C35.3146 45.2675 35.3146 45.2675 34.7892 45.272C33.6532 45.2797 32.5175 45.278 31.3815 45.2756C30.593 45.2775 29.8044 45.2798 29.0159 45.2823C27.3628 45.2861 25.7097 45.285 24.0566 45.2809C21.9358 45.276 19.8153 45.2845 17.6945 45.2968C16.0661 45.3045 14.4377 45.3044 12.8093 45.302C12.0272 45.3019 11.2452 45.3045 10.4632 45.3097C9.37075 45.3159 8.2789 45.3115 7.18651 45.3043C6.86215 45.3083 6.53779 45.3124 6.2036 45.3166C4.82897 45.2975 4.02808 45.2844 2.98271 44.3483C2.53045 43.3669 2.38891 42.7386 2.38069 41.6643C2.37535 41.3247 2.37 40.9851 2.3645 40.6352C2.36574 40.272 2.36697 39.9088 2.36825 39.5347C2.36604 39.1584 2.36383 38.782 2.36155 38.3943C2.35885 37.5998 2.35941 36.8052 2.363 36.0106C2.36659 34.795 2.35446 33.5802 2.34109 32.3646C2.34041 31.592 2.34066 30.8195 2.34192 30.0469C2.33718 29.6837 2.33245 29.3205 2.32758 28.9464C2.33153 28.6068 2.33548 28.2671 2.33955 27.9172C2.33962 27.6197 2.33969 27.3223 2.33976 27.0158C3.01631 24.3066 5.17358 24.2463 7.57157 24.2773ZM4.23598 27.4318C4.16218 28.5777 4.13846 29.6801 4.1537 30.8255C4.15489 31.1603 4.15609 31.4951 4.15731 31.8401C4.16204 32.9113 4.17261 33.9824 4.18332 35.0536C4.18755 35.7791 4.19139 36.5046 4.19484 37.2301C4.20414 39.0102 4.21869 40.7902 4.23598 42.5702C4.51402 42.5702 4.79206 42.5702 5.07852 42.5702C5.07852 42.8478 5.07852 43.1253 5.07852 43.4113C9.34824 43.4307 13.6179 43.4457 17.8877 43.4548C19.8702 43.4592 21.8526 43.4652 23.8351 43.4747C25.7471 43.4838 27.6591 43.4889 29.5711 43.491C30.3018 43.4926 31.0324 43.4956 31.7631 43.5002C32.7839 43.5062 33.8046 43.5071 34.8255 43.5067C35.2818 43.5113 35.2818 43.5113 35.7474 43.5159C37.4529 43.5584 37.4529 43.5584 38.78 42.5702C38.859 41.3991 38.8877 40.2705 38.8771 39.0994C38.8769 38.7562 38.8767 38.4131 38.8765 38.0595C38.8753 37.3338 38.8719 36.6081 38.8667 35.8824C38.859 34.7675 38.8581 33.6528 38.8582 32.5379C38.8561 31.8341 38.8537 31.1302 38.8508 30.4263C38.8503 30.0908 38.8499 29.7553 38.8494 29.4096C38.9809 27.874 38.9809 27.874 38.3588 26.5908C37.3251 26.5464 36.3033 26.5291 35.2693 26.5297C34.7843 26.5276 34.7843 26.5276 34.2896 26.5254C33.2154 26.5214 32.1413 26.5206 31.0672 26.5202C30.3237 26.5188 29.5801 26.5174 28.8366 26.5159C27.2759 26.5134 25.7151 26.5126 24.1544 26.5129C22.1507 26.5129 20.1472 26.5072 18.1435 26.4999C16.6072 26.4953 15.071 26.4944 13.5347 26.4946C12.7958 26.4941 12.057 26.4923 11.3181 26.489C10.2862 26.4849 9.25441 26.4861 8.22251 26.4887C7.915 26.4863 7.6075 26.4839 7.29068 26.4815C5.57342 26.4412 5.57342 26.4412 4.23598 27.4318Z" fill="black"/>
<path id="Vector_11" d="M90.1749 73.2671C91.5398 73.7212 91.7056 73.8969 92.4836 75.0165C92.6696 75.2807 92.8556 75.545 93.0472 75.8173C93.3327 76.2332 93.3327 76.2332 93.624 76.6575C93.8192 76.9364 94.0145 77.2152 94.2156 77.5026C94.6971 78.1913 95.1746 78.8828 95.6514 79.5748C96.0684 79.436 96.4855 79.2972 96.9152 79.1542C98.8567 78.8958 100.555 78.8227 102.181 80.0216C103.439 81.4968 103.69 82.2731 103.655 84.2004C103.237 84.9029 102.815 85.6035 102.392 86.3029C102.317 87.0018 102.267 87.7035 102.234 88.4055C102.117 90.0637 102.032 90.4303 100.944 91.7959C99.2305 93.0888 98.23 93.1796 96.0726 93.0311C95.812 92.823 95.5513 92.6148 95.2828 92.4004C94.1975 91.6357 93.8135 91.7412 92.5182 91.8221C90.8916 91.8863 90.6959 91.8484 89.3323 90.7709C88.1139 89.1745 87.8353 88.3206 88.0685 86.3029C88.4248 85.8866 88.781 85.4703 89.148 85.0414C90.3126 83.8995 90.3126 83.8995 90.1107 82.6153C89.584 80.6115 88.6486 78.8664 87.723 77.0205C87.226 75.7902 87.226 75.7902 87.6473 74.5286C88.9111 74.9491 88.9111 74.9491 89.4113 75.8164C89.5243 76.0853 89.6372 76.3542 89.7536 76.6312C90.0316 76.6312 90.3097 76.6312 90.5961 76.6312C90.3536 75.628 90.0812 74.6687 89.7536 73.6876C89.8926 73.5488 90.0316 73.4101 90.1749 73.2671Z" fill="white"/>
<path id="Vector_12" d="M44.6778 164.938C47.7362 164.938 50.7946 164.938 53.9457 164.938C53.9457 166.465 53.9457 167.991 53.9457 169.564C54.5018 169.599 55.0579 169.633 55.6308 169.669C58.354 169.981 60.5333 170.883 62.3711 172.954C63.2136 174.19 63.2136 174.19 63.2136 175.451C56.9578 175.451 50.7019 175.451 44.2565 175.451C44.3955 171.982 44.5346 168.513 44.6778 164.938Z" fill="black"/>
<path id="Vector_13" d="M46.7841 79.5747C47.3402 79.5747 47.8963 79.5747 48.4692 79.5747C48.0943 83.1977 47.5579 86.7925 47.0153 90.3938C45.9578 97.6065 45.3586 104.845 45.0042 112.124C44.9616 112.968 44.9149 113.811 44.8644 114.654C44.7901 115.894 44.7277 117.135 44.6679 118.377C44.6312 118.938 44.6312 118.938 44.5937 119.512C44.4974 121.885 44.8343 123.069 46.3629 124.99C46.5274 126.035 46.5274 126.035 46.4682 126.987C46.453 127.306 46.4378 127.625 46.4221 127.953C46.3928 128.36 46.3928 128.36 46.3629 128.775C46.285 129.752 46.285 129.752 47.2054 130.877C47.2877 131.92 47.2877 131.92 47.2581 133.058C47.2505 133.437 47.2429 133.816 47.235 134.207C47.2253 134.496 47.2155 134.785 47.2054 135.082C46.5103 135.082 45.8152 135.082 45.0991 135.082C44.9601 133.694 44.821 132.307 44.6778 130.877C44.3998 130.877 44.1217 130.877 43.8353 130.877C43.8353 131.432 43.8353 131.987 43.8353 132.559C43.5572 132.559 43.2792 132.559 42.9927 132.559C42.9927 130.616 42.9927 128.674 42.9927 126.672C43.4098 126.672 43.8268 126.672 44.2565 126.672C44.2565 127.088 44.2565 127.505 44.2565 127.933C44.5346 127.933 44.8126 127.933 45.0991 127.933C44.5776 125.765 43.866 124.319 42.5715 122.467C42.5715 122.189 42.5715 121.912 42.5715 121.626C41.1813 121.626 39.7911 121.626 38.3588 121.626C38.2198 121.21 38.0807 120.793 37.9375 120.364C39.6057 120.364 41.2739 120.364 42.9927 120.364C42.9878 119.885 42.983 119.406 42.9779 118.912C42.8815 105.686 44.271 92.558 46.7841 79.5747Z" fill="black"/>
<path id="Vector_14" d="M90.1749 73.2671C91.5398 73.7212 91.7056 73.8969 92.4836 75.0165C92.6696 75.2807 92.8556 75.545 93.0472 75.8173C93.3327 76.2332 93.3327 76.2332 93.624 76.6575C93.8192 76.9364 94.0145 77.2152 94.2156 77.5026C94.6971 78.1913 95.1746 78.8828 95.6514 79.5748C96.0684 79.436 96.4855 79.2972 96.9152 79.1542C98.8567 78.8958 100.555 78.8227 102.181 80.0216C103.439 81.4968 103.69 82.2731 103.655 84.2004C103.237 84.9029 102.815 85.6035 102.392 86.3029C102.317 87.0018 102.267 87.7035 102.234 88.4055C102.117 90.0637 102.032 90.4302 100.944 91.7959C99.2305 93.0888 98.23 93.1796 96.0726 93.0311C95.812 92.823 95.5513 92.6148 95.2828 92.4004C94.1975 91.6357 93.8135 91.7412 92.5182 91.8221C90.8916 91.8863 90.6959 91.8484 89.3323 90.7709C88.1139 89.1745 87.8353 88.3206 88.0685 86.3029C88.4248 85.8866 88.781 85.4703 89.148 85.0414C90.3126 83.8995 90.3126 83.8995 90.1107 82.6153C89.584 80.6115 88.6486 78.8664 87.723 77.0205C87.226 75.7902 87.226 75.7902 87.6473 74.5286C88.9111 74.9491 88.9111 74.9491 89.4412 75.8328C89.6111 76.2128 89.781 76.5928 89.956 76.9843C90.142 77.3966 90.328 77.8088 90.5196 78.2336C90.71 78.6675 90.9003 79.1014 91.0964 79.5485C91.2916 79.9808 91.4868 80.4131 91.688 80.8585C93.1238 84.0731 93.0008 84.0731 93.0008 85.0414C92.3883 85.2365 92.5112 85.2365 91.8863 85.4356C90.6633 85.7543 90.6633 85.7543 90.1749 86.3029C90.2345 88.1284 90.2345 88.1283 91.0174 89.667C92.6807 89.7777 93.7994 89.7049 95.2301 88.826C95.3865 89.1729 95.5429 89.5198 95.704 89.8773C96.4056 91.0631 96.4056 91.0631 97.7577 91.1388C98.9948 91.017 98.9948 91.017 99.8114 90.4292C100.454 89.3953 100.432 88.7643 100.285 87.5645C99.8996 86.6178 99.8996 86.6178 99.4428 85.8824C99.8468 85.7523 99.8468 85.7523 100.259 85.6196C101.255 85.087 101.255 85.087 101.523 83.8062C101.653 82.5589 101.653 82.5589 101.128 81.7299C99.831 81.0017 98.7904 81.0985 97.3364 81.2568C97.0584 81.6731 96.7804 82.0894 96.4939 82.5183C95.0298 81.92 94.3931 81.2561 93.5384 79.9394C93.3158 79.6006 93.0931 79.2618 92.8637 78.9128C92.6368 78.5588 92.4098 78.2048 92.1759 77.8401C91.9424 77.4829 91.7089 77.1257 91.4683 76.7577C90.8932 75.8767 90.3218 74.9935 89.7536 74.1081C89.8926 73.8306 90.0316 73.553 90.1749 73.2671Z" fill="black"/>
<path id="Vector_15" d="M8.27917 28.6519C8.90615 28.6547 9.53313 28.6597 10.1601 28.6666C10.4797 28.6685 10.7992 28.6704 11.1285 28.6724C11.9203 28.6774 12.7121 28.6849 13.5039 28.6929C13.5143 30.4219 13.5219 32.151 13.527 33.88C13.5292 34.4686 13.532 35.0572 13.5357 35.6458C13.5408 36.4902 13.5429 37.3346 13.545 38.1791C13.5483 38.9421 13.5483 38.9421 13.5517 39.7206C13.5039 40.8877 13.5039 40.8877 13.0826 41.3083C12.0247 41.3502 10.9809 41.3666 9.92311 41.3608C9.62715 41.3624 9.33119 41.3641 9.02627 41.3657C6.81693 41.3615 6.81693 41.3615 6.34232 40.8877C6.30022 40.0213 6.28722 39.1533 6.28637 38.2858C6.28583 37.7579 6.28529 37.2299 6.28473 36.6859C6.28561 36.4096 6.28649 36.1333 6.2874 35.8486C6.28966 35.0041 6.28743 34.1597 6.28473 33.3153C6.28527 32.7873 6.28582 32.2593 6.28637 31.7153C6.28709 30.9827 6.28709 30.9827 6.28781 30.2353C6.37134 28.5162 6.49098 28.7003 8.27917 28.6519Z" fill="black"/>
<path id="Vector_16" d="M41.1645 121.267C42.7642 121.676 43.2608 122.031 44.2039 123.361C45.0102 124.914 45.3712 126.168 45.0991 127.934C44.821 127.934 44.543 127.934 44.2565 127.934C44.2565 127.518 44.2565 127.101 44.2565 126.672C43.8395 126.811 43.4224 126.95 42.9927 127.093C42.8537 128.619 42.7147 130.146 42.5715 131.719C42.2934 131.719 42.0154 131.719 41.7289 131.719C41.5204 130.678 41.5204 130.678 41.3077 129.616C40.8906 129.616 40.4736 129.616 40.0439 129.616C40.0439 130.171 40.0439 130.726 40.0439 131.298C39.7658 131.298 39.4878 131.298 39.2013 131.298C39.2013 130.743 39.2013 130.188 39.2013 129.616C38.7843 129.616 38.3672 129.616 37.9375 129.616C37.9375 130.171 37.9375 130.726 37.9375 131.298C37.6595 131.298 37.3814 131.298 37.095 131.298C36.956 130.743 36.8169 130.188 36.6737 129.616C36.3957 129.616 36.1176 129.616 35.8312 129.616C35.5531 130.171 35.2751 130.726 34.9886 131.298C33.9219 129.168 34.2952 126.136 34.8307 123.882C36.1011 121.122 38.3509 121.11 41.1645 121.267Z" fill="white"/>
<path id="Vector_17" d="M43.8352 130.877C44.1133 130.877 44.3913 130.877 44.6778 130.877C45.3549 132.229 45.1233 133.583 45.099 135.082C45.7941 135.082 46.4892 135.082 47.2054 135.082C47.2054 135.221 47.2054 135.36 47.2054 135.503C49.8467 135.641 52.4881 135.78 55.2095 135.923C55.2095 136.062 55.2095 136.201 55.2095 136.344C44.366 136.344 33.5226 136.344 22.3505 136.344C22.3505 136.205 22.3505 136.066 22.3505 135.923C24.9919 135.784 27.6332 135.646 30.3546 135.503C30.3546 135.364 30.3546 135.225 30.3546 135.082C31.0497 135.082 31.7448 135.082 32.461 135.082C32.4523 134.614 32.4436 134.145 32.4346 133.663C32.461 132.138 32.461 132.138 32.8822 131.297C33.1342 131.428 33.3862 131.558 33.6458 131.692C35.0229 132.359 36.1009 132.611 37.6133 132.6C38.1204 132.598 38.1204 132.598 38.6377 132.596C39.1643 132.591 39.1643 132.591 39.7015 132.585C40.0575 132.583 40.4135 132.581 40.7802 132.58C41.6581 132.575 42.5361 132.567 43.414 132.559C43.553 132.004 43.692 131.449 43.8352 130.877Z" fill="white"/>
<path id="Vector_18" d="M69.5327 86.7236C70.0888 86.7236 70.6448 86.7236 71.2178 86.7236C71.2178 96.4374 71.2178 106.151 71.2178 116.159C69.3783 114.323 69.4784 111.292 69.437 108.827C69.4372 107.797 69.4419 106.767 69.4504 105.737C69.4516 105.192 69.4528 104.646 69.454 104.084C69.4572 102.647 69.4655 101.21 69.4748 99.7729C69.4835 98.3013 69.4873 96.8297 69.4916 95.3581C69.5005 92.4799 69.5149 89.6018 69.5327 86.7236Z" fill="black"/>
<path id="Vector_19" d="M71.639 122.046C72.7511 122.046 73.8633 122.046 75.0091 122.046C75.2823 122.58 75.5541 123.115 75.8253 123.65C75.9768 123.947 76.1284 124.245 76.2845 124.551C77.1173 126.298 77.1517 127.7 77.1155 129.616C75.9444 129.031 75.9045 128.276 75.4304 127.093C75.1524 126.954 74.8743 126.815 74.5879 126.672C74.7269 127.088 74.8659 127.505 75.0091 127.934C75.0384 128.871 75.0448 129.808 75.0355 130.746C75.0317 131.242 75.0279 131.738 75.0239 132.249C75.0191 132.629 75.0142 133.009 75.0091 133.4C74.7311 133.539 74.4531 133.678 74.1666 133.821C74.146 133.492 74.1253 133.163 74.1041 132.824C74.0726 132.398 74.0411 131.973 74.0086 131.534C73.9646 130.898 73.9646 130.898 73.9198 130.248C73.8622 129.901 73.8046 129.553 73.7453 129.195C73.4673 129.056 73.1892 128.918 72.9028 128.775C72.9028 130.301 72.9028 131.827 72.9028 133.4C72.6247 133.539 72.3467 133.678 72.0602 133.821C71.9212 129.935 71.7822 126.05 71.639 122.046Z" fill="white"/>
<path id="Vector_20" d="M31.1972 103.123C31.4752 103.123 31.7533 103.123 32.0398 103.123C32.0398 107.147 32.0398 111.172 32.0398 115.318C32.7348 115.318 33.4299 115.318 34.1461 115.318C34.1688 116.483 34.1855 117.648 34.1988 118.813C34.2058 119.144 34.2129 119.474 34.2201 119.815C34.2229 120.133 34.2256 120.451 34.2284 120.78C34.2328 121.072 34.2372 121.365 34.2417 121.667C34.1461 122.467 34.1461 122.467 33.3036 123.728C33.0255 123.728 32.7475 123.728 32.461 123.728C30.9046 119.06 30.6169 114.525 30.6443 109.641C30.6461 109.195 30.6461 109.195 30.6479 108.74C30.6793 103.64 30.6793 103.64 31.1972 103.123Z" fill="black"/>
<path id="Vector_21" d="M15.6103 24.9087C23.2563 24.9087 30.9024 24.9087 38.7801 24.9087C38.502 25.0475 38.224 25.1862 37.9375 25.3292C37.9375 25.6067 37.9375 25.8843 37.9375 26.1702C29.3184 26.1702 20.6992 26.1702 11.8189 26.1702C11.8189 26.0315 11.8189 25.8927 11.8189 25.7497C13.07 25.7497 14.3212 25.7497 15.6103 25.7497C15.6103 25.4722 15.6103 25.1946 15.6103 24.9087Z" fill="black"/>
<path id="Vector_22" d="M89.7536 40.8877C90.1706 41.0265 90.5877 41.1652 91.0174 41.3082C90.8783 42.8347 90.7393 44.3611 90.5961 45.9338C91.8212 45.0006 92.6827 44.2814 93.545 42.9903C93.962 42.9903 94.3791 42.9903 94.8088 42.9903C94.6918 44.9164 93.8257 46.0883 92.5741 47.4795C91.8599 48.0364 91.8599 48.0364 90.4645 48.0627C89.3323 47.6159 89.3323 47.6159 88.911 46.7749C88.8598 46.0929 88.8371 45.4087 88.832 44.7249C88.8261 44.3617 88.8201 43.9985 88.8139 43.6243C88.9158 42.5175 89.1933 41.8381 89.7536 40.8877Z" fill="black"/>
<path id="Vector_23" d="M83.0133 37.9438C83.4303 38.0826 83.8474 38.2214 84.2771 38.3644C84.1381 39.8908 83.999 41.4173 83.8558 42.99C84.2729 42.99 84.6899 42.99 85.1196 42.99C85.3021 42.5086 85.3021 42.5086 85.4882 42.0175C85.9622 40.8874 85.9622 40.8874 86.8047 39.6259C87.3608 39.7647 87.9168 39.9034 88.4898 40.0464C87.857 41.9987 86.9991 43.2495 85.5409 44.672C84.1454 44.8297 84.1454 44.8297 83.0133 44.672C81.9514 43.0821 81.974 41.4689 82.1707 39.6259C82.592 38.5746 82.592 38.5746 83.0133 37.9438Z" fill="black"/>
<path id="Vector_24" d="M90.5961 32.4775C90.5961 33.1714 90.5961 33.8652 90.5961 34.5801C89.3811 35.1865 88.314 35.0401 86.9627 35.0269C86.462 35.0231 85.9613 35.0193 85.4455 35.0154C85.0599 35.0105 84.6743 35.0056 84.2771 35.0006C84.1381 34.3068 83.9991 33.6129 83.8558 32.8981C84.7422 32.8274 85.6286 32.7574 86.5151 32.6878C87.0087 32.6488 87.5023 32.6097 88.0109 32.5695C88.8711 32.5096 89.7339 32.4775 90.5961 32.4775Z" fill="black"/>
<path id="Vector_25" d="M31.1971 103.123C31.4752 103.123 31.7532 103.123 32.0397 103.123C32.0397 106.87 32.0397 110.617 32.0397 114.477C30.7608 112.775 30.6172 112.573 30.6376 110.622C30.6398 110.212 30.642 109.801 30.6442 109.379C30.6529 108.954 30.6616 108.528 30.6706 108.09C30.6727 107.66 30.6749 107.23 30.6771 106.787C30.7109 103.608 30.7109 103.608 31.1971 103.123Z" fill="black"/>
<path id="Vector_26" d="M92.7024 33.7393C94.3986 34.3036 94.7042 35.2056 95.6513 36.6828C96.3353 37.4372 96.3353 37.4372 96.9151 37.9444C96.4981 38.5688 96.4981 38.5688 96.0726 39.2059C94.2178 38.6402 93.3143 37.9047 92.2812 36.2623C92.1495 35.1059 92.1495 35.1059 92.2812 34.1598C92.4202 34.021 92.5592 33.8822 92.7024 33.7393Z" fill="black"/>
<path id="Vector_27" d="M37.095 147.277C38.2071 147.277 39.3193 147.277 40.4651 147.277C40.4651 148.387 40.4651 149.497 40.4651 150.641C39.353 150.641 38.2408 150.641 37.095 150.641C37.095 149.531 37.095 148.421 37.095 147.277Z" fill="black"/>
<path id="Vector_28" d="M86.8047 39.626C87.3608 39.7647 87.9168 39.9035 88.4898 40.0465C87.9635 41.5011 87.3627 42.6313 86.3834 43.8311C85.8273 43.5536 85.2713 43.276 84.6983 42.9901C85.3934 41.8799 86.0885 40.7698 86.8047 39.626Z" fill="black"/>
<path id="Vector_29" d="M38.1128 130.102C38.442 130.102 38.7712 130.102 39.1103 130.102C39.4679 130.874 39.8068 131.639 40.1079 132.43C38.5284 132.175 38.5284 132.175 37.7803 131.848C37.89 131.272 37.9998 130.696 38.1128 130.102Z" fill="black"/>
<path id="Vector_30" d="M83.0133 37.9438C83.4303 38.0826 83.8474 38.2214 84.2771 38.3644C84.1381 40.0296 83.999 41.6948 83.8558 43.4105C83.5778 43.4105 83.2997 43.4105 83.0133 43.4105C82.9316 42.5785 82.8532 41.7462 82.7763 40.9137C82.7323 40.4502 82.6883 39.9868 82.643 39.5093C82.6262 39.1314 82.6094 38.7536 82.592 38.3644C82.731 38.2256 82.87 38.0868 83.0133 37.9438Z" fill="black"/>
<path id="Vector_31" d="M46.7841 79.5747C47.3402 79.5747 47.8963 79.5747 48.4692 79.5747C48.3302 80.8236 48.1912 82.0725 48.0479 83.3593C47.7699 83.0818 47.4919 82.8042 47.2054 82.5183C46.7883 82.7264 46.7883 82.7264 46.3629 82.9388C46.5019 81.8286 46.6409 80.7185 46.7841 79.5747Z" fill="black"/>
<path id="Vector_32" d="M43.8352 100.6C44.6693 101.016 44.6693 101.016 45.5203 101.441C45.3813 102.551 45.2422 103.661 45.099 104.805C44.682 104.528 44.2649 104.25 43.8352 103.964C43.6631 102.824 43.779 101.759 43.8352 100.6Z" fill="black"/>
<path id="Vector_33" d="M62.3711 48.457C62.6491 48.5958 62.9271 48.7346 63.2136 48.8775C62.5914 50.8442 62.5914 50.8442 61.4759 51.532C61.0849 51.6751 61.0849 51.6751 60.686 51.8211C60.547 51.4048 60.4079 50.9885 60.2647 50.5596C60.844 49.9288 60.844 49.9288 61.5285 49.2981C61.8066 49.2981 62.0846 49.2981 62.3711 49.2981C62.3711 49.0205 62.3711 48.743 62.3711 48.457Z" fill="black"/>
<path id="Vector_34" d="M90.1748 73.2671C91.7489 73.7908 91.9389 74.3747 92.7025 75.7902C92.1464 75.9289 91.5903 76.0677 91.0174 76.2107C90.6003 75.3781 90.1833 74.5454 89.7536 73.6876C89.8926 73.5488 90.0316 73.4101 90.1748 73.2671Z" fill="black"/>
<path id="Vector_35" d="M88.911 76.6313C89.1891 76.6313 89.4671 76.6313 89.7536 76.6313C90.0432 77.3935 90.0432 77.3935 90.1748 78.3134C89.5692 79.0493 89.5692 79.0493 88.911 79.5749C88.7504 78.7375 88.6105 77.8959 88.4897 77.0519C88.6288 76.9131 88.7678 76.7743 88.911 76.6313Z" fill="black"/>
<path id="Vector_36" d="M37.9375 79.1543C38.3546 79.1543 38.7716 79.1543 39.2013 79.1543C39.2013 80.4032 39.2013 81.6521 39.2013 82.9389C38.509 81.5567 38.1847 80.6348 37.9375 79.1543Z" fill="black"/>
</g>
<path id="Vector 1" d="M5.43272 41.5869C5.3997 41.6498 5.33315 41.743 5.24022 41.9535C5.18381 42.0813 5.10049 42.0924 5.02396 42.1371C4.93459 42.1894 4.86762 42.2518 4.84582 42.3117C4.83422 42.3436 4.80088 42.3616 4.79918 42.3981C4.7948 42.4923 4.85366 42.6237 4.89052 42.7075C4.91694 42.7675 5.0067 42.7808 5.08817 42.809C5.14279 42.8141 5.18978 42.8174 5.27563 42.8224C5.34502 42.8241 5.46684 42.8241 5.59236 42.8241" stroke="white" stroke-linecap="round"/>
<path id="Vector 2" d="M4.85696 28.4079C4.84711 28.3092 4.8271 28.08 4.80978 27.9629C4.79431 27.8583 4.77246 27.7615 4.81695 27.5702C4.85208 27.4191 4.92623 27.2888 5.05298 27.1642C5.1839 27.0356 5.40365 27.0595 5.52585 27.032C5.63374 27.0078 5.75209 26.9849 6.06 26.9796C6.22704 26.9768 6.35402 27.0144 6.56034 27.0319C6.89081 27.0599 7.02105 27.0494 7.18272 27.0667C7.26468 27.084 7.3447 27.0941 7.4192 27.0991C7.45428 27.104 7.48384 27.1139 7.54415 27.124" stroke="white" stroke-linecap="round"/>
<path id="Vector 3" d="M37.5288 27.3482C37.6275 27.3482 37.8665 27.3581 37.964 27.3582C37.9903 27.3583 37.9071 27.3087 37.8921 27.259C37.8848 27.2346 37.8871 27.2094 37.8994 27.1942C37.9574 27.1228 38.0708 27.1344 38.128 27.1169C38.2359 27.0838 38.3445 27.2584 38.397 27.3701C38.4673 27.5199 38.4693 27.6462 38.4916 27.9409C38.5279 28.4205 38.4793 28.8253 38.4694 28.972C38.4587 29.1296 38.4445 29.2982 38.437 29.5567C38.4346 29.6371 38.4245 29.8888 38.422 30.2445C38.421 30.3984 38.4096 30.665 38.4047 31.0652C38.4027 31.2241 38.3899 31.293 38.3823 31.8163C38.3748 32.3395 38.3699 33.315 38.3698 33.8347C38.3697 34.389 38.3846 34.5821 38.3823 34.8752C38.3552 35.119 38.3152 35.2701 38.2731 35.3372C38.2506 35.3649 38.226 35.3796 38.2006 35.3949" stroke="white" stroke-linecap="round"/>
<path id="Vector 4" d="M34.8117 41.9336C34.8413 41.9336 35.1373 42.0666 35.5973 42.2829C35.9461 42.447 36.0899 42.4857 36.2295 42.5628C36.3639 42.6371 36.4584 42.675 36.6943 42.794C36.8306 42.8628 37.2469 42.8443 37.5232 42.869C37.7462 42.8891 37.9561 42.8246 38.056 42.7773C38.1566 42.7297 38.1507 42.5561 38.183 42.4069C38.2138 42.2649 38.2301 41.9751 38.2404 41.3288C38.2438 41.1163 38.2057 41.0185 38.1957 40.904C38.1707 40.7148 38.1609 40.6102 38.1361 40.5334C38.1212 40.4813 38.1015 40.4025 38.0812 40.3213" stroke="white" stroke-linecap="round"/>
<path id="Vector 5" d="M64.2635 47.9425C64.1616 48.1348 64.0598 48.3272 63.9036 48.6036C63.7474 48.88 63.5399 49.2346 63.3576 49.5907C63.1753 49.9469 63.0244 50.2939 62.9372 50.5029C62.8501 50.7118 62.8312 50.7722 62.714 51.0202C62.5968 51.2682 62.3818 51.7019 62.2597 51.9594C62.1376 52.2168 62.115 52.2847 62.0618 52.4102C62.0087 52.5357 61.9257 52.7167 61.8697 52.8515C61.8138 52.9863 61.7874 53.0693 61.7191 53.2327C61.6508 53.3962 61.5414 53.6376 61.4737 53.7921C61.3802 54.0056 61.3526 54.0881 61.3393 54.1053C61.3233 54.1259 61.3522 53.9371 61.4564 53.6108C61.5232 53.4015 61.6623 53.1186 61.7718 52.8899C61.9606 52.4952 62.0838 52.2978 62.1408 52.2162C62.2128 52.113 62.3082 51.88 62.4488 51.5607C62.5172 51.4053 62.5969 51.2715 62.6395 51.1902C62.6822 51.1089 62.6897 51.0863 62.9237 50.6371C63.1577 50.1879 63.6179 49.3127 63.8776 48.828C64.1756 48.2716 64.2367 48.1827 64.2576 48.1352C64.3047 48.028 64.3622 47.9354 64.4061 47.8667C64.4368 47.8185 64.3437 48.0069 64.2808 48.0793C64.2265 48.1419 64.1951 48.2278 63.9919 48.5318C63.9035 48.6641 63.7501 48.8931 63.5864 49.1864C63.4796 49.3776 63.2784 49.7 63.1454 49.8987C63.0897 49.9819 62.9199 50.2793 62.7835 50.4968C62.725 50.59 62.6712 50.7308 62.5702 50.9251C62.5412 50.9809 62.5223 51.0133 62.4864 51.1041C62.4066 51.306 62.2638 51.5381 62.1572 51.7171C62.0746 51.8557 62.0347 51.9616 61.9624 52.0874C61.9394 52.1445 61.9166 52.1944 61.8126 52.4078C61.7237 52.5987 61.5615 52.957 61.3944 53.3377" stroke="white" stroke-linecap="round"/>
<path id="Vector 6" d="M20.709 143.529C20.8503 143.628 21.19 143.827 21.4077 143.916C21.6704 144.024 22.0495 144.288 22.2207 144.377C22.4442 144.494 22.7388 144.686 22.9163 144.785C23.0005 144.833 23.2133 144.948 23.5112 145.08C23.6737 145.151 24.0705 145.331 24.719 145.6C25.2325 145.813 25.5708 146.006 25.8891 146.137C26.0759 146.214 26.3057 146.331 26.6045 146.442C27.2531 146.682 27.6942 146.795 27.9973 146.897C28.6441 147.115 29.1565 147.249 29.365 147.33C29.9558 147.561 30.2851 147.59 30.7786 147.727C31.1717 147.837 31.8624 147.998 32.2594 148.089C32.8927 148.233 33.1671 148.278 33.4865 148.328C33.7057 148.363 33.8778 148.399 34.0754 148.435C34.8918 148.534 35.3046 148.591 35.5209 148.616C35.5885 148.62 35.6658 148.62 35.6816 148.62" stroke="white" stroke-linecap="round"/>
</g>
<path id="Vector_37" d="M28.7611 48.5576C29.0444 48.5576 29.3276 48.5576 29.6195 48.5576C30.1557 49.1415 30.1557 49.1415 30.7545 49.9558C30.9744 50.2512 31.1943 50.5465 31.4209 50.8508C31.7641 51.3202 31.7641 51.3202 32.1142 51.799C32.5634 52.4073 33.0132 53.015 33.4638 53.6223C33.681 53.9178 33.8982 54.2133 34.122 54.5177C34.7257 55.3019 35.3659 56.0221 36.0356 56.7508C36.9158 57.9098 36.9158 57.9098 36.9493 58.8065C34.1654 63.6418 27.7365 66.5917 22.6183 68.3248C22.1415 68.4877 22.1415 68.4877 21.6551 68.6539C19.5199 69.3272 17.6908 69.7153 15.4561 69.3876C14.5645 68.4447 14.0713 67.7816 13.4711 66.6775C13.3118 66.4077 13.1525 66.1379 12.9884 65.8599C12.667 65.3142 12.3505 64.7655 12.0392 64.2141C11.4198 63.1332 10.7379 62.0934 10.0644 61.045C9.15779 59.6189 9.01825 59.2563 9.01825 57.4847C9.4343 57.3916 9.85035 57.2984 10.279 57.2024C17.2767 55.5867 23.5548 53.7143 28.7611 48.5576Z" fill="white"/>
<path id="Vector_38" d="M115.257 37.2412C114.974 37.2412 114.691 37.2412 114.399 37.2412C113.863 37.8251 113.863 37.8251 113.264 38.6394C113.044 38.9348 112.824 39.2301 112.597 39.5344C112.254 40.0038 112.254 40.0038 111.904 40.4826C111.455 41.0909 111.005 41.6986 110.554 42.3059C110.337 42.6014 110.12 42.8969 109.896 43.2013C109.293 43.9855 108.652 44.7057 107.983 45.4344C107.102 46.5934 107.102 46.5934 107.069 47.4901C109.853 52.3254 116.282 55.2753 121.4 57.0084C121.877 57.1713 121.877 57.1713 122.363 57.3375C124.498 58.0108 126.327 58.3989 128.562 58.0712C129.454 57.1283 129.947 56.4652 130.547 55.3611C130.706 55.0913 130.866 54.8215 131.03 54.5435C131.351 53.9978 131.668 53.4491 131.979 52.8977C132.598 51.8168 133.28 50.777 133.954 49.7286C134.86 48.3025 135 47.9399 135 46.1683C134.584 46.0752 134.168 45.982 133.739 45.886C126.742 44.2703 120.463 42.3979 115.257 37.2412Z" fill="white"/>
<path id="Vector_39" d="M13.8045 76.0651C16.6199 77.4713 18.9429 79.4355 20.5911 82.0801C21.1665 85.3946 21.2409 88.847 19.3186 91.7416C16.9626 94.344 14.7389 95.2186 11.2571 95.4305C6.07525 95.327 6.07525 95.327 3.87047 93.8328C1.56913 91.3017 0.37628 88.7887 0 85.4259C0.401921 81.7034 2.7979 79.0602 5.71172 76.7559C8.32971 75.3714 10.9484 75.4579 13.8045 76.0651Z" fill="white"/>
<path id="Vector_40" d="M56.8649 0.419138C59.6802 1.82532 62.0033 3.7895 63.6514 6.4341C64.2269 9.74861 64.3012 13.201 62.379 16.0956C60.0229 18.698 57.7992 19.5726 54.3175 19.7845C49.1356 19.681 49.1356 19.681 46.9308 18.1868C44.6295 15.6557 43.4366 13.1427 43.0603 9.77992C43.4623 6.05738 45.8582 3.41424 48.7721 1.10992C51.39 -0.274576 54.0087 -0.188101 56.8649 0.419138Z" fill="white"/>
<path id="Vector_41" d="M28.7611 48.5576C29.0444 48.5576 29.3276 48.5576 29.6195 48.5576C30.1557 49.1415 30.1557 49.1415 30.7545 49.9558C30.9744 50.2512 31.1943 50.5465 31.4209 50.8508C31.7641 51.3202 31.7641 51.3202 32.1142 51.799C32.5634 52.4073 33.0132 53.015 33.4638 53.6223C33.681 53.9178 33.8982 54.2133 34.122 54.5177C34.7257 55.3019 35.3659 56.0221 36.0356 56.7508C36.9158 57.9098 36.9158 57.9098 36.9493 58.8065C34.1654 63.6418 27.7365 66.5917 22.6183 68.3248C22.1415 68.4877 22.1415 68.4877 21.6551 68.6539C19.5199 69.3272 17.6908 69.7153 15.4561 69.3876C14.5645 68.4447 14.0713 67.7816 13.4711 66.6775C13.3118 66.4077 13.1525 66.1379 12.9884 65.8599C12.667 65.3142 12.3505 64.7655 12.0392 64.2141C11.4198 63.1332 10.7379 62.0934 10.0644 61.045C9.15779 59.6189 9.01825 59.2563 9.01825 57.4847C9.4343 57.3916 9.85035 57.2984 10.279 57.2024C17.2767 55.5867 23.5548 53.7143 28.7611 48.5576ZM26.4274 52.2507C23.236 54.8249 19.7859 56.1792 15.8417 57.239C15.0305 57.4145 15.0305 57.4145 14.5978 57.9098C13.4584 58.1031 12.3136 58.2084 11.1642 58.3349C11.1642 60.09 11.3014 60.4641 12.197 61.8752C12.41 62.215 12.623 62.5547 12.8424 62.9048C13.0676 63.2555 13.2928 63.6062 13.5248 63.9675C13.7499 64.3248 13.9751 64.6821 14.2071 65.0502C14.7631 65.9314 15.3226 66.8102 15.8853 67.6872C22.6441 67.5578 29.1626 64.7974 33.9919 60.0619C34.399 59.6323 34.8034 59.2 35.199 58.76C34.234 56.679 32.7737 55.0104 31.3363 53.2337C31.1238 52.9647 30.9114 52.6956 30.6925 52.4184C30.2126 51.8229 29.7041 51.2502 29.1903 50.6831C27.8967 50.6831 27.3935 51.4224 26.4274 52.2507Z" fill="black"/>
<path id="Vector_42" d="M115.257 37.2412C114.974 37.2412 114.691 37.2412 114.399 37.2412C113.863 37.8251 113.863 37.8251 113.264 38.6394C113.044 38.9348 112.824 39.2301 112.597 39.5344C112.254 40.0038 112.254 40.0038 111.904 40.4826C111.455 41.0909 111.005 41.6986 110.554 42.3059C110.337 42.6014 110.12 42.8969 109.896 43.2013C109.293 43.9855 108.652 44.7057 107.983 45.4344C107.102 46.5934 107.102 46.5934 107.069 47.4901C109.853 52.3254 116.282 55.2753 121.4 57.0084C121.877 57.1713 121.877 57.1713 122.363 57.3375C124.498 58.0108 126.327 58.3989 128.562 58.0712C129.454 57.1283 129.947 56.4652 130.547 55.3611C130.706 55.0913 130.866 54.8215 131.03 54.5435C131.351 53.9978 131.668 53.4491 131.979 52.8977C132.598 51.8168 133.28 50.777 133.954 49.7286C134.86 48.3025 135 47.9399 135 46.1683C134.584 46.0752 134.168 45.982 133.739 45.886C126.742 44.2703 120.463 42.3979 115.257 37.2412ZM117.591 40.9343C120.782 43.5085 124.232 44.8627 128.177 45.9226C128.988 46.0981 128.988 46.0981 129.42 46.5934C130.56 46.7867 131.705 46.892 132.854 47.0185C132.854 48.7736 132.717 49.1477 131.821 50.5588C131.608 50.8986 131.395 51.2383 131.176 51.5884C130.951 51.9391 130.725 52.2898 130.493 52.6511C130.268 53.0084 130.043 53.3657 129.811 53.7338C129.255 54.615 128.696 55.4938 128.133 56.3708C121.374 56.2414 114.856 53.481 110.026 48.7455C109.619 48.3159 109.215 47.8836 108.819 47.4436C109.784 45.3626 111.245 43.6939 112.682 41.9173C112.894 41.6483 113.107 41.3792 113.326 41.102C113.806 40.5065 114.314 39.9338 114.828 39.3667C116.122 39.3667 116.625 40.106 117.591 40.9343Z" fill="black"/>
<path id="Vector_43" d="M13.8045 76.0651C16.6199 77.4713 18.9429 79.4355 20.5911 82.0801C21.1665 85.3946 21.2409 88.847 19.3186 91.7416C16.9626 94.344 14.7389 95.2186 11.2571 95.4305C6.07525 95.327 6.07525 95.327 3.87047 93.8328C1.56913 91.3017 0.37628 88.7887 0 85.4259C0.401921 81.7034 2.7979 79.0602 5.71172 76.7559C8.32971 75.3714 10.9484 75.4579 13.8045 76.0651ZM3.31617 81.4786C2.1404 83.7712 2.26188 86.2106 2.69921 88.6965C3.77231 90.8024 4.99639 92.2191 7.01794 93.5085C9.9208 94.1809 12.292 93.8986 14.9999 92.719C17.267 90.9106 18.5376 89.824 18.8872 86.8404C18.9659 84.4741 18.9544 83.051 17.7377 80.9523C15.0607 78.6172 12.5604 77.4542 8.88811 77.5712C6.52649 78.1335 4.9027 79.748 3.31617 81.4786Z" fill="black"/>
<path id="Vector_44" d="M56.8649 0.419138C59.6802 1.82532 62.0033 3.7895 63.6514 6.4341C64.2269 9.74861 64.3012 13.201 62.379 16.0956C60.0229 18.698 57.7992 19.5726 54.3175 19.7845C49.1356 19.681 49.1356 19.681 46.9308 18.1868C44.6295 15.6557 43.4366 13.1427 43.0603 9.77992C43.4623 6.05738 45.8582 3.41424 48.7721 1.10992C51.39 -0.274576 54.0087 -0.188101 56.8649 0.419138ZM46.3765 5.8326C45.2007 8.12519 45.3222 10.5646 45.7595 13.0505C46.8326 15.1564 48.0567 16.5731 50.0783 17.8625C52.9811 18.5349 55.3524 18.2526 58.0602 17.0731C60.3273 15.2646 61.598 14.178 61.9476 11.1944C62.0263 8.8281 62.0147 7.40502 60.798 5.30629C58.1211 2.9712 55.6207 1.80818 51.9484 1.92523C49.5868 2.48755 47.963 4.10202 46.3765 5.8326Z" fill="black"/>
<path id="Vector_45" d="M20.4685 56.7041C21.8765 56.7041 23.2846 56.7041 24.7352 56.7041C24.7352 57.1286 24.7352 57.5531 24.7352 57.9904C24.1094 57.9904 23.4837 57.9904 22.8389 57.9904C22.8389 58.4149 22.8389 58.8394 22.8389 59.2767C23.7483 59.2502 23.7483 59.2502 24.676 59.2231C25.7093 59.193 25.7093 59.193 26.6315 59.2767C27.5797 60.1342 27.5797 60.1342 27.639 61.2597C27.6194 61.5958 27.5998 61.9318 27.5797 62.2781C26.641 62.7025 26.641 62.7025 25.6834 63.1356C25.6834 63.7016 25.6834 64.2675 25.6834 64.8507C24.2754 64.8507 22.8674 64.8507 21.4167 64.8507C21.4167 64.2847 21.4167 63.7187 21.4167 63.1356C22.0425 63.1356 22.6683 63.1356 23.313 63.1356C23.1566 62.7111 23.0001 62.2866 22.8389 61.8493C21.174 61.322 21.174 61.322 19.5204 60.9918C19.4277 59.148 19.5225 58.4154 20.4685 56.7041Z" fill="black"/>
<path id="Vector_46" d="M117.355 45.3877C118.763 45.3877 120.171 45.3877 121.622 45.3877C121.622 45.8122 121.622 46.2367 121.622 46.674C120.996 46.674 120.371 46.674 119.726 46.674C119.726 47.0985 119.726 47.5229 119.726 47.9603C120.635 47.9338 120.635 47.9338 121.563 47.9067C122.596 47.8765 122.596 47.8765 123.518 47.9603C124.467 48.8178 124.467 48.8178 124.526 49.9433C124.506 50.2794 124.487 50.6154 124.467 50.9617C123.528 51.3861 123.528 51.3861 122.57 51.8192C122.57 52.3852 122.57 52.9511 122.57 53.5342C121.162 53.5342 119.754 53.5342 118.304 53.5342C118.304 52.9683 118.304 52.4023 118.304 51.8192C118.929 51.8192 119.555 51.8192 120.2 51.8192C120.043 51.3947 119.887 50.9702 119.726 50.5329C118.061 50.0056 118.061 50.0056 116.407 49.6754C116.315 47.8316 116.409 47.0989 117.355 45.3877Z" fill="black"/>
<path id="Vector_47" d="M9.31034 80.3018C9.88642 80.3018 10.4625 80.3018 11.056 80.3018C11.056 80.6858 11.056 81.0699 11.056 81.4656C11.8241 81.6576 12.5922 81.8496 13.3836 82.0474C13.3836 82.4315 13.3836 82.8156 13.3836 83.2112C12.6155 83.2112 11.8474 83.2112 11.056 83.2112C11.056 83.9793 11.056 84.7474 11.056 85.5388C11.8241 85.7309 12.5922 85.9229 13.3836 86.1207C13.5756 86.8888 13.7677 87.6569 13.9655 88.4483C12.8134 89.0244 12.8134 89.0244 11.6379 89.6121C11.6379 90.3802 11.6379 91.1483 11.6379 91.9397C11.0619 91.9397 10.4858 91.9397 9.89224 91.9397C9.89224 91.3636 9.89224 90.7875 9.89224 90.194C9.12414 90.002 8.35603 89.8099 7.56465 89.6121C7.56465 89.036 7.56465 88.4599 7.56465 87.8664C8.71681 88.1545 8.71681 88.1545 9.89224 88.4483C9.23292 86.4704 8.6556 86.0901 6.98276 84.9569C7.1646 83.8295 7.1646 83.8295 7.56465 82.6293C8.14073 82.4373 8.71681 82.2453 9.31034 82.0474C9.31034 81.4714 9.31034 80.8953 9.31034 80.3018Z" fill="black"/>
<path id="Vector_48" d="M52.3707 4.65479C52.9468 4.65479 53.5228 4.65479 54.1164 4.65479C54.1164 5.03884 54.1164 5.42289 54.1164 5.81858C54.8845 6.0106 55.6526 6.20263 56.444 6.40047C56.444 6.78453 56.444 7.16858 56.444 7.56427C55.6758 7.56427 54.9077 7.56427 54.1164 7.56427C54.1164 8.33237 54.1164 9.10047 54.1164 9.89185C54.8845 10.0839 55.6526 10.2759 56.444 10.4738C56.636 11.2419 56.828 12.01 57.0258 12.8013C55.8737 13.3774 55.8737 13.3774 54.6983 13.9651C54.6983 14.7332 54.6983 15.5013 54.6983 16.2927C54.1222 16.2927 53.5461 16.2927 52.9526 16.2927C52.9526 15.7166 52.9526 15.1406 52.9526 14.547C52.1845 14.355 51.4164 14.163 50.625 13.9651C50.625 13.3891 50.625 12.813 50.625 12.2194C51.7771 12.5075 51.7771 12.5075 52.9526 12.8013C52.2933 10.8234 51.7159 10.4432 50.0431 9.30996C50.2249 8.18253 50.2249 8.18253 50.625 6.98237C51.2011 6.79035 51.7771 6.59832 52.3707 6.40047C52.3707 5.8244 52.3707 5.24832 52.3707 4.65479Z" fill="black"/>
</g>
</g>
</svg>
