<svg width="1440" height="1024" viewBox="0 0 1440 1024" fill="none" xmlns="http://www.w3.org/2000/svg">
<g id="Information - Tutorial" clip-path="url(#clip0_223_1011)">
<rect width="1440" height="1024" fill="#FFF8E7"/>
<rect id="Rectangle 2" opacity="0.3" width="1440" height="89" fill="#99BBE0"/>
<g id="Rectangle 3" opacity="0.3">
<rect x="35" y="116" width="478" height="880" rx="12" fill="#2E395F"/>
<rect x="35.5" y="116.5" width="477" height="879" rx="11.5" stroke="black" stroke-opacity="0.5"/>
</g>
<g id="Union" opacity="0.3">
<mask id="path-4-inside-1_223_1011" fill="white">
<path d="M513 984C513 990.627 507.627 996 501 996H47C40.3726 996 35 990.627 35 984V620H513V984Z"/>
</mask>
<path d="M513 984C513 990.627 507.627 996 501 996H47C40.3726 996 35 990.627 35 984V620H513V984Z" fill="white"/>
<path d="M501 996V997V996ZM35 620V619H34V620H35ZM513 620H514V619H513V620ZM513 984H512C512 990.075 507.075 995 501 995V996V997C508.18 997 514 991.18 514 984H513ZM501 996V995H47V996V997H501V996ZM47 996V995C40.9249 995 36 990.075 36 984H35H34C34 991.18 39.8203 997 47 997V996ZM35 984H36V620H35H34V984H35ZM35 620V621H513V620V619H35V620ZM513 620H512V984H513H514V620H513Z" fill="black" fill-opacity="0.5" mask="url(#path-4-inside-1_223_1011)"/>
</g>
<circle id="Ellipse 2" opacity="0.3" cx="273.5" cy="309.5" r="128.5" fill="white"/>
<text id="Character&#226;&#128;&#153;s information" opacity="0.3" fill="white" style="white-space: pre" xml:space="preserve" font-family="Roboto" font-size="20" font-weight="bold" letter-spacing="0em"><tspan x="167.709" y="156.336">Character&#x2019;s Information</tspan></text>
<text id="Character&#226;&#128;&#153;s Stats" opacity="0.3" fill="#2E395F" style="white-space: pre" xml:space="preserve" font-family="Roboto" font-size="20" font-weight="bold" letter-spacing="0em"><tspan x="197.006" y="664.336">Character&#x2019;s Stats</tspan></text>
<g id="Name: [Name entered] Age: 22" opacity="0.3">
<text fill="white" style="white-space: pre" xml:space="preserve" font-family="Roboto" font-size="20" letter-spacing="0em"><tspan x="126.574" y="500.336">[Name entered]  </tspan></text>
<text fill="white" style="white-space: pre" xml:space="preserve" font-family="Roboto" font-size="20" letter-spacing="0em"><tspan x="272.668" y="500.336">                     </tspan><tspan x="418.156" y="500.336"> 22</tspan></text>
<text fill="white" style="white-space: pre" xml:space="preserve" font-family="Roboto" font-size="20" font-weight="bold" letter-spacing="0em"><tspan x="63" y="500.336">Name: </tspan><tspan x="376.848" y="500.336">Age:</tspan></text>
</g>
<g id="Main job: Entry-level financial analyst" opacity="0.3">
<text fill="white" style="white-space: pre" xml:space="preserve" font-family="Roboto" font-size="20" letter-spacing="0em"><tspan x="151.086" y="542.336">Entry-level financial analyst</tspan></text>
<text fill="white" style="white-space: pre" xml:space="preserve" font-family="Roboto" font-size="20" font-weight="bold" letter-spacing="0em"><tspan x="63" y="542.336">Main job: </tspan></text>
</g>
<g id="Yearly salary: 180,000,000 VND" opacity="0.3">
<text fill="white" style="white-space: pre" xml:space="preserve" font-family="Roboto" font-size="20" font-weight="bold" letter-spacing="0em"><tspan x="63" y="584.336">Yearly</tspan></text>
<text fill="white" style="white-space: pre" xml:space="preserve" font-family="Roboto" font-size="20" letter-spacing="0em"><tspan x="189.113" y="584.336">180,000,000 VND</tspan></text>
<text fill="white" style="white-space: pre" xml:space="preserve" font-family="Roboto" font-size="20" font-weight="bold" letter-spacing="0em"><tspan x="118.957" y="584.336"> salary: </tspan></text>
</g>
<text id="Cash" opacity="0.3" fill="#2E395F" style="white-space: pre" xml:space="preserve" font-family="Roboto" font-size="20" font-weight="bold" letter-spacing="0em"><tspan x="95" y="723.336">Cash</tspan></text>
<text id="Investment" opacity="0.3" fill="#2E395F" style="white-space: pre" xml:space="preserve" font-family="Roboto" font-size="20" font-weight="bold" letter-spacing="0em"><tspan x="95" y="777.336">Investment</tspan></text>
<text id="Physical health" opacity="0.3" fill="#2E395F" style="white-space: pre" xml:space="preserve" font-family="Roboto" font-size="20" font-weight="bold" letter-spacing="0em"><tspan x="95" y="837.336">Physical health</tspan></text>
<text id="Mental health" opacity="0.3" fill="#2E395F" style="white-space: pre" xml:space="preserve" font-family="Roboto" font-size="20" font-weight="bold" letter-spacing="0em"><tspan x="95" y="920.336">Mental health</tspan></text>
<text id="1,000,000,000,000 VND" opacity="0.3" fill="black" style="white-space: pre" xml:space="preserve" font-family="Roboto" font-size="20" letter-spacing="0em"><tspan x="279.871" y="724.336">1,000,000,000,000 VND</tspan></text>
<text id="1,000,000,000,000 VND_2" opacity="0.3" fill="black" style="white-space: pre" xml:space="preserve" font-family="Roboto" font-size="20" letter-spacing="0em"><tspan x="279.871" y="778.336">1,000,000,000,000 VND</tspan></text>
<text id="50%" opacity="0.3" fill="black" style="white-space: pre" xml:space="preserve" font-family="Roboto" font-size="20" letter-spacing="0em"><tspan x="448.852" y="838.336">50%</tspan></text>
<text id="50%_2" opacity="0.3" fill="black" style="white-space: pre" xml:space="preserve" font-family="Roboto" font-size="20" letter-spacing="0em"><tspan x="449.852" y="921.336">50%</tspan></text>
<path id="Vector" d="M73.0001 720.314V721.757M73.0001 713.157V714.5M71.5716 719.657C71.7459 719.864 71.9653 720.028 72.2129 720.137C72.4605 720.246 72.7298 720.297 73.0001 720.286C73.4133 720.314 73.8213 720.181 74.1383 719.914C74.4553 719.648 74.6567 719.269 74.7001 718.857C74.6567 718.445 74.4553 718.066 74.1383 717.8C73.8213 717.533 73.4133 717.4 73.0001 717.429C72.587 717.457 72.179 717.324 71.862 717.057C71.5449 716.791 71.3435 716.412 71.3001 716C71.3401 715.587 71.5405 715.206 71.8583 714.938C72.1762 714.671 72.5862 714.54 73.0001 714.571C73.2657 714.555 73.5315 714.598 73.7786 714.697C74.0256 714.796 74.2476 714.948 74.4287 715.143M73.0001 725.271C78.0001 725.271 81.5716 723.5 81.5716 719.557C81.5716 715.271 79.4287 712.414 75.143 710.271L76.8287 708.1C76.9143 707.957 76.9608 707.795 76.9634 707.629C76.9659 707.462 76.9245 707.299 76.8433 707.154C76.762 707.008 76.6439 706.888 76.5009 706.803C76.3578 706.718 76.1949 706.673 76.0287 706.671H69.9716C69.8053 706.673 69.6425 706.718 69.4994 706.803C69.3564 706.888 69.2382 707.008 69.157 707.154C69.0758 707.299 69.0344 707.462 69.0369 707.629C69.0395 707.795 69.0859 707.957 69.1716 708.1L70.8573 710.286C66.5716 712.443 64.4287 715.3 64.4287 719.586C64.4287 723.5 68.0001 725.271 73.0001 725.271Z" stroke="black" stroke-linecap="round" stroke-linejoin="round"/>
<path id="Vector_2" d="M82.3216 779.322H64.6787L64.6787 761.679H70.1073V779.322V769.822H75.5359V779.322V765.75H80.9644V779.322" stroke="#000001" stroke-linecap="round" stroke-linejoin="round"/>
<g id="Mask group" opacity="0.3">
<mask id="mask0_223_1011" style="mask-type:alpha" maskUnits="userSpaceOnUse" x="145" y="181" width="257" height="257">
<g id="Ellipse 2_2">
<path d="M402 309.5C402 380.469 344.469 438 273.5 438C202.531 438 145 380.469 145 309.5C145 238.531 202.531 181 273.5 181C344.469 181 402 238.531 402 309.5Z" fill="#FFF8E7"/>
<path d="M402 309.5C402 380.469 344.469 438 273.5 438C202.531 438 145 380.469 145 309.5C145 238.531 202.531 181 273.5 181C344.469 181 402 238.531 402 309.5Z" fill="#FFF8E7"/>
</g>
</mask>
<g mask="url(#mask0_223_1011)">
<g id="Group 2">
<path id="Vector_3" d="M279.619 250.742C281.725 250.313 283.959 252.23 284.578 255.004C284.861 256.269 284.781 257.542 284.353 258.591C283.868 259.78 282.962 260.59 281.859 260.81C281.657 260.852 281.447 260.871 281.24 260.871C279.287 260.871 277.46 259.052 276.903 256.546C276.62 255.281 276.7 254.008 277.128 252.96C277.611 251.773 278.519 250.965 279.619 250.742Z" fill="black"/>
<path id="Vector_4" d="M269.748 252.137C271.85 251.704 274.091 253.625 274.708 256.399C274.99 257.664 274.91 258.937 274.482 259.986C273.997 261.175 273.091 261.985 271.989 262.206C271.786 262.247 271.577 262.266 271.367 262.266C269.411 262.266 267.585 260.447 267.03 257.941C266.747 256.676 266.827 255.403 267.255 254.355C267.738 253.168 268.649 252.358 269.748 252.137Z" fill="black"/>
<path id="Vector_5" d="M273.414 240.527L285.082 242.599L284.014 248.038L272.346 245.967L273.414 240.527Z" fill="black"/>
<path id="Vector_6" d="M265.015 239.698L268.24 244.298L258.389 250.544L255.165 245.943L265.015 239.698Z" fill="black"/>
<path id="Vector_7" d="M218.4 401.161H217.87L221.8 356.671L248.324 328.246L246.869 288.666L239.027 284.98C242.254 255.778 228.305 269.224 229.191 241.783C229.874 220.591 243.552 222.439 249.75 224.379C251.004 221.529 257.922 208.938 279.723 216.254C294.453 221.198 303.149 214.452 303.149 214.452C303.149 214.452 296.562 230.454 282.895 235.229L316.032 278.92L286.825 278.054L289.738 294.282L288.611 294.459C287.768 294.591 286.415 294.749 284.749 294.749C280.632 294.749 273.412 293.732 267.89 287.492C268.173 290.13 269.136 293.907 272.089 297.088C275.912 301.205 282.076 303.308 290.409 303.336L291.259 303.339L298.208 325.84L324.363 343.735L345.928 315.35L346.133 315.503C345.229 312.681 345.439 311.793 345.792 311.324C346.026 311.012 346.382 310.838 346.791 310.838C347.361 310.838 348.214 311.118 350.07 313.121C352.035 306.338 353.433 306.338 353.893 306.338C354.207 306.338 354.508 306.466 354.738 306.693C355.177 307.133 355.601 308.107 355.562 311.705C357.7 309.234 359.205 307.984 360.05 307.984C360.421 307.984 360.747 308.153 360.943 308.445C361.289 308.965 361.416 309.814 359.435 314.054C360.838 313.543 362.673 312.961 363.75 312.961C364.741 312.961 365.069 313.448 365.176 313.738C365.433 314.436 365.298 315.352 361.204 318.633C364.545 319.15 364.586 320.04 364.604 320.409C364.65 321.32 364.051 322.187 356.719 323.495L357.044 323.744L328.15 357.895L299.531 345.568L301.787 382.688L301.846 383.814L301.106 383.827C305.383 393.806 305.282 408.951 301.876 421.278C297.249 438.021 287.98 452.046 284.323 457.158C297.839 457.036 301.876 465.036 301.876 465.036H275.627H269.826H243.579L245.212 459.254H244.228C244.228 459.254 267.617 422.201 254.768 408.8C245.043 398.653 243.472 390.434 244.219 384.853L242.971 384.869L246.264 350.373L233.317 365.31L232.859 401.159H232.017C234.911 403.099 235.163 403.994 234.959 404.659C234.656 405.638 233.292 405.638 232.841 405.638C232.183 405.638 231.347 405.553 230.462 405.354C231.636 408.068 232.868 411.539 232.067 412.676C231.848 412.988 231.498 413.168 231.106 413.168C230.427 413.168 229.446 412.698 227.026 409.67C226.953 411.946 226.702 414.452 225.999 415.128C225.787 415.331 225.516 415.444 225.236 415.444C224.455 415.444 223.738 415.015 222.46 410.088C220.891 412.577 219.644 413.835 218.735 413.835C218.38 413.835 218.059 413.685 217.833 413.415C217.396 412.886 217.144 411.767 218.114 407.465C217.15 407.957 215.998 408.453 215.261 408.453C214.493 408.453 214.199 408 214.108 407.805C213.785 407.119 213.917 405.986 218.4 401.161ZM289.546 305.493C280.962 305.32 274.514 302.977 270.379 298.522C264.595 292.291 265.536 284.285 265.579 283.947L265.973 280.852L267.681 283.514C272.494 291.011 279.619 292.586 284.747 292.586C285.648 292.586 286.443 292.536 287.101 292.469L284.109 275.808L311.476 276.622L281.338 236.882C272.872 239.08 263.603 236.68 253.916 229.798L254.108 265.833L252.152 264.326C249.231 262.301 245.219 260.614 244.055 265.519C241.851 274.816 249.226 277.539 253.008 278.556H254.085V293.268L249.235 290.988L250.576 327.508L295.721 325.487L289.546 305.493ZM359.187 319.93L358.755 318.585C361.826 316.233 362.971 315.059 363.395 314.505C361.983 314.68 359.217 315.748 358.188 316.181L357.145 315.165C358.538 312.341 359.13 310.821 359.374 310.011C358.356 310.897 356.676 312.746 355.325 314.433L353.895 313.938C354.069 310.373 353.891 308.831 353.738 308.179C353.233 308.924 352.415 310.719 351.603 313.522C351.286 314.607 349.82 315.025 349.05 314.226C348 313.141 347.395 312.681 347.076 312.491C347.087 312.933 347.231 313.918 347.964 315.978L355.986 322.085C360.148 321.359 361.879 320.816 362.593 320.504C361.863 320.277 360.508 320.04 359.187 319.93ZM271.11 460.467L271.451 459.254H269.682C278.355 443.349 284.175 431.223 285.846 421.62C289.364 401.391 280.136 393.557 280.136 393.557H267.057C282.178 415.606 264.548 448.627 259.5 457.162C264.848 457.346 268.596 458.825 271.11 460.467ZM249.194 343.586L245.462 382.668L299.44 381.691L297.033 342.12L327.476 355.235L353.836 324.082L346.407 318.416L324.876 346.759L296.878 327.605L296.241 327.633L281.652 328.287L285.687 331.374L282.829 339.257L287.939 365.598L280.525 374.564L272.979 366.287L276.522 339.705L270.98 332.287L274.382 328.617L269.591 328.831L250.009 329.708L224.002 357.579L220.345 399.002H230.6L231.04 364.528L249.194 343.586ZM218.863 405.287L220.069 406.099C219.152 409.761 219.006 411.357 219.027 412.035C219.739 411.34 220.985 409.566 222.062 407.665L223.542 407.86C224.257 410.905 224.769 412.451 225.099 413.235C225.334 411.94 225.468 409.503 225.452 407.385L226.9 406.944C229.086 409.893 230.218 411 230.735 411.414C230.66 410.539 230.15 408.637 228.982 405.939C228.761 405.438 228.808 404.888 229.102 404.466C229.366 404.087 229.799 403.87 230.282 403.87L230.546 403.894C231.778 404.091 232.773 404.158 233.223 404.111C232.911 403.749 232.094 402.995 229.961 401.677H220.044C217.191 404.704 216.164 406.153 215.798 406.82C216.581 406.554 217.859 405.902 218.863 405.287Z" fill="black"/>
</g>
</g>
</g>
<path id="Vector_8" d="M64.7873 827.849C65.4794 824.511 69.5916 822 73.5001 826.438C79.078 820.046 85.0359 827.972 80.9916 832.057L73.5001 838.964L69.1166 834.893M64.6787 831.5H68.0716L70.1073 828.786L72.8216 833.536L74.8573 830.822H76.893" stroke="#000001" stroke-linecap="round" stroke-linejoin="round"/>
<rect id="Rectangle 6" opacity="0.3" x="63" y="851" width="423" height="11" rx="5.5" fill="#D9D9D9"/>
<rect id="Rectangle 8" opacity="0.3" x="64" y="934" width="423" height="11" rx="5.5" fill="#D9D9D9"/>
<rect id="Rectangle 7" opacity="0.3" x="63" y="851" width="216" height="11" rx="5.5" fill="#849E51"/>
<rect id="Rectangle 9" opacity="0.3" x="64" y="934" width="216" height="11" rx="5.5" fill="#C4343B"/>
<path id="Vector_9" d="M69.7574 915.286C70.4002 917.6 72.9716 919.014 75.2859 918.372C76.7002 917.857 77.8574 916.7 78.2431 915.286M82.3574 914C82.3574 918.616 78.6157 922.357 74.0002 922.357C69.3847 922.357 65.6431 918.616 65.6431 914C65.6431 909.385 69.3847 905.643 74.0002 905.643C78.6157 905.643 82.3574 909.385 82.3574 914ZM71.1716 911.943C71.0296 911.943 70.9145 911.828 70.9145 911.686C70.9145 911.544 71.0296 911.429 71.1716 911.429C71.3137 911.429 71.4288 911.544 71.4288 911.686C71.4288 911.828 71.3137 911.943 71.1716 911.943ZM76.8288 911.943C76.6868 911.943 76.5716 911.828 76.5716 911.686C76.5716 911.544 76.6868 911.429 76.8288 911.429C76.9708 911.429 77.0859 911.544 77.0859 911.686C77.0859 911.828 76.9708 911.943 76.8288 911.943Z" stroke="#000001" stroke-linecap="round" stroke-linejoin="round"/>
<g id="Group 3" opacity="0.3">
<rect id="Rectangle 14" x="70" y="26" width="134" height="36" rx="11" fill="#2E395F"/>
<text id="Information" fill="#FFF8E7" style="white-space: pre" xml:space="preserve" font-family="Roboto" font-size="20" font-weight="bold" letter-spacing="0em"><tspan x="84.2754" y="51.3359">Information</tspan></text>
</g>
<g id="Group 4" opacity="0.3">
<rect id="Rectangle 14_2" x="304" y="26" width="134" height="36" rx="11" fill="#2E395F"/>
<text id="Decisions" fill="#FFF8E7" style="white-space: pre" xml:space="preserve" font-family="Roboto" font-size="20" font-weight="bold" letter-spacing="0em"><tspan x="327.064" y="51.3359">Decisions</tspan></text>
</g>
<g id="Rotate ccw" opacity="0.3">
<path id="Icon" d="M1374 39.9999H1362V27.9999M1362 39.9999L1371.28 31.2799C1374.04 28.5227 1377.62 26.7378 1381.49 26.1941C1385.35 25.6504 1389.29 26.3774 1392.71 28.2654C1396.12 30.1535 1398.83 33.1004 1400.43 36.6621C1402.02 40.2238 1402.41 44.2074 1401.55 48.0126C1400.68 51.8178 1398.6 55.2386 1395.62 57.7594C1392.65 60.2802 1388.93 61.7646 1385.03 61.9888C1381.14 62.2131 1377.27 61.165 1374.02 59.0027C1370.77 56.8403 1368.32 53.6807 1367.02 49.9999" stroke="#1E1E1E" stroke-width="4" stroke-linecap="round" stroke-linejoin="round"/>
</g>
<g id="Market Information">
<g clip-path="url(#clip1_223_1011)">
<rect x="543" y="565" width="865" height="425" rx="12" fill="white"/>
<text id="Market Information_2" fill="#2E395F" style="white-space: pre" xml:space="preserve" font-family="Roboto" font-size="20" font-weight="bold" letter-spacing="0em"><tspan x="566.862" y="610.294">Market Information</tspan></text>
<text id="Lorem ipsum dolor sit amet, consectetur adipiscing elit. Vestibulum scelerisque, nibh at euismod ornare, lorem turpis pretium diam, et scelerisque ex felis a magna. Aliquam dignissim, neque vitae rhoncus porttitor, lectus felis aliquet libero, id sagittis sem diam at quam. Phasellus accumsan in lorem et molestie. Aliquam erat volutpat. Suspendisse laoreet augue et mi eleifend, elementum venenatis odio elementum. Praesent sit amet est ultrices, dignissim nisl eget, euismod dolor. Maecenas suscipit metus nec magna rutrum feugiat. Nullam lacus arcu, blandit eget laoreet venenatis, vulputate in felis. Duis id nisi ornare, laoreet sapien auctor, iaculis diam. Ut mauris nisi, hendrerit nec ornare in, volutpat eu dolor. Duis non nisi at lorem pulvinar commodo in at arcu. Lorem ipsum dolor sit amet, consectetur adipiscing elit. Mauris eu mi eget nibh aliquet eleifend. Duis id justo sit amet felis cursus suscipit. Vivamus sit amet dignissim tellus. Nam eget tincidunt enim. Phasellus a semper eros. Sed efficitur condimentum egestas. Lorem ipsum dolor sit amet, consectetur adipiscing elit. Sed rhoncus dui vitae nisi fringilla sollicitudin. Vivamus sit amet vulputate arcu. Proin bibendum eu nisl ut gravida. Vivamus sit amet neque non urna egestas lobortis sed eget mi. Nullam pretium dolor sit amet lacus sagittis, eu tincidunt eros porta. Proin vel rutrum tellus. Suspendisse cursus hendrerit elementum. Phasellus tellus ipsum, tincidunt eget tincidunt laoreet, dapibus eu sem. Quisque nec purus ut metus blandit tempus bibendum sed enim. Etiam nec felis non mi lobortis posuere quis ut sem. In vulputate eros est, sagittis commodo purus sagittis vitae. Ut vehicula nulla non est tempor, sit amet bibendum felis feugiat. Sed molestie sollicitudin neque, hendrerit pellentesque nisi semper sodales. Nunc tempor commodo libero vitae varius. Donec imperdiet risus elit, vitae iaculis mi finibus ac. Phasellus lobortis accumsan lacus sit amet congue. Vestibulum malesuada, metus tincidunt egestas fermentum, sem lectus pellentesque ipsum, ut mollis enim mauris efficitur erat. Aliquam maximus nulla quis gravida sodales. Integer laoreet et risus et consectetur. Morbi sagittis mauris sed tellus fermentum finibus. Nunc eu eros sodales, ultricies velit ultrices, gravida nunc. Sed vitae metus ultricies, sodales libero quis, lobortis enim. Praesent sollicitudin, nibh in volutpat rutrum, magna turpis sodales elit, in venenatis massa ex ut ante." fill="black" style="white-space: pre" xml:space="preserve" font-family="Roboto" font-size="20" letter-spacing="0em"><tspan x="566.862" y="651.24">Lorem </tspan><tspan x="631.67" y="651.24">ipsum </tspan><tspan x="694.543" y="651.24">dolor </tspan><tspan x="748.159" y="651.24">sit </tspan><tspan x="777.772" y="651.24">amet, </tspan><tspan x="835.157" y="651.24">consectetur </tspan><tspan x="948.871" y="651.24">adipiscing </tspan><tspan x="1047.82" y="651.24">elit. </tspan><tspan x="1087.84" y="651.24">Vestibulum </tspan><tspan x="1196.07" y="651.24">scelerisque, </tspan><tspan x="1309.74" y="651.24">nibh </tspan><tspan x="1355.78" y="651.24">at </tspan><tspan x="566.862" y="674.24">euismod </tspan><tspan x="654.018" y="674.24">ornare, </tspan><tspan x="725.373" y="674.24">lorem </tspan><tspan x="786.474" y="674.24">turpis </tspan><tspan x="847.341" y="674.24">pretium </tspan><tspan x="925.844" y="674.24">diam, </tspan><tspan x="984.446" y="674.24">et </tspan><tspan x="1011.68" y="674.24">scelerisque </tspan><tspan x="1123.62" y="674.24">ex </tspan><tspan x="1154.23" y="674.24">felis </tspan><tspan x="1201.7" y="674.24">a </tspan><tspan x="1222.67" y="674.24">magna. </tspan><tspan x="1299.61" y="674.24">Aliquam </tspan><tspan x="566.862" y="697.24">dignissim, </tspan><tspan x="663.672" y="697.24">neque </tspan><tspan x="724.837" y="697.24">vitae </tspan><tspan x="773.912" y="697.24">rhoncus </tspan><tspan x="852.499" y="697.24">porttitor, </tspan><tspan x="934.133" y="697.24">lectus </tspan><tspan x="994.478" y="697.24">felis </tspan><tspan x="1038.36" y="697.24">aliquet </tspan><tspan x="1105.01" y="697.24">libero, </tspan><tspan x="1165.01" y="697.24">id </tspan><tspan x="1187.65" y="697.24">sagittis </tspan><tspan x="1259.74" y="697.24">sem </tspan><tspan x="1304.71" y="697.24">diam </tspan><tspan x="1355.78" y="697.24">at </tspan><tspan x="566.862" y="720.24">quam. </tspan><tspan x="633.56" y="720.24">Phasellus </tspan><tspan x="730.708" y="720.24">accumsan </tspan><tspan x="833.969" y="720.24">in </tspan><tspan x="860.491" y="720.24">lorem </tspan><tspan x="922.112" y="720.24">et </tspan><tspan x="949.865" y="720.24">molestie. </tspan><tspan x="1042.5" y="720.24">Aliquam </tspan><tspan x="1126.7" y="720.24">erat </tspan><tspan x="1171.72" y="720.24">volutpat. </tspan><tspan x="1259.65" y="720.24">Suspendisse </tspan><tspan x="566.862" y="743.24">laoreet </tspan><tspan x="634.334" y="743.24">augue </tspan><tspan x="695.087" y="743.24">et </tspan><tspan x="718.203" y="743.24">mi </tspan><tspan x="746.573" y="743.24">eleifend, </tspan><tspan x="827.091" y="743.24">elementum </tspan><tspan x="933.45" y="743.24">venenatis </tspan><tspan x="1024.93" y="743.24">odio </tspan><tspan x="1069.86" y="743.24">elementum. </tspan><tspan x="1181.49" y="743.24">Praesent </tspan><tspan x="1266.48" y="743.24">sit </tspan><tspan x="1294.19" y="743.24">amet </tspan><tspan x="1345.72" y="743.24">est </tspan><tspan x="566.862" y="766.24">ultrices, </tspan><tspan x="643.402" y="766.24">dignissim </tspan><tspan x="736.876" y="766.24">nisl </tspan><tspan x="775.097" y="766.24">eget, </tspan><tspan x="825.133" y="766.24">euismod </tspan><tspan x="909.31" y="766.24">dolor. </tspan><tspan x="966.241" y="766.24">Maecenas </tspan><tspan x="1065.63" y="766.24">suscipit </tspan><tspan x="1142.41" y="766.24">metus </tspan><tspan x="1205.57" y="766.24">nec </tspan><tspan x="1244.81" y="766.24">magna </tspan><tspan x="1313.49" y="766.24">rutrum </tspan><tspan x="566.862" y="789.24">feugiat. </tspan><tspan x="642.237" y="789.24">Nullam </tspan><tspan x="713.921" y="789.24">lacus </tspan><tspan x="769.725" y="789.24">arcu, </tspan><tspan x="820.881" y="789.24">blandit </tspan><tspan x="889.831" y="789.24">eget </tspan><tspan x="937.041" y="789.24">laoreet </tspan><tspan x="1006.77" y="789.24">venenatis, </tspan><tspan x="1104.45" y="789.24">vulputate </tspan><tspan x="1195.1" y="789.24">in </tspan><tspan x="1219.24" y="789.24">felis. </tspan><tspan x="1270.13" y="789.24">Duis </tspan><tspan x="1317.71" y="789.24">id </tspan><tspan x="1342.09" y="789.24">nisi </tspan><tspan x="566.862" y="812.24">ornare, </tspan><tspan x="634.367" y="812.24">laoreet </tspan><tspan x="702.107" y="812.24">sapien </tspan><tspan x="767.308" y="812.24">auctor, </tspan><tspan x="833.212" y="812.24">iaculis </tspan><tspan x="896.752" y="812.24">diam. </tspan><tspan x="952.832" y="812.24">Ut </tspan><tspan x="978.579" y="812.24">mauris </tspan><tspan x="1046.24" y="812.24">nisi, </tspan><tspan x="1087.54" y="812.24">hendrerit </tspan><tspan x="1173.13" y="812.24">nec </tspan><tspan x="1211.49" y="812.24">ornare </tspan><tspan x="1275.05" y="812.24">in, </tspan><tspan x="1301.15" y="812.24">volutpat </tspan><tspan x="566.862" y="835.24">eu </tspan><tspan x="594.408" y="835.24">dolor. </tspan><tspan x="650.137" y="835.24">Duis </tspan><tspan x="695.398" y="835.24">non </tspan><tspan x="734.819" y="835.24">nisi </tspan><tspan x="771.837" y="835.24">at </tspan><tspan x="795.164" y="835.24">lorem </tspan><tspan x="852.085" y="835.24">pulvinar </tspan><tspan x="928.381" y="835.24">commodo </tspan><tspan x="1025.34" y="835.24">in </tspan><tspan x="1047.16" y="835.24">at </tspan><tspan x="1070.49" y="835.24">arcu. </tspan><tspan x="1120.65" y="835.24">Lorem </tspan><tspan x="1183.49" y="835.24">ipsum </tspan><tspan x="1244.4" y="835.24">dolor </tspan><tspan x="1296.05" y="835.24">sit </tspan><tspan x="1323.69" y="835.24">amet, </tspan><tspan x="566.862" y="858.24">consectetur </tspan><tspan x="679.272" y="858.24">adipiscing </tspan><tspan x="776.917" y="858.24">elit. </tspan><tspan x="815.635" y="858.24">Mauris </tspan><tspan x="883.553" y="858.24">eu </tspan><tspan x="911.764" y="858.24">mi </tspan><tspan x="940.737" y="858.24">eget </tspan><tspan x="986.291" y="858.24">nibh </tspan><tspan x="1031.03" y="858.24">aliquet </tspan><tspan x="1097.75" y="858.24">eleifend. </tspan><tspan x="1180.2" y="858.24">Duis </tspan><tspan x="1226.13" y="858.24">id </tspan><tspan x="1248.85" y="858.24">justo </tspan><tspan x="1299.33" y="858.24">sit </tspan><tspan x="1327.63" y="858.24">amet </tspan><tspan x="566.862" y="881.24">felis </tspan><tspan x="609.206" y="881.24">cursus </tspan><tspan x="674.147" y="881.24">suscipit. </tspan><tspan x="754.05" y="881.24">Vivamus </tspan><tspan x="835.944" y="881.24">sit </tspan><tspan x="862.643" y="881.24">amet </tspan><tspan x="913.171" y="881.24">dignissim </tspan><tspan x="1004.5" y="881.24">tellus. </tspan><tspan x="1062.98" y="881.24">Nam </tspan><tspan x="1110.63" y="881.24">eget </tspan><tspan x="1154.58" y="881.24">tincidunt </tspan><tspan x="1237.25" y="881.24">enim.&#10;</tspan><tspan x="566.862" y="904.24">&#10;</tspan><tspan x="566.862" y="927.24">Phasellus </tspan><tspan x="659.103" y="927.24">a </tspan><tspan x="675.679" y="927.24">semper </tspan><tspan x="748.466" y="927.24">eros. </tspan><tspan x="798.363" y="927.24">Sed </tspan><tspan x="837.83" y="927.24">efficitur </tspan><tspan x="910.891" y="927.24">condimentum </tspan><tspan x="1039.99" y="927.24">egestas. </tspan><tspan x="1121.49" y="927.24">Lorem </tspan><tspan x="1184.12" y="927.24">ipsum </tspan><tspan x="1244.81" y="927.24">dolor </tspan><tspan x="1296.25" y="927.24">sit </tspan><tspan x="1323.69" y="927.24">amet, </tspan><tspan x="566.862" y="950.24">consectetur </tspan><tspan x="682.138" y="950.24">adipiscing </tspan><tspan x="782.649" y="950.24">elit. </tspan><tspan x="824.234" y="950.24">Sed </tspan><tspan x="867.44" y="950.24">rhoncus </tspan><tspan x="948.966" y="950.24">dui </tspan><tspan x="985.59" y="950.24">vitae </tspan><tspan x="1037.6" y="950.24">nisi </tspan><tspan x="1078.15" y="950.24">fringilla </tspan><tspan x="1153.94" y="950.24">sollicitudin. </tspan><tspan x="1265.09" y="950.24">Vivamus </tspan><tspan x="1351.46" y="950.24">sit </tspan><tspan x="566.862" y="973.24">amet </tspan><tspan x="618.562" y="973.24">vulputate </tspan><tspan x="707.118" y="973.24">arcu. </tspan><tspan x="757.509" y="973.24">Proin </tspan><tspan x="810.166" y="973.24">bibendum </tspan><tspan x="905.147" y="973.24">eu </tspan><tspan x="932.921" y="973.24">nisl </tspan><tspan x="970.168" y="973.24">ut </tspan><tspan x="993.88" y="973.24">gravida. </tspan><tspan x="1070.37" y="973.24">Vivamus </tspan><tspan x="1153.43" y="973.24">sit </tspan><tspan x="1181.3" y="973.24">amet </tspan><tspan x="1233" y="973.24">neque </tspan><tspan x="1293.81" y="973.24">non </tspan><tspan x="1333.46" y="973.24">urna </tspan><tspan x="566.862" y="996.24">egestas </tspan><tspan x="645.668" y="996.24">lobortis </tspan><tspan x="721.858" y="996.24">sed </tspan><tspan x="762.363" y="996.24">eget </tspan><tspan x="809.627" y="996.24">mi. </tspan><tspan x="845.582" y="996.24">Nullam </tspan><tspan x="917.318" y="996.24">pretium </tspan><tspan x="994.015" y="996.24">dolor </tspan><tspan x="1048.04" y="996.24">sit </tspan><tspan x="1078.05" y="996.24">amet </tspan><tspan x="1131.9" y="996.24">lacus </tspan><tspan x="1187.76" y="996.24">sagittis, </tspan><tspan x="1265.57" y="996.24">eu </tspan><tspan x="1295.49" y="996.24">tincidunt </tspan><tspan x="566.862" y="1019.24">eros </tspan><tspan x="610.749" y="1019.24">porta. </tspan><tspan x="668.307" y="1019.24">Proin </tspan><tspan x="719.792" y="1019.24">vel </tspan><tspan x="749.792" y="1019.24">rutrum </tspan><tspan x="814.46" y="1019.24">tellus. </tspan><tspan x="872.936" y="1019.24">Suspendisse </tspan><tspan x="991.452" y="1019.24">cursus </tspan><tspan x="1056.39" y="1019.24">hendrerit </tspan><tspan x="1140.71" y="1019.24">elementum.&#10;</tspan><tspan x="566.862" y="1042.24">&#10;</tspan><tspan x="566.862" y="1065.24">Phasellus </tspan><tspan x="658.484" y="1065.24">tellus </tspan><tspan x="711.805" y="1065.24">ipsum, </tspan><tspan x="775.83" y="1065.24">tincidunt </tspan><tspan x="858.624" y="1065.24">eget </tspan><tspan x="902.687" y="1065.24">tincidunt </tspan><tspan x="985.481" y="1065.24">laoreet, </tspan><tspan x="1056.01" y="1065.24">dapibus </tspan><tspan x="1131.95" y="1065.24">eu </tspan><tspan x="1158.67" y="1065.24">sem. </tspan><tspan x="1207.5" y="1065.24">Quisque </tspan><tspan x="1285.58" y="1065.24">nec </tspan><tspan x="1322.79" y="1065.24">purus </tspan><tspan x="566.862" y="1088.24">ut </tspan><tspan x="590.179" y="1088.24">metus </tspan><tspan x="651.972" y="1088.24">blandit </tspan><tspan x="718.434" y="1088.24">tempus </tspan><tspan x="791.458" y="1088.24">bibendum </tspan><tspan x="886.044" y="1088.24">sed </tspan><tspan x="924.01" y="1088.24">enim. </tspan><tspan x="979.084" y="1088.24">Etiam </tspan><tspan x="1036.01" y="1088.24">nec </tspan><tspan x="1073.88" y="1088.24">felis </tspan><tspan x="1117" y="1088.24">non </tspan><tspan x="1156.26" y="1088.24">mi </tspan><tspan x="1184.4" y="1088.24">lobortis </tspan><tspan x="1258.05" y="1088.24">posuere </tspan><tspan x="1335.6" y="1088.24">quis </tspan><tspan x="566.862" y="1111.24">ut </tspan><tspan x="590.599" y="1111.24">sem. </tspan><tspan x="640.508" y="1111.24">In </tspan><tspan x="663.17" y="1111.24">vulputate </tspan><tspan x="751.751" y="1111.24">eros </tspan><tspan x="796.835" y="1111.24">est, </tspan><tspan x="834.42" y="1111.24">sagittis </tspan><tspan x="906.164" y="1111.24">commodo </tspan><tspan x="1003.38" y="1111.24">purus </tspan><tspan x="1059.95" y="1111.24">sagittis </tspan><tspan x="1131.69" y="1111.24">vitae. </tspan><tspan x="1185.7" y="1111.24">Ut </tspan><tspan x="1211.37" y="1111.24">vehicula </tspan><tspan x="1290.83" y="1111.24">nulla </tspan><tspan x="1339.69" y="1111.24">non </tspan><tspan x="566.862" y="1134.24">est </tspan><tspan x="604.013" y="1134.24">tempor, </tspan><tspan x="680.539" y="1134.24">sit </tspan><tspan x="711.948" y="1134.24">amet </tspan><tspan x="767.186" y="1134.24">bibendum </tspan><tspan x="865.704" y="1134.24">felis </tspan><tspan x="912.758" y="1134.24">feugiat. </tspan><tspan x="989.577" y="1134.24">Sed </tspan><tspan x="1033.02" y="1134.24">molestie </tspan><tspan x="1119.45" y="1134.24">sollicitudin </tspan><tspan x="1225.56" y="1134.24">neque, </tspan><tspan x="1293.85" y="1134.24">hendrerit </tspan><tspan x="566.862" y="1157.24">pellentesque </tspan><tspan x="691.568" y="1157.24">nisi </tspan><tspan x="733.677" y="1157.24">semper </tspan><tspan x="811.762" y="1157.24">sodales. </tspan><tspan x="897.738" y="1157.24">Nunc </tspan><tspan x="955.569" y="1157.24">tempor </tspan><tspan x="1030.67" y="1157.24">commodo </tspan><tspan x="1132.72" y="1157.24">libero </tspan><tspan x="1193.26" y="1157.24">vitae </tspan><tspan x="1246.83" y="1157.24">varius. </tspan><tspan x="1316.54" y="1157.24">Donec </tspan><tspan x="566.862" y="1180.24">imperdiet </tspan><tspan x="656.967" y="1180.24">risus </tspan><tspan x="706.27" y="1180.24">elit, </tspan><tspan x="743.054" y="1180.24">vitae </tspan><tspan x="791.596" y="1180.24">iaculis </tspan><tspan x="854.865" y="1180.24">mi </tspan><tspan x="883.231" y="1180.24">finibus </tspan><tspan x="948.805" y="1180.24">ac. </tspan><tspan x="981.39" y="1180.24">Phasellus </tspan><tspan x="1073.9" y="1180.24">lobortis </tspan><tspan x="1147.77" y="1180.24">accumsan </tspan><tspan x="1246.39" y="1180.24">lacus </tspan><tspan x="1299.93" y="1180.24">sit </tspan><tspan x="1327.63" y="1180.24">amet </tspan><tspan x="566.862" y="1203.24">congue. </tspan><tspan x="654.647" y="1203.24">Vestibulum </tspan><tspan x="771.709" y="1203.24">malesuada, </tspan><tspan x="890.665" y="1203.24">metus </tspan><tspan x="963.43" y="1203.24">tincidunt </tspan><tspan x="1057.86" y="1203.24">egestas </tspan><tspan x="1145.09" y="1203.24">fermentum, </tspan><tspan x="1264.17" y="1203.24">sem </tspan><tspan x="1319.35" y="1203.24">lectus </tspan><tspan x="566.862" y="1226.24">pellentesque </tspan><tspan x="690.91" y="1226.24">ipsum, </tspan><tspan x="760.191" y="1226.24">ut </tspan><tspan x="788.106" y="1226.24">mollis </tspan><tspan x="852.31" y="1226.24">enim </tspan><tspan x="906.709" y="1226.24">mauris </tspan><tspan x="978.471" y="1226.24">efficitur </tspan><tspan x="1056.17" y="1226.24">erat. </tspan><tspan x="1106.2" y="1226.24">Aliquam </tspan><tspan x="1190.13" y="1226.24">maximus </tspan><tspan x="1282.57" y="1226.24">nulla </tspan><tspan x="1335.6" y="1226.24">quis </tspan><tspan x="566.862" y="1249.24">gravida </tspan><tspan x="639.918" y="1249.24">sodales. </tspan><tspan x="722.876" y="1249.24">Integer </tspan><tspan x="793.12" y="1249.24">laoreet </tspan><tspan x="862.601" y="1249.24">et </tspan><tspan x="887.728" y="1249.24">risus </tspan><tspan x="939.045" y="1249.24">et </tspan><tspan x="964.172" y="1249.24">consectetur. </tspan><tspan x="1082.07" y="1249.24">Morbi </tspan><tspan x="1141.79" y="1249.24">sagittis </tspan><tspan x="1215.35" y="1249.24">mauris </tspan><tspan x="1284.75" y="1249.24">sed </tspan><tspan x="1324.96" y="1249.24">tellus </tspan><tspan x="566.862" y="1272.24">fermentum </tspan><tspan x="673.233" y="1272.24">finibus. </tspan><tspan x="746.07" y="1272.24">Nunc </tspan><tspan x="800.859" y="1272.24">eu </tspan><tspan x="830.453" y="1272.24">eros </tspan><tspan x="877.332" y="1272.24">sodales, </tspan><tspan x="958.938" y="1272.24">ultricies </tspan><tspan x="1037.24" y="1272.24">velit </tspan><tspan x="1081.64" y="1272.24">ultrices, </tspan><tspan x="1159.03" y="1272.24">gravida </tspan><tspan x="1232.06" y="1272.24">nunc. </tspan><tspan x="1288.9" y="1272.24">Sed </tspan><tspan x="1330.62" y="1272.24">vitae </tspan><tspan x="566.862" y="1295.24">metus </tspan><tspan x="631.316" y="1295.24">ultricies, </tspan><tspan x="714.012" y="1295.24">sodales </tspan><tspan x="792.119" y="1295.24">libero </tspan><tspan x="850.069" y="1295.24">quis, </tspan><tspan x="900.012" y="1295.24">lobortis </tspan><tspan x="976.321" y="1295.24">enim. </tspan><tspan x="1034.06" y="1295.24">Praesent </tspan><tspan x="1121.48" y="1295.24">sollicitudin, </tspan><tspan x="1230.27" y="1295.24">nibh </tspan><tspan x="1276.83" y="1295.24">in </tspan><tspan x="1301.15" y="1295.24">volutpat </tspan><tspan x="566.862" y="1318.24">rutrum, </tspan><tspan x="635.475" y="1318.24">magna </tspan><tspan x="702.018" y="1318.24">turpis </tspan><tspan x="757.76" y="1318.24">sodales </tspan><tspan x="832.428" y="1318.24">elit, </tspan><tspan x="868.21" y="1318.24">in </tspan><tspan x="889.089" y="1318.24">venenatis </tspan><tspan x="979.557" y="1318.24">massa </tspan><tspan x="1044.48" y="1318.24">ex </tspan><tspan x="1069.97" y="1318.24">ut </tspan><tspan x="1092.51" y="1318.24">ante.</tspan></text>
</g>
<rect x="543.5" y="565.5" width="864" height="424" rx="11.5" stroke="#565656" stroke-opacity="0.5"/>
</g>
<g id="Personal Information">
<rect x="543" y="117" width="865" height="425" rx="12" fill="white"/>
<rect x="543.5" y="117.5" width="864" height="424" rx="11.5" stroke="#565656" stroke-opacity="0.5"/>
<g id="Group 60">
<text id="Personal Information_2" fill="#2E395F" style="white-space: pre" xml:space="preserve" font-family="Roboto" font-size="20" font-weight="bold" letter-spacing="0em"><tspan x="575" y="167.336">Personal Information</tspan></text>
<g id="Group 8">
<rect id="Rectangle 16" x="573" y="209" width="806" height="130" rx="12" fill="#F08787" fill-opacity="0.6"/>
<text id="You somehow managed to fall, sprain your ankle, and now you end up in the hospital" fill="black" style="white-space: pre" xml:space="preserve" font-family="Roboto" font-size="20" letter-spacing="0em"><tspan x="597" y="277.336">You </tspan><tspan x="635.789" y="277.336">somehow </tspan><tspan x="728.094" y="277.336">managed </tspan><tspan x="816.531" y="277.336">to </tspan><tspan x="839.246" y="277.336">fall, </tspan><tspan x="875.711" y="277.336">sprain </tspan><tspan x="935.418" y="277.336">your </tspan><tspan x="978.934" y="277.336">ankle, </tspan><tspan x="1035.38" y="277.336">and </tspan><tspan x="1073.56" y="277.336">now </tspan><tspan x="1116.02" y="277.336">you </tspan><tspan x="1152.76" y="277.336">end </tspan><tspan x="1190.67" y="277.336">up </tspan><tspan x="1217.9" y="277.336">in </tspan><tspan x="1238.78" y="277.336">the </tspan><tspan x="1271.9" y="277.336">hospital</tspan></text>
<text id="-3,000,000 VND, -10 Physical health" fill="#C4343B" style="white-space: pre" xml:space="preserve" font-family="Roboto" font-size="20" font-weight="bold" letter-spacing="0em"><tspan x="597" y="312.336">-3,000,000 </tspan><tspan x="700.105" y="312.336">VND, </tspan><tspan x="749.07" y="312.336">-10 </tspan><tspan x="784.91" y="312.336">Physical </tspan><tspan x="866.062" y="312.336">health</tspan></text>
<text id="Sickness" fill="black" style="white-space: pre" xml:space="preserve" font-family="Roboto" font-size="20" font-weight="bold" letter-spacing="0em"><tspan x="597" y="243.336">Sickness</tspan></text>
</g>
<g id="Group 9">
<rect id="Rectangle 17" x="573" y="380" width="806" height="130" rx="12" fill="#A3DC9A" fill-opacity="0.6"/>
<text id="You won the lottery and received a small amount of money" fill="black" style="white-space: pre" xml:space="preserve" font-family="Roboto" font-size="20" letter-spacing="0em"><tspan x="597" y="448.336">You </tspan><tspan x="635.789" y="448.336">won </tspan><tspan x="678.25" y="448.336">the </tspan><tspan x="711.375" y="448.336">lottery </tspan><tspan x="772.723" y="448.336">and </tspan><tspan x="810.906" y="448.336">received </tspan><tspan x="890.477" y="448.336">a </tspan><tspan x="906.316" y="448.336">small </tspan><tspan x="959.754" y="448.336">amount </tspan><tspan x="1033.17" y="448.336">of </tspan><tspan x="1056.49" y="448.336">money</tspan></text>
<text id="+2,000,000 VND, + 10 Mental health" fill="#3C5227" style="white-space: pre" xml:space="preserve" font-family="Roboto" font-size="20" font-weight="bold" letter-spacing="0em"><tspan x="597" y="483.336">+2,000,000 </tspan><tspan x="703.113" y="483.336">VND, </tspan><tspan x="752.078" y="483.336">+ </tspan><tspan x="767.957" y="483.336">10 </tspan><tspan x="795.906" y="483.336">Mental </tspan><tspan x="863.191" y="483.336">health</tspan></text>
<text id="Lottery" fill="black" style="white-space: pre" xml:space="preserve" font-family="Roboto" font-size="20" font-weight="bold" letter-spacing="0em"><tspan x="597" y="414.336">Lottery</tspan></text>
</g>
</g>
</g>
<g id="Group 58">
<rect id="Rectangle 38" width="446" height="151" rx="12" transform="matrix(-1 0 0 1 503 245)" fill="#3C5227"/>
<path id="Polygon 1" d="M552.562 250.887C554.815 249.132 553.575 245.52 550.719 245.52L481.954 245.52L502.954 289.52L552.562 250.887Z" fill="#3C5227"/>
</g>
<g id="Group 59">
<rect id="Rectangle 38_2" width="446" height="155" rx="12" transform="matrix(-1 0 0 1 503 657)" fill="#3C5227"/>
<path id="Polygon 1_2" d="M552.562 662.887C554.815 661.132 553.575 657.52 550.719 657.52L481.954 657.52L502.954 701.52L552.562 662.887Z" fill="#3C5227"/>
</g>
<g id="Personal information panel: Here you can view surprise life scenarios which can be either good or bad. Each event will immediately affect your character&#226;&#128;&#153;s stats, so be prepared for the unexpected!">
<text fill="white" style="white-space: pre" xml:space="preserve" font-family="Roboto" font-size="20" font-weight="bold" letter-spacing="0em"><tspan x="76" y="280.336">Personal </tspan><tspan x="167.531" y="280.336">information </tspan><tspan x="284.277" y="280.336">panel: </tspan></text>
<text fill="white" style="white-space: pre" xml:space="preserve" font-family="Roboto" font-size="20" letter-spacing="0em"><tspan x="351.043" y="280.336">Here </tspan><tspan x="404.977" y="280.336">you </tspan><tspan x="448.598" y="280.336">can </tspan><tspan x="76" y="303.336">view </tspan><tspan x="128.269" y="303.336">surprise </tspan><tspan x="212.296" y="303.336">life </tspan><tspan x="251.42" y="303.336">scenarios </tspan><tspan x="350.212" y="303.336">which </tspan><tspan x="414.688" y="303.336">can </tspan><tspan x="459.164" y="303.336">be </tspan><tspan x="76" y="326.336">either </tspan><tspan x="148.207" y="326.336">good </tspan><tspan x="215.336" y="326.336">or </tspan><tspan x="255.316" y="326.336">bad. </tspan><tspan x="315.785" y="326.336">Each </tspan><tspan x="381.312" y="326.336">event </tspan><tspan x="451.371" y="326.336">will </tspan><tspan x="76" y="349.336">immediately </tspan><tspan x="192.559" y="349.336">affect </tspan><tspan x="252.223" y="349.336">your </tspan><tspan x="298.273" y="349.336">character&#x2019;s </tspan><tspan x="403.191" y="349.336">stats, </tspan><tspan x="459.262" y="349.336">so </tspan><tspan x="76" y="372.336">be </tspan><tspan x="102.797" y="372.336">prepared </tspan><tspan x="186.801" y="372.336">for </tspan><tspan x="216.898" y="372.336">the </tspan><tspan x="250.023" y="372.336">unexpected!</tspan></text>
</g>
<g id="Market information panel: Here you can view the overall market condition of the current round. Pay attention to these information since they will affect your later financial decisions related to investment.">
<text fill="white" style="white-space: pre" xml:space="preserve" font-family="Roboto" font-size="20" font-weight="bold" letter-spacing="0em"><tspan x="77" y="696.336">Market </tspan><tspan x="146.479" y="696.336">information </tspan><tspan x="257.228" y="696.336">panel: </tspan></text>
<text fill="white" style="white-space: pre" xml:space="preserve" font-family="Roboto" font-size="20" letter-spacing="0em"><tspan x="317.996" y="696.336">Here </tspan><tspan x="365.932" y="696.336">you </tspan><tspan x="403.556" y="696.336">can </tspan><tspan x="441.805" y="696.336">view </tspan><tspan x="77" y="719.336">the </tspan><tspan x="115.757" y="719.336">overall </tspan><tspan x="184.786" y="719.336">market </tspan><tspan x="257.664" y="719.336">condition </tspan><tspan x="351.206" y="719.336">of </tspan><tspan x="380.158" y="719.336">the </tspan><tspan x="418.914" y="719.336">current </tspan><tspan x="77" y="742.336">round. </tspan><tspan x="146.828" y="742.336">Pay </tspan><tspan x="192.75" y="742.336">attention </tspan><tspan x="285.43" y="742.336">to </tspan><tspan x="316.371" y="742.336">these </tspan><tspan x="378.66" y="742.336">information </tspan><tspan x="77" y="765.336">since </tspan><tspan x="138.488" y="765.336">they </tspan><tspan x="190.171" y="765.336">will </tspan><tspan x="233.963" y="765.336">affect </tspan><tspan x="300.294" y="765.336">your </tspan><tspan x="353.012" y="765.336">later </tspan><tspan x="406.844" y="765.336">financial </tspan><tspan x="77" y="788.336">decisions </tspan><tspan x="167.176" y="788.336">related </tspan><tspan x="233.523" y="788.336">to </tspan><tspan x="256.238" y="788.336">investment. </tspan></text>
</g>
</g>
<defs>
<clipPath id="clip0_223_1011">
<rect width="1440" height="1024" fill="white"/>
</clipPath>
<clipPath id="clip1_223_1011">
<rect x="543" y="565" width="865" height="425" rx="12" fill="white"/>
</clipPath>
</defs>
</svg>
