<svg width="364" height="402" viewBox="0 0 364 402" fill="none" xmlns="http://www.w3.org/2000/svg">
<rect width="364" height="402" fill="#1E1E1E"/>
<g id="Game Result (Lose) - Mental health">
<rect width="1440" height="1024" transform="translate(-573 -271)" fill="#F9EFE5"/>
<g id="Group 52">
<path id="Vector" d="M88.1931 47.9001C87.7493 51.0364 86.9546 53.9931 86.0581 57.0222C85.9232 57.4934 85.7883 57.9645 85.6493 58.45C85.4494 59.1303 85.4494 59.1303 85.2454 59.8244C85.1257 60.2332 85.0061 60.6421 84.8828 61.0633C84.4666 62.1849 84.4666 62.1849 83.2244 64.0482C83.2244 64.663 83.2244 65.2779 83.2244 65.9114C83.5847 65.3414 83.945 64.7713 84.3162 64.184C86.92 60.086 89.5514 56.08 92.5406 52.2477C93.6709 52.3823 93.6709 52.3823 95.0249 52.8688C95.9496 54.083 95.9496 54.083 96.8154 55.683C97.1395 56.2709 97.4636 56.8587 97.7975 57.4644C98.3081 58.4176 98.3081 58.4176 98.829 59.3901C99.5569 60.7135 100.286 62.0365 101.015 63.3592C101.372 64.0113 101.728 64.6634 102.096 65.3352C103.386 67.6742 104.725 69.9806 106.088 72.2775C106.327 72.6827 106.567 73.0879 106.814 73.5054C107.644 74.9084 108.477 76.3102 109.31 77.7119C110.954 80.4805 112.597 83.2495 114.24 86.0188C114.455 86.3814 114.67 86.744 114.892 87.1176C117.859 92.1204 120.801 97.1373 123.707 102.177C125.621 105.495 127.552 108.803 129.495 112.104C129.749 112.536 130.004 112.969 130.266 113.414C130.505 113.819 130.743 114.224 130.989 114.642C131.212 115.021 131.434 115.4 131.664 115.791C132.223 116.729 132.808 117.652 133.396 118.572C134.153 119.945 134.153 119.945 134.153 121.808C134.563 121.808 134.973 121.808 135.395 121.808C136.674 123.852 137.92 125.914 139.16 127.98C139.521 128.556 139.882 129.131 140.253 129.724C142.218 133.037 143.384 135.414 142.608 139.28C142.114 140.785 141.482 141.805 140.402 142.964C138.371 145.392 137.875 147.292 137.258 150.378C136.56 151.931 136.56 151.931 136.016 152.862C136.432 153.004 136.849 153.146 137.278 153.292C139.639 154.333 141.657 155.714 143.78 157.171C144.974 157.983 146.169 158.794 147.369 159.597C148.289 160.215 149.199 160.849 150.107 161.485C151.486 162.305 151.486 162.305 152.921 162.04C153.389 161.868 153.856 161.696 154.338 161.519C154.875 161.333 155.412 161.147 155.966 160.956C156.556 160.744 157.146 160.533 157.754 160.315C160.436 159.457 163.128 158.634 165.828 157.831C166.307 157.688 166.785 157.544 167.279 157.397C176.686 154.931 185.425 157.308 193.832 161.705C196.986 163.615 199.711 165.958 202.471 168.389C203.2 168.995 203.2 168.995 203.944 169.612C207.674 172.766 210.643 176.357 213.651 180.19C214.016 180.639 214.382 181.088 214.758 181.551C217.83 185.337 220.697 189.225 223.472 193.232C224.118 194.164 224.118 194.164 224.778 195.115C228.253 200.162 231.483 205.322 234.617 210.584C235.616 212.242 236.651 213.876 237.689 215.51C241.698 221.829 245.383 228.325 249.052 234.845C249.576 235.774 249.576 235.774 250.111 236.722C254.07 243.746 257.995 250.788 261.862 257.863C262.163 258.413 262.464 258.963 262.774 259.53C263.59 261.028 264.398 262.53 265.2 264.035C265.443 264.49 265.687 264.945 265.937 265.413C266.16 265.841 266.383 266.27 266.612 266.711C266.805 267.081 266.999 267.45 267.198 267.831C268.209 270.268 268.382 272.651 268.366 275.266C268.364 275.844 268.362 276.422 268.36 277.018C268.355 277.615 268.35 278.211 268.344 278.825C268.342 279.433 268.339 280.041 268.336 280.667C268.329 282.162 268.318 283.657 268.306 285.152C267.896 285.152 267.486 285.152 267.064 285.152C267.102 285.716 267.14 286.279 267.18 286.86C267.186 289.712 266.421 292.317 265.69 295.058C265.254 296.746 264.898 298.422 264.579 300.135C264.181 302.219 263.664 304.207 263.026 306.23C262.181 308.94 261.659 311.632 261.18 314.427C260.456 318.361 259.54 322.222 258.107 325.959C257.179 328.416 256.448 330.907 255.787 333.448C255.67 333.891 255.553 334.333 255.432 334.789C255.187 335.719 254.943 336.65 254.7 337.581C254.335 338.978 253.966 340.374 253.596 341.771C252.192 347.1 250.872 352.438 249.673 357.818C250.203 357.644 250.733 357.471 251.279 357.292C256.735 355.542 262.222 353.998 267.762 352.539C272.767 351.218 277.614 349.787 282.455 347.954C285.182 347.007 287.954 346.342 290.763 345.682C294.022 344.905 297.13 343.877 300.26 342.687C302.054 342.239 303.185 342.419 304.949 342.912C305.467 352.236 305.654 361.523 305.57 370.861C301.508 372.299 297.421 373.413 293.226 374.393C292.645 374.533 292.064 374.672 291.465 374.816C287.18 375.829 287.18 375.829 285.075 375.829C285.075 376.239 285.075 376.649 285.075 377.071C286.964 376.896 288.853 376.714 290.742 376.528C291.274 376.479 291.805 376.43 292.353 376.38C295.283 376.087 297.817 375.588 300.602 374.587C302.395 374.243 302.395 374.243 304.134 374.044C304.713 373.968 305.292 373.893 305.888 373.816C307.434 373.966 307.434 373.966 308.571 375.126C309.297 376.45 309.297 376.45 309.297 377.693C311.173 377.902 313.049 378.109 314.925 378.314C315.452 378.373 315.978 378.432 316.52 378.493C319.516 378.817 322.432 379 325.445 378.935C324.911 378.603 324.377 378.272 323.827 377.93C312.125 370.584 312.125 370.584 308.055 366.513C307.766 363.365 307.673 360.217 307.598 357.058C307.566 355.998 307.52 354.938 307.458 353.879C306.932 344.699 306.932 344.699 309.662 341.104C311.448 339.122 313.238 337.488 315.508 336.08C316.929 336.14 316.929 336.14 317.992 336.701C318.967 337.771 318.967 337.771 319.933 339.224C320.308 339.787 320.684 340.349 321.071 340.928C322.779 343.6 324.462 346.287 326.131 348.983C327.869 351.784 329.657 354.542 331.5 357.275C334.537 361.78 337.45 366.36 340.353 370.953C340.701 371.504 341.049 372.055 341.408 372.622C341.747 373.157 342.085 373.691 342.433 374.242C343.754 376.291 345.127 378.303 346.515 380.307C347.183 381.419 347.183 381.419 347.183 382.661C347.849 382.674 347.849 382.674 348.529 382.688C353.705 382.936 360.125 383.803 363.952 387.63C363.872 388.85 363.872 388.85 363.331 390.114C360.197 392.729 356.11 393.539 352.178 394.163C351.697 394.241 351.215 394.319 350.72 394.4C344.449 395.372 338.131 395.874 331.811 396.402C329.975 396.559 328.139 396.718 326.303 396.877C325.174 396.975 324.045 397.072 322.915 397.166C320.872 397.34 318.868 397.521 316.848 397.883C313.703 398.372 310.537 398.473 307.361 398.634C306.633 398.673 305.906 398.712 305.157 398.753C302.836 398.877 300.516 398.999 298.195 399.12C295.879 399.241 293.563 399.363 291.247 399.487C289.808 399.564 288.368 399.639 286.929 399.713C286.27 399.748 285.611 399.783 284.932 399.82C284.358 399.849 283.785 399.879 283.194 399.91C281.353 400.051 279.533 400.285 277.702 400.521C275.426 400.782 273.146 400.897 270.859 401.009C270.345 401.035 269.832 401.061 269.303 401.088C264.051 401.34 258.801 401.433 253.543 401.49C252.478 401.503 251.414 401.516 250.349 401.529C247.457 401.564 244.564 401.595 241.671 401.624C239.839 401.643 238.008 401.662 236.176 401.682C213.551 401.92 190.926 401.982 168.299 401.99C165.64 401.991 162.98 401.993 160.32 401.996C155.673 402 151.025 402.001 146.377 401.998C144.815 401.997 143.253 401.998 141.691 401.999C139.545 402.001 137.399 401.998 135.253 401.995C134.625 401.996 133.998 401.997 133.351 401.999C130.43 401.99 127.715 401.837 124.837 401.293C123.732 401.233 122.627 401.197 121.521 401.186C120.883 401.177 120.245 401.169 119.588 401.16C118.902 401.154 118.217 401.147 117.51 401.141C116.015 401.121 114.521 401.101 113.026 401.082C112.243 401.072 111.459 401.063 110.652 401.053C86.7105 400.747 63.0447 399.725 39.2447 397.094C37.1558 396.866 35.0656 396.652 32.9754 396.436C7.26319 393.751 7.26319 393.751 3.26066 390.463C2.48431 389.493 2.48431 389.493 2.40668 387.94C3.10539 386.388 3.10539 386.388 4.85217 385.378C10.5039 383.353 16.2529 382.402 22.2035 381.807C24.3133 381.552 26.292 381.048 28.3415 380.49C32.5182 379.41 36.6176 379.123 40.9135 378.896C50.9804 378.334 50.9804 378.334 60.8656 376.45C60.9437 375.754 60.9437 375.754 61.0233 375.043C61.5841 372.988 62.3004 372.35 63.9322 371.016C64.3733 370.648 64.8145 370.279 65.269 369.9C67.3382 368.326 68.6175 368.308 71.1911 368.338C71.8139 368.343 72.4368 368.349 73.0785 368.354C73.7967 368.365 73.7967 368.365 74.5294 368.376C74.5149 367.959 74.5005 367.542 74.4857 367.112C74.2985 356.751 75.6925 346.436 76.99 336.176C77.5517 331.588 77.9008 327.026 78.0206 322.405C78.1057 319.715 78.3865 317.135 78.8344 314.479C79.5232 310.087 79.9207 305.688 80.2625 301.257C80.3725 299.833 80.4862 298.408 80.6009 296.984C80.8447 293.946 81.0838 290.908 81.3224 287.869C81.6353 283.888 81.9506 279.908 82.271 275.928C82.3296 275.198 82.3296 275.198 82.3894 274.453C82.9493 267.521 83.6414 260.616 84.4459 253.707C85.1611 247.479 85.6321 241.245 86.0243 234.988C86.1383 233.174 86.2585 231.36 86.3796 229.546C86.4563 228.367 86.5328 227.188 86.6088 226.009C86.6437 225.479 86.6786 224.949 86.7146 224.403C86.8701 221.894 86.9927 219.385 87.0507 216.871C87.0621 216.427 87.0736 215.983 87.0854 215.525C86.8435 213.41 85.554 212.526 83.962 211.244C83.0229 210.465 83.0229 210.465 82.0648 209.672C81.4227 209.166 80.7806 208.66 80.119 208.138C78.9931 207.207 77.8674 206.275 76.7419 205.343C76.1807 204.895 75.6195 204.447 75.0413 203.985C73.7898 202.96 72.5901 201.929 71.3973 200.841C68.2551 197.709 68.2551 197.709 64.2961 196.158C63.8302 196.192 63.3642 196.225 62.8841 196.26C61.5425 196.27 61.5425 196.27 60.2446 195.717C58.4296 192.976 57.1462 190.081 55.85 187.068C55.034 185.236 54.0782 183.493 53.1022 181.742C52.8011 181.198 52.5001 180.654 52.19 180.093C51.9786 179.715 51.7672 179.337 51.5495 178.948C48.4405 179.089 46.3141 179.942 43.5531 181.393C40.8683 182.799 38.5725 183.666 35.6101 184.195C33.1607 184.773 30.9156 185.839 28.6084 186.828C26.7667 187.617 24.9235 188.388 23.0575 189.118C22.2721 189.432 22.2721 189.432 21.4709 189.753C19.5258 190.209 18.0811 189.94 16.148 189.506C16.8399 182.095 17.6432 174.699 18.5037 167.306C18.6153 166.347 18.7262 165.387 18.8365 164.426C18.9936 163.061 19.1534 161.697 19.3141 160.332C19.407 159.536 19.4999 158.741 19.5956 157.921C19.8745 155.968 19.8745 155.968 20.4956 154.104C20.5935 153.205 20.6645 152.303 20.7188 151.399C20.7759 150.549 20.7759 150.549 20.8342 149.681C20.8761 149.053 20.9181 148.425 20.9614 147.777C21.5729 139.326 22.6429 130.945 23.7471 122.547C24.43 117.313 25.0269 112.119 25.3171 106.846C25.5247 104.296 26.0666 101.923 26.7064 99.4496C26.1828 99.3223 25.6592 99.195 25.1197 99.0639C24.4392 98.8965 23.7587 98.7292 23.0575 98.5568C22.3802 98.3911 21.7029 98.2254 21.005 98.0546C19.2534 97.5864 19.2534 97.5864 18.0113 96.9653C18.0113 96.5554 18.0113 96.1455 18.0113 95.7231C17.3972 95.5862 16.7831 95.4493 16.1505 95.3083C13.2734 94.4839 11.0678 92.9093 8.65627 91.1815C8.23315 90.8873 7.81003 90.5931 7.37409 90.2899C4.80853 88.4884 2.38073 86.5828 0 84.5437C0.104322 83.3889 0.104322 83.3889 0.621078 82.0594C2.01122 81.3122 2.01122 81.3122 3.92055 80.662C4.64591 80.4034 5.37126 80.1448 6.11859 79.8784C6.5255 79.7348 6.93241 79.5912 7.35165 79.4432C9.93347 78.5031 12.4747 77.4592 15.0223 76.4309C16.0404 76.0224 17.0585 75.614 18.0768 75.2057C18.5518 75.015 19.0268 74.8242 19.5163 74.6277C20.9831 74.039 22.4504 73.4516 23.918 72.8649C26.983 71.6391 30.0475 70.4118 33.1118 69.1842C35.7216 68.1388 38.3315 67.0939 40.9415 66.049C42.914 65.2594 44.8864 64.4695 46.8586 63.6793C49.1547 62.7592 51.4511 61.8401 53.7475 60.9209C54.4496 60.6395 55.1516 60.358 55.875 60.068C57.744 59.3204 59.615 58.5782 61.4867 57.8374C61.9806 57.6377 62.4745 57.438 62.9834 57.2323C65.1376 56.3824 66.5867 55.9742 68.9396 55.9742C68.9396 55.5642 68.9396 55.1543 68.9396 54.732C69.4056 54.5815 69.8716 54.431 70.3516 54.2759C75.3686 52.633 80.2549 50.7989 85.0877 48.6765C86.9509 47.9001 86.9509 47.9001 88.1931 47.9001Z" fill="black"/>
<path id="Vector_2" d="M196.879 169.01C218.193 186.666 232.232 213.874 245.653 237.582C246.925 239.825 248.204 242.063 249.484 244.3C250.118 245.41 250.752 246.519 251.384 247.629C252.762 250.048 254.147 252.461 255.569 254.855C255.801 255.249 256.034 255.644 256.273 256.051C256.878 257.077 257.49 258.1 258.102 259.122C259.022 261 259.377 262.587 259.608 264.656C257.737 265.875 255.853 267.073 253.961 268.259C253.141 268.775 252.322 269.292 251.504 269.811C239.044 277.678 225.859 283.991 211.993 288.963C210.419 289.545 208.868 290.173 207.314 290.807C205.052 291.719 202.823 292.487 200.451 293.07C199.858 293.221 199.266 293.371 198.655 293.526C196.784 293.864 195.05 293.868 193.153 293.847C193.239 291.323 193.331 288.8 193.425 286.277C193.449 285.563 193.473 284.848 193.499 284.112C193.525 283.422 193.551 282.731 193.577 282.02C193.612 281.068 193.612 281.068 193.646 280.098C193.767 278.417 194.048 276.86 194.395 275.214C194.503 273.647 194.593 272.086 194.667 270.517C194.826 267.577 195.053 264.721 195.598 261.822C196.564 256.503 196.87 251.107 197.316 245.724C197.631 241.998 197.968 238.274 198.313 234.551C198.391 233.7 198.468 232.85 198.545 231.999C199 226.935 199.574 221.916 200.359 216.891C200.708 214.172 200.719 211.494 200.606 208.759C199.786 208.759 198.966 208.759 198.121 208.759C196.94 217.213 195.986 225.669 195.211 234.169C194.794 238.714 194.319 243.178 193.425 247.654C192.291 253.363 192.025 259.146 191.691 264.946C191.647 265.702 191.602 266.458 191.556 267.237C191.52 267.922 191.483 268.606 191.445 269.31C191.29 270.867 191.29 270.867 190.669 271.488C190.454 273.236 190.279 274.975 190.125 276.728C190.073 277.29 190.022 277.852 189.969 278.43C189.665 281.759 189.378 285.089 189.093 288.419C188.934 290.271 188.774 292.123 188.614 293.974C188.498 295.327 188.385 296.681 188.272 298.034C187.872 302.74 187.338 307.403 186.644 312.076C185.314 321.409 184.662 330.782 184.084 340.186C183.683 346.644 183.122 352.998 182.003 359.376C181.195 364.015 180.919 368.642 180.731 373.345C179.101 373.362 177.471 373.374 175.84 373.384C175.389 373.389 174.937 373.394 174.472 373.399C170.936 373.415 167.474 373.131 163.962 372.724C163.882 363.725 164 354.74 164.234 345.746C164.252 344.997 164.252 344.997 164.271 344.232C164.503 334.876 164.503 334.876 165.059 330.6C165.46 326.872 165.461 323.096 165.58 319.35C165.604 318.688 165.627 318.027 165.651 317.346C165.67 316.754 165.688 316.161 165.708 315.551C165.825 313.721 165.825 313.721 166.136 311.699C166.51 308.898 166.577 306.148 166.621 303.325C166.633 302.754 166.644 302.182 166.656 301.592C166.692 299.774 166.725 297.955 166.757 296.137C166.799 293.746 166.845 291.354 166.893 288.963C166.901 288.425 166.91 287.886 166.918 287.331C166.981 284.187 167.21 281.103 167.547 277.976C167.774 275.537 167.81 273.102 167.842 270.653C167.861 269.534 167.881 268.414 167.901 267.294C167.911 266.712 167.92 266.13 167.93 265.53C168.108 254.97 168.429 244.423 168.931 233.874C168.957 233.31 168.983 232.745 169.01 232.164C169.084 230.572 169.162 228.98 169.241 227.389C169.263 226.92 169.285 226.451 169.308 225.968C169.418 223.875 169.654 221.962 170.173 219.938C170.223 218.772 170.24 217.603 170.234 216.435C170.232 215.771 170.23 215.106 170.228 214.422C170.222 213.731 170.217 213.041 170.212 212.33C170.209 211.63 170.206 210.931 170.203 210.21C170.196 208.484 170.186 206.758 170.173 205.033C169.148 205.238 168.123 205.442 167.068 205.654C167.033 206.358 166.999 207.063 166.963 207.788C166.834 210.424 166.703 213.06 166.571 215.695C166.514 216.832 166.458 217.969 166.403 219.105C166.323 220.747 166.241 222.389 166.158 224.031C166.122 224.783 166.122 224.783 166.085 225.549C165.963 227.936 165.79 230.299 165.505 232.672C165.169 235.545 165.078 238.395 165.03 241.286C165.018 241.827 165.007 242.369 164.996 242.928C164.972 244.079 164.949 245.231 164.927 246.382C164.871 249.371 164.806 252.36 164.741 255.35C164.722 256.232 164.722 256.232 164.702 257.131C164.545 264.198 164.277 271.259 163.962 278.32C161.74 277.579 161.349 276.906 159.964 275.059C157.812 272.29 155.547 269.677 153.171 267.102C152.683 266.569 152.683 266.569 152.185 266.025C150.505 264.163 150.505 264.163 148.435 262.793C149.029 267.167 150.432 270.169 153.482 273.351C153.78 273.668 154.079 273.985 154.387 274.311C155.814 275.797 157.252 277.181 158.821 278.521C162.292 281.848 163.024 284.629 163.131 289.298C163.1 292.025 162.979 294.74 162.818 297.462C162.726 299.31 162.713 301.138 162.735 302.988C162.73 304.069 162.726 305.149 162.72 306.229C162.733 306.709 162.745 307.189 162.758 307.684C162.653 311.558 161.011 313.578 158.52 316.451C156.205 319.146 154.252 322.093 152.239 325.017C151.807 325.641 151.376 326.266 150.93 326.909C148.018 331.128 145.14 335.37 142.317 339.649C141.081 341.521 139.829 343.381 138.576 345.241C136.387 348.528 134.252 351.847 132.132 355.178C131.817 355.67 131.501 356.163 131.176 356.67C126.97 363.314 125.466 367.612 124.834 375.829C116.226 375.829 107.618 375.829 98.749 375.829C100.052 365.406 100.052 365.406 100.917 361.354C101.58 357.85 101.962 354.297 102.405 350.76C104.747 332.151 107.669 313.623 110.693 295.115C111.606 289.498 112.448 283.873 113.267 278.242C114.454 270.103 115.656 261.967 116.897 253.836C117.09 252.565 117.281 251.294 117.47 250.022C117.736 248.242 118.008 246.463 118.281 244.685C118.4 243.878 118.4 243.878 118.52 243.055C119.103 239.334 119.103 239.334 120.487 237.95C120.487 238.36 120.487 238.77 120.487 239.192C121.102 239.397 121.716 239.602 122.35 239.813C123.151 240.742 123.151 240.742 123.98 241.948C125.094 243.541 126.156 244.856 127.583 246.186C131.557 249.926 131.557 249.926 131.849 252.782C131.781 253.438 131.712 254.094 131.642 254.77C131.562 255.537 131.482 256.304 131.4 257.095C130.813 261.57 130.059 266.019 129.281 270.465C128.78 273.339 128.294 276.216 127.809 279.094C127.712 279.664 127.616 280.234 127.517 280.822C126.665 285.904 125.893 290.994 125.184 296.098C125.031 297.172 125.031 297.172 124.876 298.267C124.627 300.104 124.409 301.94 124.213 303.784C124.154 304.258 124.095 304.732 124.035 305.221C123.858 307.593 124.174 308.998 125.669 310.786C126.311 311.439 126.965 312.081 127.629 312.712C128.315 313.407 128.999 314.103 129.682 314.801C130.188 315.311 130.188 315.311 130.705 315.831C133.488 318.713 136.2 321.861 137.877 325.522C138.697 325.522 139.517 325.522 140.361 325.522C140.522 325.169 140.683 324.816 140.849 324.452C141.676 322.901 142.631 321.646 143.738 320.281C144.172 319.736 144.606 319.191 145.053 318.629C146.153 317.324 147.253 316.107 148.44 314.888C151.875 311.42 151.875 311.42 153.765 307.04C153.616 305.063 153.217 303.235 152.783 301.3C152.542 299.679 152.331 298.056 152.118 296.432C151.548 292.107 150.854 287.833 149.975 283.56C149.411 280.69 149.003 277.795 148.58 274.901C148.131 271.949 147.559 269.05 146.907 266.136C145.953 261.762 145.303 257.379 144.749 252.942C144.591 251.678 144.425 250.416 144.259 249.153C143.356 242.186 143.256 237.171 145.64 230.497C145.848 229.897 146.055 229.297 146.269 228.68C146.777 227.213 147.292 225.748 147.814 224.286C149.454 224.491 151.093 224.696 152.783 224.907C152.763 224.342 152.744 223.777 152.724 223.195C152.387 211.931 152.482 201.78 156.062 190.954C156.654 189.037 157.053 187.097 157.463 185.136C157.82 183.624 158.404 182.245 158.994 180.811C159.896 176.77 160.752 172.517 160.236 168.389C158.759 166.896 158.759 166.896 157.13 165.905C157.13 165.495 157.13 165.085 157.13 164.662C159.005 164.154 160.882 163.651 162.759 163.149C163.285 163.006 163.812 162.863 164.354 162.716C176.744 159.415 186.618 160.997 196.879 169.01Z" fill="#F9EFE5"/>
<path id="Vector_3" d="M75.7711 80.196C76.1025 80.7909 76.434 81.3857 76.7755 81.9986C85.4083 97.4469 94.6413 112.551 103.837 127.668C104.659 129.018 105.479 130.369 106.299 131.721C107.056 132.966 107.816 134.21 108.581 135.45C108.923 136.009 109.265 136.568 109.617 137.144C109.919 137.632 110.22 138.121 110.531 138.625C111.173 139.82 111.173 139.82 111.173 141.062C112.402 141.062 113.632 141.062 114.899 141.062C114.87 140.657 114.841 140.251 114.812 139.834C114.659 136.149 114.844 134.007 117.383 131.124C117.793 130.638 118.203 130.151 118.625 129.649C121.638 128.017 124.599 128.135 127.942 128.64C131.487 130.066 133.234 132.718 134.773 136.093C135.724 139.578 136.314 144.502 134.861 147.898C134.105 149.032 133.253 150.035 132.289 150.999C132.067 152.503 132.067 152.503 132.289 154.104C133.11 155.123 133.11 155.123 134.33 155.871C134.784 156.184 135.239 156.497 135.708 156.819C136.475 157.32 136.475 157.32 137.258 157.831C137.805 158.197 138.353 158.563 138.917 158.94C140.723 160.136 142.54 161.314 144.361 162.489C145.59 163.284 146.818 164.08 148.047 164.876C148.633 165.256 149.218 165.635 149.822 166.026C152.272 167.622 154.705 169.244 157.132 170.873C156.819 173.432 156.355 175.832 155.632 178.304C154.928 180.756 154.306 183.229 153.678 185.702C153.54 186.228 153.403 186.754 153.261 187.296C152.616 189.841 152.098 192.288 151.875 194.906C151.704 196.799 151.461 197.75 150.618 199.523C148.916 203.109 149.148 207.308 148.942 211.205C148.891 212.053 148.84 212.901 148.788 213.748C148.664 215.812 148.547 217.875 148.437 219.939C145.941 219.137 143.761 218.355 141.605 216.833C141.605 216.423 141.605 216.013 141.605 215.591C139.357 214.842 137.759 214.77 135.395 214.97C134.13 215.763 132.885 216.589 131.668 217.454C130.848 217.454 130.028 217.454 129.184 217.454C128.979 216.429 128.774 215.405 128.563 214.349C131.552 212.217 134.891 211.456 138.384 210.506C138.992 210.337 139.6 210.167 140.226 209.993C141.72 209.577 143.215 209.166 144.711 208.759C144.916 207.939 145.121 207.12 145.332 206.275C142.924 205.63 141.461 205.705 139.109 206.5C138.525 206.693 137.941 206.886 137.339 207.084C136.736 207.291 136.133 207.498 135.511 207.711C124.971 211.243 124.971 211.243 121.11 211.243C121.11 211.653 121.11 212.063 121.11 212.486C120.726 212.554 120.343 212.622 119.948 212.692C116.822 213.277 113.859 214.013 110.857 215.055C108.964 215.711 107.064 216.338 105.156 216.95C104.5 217.163 103.844 217.377 103.169 217.597C101.087 218.112 99.6373 218.385 97.5088 218.075C96.0273 217.046 94.8159 216.072 93.5106 214.854C92.7441 214.167 91.9775 213.48 91.2107 212.794C90.8172 212.436 90.4237 212.078 90.0183 211.709C88.4426 210.288 86.8343 208.906 85.2239 207.525C81.4666 204.3 77.7733 201.015 74.1359 197.655C72.6537 196.327 71.1257 195.082 69.5603 193.853C70.1814 191.99 70.1814 191.99 71.6176 190.942C73.2868 190.127 73.2868 190.127 75.7711 190.127C75.7711 189.717 75.7711 189.307 75.7711 188.885C78.9585 187.173 81.984 185.964 85.4633 184.986C86.815 184.578 88.0678 184.099 89.3572 183.528C92.2686 182.247 94.7977 181.926 97.9746 181.703C98.7016 181.651 99.4285 181.599 100.178 181.546C100.732 181.508 101.286 181.471 101.856 181.432C102.266 180.407 102.676 179.382 103.099 178.326C96.9051 176.262 88.9857 177.415 83.224 180.19C82.8141 180.6 82.4042 181.009 81.9819 181.432C80.9873 181.851 79.9921 182.269 78.9938 182.68C77.3773 183.411 75.8536 184.257 74.3082 185.129C73.7169 185.462 73.1257 185.795 72.5165 186.138C71.2865 186.836 70.0589 187.538 68.8337 188.244C67.9504 188.739 67.9504 188.739 67.0493 189.244C66.5176 189.547 65.9858 189.851 65.4379 190.164C63.9706 190.748 63.9706 190.748 62.5846 190.655C61.4863 190.127 61.4863 190.127 60.7099 188.147C60.4938 187.485 60.4938 187.485 60.2733 186.81C59.4217 184.647 58.2978 182.665 57.1387 180.655C56.9248 180.281 56.7108 179.907 56.4904 179.522C55.3628 177.581 54.1853 175.739 52.7912 173.979C48.4615 174.831 44.4839 176.122 40.3696 177.705C39.7492 177.943 39.1287 178.181 38.4894 178.426C37.1627 178.936 35.8365 179.447 34.5106 179.959C31.9643 180.938 29.4141 181.906 26.8612 182.868C26.4239 183.034 25.9866 183.199 25.5361 183.37C22.4307 184.537 22.4307 184.537 21.7373 184.537C22.0015 177.831 22.6654 171.241 23.5467 164.588C23.9596 161.403 24.3253 158.242 24.4667 155.032C24.6514 150.993 25.0121 147.12 25.6918 143.138C26.6821 137.097 27.4422 131.041 28.1391 124.96C28.3369 123.239 28.5402 121.518 28.7438 119.798C29.5109 113.227 30.1074 106.68 30.4324 100.071C31.2066 100.024 31.9808 99.9777 32.7784 99.9298C48.4008 98.8039 62.5044 92.6216 73.4299 81.2368C74.5289 80.196 74.5289 80.196 75.7711 80.196Z" fill="#F9EFE5"/>
<path id="Vector_4" d="M220.483 318.069C220.893 318.069 221.303 318.069 221.725 318.069C220.771 323.717 219.749 329.346 218.581 334.955C218.48 335.444 218.38 335.934 218.276 336.439C217.717 339.084 217.006 341.591 216.136 344.154C215.932 345.146 215.751 346.143 215.592 347.143C215.069 350.195 214.382 353.182 213.651 356.188C212.103 362.701 211.061 369.005 210.934 375.713C210.918 376.203 210.902 376.693 210.885 377.197C210.872 381.609 212.47 384.513 214.777 388.173C217.358 390.681 220.297 390.819 223.744 390.968C230.62 390.855 237.537 389.052 244.01 386.824C245.912 386.193 247.842 385.727 249.79 385.262C253.844 384.273 257.876 383.215 261.901 382.118C262.478 381.962 263.055 381.806 263.649 381.646C266.561 380.853 269.452 380.023 272.329 379.109C278.495 377.178 283.786 376.129 290.25 376.397C293.245 376.467 295.852 375.919 298.739 375.208C299.967 374.967 301.196 374.734 302.427 374.51C302.983 374.405 303.54 374.301 304.113 374.194C305.571 373.966 305.571 373.966 307.434 373.966C309.297 376.036 309.297 376.036 309.297 377.693C311.173 377.902 313.049 378.109 314.926 378.314C315.452 378.373 315.979 378.432 316.521 378.493C319.517 378.817 322.432 379 325.445 378.935C324.911 378.603 324.377 378.272 323.827 377.93C312.126 370.584 312.126 370.584 308.055 366.513C307.767 363.365 307.674 360.217 307.599 357.058C307.567 355.998 307.521 354.938 307.459 353.879C306.933 344.699 306.933 344.699 309.663 341.104C311.448 339.122 313.238 337.488 315.508 336.08C316.93 336.14 316.93 336.14 317.992 336.701C318.968 337.771 318.968 337.771 319.933 339.225C320.309 339.787 320.684 340.349 321.071 340.928C322.779 343.6 324.462 346.287 326.132 348.983C327.869 351.784 329.658 354.542 331.501 357.275C334.537 361.78 337.451 366.361 340.353 370.953C340.702 371.504 341.05 372.055 341.409 372.622C341.747 373.157 342.086 373.691 342.434 374.242C343.754 376.291 345.128 378.303 346.515 380.307C347.183 381.419 347.183 381.419 347.183 382.661C347.627 382.67 348.072 382.679 348.53 382.688C353.706 382.936 360.126 383.803 363.952 387.63C363.872 388.85 363.872 388.85 363.331 390.114C360.197 392.729 356.11 393.539 352.178 394.163C351.697 394.241 351.216 394.32 350.72 394.4C344.45 395.372 338.131 395.874 331.811 396.403C329.975 396.559 328.14 396.718 326.304 396.877C325.175 396.975 324.045 397.072 322.915 397.166C320.872 397.34 318.868 397.521 316.849 397.883C313.704 398.372 310.538 398.473 307.361 398.635C306.634 398.674 305.907 398.713 305.157 398.753C302.837 398.877 300.516 398.999 298.196 399.12C295.879 399.241 293.563 399.363 291.247 399.487C289.808 399.564 288.369 399.639 286.93 399.713C286.271 399.748 285.612 399.783 284.932 399.82C284.072 399.864 284.072 399.864 283.194 399.91C281.353 400.051 279.534 400.285 277.703 400.521C275.427 400.782 273.146 400.897 270.859 401.01C270.346 401.035 269.833 401.061 269.304 401.088C264.051 401.34 258.801 401.434 253.543 401.49C252.479 401.503 251.415 401.516 250.35 401.529C247.457 401.564 244.564 401.595 241.671 401.624C239.84 401.643 238.008 401.663 236.177 401.682C213.551 401.92 190.926 401.982 168.3 401.99C165.64 401.991 162.981 401.993 160.321 401.996C155.673 402 151.026 402.001 146.378 401.998C144.816 401.997 143.254 401.998 141.692 401.999C139.546 402.001 137.4 401.998 135.254 401.995C134.626 401.996 133.998 401.997 133.352 401.999C130.431 401.99 127.716 401.838 124.837 401.294C123.733 401.233 122.627 401.198 121.521 401.186C120.884 401.177 120.246 401.169 119.589 401.16C118.903 401.154 118.217 401.147 117.51 401.141C116.016 401.121 114.521 401.102 113.027 401.082C112.243 401.072 111.46 401.063 110.653 401.053C86.711 400.747 63.0452 399.725 39.2452 397.094C37.1563 396.866 35.0661 396.652 32.9759 396.437C7.26374 393.751 7.26374 393.751 3.26121 390.463C2.48486 389.493 2.48486 389.493 2.40723 387.94C3.10594 386.388 3.10594 386.388 4.85272 385.378C10.5045 383.353 16.2534 382.402 22.2041 381.807C24.312 381.552 26.2894 381.049 28.3372 380.492C32.5378 379.407 36.671 379.098 40.9917 378.857C42.4668 378.765 43.9418 378.673 45.4169 378.581C46.1246 378.538 46.8323 378.495 47.5615 378.451C50.7582 378.244 53.9488 377.974 57.1397 377.693C54.7505 379.696 52.2244 381.411 49.6189 383.115C48.4898 383.818 48.4898 383.818 47.8235 384.524C47.7326 386.615 47.7789 388.117 48.4446 390.114C50.6991 390.114 52.9537 390.114 55.2765 390.114C55.2765 390.524 55.2765 390.934 55.2765 391.356C59.9744 391.484 59.9744 391.484 64.5927 390.735C65.2075 391.658 65.2075 391.658 65.8348 392.598C68.5395 392.97 70.2099 392.717 72.4726 391.279C73.1515 390.894 73.8304 390.51 74.5299 390.114C75.9661 390.541 75.9661 390.541 77.0142 391.356C78.5823 392.14 79.6923 392.039 81.4394 392.016C82.0046 392.011 82.5698 392.005 83.1522 391.999C83.5861 391.992 84.0201 391.985 84.4671 391.977C84.4671 391.567 84.4671 391.158 84.4671 390.735C86.587 389.94 88.4707 389.444 90.7167 389.299C93.6251 388.791 94.4849 388.074 96.2676 385.767C97.522 383.226 97.7402 380.932 97.8979 378.12C97.9444 377.341 97.9908 376.562 98.0387 375.759C98.0691 375.167 98.0995 374.576 98.1309 373.966C98.3358 374.581 98.5408 375.196 98.7519 375.829C107.36 375.829 115.968 375.829 124.837 375.829C124.837 373.165 124.837 370.5 124.837 367.755C125.452 366.833 125.452 366.833 126.079 365.892C126.06 366.239 126.04 366.586 126.02 366.944C125.33 375.459 125.33 375.459 128.748 382.935C130.846 384.855 132.414 385.964 135.24 386.504C135.985 386.652 135.985 386.652 136.744 386.803C137.119 386.871 137.494 386.939 137.88 387.009C136.431 388.458 134.981 389.907 133.532 391.356C133.325 392.909 133.325 392.909 133.532 394.462C134.683 395.892 134.683 395.892 136.482 395.781C137.149 395.756 137.815 395.73 138.501 395.704C140.519 395.626 140.519 395.626 142.227 395.704C142.637 396.114 143.047 396.524 143.47 396.946C144.757 397.121 144.757 397.121 146.187 397.062C146.905 397.056 146.905 397.056 147.638 397.05C149.009 396.95 150.224 396.701 151.544 396.325C152.158 397.247 152.158 397.247 152.786 398.188C154.719 398.548 155.971 398.512 157.679 397.489C158.439 396.931 159.186 396.356 159.918 395.762C160.86 395.083 160.86 395.083 162.102 395.083C162.307 395.698 162.512 396.312 162.723 396.946C164.597 397.883 165.594 397.878 167.692 397.567C168.842 396.632 168.842 396.632 169.982 395.471C172.488 393.061 174.583 392.605 177.99 392.278C179.733 391.929 180.296 391.518 181.355 390.114C181.56 389.499 181.765 388.884 181.976 388.251C182.386 388.251 182.796 388.251 183.219 388.251C183.219 387.431 183.219 386.611 183.219 385.767C185.276 385.274 187.333 384.783 189.39 384.292C190.253 384.085 190.253 384.085 191.134 383.874C192.287 383.599 193.442 383.326 194.597 383.055C195.654 382.805 196.71 382.548 197.763 382.282C200.864 381.527 203.627 381.303 206.819 381.419C206.805 380.677 206.791 379.935 206.776 379.17C206.697 373.43 206.734 368.383 208.683 362.903C209.648 359.825 210.062 356.655 210.546 353.471C209.613 353.74 209.613 353.74 208.661 354.014C207.827 354.247 206.993 354.48 206.16 354.713C205.752 354.831 205.344 354.95 204.924 355.072C202.182 355.828 199.752 356.074 196.882 355.955C197.905 353.052 199.426 350.562 201.036 347.958C201.331 347.477 201.627 346.996 201.932 346.501C205.575 340.615 209.371 334.828 213.179 329.048C214.194 327.505 215.2 325.957 216.204 324.406C216.763 323.549 217.323 322.691 217.882 321.834C218.132 321.445 218.382 321.056 218.64 320.655C219.222 319.771 219.848 318.916 220.483 318.069Z" fill="#C5C4C4"/>
<path id="Vector_5" d="M88.1931 47.9001C87.7493 51.0364 86.9546 53.9931 86.0581 57.0222C85.9232 57.4934 85.7883 57.9645 85.6493 58.45C85.4494 59.1303 85.4494 59.1303 85.2454 59.8244C85.1257 60.2332 85.0061 60.6421 84.8828 61.0633C84.4666 62.1849 84.4666 62.1849 83.2244 64.0482C83.2244 64.663 83.2244 65.2779 83.2244 65.9114C83.5847 65.3414 83.945 64.7713 84.3162 64.184C86.92 60.086 89.5514 56.08 92.5406 52.2477C93.6709 52.3823 93.6709 52.3823 95.0249 52.8688C95.9496 54.083 95.9496 54.083 96.8154 55.683C97.1395 56.2709 97.4636 56.8587 97.7975 57.4644C98.3081 58.4176 98.3081 58.4176 98.829 59.3901C99.5569 60.7135 100.286 62.0365 101.015 63.3592C101.372 64.0113 101.728 64.6634 102.096 65.3352C103.386 67.6742 104.725 69.9806 106.088 72.2775C106.327 72.6827 106.567 73.0879 106.814 73.5054C107.644 74.9084 108.477 76.3102 109.31 77.7119C110.954 80.4805 112.597 83.2495 114.24 86.0188C114.455 86.3814 114.67 86.744 114.892 87.1176C117.859 92.1204 120.801 97.1373 123.707 102.177C125.621 105.495 127.552 108.803 129.495 112.104C129.749 112.537 130.004 112.969 130.266 113.414C130.505 113.819 130.743 114.224 130.989 114.642C131.212 115.021 131.434 115.4 131.664 115.791C132.223 116.729 132.808 117.652 133.396 118.572C134.153 119.945 134.153 119.945 134.153 121.808C134.563 121.808 134.973 121.808 135.395 121.808C136.674 123.852 137.92 125.914 139.16 127.98C139.521 128.556 139.882 129.131 140.253 129.724C142.218 133.037 143.384 135.414 142.608 139.28C142.114 140.785 141.482 141.805 140.402 142.964C138.377 145.371 137.9 147.328 137.258 150.378C136.848 150.583 136.438 150.788 136.016 150.999C136.016 150.589 136.016 150.179 136.016 149.757C135.196 149.962 134.376 150.167 133.532 150.378C133.737 149.904 133.942 149.43 134.153 148.942C135.6 143.605 135.036 138.161 132.755 133.143C130.886 130.74 129.25 129.455 126.173 128.999C121.924 128.803 121.924 128.803 118.238 130.659C116.11 133.122 115.388 134.873 115.132 138.112C115.086 138.666 115.039 139.22 114.992 139.791C114.946 140.42 114.946 140.42 114.899 141.062C113.2 141.299 113.2 141.299 111.173 141.062C110.063 139.772 109.353 138.73 108.555 137.26C108.324 136.861 108.092 136.462 107.854 136.051C107.097 134.739 106.36 133.417 105.622 132.095C105.101 131.185 104.578 130.276 104.054 129.367C102.993 127.525 101.938 125.68 100.887 123.832C98.7618 120.106 96.5461 116.435 94.3262 112.764C93.569 111.504 92.812 110.244 92.0554 108.984C90.8784 107.027 89.7008 105.07 88.523 103.113C87.4273 101.292 86.3349 99.469 85.2448 97.6446C84.6511 96.6525 84.056 95.6612 83.4604 94.6702C82.3434 92.8105 81.2309 90.9481 80.119 89.0854C79.7607 88.4904 79.4023 87.8954 79.0331 87.2823C78.6997 86.7221 78.3664 86.1618 78.0229 85.5845C77.7235 85.0844 77.4241 84.5843 77.1156 84.069C76.4366 82.7651 76.054 81.6323 75.7715 80.1962C75.5065 80.438 75.2415 80.6798 74.9685 80.9289C63.6214 91.0827 50.0154 100.273 34.1981 100.11C33.5331 100.103 32.8682 100.096 32.1831 100.089C31.6055 100.083 31.0279 100.077 30.4328 100.071C30.4639 100.868 30.4639 100.868 30.4956 101.681C30.6509 109.176 29.8251 116.483 28.9089 123.915C28.6465 126.046 28.3926 128.177 28.1402 130.308C27.9749 131.684 27.8091 133.06 27.6428 134.436C27.5302 135.376 27.5302 135.376 27.4152 136.334C26.9692 139.935 26.4082 143.492 25.7196 147.055C25.3761 149.018 25.2892 150.949 25.2313 152.94C24.9613 159.475 24.0478 165.953 23.2107 172.434C23.1552 172.871 23.0997 173.308 23.0425 173.758C22.8897 174.959 22.7334 176.16 22.577 177.361C22.3595 179.562 22.3207 181.706 22.3588 183.916C23.55 183.53 24.7402 183.142 25.93 182.752C26.9244 182.427 26.9244 182.427 27.9388 182.097C29.7436 181.503 29.7436 181.503 31.0927 180.772C32.5617 180.061 33.9542 179.786 35.5567 179.491C36.3877 179.335 36.3877 179.335 37.2356 179.176C37.6551 179.1 38.0746 179.025 38.5068 178.948C38.7118 179.358 38.9167 179.767 39.1279 180.19C38.5224 181.96 37.8166 182.998 36.1487 183.897C35.1402 184.3 34.1223 184.68 33.0991 185.044C31.4703 185.63 29.8863 186.255 28.2906 186.922C27.8003 187.124 27.3099 187.325 26.8048 187.533C25.8217 187.937 24.841 188.346 23.8628 188.762C21.0357 189.899 19.1922 190.374 16.148 189.506C16.8399 182.095 17.6432 174.699 18.5037 167.306C18.6153 166.347 18.7262 165.387 18.8365 164.426C18.9936 163.061 19.1534 161.697 19.3141 160.332C19.407 159.536 19.4999 158.741 19.5956 157.921C19.8745 155.968 19.8745 155.968 20.4956 154.104C20.5935 153.205 20.6645 152.303 20.7188 151.399C20.7759 150.549 20.7759 150.549 20.8342 149.681C20.8761 149.053 20.9181 148.425 20.9614 147.777C21.5729 139.326 22.6429 130.945 23.7471 122.547C24.43 117.313 25.0269 112.119 25.3171 106.846C25.5247 104.296 26.0666 101.923 26.7064 99.4496C26.1828 99.3223 25.6592 99.195 25.1197 99.0639C24.4392 98.8965 23.7587 98.7292 23.0575 98.5568C22.3802 98.3911 21.7029 98.2254 21.005 98.0546C19.2534 97.5864 19.2534 97.5864 18.0113 96.9653C18.0113 96.5554 18.0113 96.1455 18.0113 95.7231C17.3972 95.5862 16.7831 95.4493 16.1505 95.3083C13.2734 94.4839 11.0678 92.9093 8.65627 91.1815C8.23315 90.8873 7.81003 90.5931 7.37409 90.2899C4.80853 88.4884 2.38073 86.5828 0 84.5437C0.104322 83.3889 0.104322 83.3889 0.621078 82.0594C2.01122 81.3122 2.01122 81.3122 3.92055 80.662C4.64591 80.4034 5.37126 80.1448 6.11859 79.8784C6.5255 79.7348 6.93241 79.5912 7.35165 79.4432C9.93347 78.5031 12.4747 77.4592 15.0223 76.4309C16.0404 76.0224 17.0585 75.614 18.0768 75.2057C18.5518 75.015 19.0268 74.8242 19.5163 74.6277C20.9831 74.039 22.4504 73.4516 23.918 72.8649C26.983 71.6391 30.0475 70.4118 33.1118 69.1842C35.7216 68.1388 38.3315 67.0939 40.9415 66.049C42.914 65.2594 44.8864 64.4695 46.8586 63.6793C49.1547 62.7592 51.4511 61.8401 53.7475 60.9209C54.4496 60.6395 55.1516 60.358 55.875 60.068C57.744 59.3204 59.615 58.5782 61.4867 57.8374C61.9806 57.6377 62.4745 57.438 62.9834 57.2323C65.1376 56.3824 66.5867 55.9742 68.9396 55.9742C68.9396 55.5642 68.9396 55.1543 68.9396 54.732C69.4056 54.5815 69.8716 54.431 70.3516 54.2759C75.3686 52.633 80.2549 50.7989 85.0877 48.6765C86.9509 47.9001 86.9509 47.9001 88.1931 47.9001Z" fill="black"/>
<path id="Vector_6" d="M91.9197 218.698C92.3296 218.698 92.7395 218.698 93.1619 218.698C93.5462 219.223 93.9305 219.748 94.3264 220.289C96.5769 222.044 97.1286 221.994 99.8773 221.803C103.074 221.398 105.716 220.518 108.689 219.319C110.552 219.202 110.552 219.202 111.794 219.319C113.356 222.389 114.808 225.459 116.142 228.635C116.449 229.25 116.449 229.25 116.763 229.877C116.369 234.751 115.539 239.577 114.788 244.407C114.654 245.274 114.52 246.141 114.386 247.009C114.035 249.286 113.682 251.563 113.329 253.84C112.769 257.451 112.211 261.061 111.653 264.671C111.518 265.549 111.382 266.427 111.246 267.305C110.369 272.976 109.503 278.649 108.657 284.325C108.159 287.665 107.641 291.001 107.115 294.337C106.045 301.137 105.098 307.94 104.311 314.778C104.242 315.366 104.172 315.953 104.101 316.559C104.013 317.336 104.013 317.336 103.922 318.13C103.72 319.312 103.72 319.312 103.099 319.933C102.813 321.684 102.562 323.428 102.332 325.186C102.222 326.004 102.222 326.004 102.11 326.84C101.868 328.639 101.63 330.439 101.391 332.238C101.142 334.1 100.891 335.961 100.641 337.822C100.471 339.089 100.301 340.356 100.131 341.624C99.303 347.801 98.4481 353.975 97.5871 360.148C97.4522 361.117 97.3173 362.085 97.1825 363.054C96.8778 365.243 96.5727 367.431 96.2673 369.619C94.7016 369.636 93.1361 369.649 91.5704 369.658C91.1328 369.663 90.6953 369.669 90.2445 369.674C86.3667 369.692 82.6714 369.182 78.8771 368.377C78.843 366.76 78.8186 365.143 78.7995 363.525C78.789 363.079 78.7786 362.632 78.7679 362.173C78.7394 358.934 79.1791 355.96 79.8039 352.787C80.3519 349.659 80.5504 346.505 80.7791 343.34C81.0552 339.641 81.3616 336.013 81.9825 332.355C82.1585 330.199 82.254 328.038 82.3585 325.877C82.5394 322.546 82.5394 322.546 83.2246 321.175C83.2995 320.238 83.3386 319.299 83.3597 318.359C83.3766 317.766 83.3935 317.173 83.411 316.562C83.4287 315.908 83.4465 315.255 83.4648 314.581C83.7769 305.367 84.6071 296.21 85.4675 287.035C85.6806 284.753 85.8891 282.47 86.0977 280.186C86.1396 279.729 86.1814 279.271 86.2245 278.799C86.309 277.875 86.3934 276.951 86.4778 276.027C86.6037 274.651 86.7301 273.274 86.8566 271.898C87.6524 263.229 88.3933 254.556 89.1137 245.881C89.6071 239.94 90.1222 234.002 90.7067 228.069C90.7565 227.557 90.8064 227.045 90.8577 226.517C91.1216 223.89 91.4488 221.298 91.9197 218.698Z" fill="#F9EFE5"/>
<path id="Vector_7" d="M316.93 336.14C318.405 336.92 319.01 337.835 319.933 339.225C320.309 339.787 320.684 340.349 321.071 340.928C322.779 343.6 324.462 346.287 326.131 348.984C327.869 351.784 329.658 354.542 331.501 357.275C334.149 361.217 336.739 365.194 339.303 369.192C339.667 369.755 340.032 370.318 340.407 370.899C342.142 373.615 343.811 376.36 345.346 379.194C345.611 379.682 345.877 380.17 346.15 380.672C346.562 382.04 346.562 382.04 346.017 383.46C345.787 383.812 345.557 384.163 345.32 384.525C330.809 384.993 319.566 375.796 308.676 367.134C306.903 365.362 307.657 359.535 307.599 357.058C307.567 355.998 307.52 354.938 307.459 353.88C306.932 344.7 306.932 344.7 309.663 341.104C314.237 336.027 314.237 336.027 316.93 336.14Z" fill="black"/>
<path id="Vector_8" d="M160.006 0C161.043 0.0384292 161.043 0.0384292 162.102 0.0776347C162.859 1.59236 162.804 2.569 162.81 4.26247C162.815 5.19381 162.815 5.19381 162.821 6.14396C162.822 6.82766 162.822 7.51137 162.823 8.21579C162.826 8.93385 162.829 9.6519 162.832 10.3917C162.841 12.7755 162.846 15.1592 162.849 17.543C162.852 18.7769 162.854 20.0108 162.857 21.2446C162.864 24.6826 162.869 28.1206 162.871 31.5586C162.874 36.0082 162.885 40.4576 162.903 44.9072C162.916 48.3446 162.923 51.782 162.923 55.2195C162.924 57.2736 162.929 59.3275 162.939 61.3815C162.949 63.6717 162.948 65.9615 162.944 68.2517C162.95 68.9342 162.956 69.6166 162.962 70.3197C162.958 70.9424 162.955 71.565 162.951 72.2065C162.952 72.7482 162.953 73.2899 162.954 73.848C162.673 75.5283 162.229 76.1006 160.86 77.0913C158.784 76.9394 157.999 76.7153 156.512 75.2281C156.356 73.9244 156.356 73.9244 156.354 72.2812C156.351 71.6594 156.347 71.0376 156.344 70.397C156.346 69.7123 156.349 69.0276 156.351 68.3222C156.349 67.6032 156.347 66.8841 156.345 66.1433C156.339 63.7565 156.343 61.3698 156.347 58.983C156.346 57.3307 156.345 55.6784 156.344 54.0261C156.341 50.5593 156.344 47.0924 156.35 43.6256C156.357 39.6143 156.355 35.603 156.348 31.5917C156.342 28.1511 156.341 24.7105 156.345 21.2699C156.347 19.2135 156.346 17.1571 156.343 15.1007C156.34 12.8089 156.344 10.5174 156.351 8.22564C156.349 7.54096 156.346 6.85628 156.344 6.15086C156.347 5.52907 156.351 4.90728 156.354 4.26665C156.355 3.72438 156.355 3.18212 156.356 2.62342C156.653 0.140394 157.648 0.0812913 160.006 0Z" fill="black"/>
<path id="Vector_9" d="M220.484 318.069C220.894 318.069 221.304 318.069 221.726 318.069C220.771 323.717 219.75 329.346 218.582 334.955C218.481 335.444 218.38 335.934 218.277 336.439C217.718 339.084 217.006 341.591 216.136 344.154C215.932 345.146 215.751 346.143 215.593 347.143C215.07 350.195 214.384 353.182 213.652 356.188C212.722 360.034 211.992 363.858 211.439 367.78C211.04 370.485 210.493 373.155 209.925 375.829C209.106 375.829 208.286 375.829 207.441 375.829C207.7 368.233 209.092 360.913 210.547 353.471C209.613 353.74 209.613 353.74 208.661 354.014C207.828 354.247 206.994 354.48 206.16 354.713C205.548 354.89 205.548 354.89 204.924 355.072C202.182 355.828 199.753 356.074 196.883 355.955C197.905 353.052 199.426 350.562 201.036 347.958C201.332 347.477 201.628 346.996 201.933 346.501C205.576 340.615 209.371 334.828 213.18 329.048C214.194 327.505 215.201 325.957 216.204 324.406C216.764 323.549 217.323 322.691 217.883 321.834C218.258 321.251 218.258 321.251 218.64 320.655C219.222 319.771 219.848 318.916 220.484 318.069Z" fill="#F9EFE5"/>
<path id="Vector_10" d="M161.235 377.011C161.756 377.011 162.277 377.012 162.814 377.013C164.479 377.017 166.143 377.025 167.807 377.032C168.936 377.036 170.064 377.038 171.193 377.041C173.959 377.048 176.725 377.058 179.491 377.071C179.525 378.792 179.549 380.513 179.569 382.234C179.579 382.722 179.59 383.21 179.6 383.713C179.604 384.183 179.608 384.653 179.612 385.138C179.619 385.571 179.625 386.003 179.632 386.449C179.491 387.63 179.491 387.63 178.249 389.493C176.786 389.815 176.786 389.815 175.027 389.997C171.821 390.481 170.151 391.391 167.902 393.69C167.07 394.461 167.07 394.461 165.827 394.461C166.025 391.107 167.815 389.789 170.175 387.63C169.868 386.707 169.868 386.707 169.554 385.766C166.506 385.859 165.287 387.42 163.324 389.5C161.259 391.585 158.988 393.504 156.511 395.083C155.896 395.083 155.282 395.083 154.648 395.083C154.648 394.468 154.648 393.853 154.648 393.219C156.175 391.894 157.797 390.753 159.44 389.575C161.04 388.081 161.304 387.289 161.48 385.145C157.936 386.072 155.761 387.921 153.15 390.342C150.799 392.425 148.95 393.18 145.953 393.84C146.888 391.034 149.374 390.035 151.808 388.556C153.055 387.782 153.055 387.782 154.648 386.387C154.983 384.712 154.983 384.712 154.648 383.282C147.78 386.95 147.78 386.95 141.797 391.812C140.984 392.598 140.984 392.598 139.315 392.715C138.604 392.657 138.604 392.657 137.879 392.598C137.879 392.188 137.879 391.778 137.879 391.356C138.885 390.588 138.885 390.588 140.281 389.74C140.78 389.436 141.278 389.132 141.792 388.818C142.32 388.503 142.847 388.187 143.391 387.862C143.914 387.542 144.437 387.222 144.975 386.892C148.89 384.524 148.89 384.524 150.3 384.524C150.224 383.973 150.147 383.423 150.068 382.855C150.3 380.798 150.3 380.798 152.047 379.051C155.13 376.936 157.623 376.988 161.235 377.011Z" fill="#F9EFE5"/>
<path id="Vector_11" d="M72.9382 371.87C73.3911 371.879 73.844 371.887 74.3106 371.896C88.157 372.278 88.157 372.278 94.4042 373.967C94.4546 375.468 94.4915 376.968 94.5206 378.469C94.5362 378.893 94.5519 379.316 94.5679 379.753C94.5952 381.625 94.5006 383.073 93.7152 384.785C92.0549 386.174 90.6789 386.216 88.5428 386.427C85.6645 386.718 84.2364 387.107 81.9826 388.872C81.1628 388.872 80.343 388.872 79.4983 388.872C79.5759 387.786 79.5759 387.786 80.1194 386.388C83.2938 383.904 83.2938 383.904 85.7091 383.904C85.4017 382.674 85.4017 382.674 85.088 381.42C82.3788 381.158 81.0821 381.195 78.7729 382.713C78.1383 383.267 77.5132 383.833 76.8975 384.408C76.2679 384.969 75.638 385.53 75.0076 386.09C74.44 386.598 73.8724 387.107 73.2875 387.63C71.3094 389.338 71.0845 389.494 68.3189 389.494C69.1982 387.387 70.2084 386.328 72.0454 384.991C72.4809 384.667 72.9164 384.344 73.3652 384.011C74.5297 383.283 74.5297 383.283 75.7718 383.283C75.5669 382.258 75.3619 381.233 75.1508 380.177C72.6497 380.51 71.3163 381.189 69.4058 382.817C62.7052 388.251 62.7052 388.251 59.0027 388.251C59.8662 385.661 61.66 385.033 63.9325 383.787C64.3341 383.559 64.7356 383.33 65.1492 383.095C68.1422 381.42 68.1422 381.42 69.5611 381.42C69.3561 380.395 69.1512 379.37 68.94 378.314C67.3994 379.076 65.8596 379.839 64.3207 380.604C63.6402 380.942 63.6402 380.942 62.9459 381.287C60.0629 382.728 57.2366 384.23 54.4684 385.884C53.413 386.388 53.413 386.388 51.5498 386.388C51.5498 385.978 51.5498 385.568 51.5498 385.146C53.3728 384.121 55.1977 383.1 57.0231 382.079C57.5406 381.788 58.0582 381.497 58.5915 381.198C59.0899 380.919 59.5883 380.641 60.1018 380.354C60.5604 380.098 61.019 379.841 61.4914 379.576C62.7292 378.935 62.7292 378.935 64.5924 378.314C64.7846 377.738 64.9767 377.161 65.1747 376.567C66.5652 372.396 68.7978 371.716 72.9382 371.87Z" fill="#F9EFE5"/>
<path id="Vector_12" d="M180.733 17.4678C181.143 17.6727 181.553 17.8777 181.975 18.0888C181.975 33.2556 181.975 48.4223 181.975 64.0486C180.243 64.9146 178.919 64.8291 177.006 64.6697C175.486 62.3886 175.61 61.2865 175.613 58.5667C175.612 58.1383 175.611 57.71 175.61 57.2686C175.608 55.853 175.614 54.4376 175.621 53.022C175.622 52.039 175.622 51.056 175.622 50.073C175.623 48.0133 175.628 45.9537 175.636 43.8941C175.647 41.2506 175.649 38.6073 175.649 35.9638C175.649 33.9344 175.652 31.905 175.657 29.8756C175.659 28.9006 175.66 27.9257 175.661 26.9508C175.662 25.5903 175.667 24.2298 175.674 22.8693C175.676 22.0943 175.679 21.3193 175.681 20.5208C175.764 18.7099 175.764 18.7099 176.385 17.4678C178.352 16.8121 178.847 16.8596 180.733 17.4678Z" fill="black"/>
<path id="Vector_13" d="M140.014 16.6909C141.605 16.8462 141.605 16.8462 143.468 18.0883C143.697 19.8369 143.697 19.8369 143.69 22.0964C143.692 22.7131 143.692 22.7131 143.694 23.3422C143.696 24.7037 143.684 26.0648 143.672 27.4263C143.67 28.37 143.669 29.3136 143.669 30.2572C143.666 32.2355 143.657 34.2137 143.643 36.1919C143.626 38.7331 143.619 41.2742 143.616 43.8154C143.613 45.7638 143.607 47.7122 143.6 49.6606C143.596 50.5979 143.593 51.5352 143.591 52.4725C143.587 53.7797 143.578 55.0868 143.569 56.394C143.564 57.1391 143.56 57.8842 143.556 58.652C143.468 60.3216 143.468 60.3216 142.847 60.9427C140.712 61.0592 140.712 61.0592 138.5 60.9427C136.773 59.2155 137.1 58.1784 137.097 55.7594C137.095 55.3553 137.093 54.9513 137.09 54.535C137.085 53.1967 137.089 51.8586 137.093 50.5203C137.092 49.592 137.091 48.6638 137.089 47.7356C137.087 45.7892 137.09 43.8429 137.096 41.8964C137.103 39.3985 137.099 36.9007 137.091 34.4027C137.087 32.4857 137.088 30.5687 137.091 28.6517C137.092 27.7305 137.091 26.8093 137.088 25.8881C137.085 24.6018 137.09 23.3158 137.097 22.0295C137.098 21.2968 137.099 20.5641 137.1 19.8091C137.305 17.5763 137.748 16.9233 140.014 16.6909Z" fill="black"/>
<path id="Vector_14" d="M201.228 33.6157C201.257 39.0198 201.279 44.4239 201.293 49.828C201.299 52.3372 201.308 54.8464 201.322 57.3556C201.336 59.7758 201.343 62.196 201.346 64.6162C201.348 65.5409 201.353 66.4655 201.36 67.3902C201.369 68.6825 201.37 69.9747 201.369 71.267C201.372 72.0035 201.375 72.74 201.378 73.4988C201.228 75.2279 201.228 75.2279 199.986 76.4701C198.433 76.6254 198.433 76.6254 196.881 76.4701C195.639 75.2279 195.639 75.2279 195.489 73.4988C195.492 72.7623 195.495 72.0258 195.498 71.267C195.497 70.658 195.497 70.658 195.497 70.0366C195.498 68.6923 195.508 67.3482 195.517 66.004C195.52 65.0728 195.521 64.1416 195.523 63.2104C195.527 60.7578 195.54 58.3053 195.553 55.8528C195.566 53.3508 195.572 50.8489 195.578 48.3469C195.591 43.4365 195.613 38.5261 195.639 33.6157C197.799 32.8956 199.029 33.1759 201.228 33.6157Z" fill="black"/>
<path id="Vector_15" d="M124.216 216.212C127.25 219.874 126.971 224.118 126.7 228.634C127.52 228.634 128.34 228.634 129.184 228.634C129.184 228.224 129.184 227.814 129.184 227.392C129.594 227.392 130.004 227.392 130.426 227.392C130.591 227.953 130.756 228.514 130.926 229.092C131.146 229.825 131.365 230.558 131.591 231.312C131.807 232.04 132.023 232.768 132.246 233.518C132.841 235.534 132.841 235.534 134.153 237.329C134.16 238.94 134.16 238.94 133.959 240.745C133.897 241.341 133.835 241.936 133.772 242.55C133.532 244.161 133.532 244.161 132.911 246.024C130.4 245.074 129.048 243.329 127.476 241.25C127.206 240.894 126.936 240.539 126.658 240.172C122.313 234.286 116.142 224.933 116.142 217.455C121.833 214.955 121.833 214.955 124.216 216.212Z" fill="#F9EFE5"/>
<path id="Vector_16" d="M280.206 334.137C281.791 335.11 282.593 336.255 283.639 337.789C284.013 338.324 284.386 338.858 284.772 339.409C285.689 341.038 286.069 342.315 286.317 344.155C283.377 345.156 280.429 346.132 277.467 347.066C276.977 347.222 276.487 347.378 275.982 347.539C274.412 347.906 273.017 347.941 271.411 347.881C270.879 345.654 270.837 343.896 271.411 341.67C272.445 340.122 273.664 338.827 274.982 337.517C275.484 337.013 275.484 337.013 275.995 336.499C278.411 334.245 278.411 334.245 280.206 334.137Z" fill="black"/>
<path id="Vector_17" d="M268.306 341.049C268.306 343.918 268.306 346.788 268.306 349.744C266.159 350.367 264.011 350.988 261.863 351.607C261.251 351.785 260.639 351.963 260.009 352.146C259.133 352.398 259.133 352.398 258.238 352.655C257.698 352.812 257.158 352.968 256.602 353.129C255.264 353.471 255.264 353.471 254.022 353.471C253.926 351.976 253.924 350.612 254.022 349.123C254.05 348.646 254.079 348.169 254.109 347.677C254.427 345.897 254.735 344.948 255.885 343.533C259.914 341.783 263.908 341.049 268.306 341.049Z" fill="black"/>
<path id="Vector_18" d="M74.5685 126.739C75.4716 126.758 75.4716 126.758 76.3929 126.778C76.7756 130.529 76.5078 132.843 74.1488 135.84C72.2072 137.814 70.7579 138.167 68.086 138.229C65.5218 138.189 64.8228 138.135 62.7292 136.521C62.3193 135.97 61.9094 135.42 61.487 134.852C61.1027 134.545 60.7184 134.237 60.3225 133.92C59.6238 132.989 59.6238 132.989 59.8179 131.32C59.9588 130.846 60.0997 130.372 60.2449 129.883C61.2697 129.679 62.2944 129.474 63.3503 129.262C64.8874 131.414 64.8874 131.414 66.4557 133.61C68.6077 133.302 68.6077 133.302 70.8032 132.989C70.8857 132.593 70.9681 132.196 71.0531 131.788C71.1628 131.275 71.2725 130.762 71.3855 130.233C71.5476 129.465 71.5476 129.465 71.713 128.683C72.2403 126.646 72.3624 126.784 74.5685 126.739Z" fill="black"/>
<path id="Vector_19" d="M52.1715 134.23C52.502 137.931 52.0953 140.089 49.9443 143.153C48.0747 145.312 46.2979 145.366 43.554 145.72C40.7744 145.678 39.3607 144.369 37.4209 142.498C37.0366 142.095 37.0366 142.095 36.6445 141.683C36.8495 140.658 37.0544 139.634 37.2656 138.578C38.3137 138.073 38.3137 138.073 39.7499 137.957C40.4993 138.725 40.4993 138.725 41.2638 139.509C41.789 140.022 42.3142 140.534 42.8553 141.062C44.9956 141.012 45.6847 140.717 47.2029 139.199C47.4414 137.993 47.4414 137.993 47.5134 136.676C47.6159 135.869 47.7184 135.062 47.8239 134.23C49.4801 133.402 50.4118 133.813 52.1715 134.23Z" fill="black"/>
<path id="Vector_20" d="M209.924 362.166C210.334 362.371 210.744 362.576 211.166 362.787C211.287 366.548 211.287 366.548 211.166 367.756C210.756 368.166 210.346 368.576 209.924 368.998C209.514 368.998 209.104 368.998 208.682 368.998C208.682 367.154 208.682 365.309 208.682 363.408C209.092 363.408 209.501 363.408 209.924 363.408C209.924 362.999 209.924 362.589 209.924 362.166Z" fill="#F7F7F7"/>
<path id="Vector_21" d="M208.061 367.135C209.598 367.442 209.598 367.442 211.166 367.756C210.961 369.395 210.756 371.035 210.545 372.724C209.93 372.52 209.315 372.315 208.682 372.103C207.84 370.421 208.02 368.992 208.061 367.135Z" fill="#E7E6E6"/>
<path id="Vector_22" d="M162.1 395.083C162.305 395.903 162.51 396.722 162.722 397.567C160.917 398.348 159.743 398.809 157.753 398.809C158.488 396.604 159.62 395.083 162.1 395.083Z" fill="#B2B2B2"/>
<path id="Vector 7" d="M8.75781 87.3628C9.71573 87.9288 10.9276 88.6776 12.2556 89.5118C13.9107 90.5515 14.4063 90.8791 15.2191 91.4504C16.4748 92.333 17.0017 92.6603 17.3658 93.0351C17.7557 93.4362 18.2116 93.5853 18.6737 93.8053C19.2232 94.0669 20.1868 94.2872 21.7038 94.6623C23.3923 95.0797 23.9063 95.257 24.5116 95.4107C24.6986 95.4549 24.9381 95.4984 25.105 95.4664C25.2719 95.4345 25.359 95.3256 25.4487 95.2134" stroke="black" stroke-width="2" stroke-linecap="round"/>
<path id="Vector 8" d="M65.2598 59.3574C66.4882 58.9405 67.8907 58.4153 69.5753 57.6118C70.3042 57.2641 70.7988 57.0273 71.3163 56.7416C71.5469 56.6314 71.7897 56.5648 72.0529 56.5101C72.1855 56.4771 72.3161 56.4335 72.4507 56.3887" stroke="black" stroke-width="2" stroke-linecap="round"/>
<path id="Vector 9" d="M85.9359 188.707C85.5666 188.79 85.1973 188.874 84.596 189.006C83.9948 189.138 83.1727 189.317 82.6659 189.439C81.7294 189.664 80.8291 189.932 80.0543 190.15C78.8141 190.499 78.5244 190.668 78.0742 190.89C77.3555 191.244 76.985 191.437 76.7071 191.6C76.1955 191.9 75.528 192.184 75.2571 192.286C74.9742 192.425 74.5901 192.617 74.3423 192.81C74.2879 192.846 74.2284 192.87 74.167 192.931" stroke="#F9EFE5" stroke-width="2" stroke-linecap="round"/>
<path id="Vector 10" d="M55.9727 128.789C56.1863 129.918 56.3083 130.56 56.5448 131.186C56.6465 131.455 56.9176 132.1 57.3224 132.925C57.7709 133.839 58.2486 134.931 58.478 135.389C58.5668 135.566 58.6603 135.844 58.9721 136.506C59.2838 137.169 59.7982 138.213 60.1389 138.849C60.5955 139.702 61.2406 140.308 62.1099 141.162C62.9342 141.971 63.4592 142.618 64.0296 143.037C64.9074 143.681 65.7663 144.207 66.7083 144.869C67.3654 145.33 68.4975 145.879 69.1951 146.228C69.8927 146.577 70.1499 146.668 70.411 146.775C70.6721 146.883 70.9293 147.004 71.1943 147.037" stroke="#F9EFE5" stroke-width="2" stroke-linecap="round"/>
<path id="Vector 11" d="M62.9404 127.001C63.337 127.702 63.8537 128.554 64.3831 129.542C64.6731 130.084 64.8798 130.484 65.2544 130.752C65.5362 130.954 65.949 131.141 66.4004 131.341C66.7232 131.483 67.3226 131.509 67.9588 131.525C68.4197 131.536 68.9585 131.281 69.3427 131.075C69.7392 130.861 69.9387 130.624 70.2138 130.326C70.6291 129.877 70.9318 129.206 71.0705 128.577C71.2104 127.943 71.3609 127.492 71.5363 126.599C71.5902 126.315 71.5906 126.1 71.5677 125.872C71.5599 125.764 71.5599 125.673 71.5599 125.58" stroke="#F9EFE5" stroke-width="2" stroke-linecap="round"/>
<path id="Vector 12" d="M37.7695 133.695C38.2569 134.61 38.7461 135.222 39.0065 135.672C39.1968 136.002 39.4036 136.292 39.6028 136.613C39.7841 136.905 40.0299 137.209 40.3281 137.423C40.8001 137.762 41.2678 137.912 41.665 138.111C42.1065 138.332 42.4296 138.508 42.7656 138.562C43.1198 138.62 43.6042 138.692 44.0799 138.601C44.474 138.525 45.0108 138.326 45.4021 138.059C45.7246 137.839 45.9901 137.274 46.1974 136.784C46.3629 136.392 46.5697 135.217 46.8468 134.37C46.8929 134.201 46.9383 133.975 46.9617 133.706C46.985 133.438 46.985 133.136 46.985 132.824" stroke="#F9EFE5" stroke-width="2" stroke-linecap="round"/>
<path id="Vector 13" d="M72.0502 179.28C73.8883 179.105 75.4632 178.843 76.553 178.656C78.1038 178.389 79.8315 177.768 80.5887 177.625C80.9514 177.556 81.9104 177.374 83.2248 177.176C84.0122 177.058 84.9596 177.001 86.2832 176.782C88.319 176.445 88.889 176.364 89.5354 176.222C90.157 176.084 91.2962 175.882 92.5777 175.718C93.3555 175.618 93.9106 175.618 94.5878 175.553C95.4783 175.466 96.344 175.487 98.2272 175.432C99.7624 175.387 102.477 175.442 103.788 175.464C105.099 175.486 104.925 175.508 103.967 175.519C103.01 175.53 101.273 175.53 100.28 175.519C98.6734 175.502 97.7124 175.378 96.8437 175.344C96.346 175.324 95.9111 175.442 95.4069 175.519C94.5246 175.653 93.8731 175.968 92.6136 176.275C91.6441 176.51 90.8021 176.692 89.7729 176.944C88.901 177.157 88.0167 177.306 87.5776 177.361C87.1384 177.416 86.701 177.547 86.0553 177.711C84.8072 178.029 83.2248 178.443 81.965 178.841C81.1539 179.096 80.0788 179.41 79.5519 179.619C78.9986 179.838 77.5875 180.35 75.2261 181.323C73.956 181.846 72.6041 182.577 71.8344 182.957C70.6165 183.557 69.9042 183.884 69.344 184.202C69.049 184.344 68.0674 184.889 66.7524 185.624C66.2622 185.88 66.132 185.902 65.8662 185.793" stroke="#F9EFE5" stroke-width="2" stroke-linecap="round"/>
<path id="Vector 14" d="M127.062 113.413C127.391 114.097 127.721 114.782 128.448 116.022C129.176 117.261 130.291 119.036 130.891 120.014C131.562 121.106 131.924 121.705 132.664 122.979C133.124 123.771 133.556 124.964 134.425 126.807C135.295 128.65 136.537 131.134 137.278 132.693C138.02 134.252 138.222 134.809 138.289 135.046C138.355 135.283 138.279 135.181 138.201 135.077" stroke="black" stroke-width="2" stroke-linecap="round"/>
<path id="Vector 15" d="M128.807 234.216C128.755 233.901 128.702 233.586 128.512 232.862C128.323 232.139 127.997 231.016 127.814 230.416C127.616 229.769 127.535 229.616 127.215 228.858C126.94 228.21 126.38 227.051 126.067 226.409C125.641 225.535 125.163 225.06 124.748 224.554C124.283 223.988 124.186 223.499 123.963 223.165C123.82 222.95 123.634 222.735 123.274 222.217C123.016 221.845 122.934 221.474 122.965 221.388C122.986 221.332 123.143 221.596 123.449 221.982C123.756 222.368 124.238 222.956 124.555 223.379C125.038 224.023 125.254 224.566 125.445 225.037C125.575 225.359 125.69 225.585 126.089 226.521C126.442 227.348 127.16 228.863 127.57 229.726C127.979 230.588 128.074 230.746 128.206 231.084C128.536 231.926 128.743 232.582 128.912 232.977C129.212 233.68 129.494 234.53 129.78 235.16C130.046 235.745 130.174 236.228 130.323 236.542C130.453 236.817 130.587 237.14 130.736 237.448C130.767 237.513 130.789 237.565 130.538 237.046C130.286 236.528 129.761 235.436 129.192 233.856C128.622 232.275 128.024 230.239 127.611 228.702C127.198 227.165 126.988 226.189 126.733 225.334C126.478 224.48 126.184 223.777 126.017 223.393C125.725 222.725 125.195 222.111 124.706 221.728C124.397 221.486 123.881 221.01 123.063 220.145C122.811 219.878 122.648 219.703 122.362 219.47C122.118 219.3 121.98 219.236 121.848 219.215C121.768 219.194 121.664 219.152 121.46 219.013" stroke="#F9EFE5" stroke-width="2" stroke-linecap="round"/>
</g>
<path id="Vector 19" d="M43.3076 124.979C43.2171 125.22 43.1265 125.461 41.8573 126.823C40.5882 128.186 38.1431 130.661 35.624 133.211" stroke="black" stroke-width="5" stroke-linecap="round"/>
<path id="Vector 20" d="M59.041 118.85C59.3731 119.031 59.7051 119.212 62.0646 119.486C64.4241 119.761 68.801 120.123 73.3106 120.496" stroke="black" stroke-width="5" stroke-linecap="round"/>
<path id="Vector 21" d="M69.1396 194.11C69.2516 194.11 70.0925 193.569 71.3354 192.703C72.5077 191.886 73.8634 190.667 74.3755 190.164C74.7832 189.764 75.4278 189.609 76.0611 189.288C76.266 189.184 76.9521 188.857 77.8934 188.32C78.3769 188.045 79.5101 187.428 81.1477 186.496C82.0508 185.982 82.7752 185.71 83.4994 185.361C84.0067 185.118 84.4164 184.955 85.2585 184.534C85.9069 184.209 87.0332 183.721 87.675 183.452C88.3167 183.183 88.4473 183.165 89.1673 182.894C89.8874 182.623 91.1929 182.101 91.9867 181.795C93.3762 181.258 93.9476 181.093 94.4763 180.895C95.6775 180.445 97.0764 180.113 97.5848 180.046C98.3379 179.981 98.9986 179.867 99.2524 179.858C99.3756 179.849 99.4875 179.83 99.6593 179.698" stroke="black" stroke-width="2" stroke-linecap="round"/>
<path id="Vector 22" d="M69.9307 191.623C70.1172 191.548 71.4442 191.006 73.3559 190.215C74.1384 189.892 74.3379 189.758 74.4702 189.72C74.2272 190.002 73.1793 190.47 71.88 190.951C71.4013 191.114 71.2894 191.114 71.1741 191.001" stroke="black" stroke-width="2" stroke-linecap="round"/>
<path id="Vector 23" d="M63.0273 192.038C63.3192 191.746 63.7727 191.338 64.3948 190.823C64.7101 190.562 65.0392 190.32 65.7683 189.878C66.4973 189.436 67.62 188.808 68.232 188.456C68.919 188.061 69.2389 187.822 69.7031 187.544C70.0329 187.347 70.3065 187.276 71.2622 186.764C72.1115 186.31 73.7223 185.5 74.5999 185.061C75.4774 184.622 75.5784 184.589 76.2872 184.229C76.996 183.869 78.3095 183.184 79.0928 182.792C79.8761 182.4 80.0894 182.322 80.5136 182.118C81.5762 181.609 82.2704 181.243 82.4284 181.187C82.6893 181.094 83.2532 180.836 83.9333 180.598C84.2585 180.484 84.9297 180.269 85.9661 179.997C86.6237 179.825 86.9984 179.792 87.7468 179.668C88.3698 179.564 89.4944 179.431 90.2355 179.351C90.9766 179.27 91.3022 179.259 91.5148 179.236C91.7274 179.213 91.8172 179.18 91.9778 179.077" stroke="black" stroke-width="2" stroke-linecap="round"/>
<path id="Vector 24" d="M3.3325 82.2261C3.03154 82.3529 2.61897 82.4798 2.20545 82.5914C1.68079 82.733 1.31498 82.766 0.877853 82.9565C0.7659 83.0053 0.694941 83.0989 0.6544 83.1788C0.48179 83.5189 0.740728 84.0366 0.851859 84.4503C0.961455 84.8584 1.21673 85.2614 1.52675 85.4448C1.89614 85.6633 3.11405 86.9527 3.94348 87.6309C4.34137 87.9563 4.92075 88.3931 6.10861 89.1858C7.68363 90.2369 8.06865 90.3171 8.56063 90.5399C9.45111 90.943 10.2893 91.5706 10.8672 91.8284C11.2313 91.9908 11.9291 92.2402 12.5596 92.5433C12.9795 92.7451 13.505 92.9251 14.6556 93.4481C15.0927 93.6467 15.366 93.9105 15.6596 94.0929C15.9122 94.2499 16.8694 94.8286 18.2123 95.5915C18.9935 96.0353 19.3248 96.1999 20.0237 96.5256C20.353 96.6791 18.9318 96.2018 17.5035 95.8286C16.8552 95.6592 15.9308 95.2822 15.3529 95.0168C15.2043 94.9485 15.0188 94.8978 14.317 94.4876C13.7129 94.1346 12.5921 93.5108 11.7724 92.9976C10.9528 92.4844 10.4649 92.1067 9.89872 91.7547C9.33258 91.4027 8.703 91.0879 8.07962 90.6896C6.81565 89.8821 6.08452 89.2383 5.76735 89.0243C5.08722 88.5656 4.65366 88.126 4.26423 87.8079C3.69339 87.3415 3.08257 86.4614 2.71365 85.8369C2.60323 85.694 2.39862 85.4894 2.2696 85.3525C2.14059 85.2156 2.09337 85.1527 2.04472 85.0878" stroke="black" stroke-width="2" stroke-linecap="round"/>
<path id="Vector 25" d="M51.5527 63.2911C52.0879 62.9763 53.0718 62.4993 54.2158 62.0066C55.0445 61.6497 55.6984 61.4481 56.2014 61.2487C57.0768 60.9017 58.6221 60.2261 59.3798 59.8346C60.4081 59.3031 60.8829 59.1425 61.5013 58.8728C63.2834 58.0955 63.9516 57.7593 64.436 57.4262C65.2882 56.84 66.4089 56.38 67.187 56.0578C67.8031 55.8027 68.2919 55.7399 68.9728 55.4156C69.3968 55.2136 70.1702 54.8719 70.9452 54.5676C72.461 53.9724 73.3328 53.7362 73.4914 53.7124C74.0003 53.6359 74.6993 53.4343 75.6747 53.4024C76.0367 53.3905 76.2423 53.3227 76.9832 53.2125C77.6473 53.1138 78.8889 52.882 79.7734 52.7606C81.1458 52.6235 81.7902 52.5758 82.0363 52.5045C82.1407 52.4647 82.2037 52.4175 82.1255 52.4165" stroke="black" stroke-width="2" stroke-linecap="round"/>
<path id="Vector 26" d="M72.0859 54.0857C72.7165 53.802 74.2122 53.1967 75.0557 52.8392C75.8931 52.4844 76.3289 52.2743 76.8688 52.0518C77.6468 51.7312 78.9894 51.1649 79.9774 50.7404C80.4181 50.5511 81.19 50.0345 82.1115 49.5816C82.9763 49.1566 83.8009 48.9986 84.1753 48.8874C84.6197 48.7555 85.1669 48.6656 85.7795 48.4665C86.8876 48.1063 87.2197 48.0923 87.5226 48.1233C87.8822 48.1602 87.2063 48.948 86.9366 49.6222C86.5561 50.5733 86.3631 51.3657 86.1344 52.202C85.9439 52.8986 85.5752 54.1401 85.3808 54.8358C85.1567 55.6378 85.1073 55.8967 84.9728 56.434C84.5014 58.317 84.3599 58.9326 84.1469 59.7386C83.9903 60.3314 83.6349 61.2687 83.2994 62.4005C82.9638 63.5323 82.6333 64.8229 82.4552 65.5508C82.247 66.4012 82.2293 66.6287 82.1976 66.7088C82.1447 66.8425 82.1654 66.2342 82.2129 65.8219C82.2609 65.4049 82.7812 64.2229 83.4646 62.6893C83.8754 61.7676 83.9936 61.2105 84.0968 60.8201C84.2226 60.3447 84.5964 59.2121 84.8042 58.5784C84.9458 58.1463 85.0906 57.5694 85.542 56.2375C85.8896 55.212 86.2667 54.4053 86.3941 53.9682C86.5088 53.5744 86.6483 53.1338 86.7439 52.6568C86.8637 52.0595 87.0299 51.307 87.1811 50.6934C87.2675 50.3428 87.2846 50.0173 87.3165 49.699C87.3962 49.3806 87.4591 49.0634 87.5311 48.6978C87.5392 48.5707 87.5392 48.3976 87.5392 48.3623" stroke="black" stroke-width="2" stroke-linecap="round"/>
<path id="Vector 27" d="M132.403 119.086C132.424 119.116 132.444 119.147 132.734 119.559C133.024 119.971 133.583 120.763 134.03 121.441C134.478 122.118 134.798 122.657 134.979 122.967C135.195 123.34 135.256 123.468 135.366 123.669C135.444 123.813 135.552 124.049 135.665 124.25C135.779 124.452 135.89 124.614 136.006 124.82C136.122 125.026 136.239 125.27 136.345 125.464C136.451 125.658 136.543 125.795 136.652 125.967" stroke="black" stroke-width="2" stroke-linecap="round"/>
<path id="Vector 28" d="M119.202 237.583C119.238 237.628 119.275 237.674 119.987 238.395C120.7 239.117 122.087 240.514 122.947 241.419C123.807 242.324 124.097 242.696 124.333 242.969C124.568 243.243 124.741 243.406 126.24 245.1C127.739 246.793 130.559 250.013 132.094 251.739C133.628 253.466 133.792 253.602 134.08 253.903C134.368 254.205 134.776 254.667 135.169 255.199" stroke="black" stroke-width="2" stroke-linecap="round"/>
<path id="Vector 29" d="M139.849 253.5C140.484 254.638 141.118 255.777 141.538 256.558C141.958 257.339 142.145 257.728 142.48 258.274C142.814 258.82 143.289 259.512 143.96 260.358C144.63 261.204 145.48 262.184 145.99 262.747C146.5 263.309 146.644 263.424 147.388 264.341C148.133 265.258 149.473 266.973 150.228 267.921C150.983 268.869 151.113 268.999 151.461 269.419C152.384 270.533 153.108 271.402 153.377 271.634C153.56 271.793 153.705 271.955 153.793 272.021C153.929 272.123 153.344 271.696 153.017 271.326C152.836 271.121 152.734 270.798 151.853 269.323C150.972 267.849 149.343 265.212 147.964 263.234C146.585 261.256 145.504 260.017 144.839 259.292C144.175 258.567 143.958 258.394 143.17 257.426C142.381 256.458 141.027 254.7 140.307 253.758C139.588 252.816 139.545 252.744 139.369 252.67" stroke="black" stroke-width="2" stroke-linecap="round"/>
</g>
<rect id="Rectangle 34" x="-2425" y="-646" width="4257" height="7751" stroke="white" stroke-width="4"/>
</svg>
