<svg width="297" height="413" viewBox="0 0 297 413" fill="none" xmlns="http://www.w3.org/2000/svg">
<rect width="297" height="413" fill="#1E1E1E"/>
<rect id="Rectangle 35" x="-2448" y="-542" width="3557" height="1503" stroke="white" stroke-width="4"/>
<g id="Physical health">
<rect width="1440" height="1024" transform="translate(-602 -257)" fill="#F9EFE5"/>
<g id="Group 78">
<path id="Vector" d="M155.839 48.7466C156.827 48.7363 157.814 48.7197 158.801 48.6976C160.281 48.6651 161.761 48.6519 163.241 48.6431C163.9 48.6228 163.9 48.6228 164.572 48.6021C165.805 48.6072 165.805 48.6072 167.921 48.9556C169.654 50.8235 170.844 52.7855 171.969 55.059C172.273 55.6676 172.577 56.2762 172.889 56.9033C173.211 57.5575 173.533 58.2117 173.865 58.8857C174.385 59.9325 174.906 60.9794 175.427 62.0261C176.156 63.4928 176.882 64.961 177.607 66.4293C179.206 69.6634 180.812 72.8941 182.417 76.1247C182.764 76.8223 183.111 77.5199 183.468 78.2386C185.718 82.756 188.027 87.2378 190.396 91.6941C192.662 95.9578 194.83 100.267 196.979 104.59C197.365 105.366 197.752 106.14 198.138 106.915C198.887 108.416 199.634 109.916 200.382 111.417C201.671 114.007 202.966 116.594 204.262 119.18C204.897 120.449 205.532 121.718 206.167 122.986C206.522 123.64 206.522 123.64 206.883 124.306C207.362 125.374 207.362 125.374 207.362 127.165C207.756 127.165 208.151 127.165 208.557 127.165C208.538 126.562 208.519 125.958 208.5 125.337C208.557 123.005 208.908 121.071 209.477 118.814C209.573 118.425 209.67 118.035 209.769 117.634C209.976 116.801 210.185 115.969 210.396 115.137C210.841 113.381 211.275 111.623 211.711 109.865C211.932 108.97 212.154 108.076 212.376 107.181C213.401 103.057 214.369 98.9198 215.317 94.777C215.455 94.1787 215.592 93.5805 215.733 92.9642C215.996 91.817 216.258 90.6697 216.52 89.5223C216.963 87.5904 217.412 85.6601 217.862 83.7297C218.663 80.2692 219.376 76.7993 220.063 73.3145C220.509 71.6424 220.509 71.6424 221.704 70.4483C222.936 70.0778 224.184 69.7615 225.439 69.4782C226.442 69.245 226.442 69.245 227.465 69.0071C232.27 68.1699 232.27 68.1699 234.552 69.5808C235.045 70.0148 235.538 70.4489 236.046 70.8961C236.612 71.3848 237.178 71.8735 237.762 72.377C238.063 72.6436 238.364 72.9101 238.674 73.1848C240.028 74.3809 241.402 75.5538 242.775 76.7283C243.496 77.3451 244.216 77.9631 244.935 78.582C247.396 80.6973 249.906 82.7387 252.454 84.7489C254.234 86.1804 255.972 87.6594 257.709 89.1426C260.881 91.8488 264.126 94.447 267.423 96.999C271.371 100.059 271.371 100.059 271.957 102.842C272.072 103.373 272.186 103.904 272.304 104.452C272.425 105.034 272.545 105.616 272.669 106.216C272.799 106.824 272.929 107.432 273.062 108.058C273.488 110.061 273.909 112.064 274.329 114.068C274.623 115.456 274.919 116.844 275.214 118.231C275.665 120.348 276.115 122.464 276.564 124.581C277.821 130.504 279.111 136.418 280.418 142.329C280.967 144.813 281.514 147.296 282.06 149.78C282.163 150.246 282.265 150.712 282.371 151.192C284.415 160.494 286.417 169.805 288.349 179.131C288.882 181.688 289.448 184.235 290.041 186.779C290.179 187.382 290.318 187.986 290.46 188.608C290.727 189.768 290.999 190.926 291.279 192.083C293.021 199.735 292.064 207.561 291.569 215.321C291.357 218.647 291.154 221.972 290.951 225.298C290.908 226.005 290.865 226.712 290.82 227.44C290.321 235.675 289.879 243.912 289.441 252.15C289.4 252.93 289.358 253.711 289.316 254.514C289.079 258.977 288.843 263.44 288.609 267.903C288.451 270.888 288.294 273.873 288.136 276.857C287.202 294.504 286.274 312.152 285.37 329.801C285.32 330.776 285.32 330.776 285.269 331.77C285.015 336.73 284.762 341.691 284.508 346.651C283.589 364.641 282.619 382.625 281.463 400.601C280.71 400.884 279.958 401.167 279.205 401.45C278.786 401.608 278.367 401.765 277.936 401.928C272.57 403.917 269.306 403.457 264.156 401.296C261.99 400.467 259.787 399.819 257.559 399.183C253.834 398.117 250.142 396.978 246.467 395.75C246.033 395.606 245.6 395.462 245.153 395.313C241.19 393.98 237.282 392.513 233.394 390.974C232.89 390.776 232.385 390.577 231.865 390.373C230.668 389.855 230.668 389.855 230.07 389.258C229.937 388.417 229.839 387.57 229.757 386.722C229.676 385.91 229.676 385.91 229.593 385.082C229.536 384.488 229.48 383.895 229.421 383.283C229.36 382.667 229.299 382.051 229.236 381.416C229.038 379.428 228.844 377.44 228.651 375.452C227.867 367.406 227.063 359.374 225.952 351.366C225.481 347.926 225.094 344.482 224.738 341.028C224.128 335.115 223.422 329.216 222.703 323.315C220.637 306.346 218.68 289.364 216.731 272.381C216.385 269.367 216.038 266.353 215.691 263.339C215.271 259.683 214.851 256.028 214.43 252.372C214.353 251.699 214.276 251.026 214.196 250.332C213.772 246.643 213.35 242.954 212.929 239.265C212.746 237.667 212.56 236.069 212.373 234.471C212.262 233.515 212.152 232.559 212.042 231.603C211.992 231.185 211.942 230.768 211.89 230.337C211.462 226.583 211.425 222.881 211.545 219.107C211.151 219.107 210.756 219.107 210.35 219.107C210.219 219.665 210.088 220.223 209.953 220.797C208.898 225.199 207.723 229.533 206.328 233.839C204.255 240.32 202.313 246.838 200.378 253.361C200.012 254.59 199.646 255.82 199.281 257.049C198.543 259.529 197.806 262.009 197.069 264.49C196.084 267.808 195.096 271.126 194.108 274.443C193.533 276.371 192.959 278.299 192.385 280.227C192.19 280.881 192.19 280.881 191.991 281.549C191.617 282.804 191.244 284.06 190.87 285.315C190.749 285.722 190.628 286.129 190.503 286.549C189.815 288.864 189.133 291.181 188.455 293.5C186.086 301.595 183.617 309.66 181.165 317.73C180.495 319.935 179.826 322.14 179.157 324.346C178.956 325.005 178.956 325.005 178.752 325.678C178.483 326.565 178.214 327.451 177.945 328.337C177.545 329.657 177.144 330.977 176.743 332.296C174.262 340.47 171.786 348.646 169.315 356.823C167.88 361.571 166.44 366.319 164.989 371.063C164.578 372.412 164.166 373.761 163.754 375.111C163.383 376.326 163.01 377.54 162.636 378.754C161.439 382.679 160.349 386.605 159.377 390.591C158.742 393.092 157.975 395.54 157.165 397.989C157.017 398.459 156.869 398.93 156.717 399.414C156.569 399.863 156.421 400.311 156.268 400.774C156.139 401.172 156.01 401.57 155.876 401.981C155.372 402.989 155.372 402.989 153.579 404.183C152.453 404.329 152.453 404.329 151.16 404.323C150.422 404.324 150.422 404.324 149.668 404.325C149.129 404.32 148.591 404.315 148.035 404.309C147.466 404.308 146.896 404.307 146.309 404.306C144.407 404.301 142.505 404.288 140.603 404.274C139.256 404.269 137.91 404.264 136.564 404.259C132.995 404.245 129.426 404.223 125.857 404.198C123.754 404.184 121.651 404.171 119.549 404.158C111.265 404.107 102.983 404.039 94.6998 403.961C91.8795 403.935 89.0593 403.91 86.239 403.886C78.7977 403.824 71.3569 403.749 63.916 403.644C60.5434 403.599 57.1734 403.585 53.8006 403.612C51.9434 403.623 50.0866 403.616 48.2294 403.603C47.018 403.603 45.8067 403.629 44.5956 403.657C39.5762 403.601 39.5762 403.601 37.4937 401.864C36.4077 400.499 35.5218 399.13 34.6598 397.616C34.259 397.047 33.8583 396.479 33.4454 395.893C32.9696 395.17 32.9696 395.17 32.4842 394.433C32.1283 393.895 31.7724 393.358 31.4058 392.804C31.0499 392.262 30.694 391.719 30.3273 391.161C29.6027 390.062 28.8776 388.964 28.1517 387.866C27.8372 387.387 27.5228 386.908 27.1987 386.415C26.3393 385.078 26.3393 385.078 25.3182 384.006C24.1299 382.093 24.0719 380.148 23.9079 377.954C23.8655 377.474 23.8231 376.993 23.7794 376.498C23.6393 374.894 23.51 373.288 23.3804 371.683C23.2829 370.548 23.1846 369.413 23.0854 368.279C22.9271 366.466 22.7696 364.653 22.6149 362.839C22.0354 356.053 21.3859 349.274 20.7373 342.495C19.818 332.885 18.9282 323.273 18.1008 313.655C17.5592 307.378 17.0088 301.101 16.4579 294.825C16.2556 292.519 16.0538 290.214 15.8532 287.909C15.6555 285.636 15.4563 283.363 15.2563 281.091C15.1812 280.235 15.1066 279.38 15.0326 278.525C14.9297 277.338 14.8248 276.15 14.7199 274.963C14.6611 274.291 14.6024 273.619 14.5418 272.927C14.3464 271.089 14.0593 269.286 13.7443 267.465C13.6716 266.594 13.6142 265.722 13.5762 264.849C13.5539 264.386 13.5316 263.924 13.5085 263.447C13.4663 262.489 13.4243 261.532 13.3825 260.574C13.3602 260.113 13.3378 259.652 13.3148 259.177C13.2967 258.762 13.2786 258.347 13.2599 257.92C13.1821 256.73 13.1821 256.73 12.859 255.657C12.4048 253.714 12.3261 251.753 12.2037 249.767C12.1395 248.801 12.0752 247.835 12.0108 246.87C11.9601 246.096 11.9601 246.096 11.9085 245.307C11.1628 234.009 10.2153 222.733 9.18772 211.457C9.12193 210.729 9.05614 210.001 8.98836 209.25C8.80008 207.171 8.60929 205.092 8.4174 203.013C8.33251 202.078 8.33251 202.078 8.24592 201.124C8.19187 200.547 8.13782 199.97 8.08213 199.375C8.03579 198.874 7.98944 198.373 7.94169 197.857C7.76139 196.361 7.46826 194.911 7.17087 193.435C7.0163 191.765 6.88003 190.1 6.76237 188.428C6.72625 187.941 6.69014 187.453 6.65294 186.952C6.49961 184.883 6.35051 182.814 6.2014 180.746C6.09126 179.227 5.9793 177.708 5.86599 176.189C5.82813 175.68 5.79027 175.171 5.75126 174.647C5.53398 171.834 5.26305 169.038 4.91484 166.239C4.6999 164.459 4.52723 162.675 4.35109 160.891C4.23335 159.85 4.0923 158.812 3.93397 157.776C2.13823 145.894 5.9657 137.646 11.5065 127.51C12.5569 125.572 13.5696 123.615 14.5858 121.659C16.5219 117.947 18.4944 114.256 20.4818 110.57C25.6017 101.073 30.4524 91.4511 35.2574 81.7917C42.7942 66.6408 42.7942 66.6408 46.3874 59.8139C46.6275 59.3576 46.8676 58.9012 47.115 58.4311C50.4704 52.1026 50.4704 52.1026 51.9898 51.3437C52.9584 51.2579 53.9303 51.2083 54.9021 51.1757C55.5333 51.1538 56.1644 51.1319 56.8147 51.1093C57.5227 51.0881 58.2306 51.0669 58.9601 51.0451C59.7163 51.0209 60.4726 50.9967 61.2517 50.9717C73.375 50.5947 85.5038 50.3898 97.6304 50.1496C102.578 50.0515 107.525 49.9524 112.472 49.8511C113.069 49.8389 113.666 49.8267 114.281 49.8142C122.38 49.6474 130.475 49.43 138.57 49.155C144.326 48.9603 150.08 48.7901 155.839 48.7466Z" fill="black"/>
<path id="Vector_2" d="M210.35 219.107C210.745 219.107 211.139 219.107 211.545 219.107C211.588 219.569 211.632 220.031 211.676 220.507C212.762 232.072 213.98 243.616 215.32 255.154C215.574 257.345 215.826 259.536 216.079 261.727C216.405 264.557 216.731 267.386 217.058 270.216C217.883 277.347 218.699 284.48 219.513 291.612C219.919 295.163 220.325 298.714 220.732 302.265C221.063 305.16 221.394 308.054 221.723 310.948C222.035 313.685 222.348 316.422 222.662 319.158C222.778 320.165 222.893 321.172 223.007 322.179C223.589 327.303 224.227 332.401 225.04 337.495C225.338 339.419 225.556 341.342 225.736 343.28C225.803 343.99 225.871 344.699 225.941 345.429C226.01 346.163 226.078 346.897 226.149 347.653C226.682 353.174 227.261 358.683 227.979 364.183C229.066 372.522 229.864 380.889 230.668 389.258C234.52 390.828 238.39 392.301 242.321 393.661C242.831 393.839 243.342 394.016 243.868 394.199C249.481 396.144 255.118 398.015 260.761 399.871C263.015 400.616 265.24 401.394 267.457 402.243C272.123 403.776 276.372 402.035 280.865 400.601C281.062 398.04 281.26 395.479 281.463 392.84C281.66 392.84 281.857 392.84 282.06 392.84C282.06 393.825 282.06 394.81 282.06 395.825C283.012 395.923 283.012 395.923 283.984 396.023C293.006 397.01 293.006 397.01 296.402 398.81C296.816 400.065 296.816 400.065 297 401.198C292.602 403.474 288.257 404.375 283.406 405.156C282.489 405.307 281.574 405.469 280.661 405.64C274.646 406.733 268.565 407.286 262.487 407.904C260.552 408.101 258.617 408.301 256.682 408.501C255.43 408.63 254.179 408.759 252.928 408.887C252.36 408.946 251.792 409.004 251.207 409.065C245.646 409.629 240.09 410.187 234.499 410.301C233.687 410.32 232.875 410.339 232.064 410.358C231.648 410.367 231.233 410.376 230.805 410.386C224.765 410.522 218.742 410.698 212.718 411.181C204.634 411.821 196.577 412.118 188.471 412.274C187.847 412.286 187.224 412.299 186.582 412.311C171.069 412.614 155.557 412.654 140.042 412.652C136.873 412.652 133.703 412.657 130.534 412.665C113.763 412.707 97.0111 412.621 80.2492 412.012C79.5947 411.989 78.9402 411.966 78.2659 411.942C69.6595 411.628 61.0829 411.091 52.4974 410.418C48.908 410.139 45.3197 409.948 41.7236 409.776C33.4439 409.366 25.2517 408.573 17.0312 407.504C16.5445 407.443 16.0578 407.381 15.5564 407.317C2.67871 405.666 2.67871 405.666 0 402.99C0.0903089 401.781 0.0903089 401.781 0.597585 400.601C3.61782 399.233 6.73899 398.349 9.97221 397.616C10.6307 397.467 10.6307 397.467 11.3025 397.315C18.5766 395.79 26.072 395.29 33.4648 394.631C33.803 395.141 34.1411 395.652 34.4896 396.177C34.9323 396.844 35.375 397.51 35.8178 398.176C36.1523 398.681 36.1523 398.681 36.4936 399.196C37.564 400.876 37.564 400.876 38.8431 402.392C39.9239 402.485 41.0083 402.535 42.0926 402.57C42.8146 402.593 43.5367 402.616 44.2806 402.64C45.102 402.663 45.9234 402.685 46.7447 402.707C47.1697 402.72 47.5947 402.732 48.0326 402.744C61.475 403.125 74.9241 403.196 88.3708 403.307C91.1781 403.331 93.9854 403.358 96.7927 403.384C110.729 403.514 124.666 403.614 138.603 403.637C139.927 403.639 141.252 403.642 142.576 403.647C144.396 403.652 146.216 403.654 148.036 403.654C148.574 403.656 149.113 403.659 149.668 403.661C150.161 403.66 150.653 403.659 151.16 403.658C151.587 403.659 152.013 403.66 152.453 403.66C153.715 403.625 153.715 403.625 155.372 402.99C155.927 401.325 155.927 401.325 156.269 399.333C156.689 397.169 157.13 395.307 158.028 393.288C158.987 391.098 159.505 388.918 160.001 386.576C161.332 380.622 163.141 374.834 164.966 369.015C166.029 365.625 167.08 362.231 168.132 358.838C168.466 357.761 168.466 357.761 168.807 356.662C171.41 348.264 173.95 339.848 176.486 331.43C176.841 330.252 177.196 329.075 177.551 327.897C178.899 323.424 180.246 318.951 181.591 314.477C182.161 312.583 182.732 310.689 183.302 308.795C185.484 301.556 187.657 294.314 189.766 287.053C192.011 279.324 194.344 271.622 196.68 263.921C197.504 261.204 198.327 258.487 199.15 255.77C199.346 255.123 199.542 254.475 199.744 253.808C200.979 249.723 202.197 245.634 203.397 241.539C204.424 238.036 205.476 234.54 206.54 231.047C206.712 230.483 206.883 229.919 207.059 229.338C208.103 225.909 209.196 222.501 210.35 219.107Z" fill="#F9EFE5"/>
<path id="Vector_3" d="M144.615 65.6724C145.008 65.6946 145.4 65.7169 145.804 65.7397C147.017 65.8187 148.224 65.9265 149.433 66.0455C150.155 66.1148 150.877 66.1841 151.621 66.2554C156.081 67.647 157.985 72.7303 160.041 76.6054C160.341 77.1422 160.641 77.6789 160.95 78.232C162.857 81.8177 163.484 84.302 163.141 88.3592C162.549 88.6547 162.549 88.6547 161.945 88.9562C161.945 89.5473 161.945 90.1383 161.945 90.7473C162.386 90.698 162.827 90.6488 163.281 90.598C166.079 90.8508 167.155 92.7589 168.892 94.8168C176.168 104.561 181.688 116.89 185.737 128.285C185.948 128.88 185.948 128.88 186.164 129.487C186.853 131.556 187.189 133.345 187.044 135.524C186.255 135.524 185.466 135.524 184.654 135.524C184.654 136.312 184.654 137.1 184.654 137.912C185.097 137.937 185.541 137.961 185.998 137.987C188.637 138.825 189.413 140.924 190.655 143.267C193.179 148.618 193.424 156.302 191.885 161.984C191.331 163.362 190.748 164.671 190.032 165.972C189.637 165.972 189.243 165.972 188.837 165.972C188.935 166.28 189.034 166.588 189.136 166.905C189.827 170.274 189.384 173.742 188.986 177.129C188.903 177.895 188.82 178.66 188.734 179.449C188.176 181.757 187.789 182.538 185.849 183.883C183.844 184.466 183.844 184.466 181.554 184.853C180.744 184.994 179.934 185.137 179.124 185.28C178.385 185.41 177.646 185.54 176.885 185.674C175.962 185.903 175.04 186.138 174.121 186.383C170.753 187.14 167.158 187.308 163.738 186.868C162.688 185.961 162.688 185.961 161.945 185.077C161.551 185.077 161.157 185.077 160.75 185.077C160.553 185.668 160.356 186.259 160.153 186.868C159.044 187.544 159.044 187.544 157.65 188.136C156.972 188.434 156.972 188.434 156.28 188.738C150.633 190.68 141.846 191.264 136.224 189.053C134.558 188.208 133.001 187.336 131.469 186.271C131.239 181.652 132.088 177.639 133.224 173.174C133.39 172.496 133.556 171.818 133.727 171.12C134.951 166.177 134.951 166.177 135.652 164.778C135.786 163.861 135.895 162.939 135.988 162.017C136.038 161.529 136.088 161.041 136.139 160.538C136.176 160.164 136.212 159.79 136.249 159.405C136.942 159.338 136.942 159.338 137.65 159.269C143.018 158.592 145.779 156.982 149.583 153.285C150.584 151.655 150.97 150.382 151.45 148.546C151.873 146.968 151.873 146.968 152.384 145.673C153.953 144.852 153.953 144.852 155.372 144.479C155.902 143.261 155.902 143.261 155.97 142.091C155.452 142.19 154.934 142.288 154.401 142.39C152.036 142.04 151.803 141.68 150.404 139.852C148.973 137.825 148.049 136.16 148.36 133.634C148.469 133.164 148.579 132.694 148.691 132.21C148.813 131.666 148.934 131.122 149.059 130.561C149.195 129.97 149.331 129.379 149.471 128.77C150.692 123.193 151.754 117.606 152.67 111.972C152.802 111.162 152.935 110.353 153.07 109.544C153.26 108.397 153.444 107.25 153.628 106.102C153.787 105.113 153.787 105.113 153.95 104.104C154.203 101.854 154.177 99.5791 154.177 97.3145C149.838 97.3145 145.5 97.3145 141.03 97.3145C141.819 95.7384 142.607 94.1623 143.42 92.5384C143.89 90.2594 143.89 90.2594 144.018 88.3592C140.459 86.9519 136.836 85.8057 133.179 84.6838C131.1 84.0418 129.047 83.3769 127.024 82.5756C125.061 81.8531 123.211 81.3782 121.172 80.9571C118.952 80.4753 116.752 79.921 114.549 79.3666C114.135 79.2624 113.72 79.1581 113.292 79.0507C112.18 78.7709 111.068 78.4904 109.955 78.2099C109.159 78.0106 108.362 77.8114 107.565 77.6128C107.565 77.2188 107.565 76.8248 107.565 76.4188C106.786 76.3749 106.786 76.3749 105.992 76.3302C105.303 76.2855 104.614 76.2409 103.905 76.1949C103.225 76.1533 102.546 76.1118 101.846 76.069C99.8054 75.8228 98.1493 75.292 96.211 74.6277C94.577 74.2604 92.9319 73.9747 91.2809 73.6949C90.8353 73.6177 90.3897 73.5405 89.9306 73.4609C86.6537 72.9062 83.3907 72.5024 80.0762 72.2396C81.6989 77.6411 83.5659 82.4865 86.3788 87.3984C87.2472 88.9562 87.2472 88.9562 87.8448 90.7473C88.2392 90.7473 88.6336 90.7473 89.0399 90.7473C88.0091 93.4954 86.7036 96.0802 85.3797 98.6951C85.1571 99.1373 84.9345 99.5794 84.7051 100.035C84.1592 101.119 83.6118 102.202 83.0641 103.285C81.2257 101.515 79.7905 99.7136 78.3721 97.6061C77.7172 96.625 77.7172 96.625 76.4906 96.1205C76.6855 96.5099 76.8804 96.8993 77.0812 97.3005C77.6203 98.3777 78.1571 99.4559 78.6919 100.535C79.2959 101.729 79.9393 102.904 80.599 104.068C81.5695 106.385 80.9716 107.892 80.0804 110.183C79.8363 110.725 79.5923 111.267 79.3408 111.825C79.062 112.448 78.7832 113.072 78.496 113.714C78.1916 114.385 77.8873 115.056 77.5738 115.748C77.0913 116.815 76.6089 117.883 76.1267 118.95C75.7869 119.702 75.4467 120.454 75.1061 121.206C73.9912 123.672 72.9034 126.149 71.8324 128.635C71.095 130.344 70.3487 132.049 69.6014 133.754C69.2399 134.584 68.8824 135.416 68.5288 136.249C68.0317 137.419 67.5207 138.583 67.0063 139.745C66.7171 140.415 66.4279 141.084 66.1299 141.774C65.1365 143.285 65.1365 143.285 63.5257 143.805C63.0712 143.83 62.6168 143.856 62.1486 143.882C62.1486 144.276 62.1486 144.67 62.1486 145.076C62.543 145.273 62.9374 145.47 63.3438 145.673C63.6396 147.151 63.6396 147.151 63.9413 148.658C70.0546 149.052 76.1679 149.446 82.4665 149.852C81.8689 172.692 81.8689 172.692 81.2713 181.495C80.7298 181.632 80.1882 181.77 79.6303 181.912C74.638 183.232 74.638 183.232 70.0292 185.524C66.0693 187.901 62.1805 187.017 57.8744 185.993C56.7703 185.674 56.7703 185.674 55.5751 185.077C55.7723 184.092 55.9695 183.107 56.1727 182.092C55.3962 182.683 55.3962 182.683 54.6041 183.286C49.6904 186.072 43.1747 184.592 37.9604 183.372C35.9177 182.446 35.1781 181.66 34.0621 179.703C33.7297 177.788 33.7003 175.898 33.6886 173.957C33.6733 172.942 33.6533 171.927 33.6279 170.911C33.6243 170.465 33.6208 170.018 33.6171 169.557C33.5308 168.172 33.5308 168.172 32.2693 166.569C31.1965 162.068 31.3577 157.799 32.8669 153.435C32.9832 153.061 33.0995 152.688 33.2194 152.303C34.3251 148.989 35.9906 145.966 38.2452 143.285C38.8368 143.088 39.4284 142.891 40.0379 142.688C40.0379 142.097 40.0379 141.506 40.0379 140.897C39.6435 140.7 39.2491 140.503 38.8427 140.3C37.8931 125.752 50.6511 105.322 58.7988 93.6041C59.8526 92.4336 60.6787 91.8954 62.1486 91.3443C62.7402 91.3443 63.3318 91.3443 63.9413 91.3443C63.9413 90.7533 63.9413 90.1622 63.9413 89.5533C63.3497 89.2577 63.3497 89.2577 62.7462 88.9562C62.1456 82.2057 66.1422 75.5984 69.3196 69.8516C71.4176 67.7555 74.1061 67.9822 76.9511 67.9379C77.6324 67.926 78.3138 67.9141 79.0158 67.9018C79.7509 67.8918 80.486 67.8819 81.2433 67.8716C82.0128 67.8592 82.7822 67.8468 83.575 67.834C85.2105 67.8078 86.8461 67.7834 88.4817 67.7604C90.5299 67.7316 92.5781 67.6994 94.6262 67.6661C104.716 67.5025 114.804 67.4244 124.895 67.4635C124.895 68.4486 124.895 69.4336 124.895 70.4486C125.684 70.4486 126.473 70.4486 127.285 70.4486C127.285 69.4635 127.285 68.4784 127.285 67.4635C133.159 66.0828 138.554 65.3076 144.615 65.6724Z" fill="#F9EFE5"/>
<path id="Vector_4" d="M83.064 183.285C84.2965 183.269 85.529 183.258 86.7616 183.248C87.4479 183.241 88.1343 183.234 88.8414 183.227C90.6151 183.279 92.091 183.533 93.8206 183.882C95.2028 184.012 96.5861 184.108 97.9708 184.208C107.824 184.926 117.539 186.5 127.285 188.062C126.431 189.833 125.53 191.213 124.223 192.688C123.901 193.055 123.579 193.421 123.247 193.799C123.002 194.073 122.757 194.346 122.505 194.629C125.746 193.9 127.387 192.353 129.601 190.011C130.871 189.256 130.871 189.256 132.61 189.615C142.409 194.045 146.307 200.486 149.994 210.151C151.129 213.326 152.174 216.528 153.196 219.741C153.844 221.753 154.57 223.707 155.372 225.662C158.256 232.737 161.544 241.225 160.153 248.958C158.861 251.73 157.48 252.985 154.774 254.331C148.01 255.33 141.969 253.558 135.652 251.346C135.089 251.151 134.527 250.956 133.948 250.755C131.024 249.734 128.106 248.694 125.198 247.626C124.722 247.451 124.245 247.276 123.754 247.096C122.505 246.57 122.505 246.57 120.712 245.376C119.724 245.051 118.727 244.754 117.724 244.48C115.793 243.952 114.638 243.519 112.943 242.39C113.535 239.041 114.127 235.692 114.736 232.241C114.144 232.241 113.553 232.241 112.943 232.241C112.869 232.721 112.795 233.202 112.719 233.696C112.277 236.216 111.722 238.703 111.151 241.196C106.524 242.317 103.665 241.884 99.6307 239.461C99.291 239.246 98.9512 239.03 98.6012 238.808C98.6012 238.414 98.6012 238.02 98.6012 237.614C98.9702 237.44 99.3392 237.266 99.7194 237.087C103.314 235.349 106.772 233.475 109.955 231.047C109.955 230.85 109.955 230.653 109.955 230.45C107.191 230.107 107.191 230.107 104.71 231.185C104.014 231.823 103.322 232.467 102.635 233.116C99.741 235.652 96.9119 235.902 93.223 235.823C92.6028 233.986 91.9966 232.144 91.3929 230.301C91.2168 229.78 91.0408 229.259 90.8595 228.722C90.6958 228.218 90.5321 227.714 90.3634 227.194C90.1334 226.5 90.1334 226.5 89.8988 225.792C89.606 224.322 89.7185 223.489 90.235 222.092C91.1454 221.117 91.1454 221.117 92.2519 220.226C92.6139 219.929 92.976 219.632 93.349 219.326C95.681 217.545 96.8802 217.186 99.7964 217.316C99.7964 217.71 99.7964 218.104 99.7964 218.51C100.388 218.313 100.98 218.116 101.589 217.913C102.983 217.889 104.378 217.886 105.772 217.913C104.983 218.701 104.195 219.489 103.382 220.301C103.776 220.104 104.171 219.907 104.577 219.704C105.894 219.567 107.215 219.458 108.536 219.368C109.246 219.318 109.957 219.268 110.688 219.216C111.235 219.18 111.782 219.144 112.346 219.107C112.543 218.319 112.74 217.531 112.943 216.719C111.366 216.325 109.788 215.93 108.163 215.525C107.727 212.543 107.333 209.56 106.967 206.569C106.9 206.084 106.832 205.599 106.762 205.1C106.467 201.489 108.443 199.131 110.553 196.42C112.464 198.198 113.489 200.112 114.736 202.39C115.722 202.193 116.708 201.996 117.724 201.793C118.02 200.906 118.02 200.906 118.322 200.002C117.336 200.002 116.35 200.002 115.334 200.002C112.967 195.865 110.601 191.727 108.163 187.465C106.388 187.465 104.613 187.465 102.784 187.465C101.996 187.07 101.207 186.676 100.394 186.27C100.236 186.622 100.077 186.974 99.9141 187.337C99.1766 188.7 98.4059 189.605 97.315 190.699C96.9495 191.066 96.584 191.433 96.2074 191.81C95.8265 192.186 95.4455 192.562 95.0531 192.95C94.6745 193.333 94.2958 193.715 93.9058 194.11C93.3563 194.656 93.3563 194.656 92.7958 195.214C92.4623 195.546 92.1288 195.878 91.7852 196.22C90.8326 197.017 90.8326 197.017 89.0399 197.614C89.2477 198.793 89.2477 198.793 89.6375 200.002C90.0319 200.199 90.4263 200.396 90.8326 200.599C91.0175 200.119 91.0175 200.119 91.2061 199.629C92.346 197.662 93.8494 196.065 95.6133 194.629C96.0077 194.629 96.4021 194.629 96.8085 194.629C96.8878 195.032 96.9672 195.435 97.0489 195.851C97.2072 196.65 97.2072 196.65 97.3687 197.465C97.5247 198.254 97.5247 198.254 97.6838 199.06C97.9655 200.56 97.9655 200.56 98.4052 201.821C98.6699 203.395 98.2429 204.225 97.5928 205.674C96.582 207.988 95.8403 210.257 95.1651 212.689C94.1472 215.866 92.8871 217.326 90.06 219.055C88.9421 219.643 88.9421 219.643 88.4423 220.898C86.9001 221.424 85.3804 221.886 83.811 222.316C82.8857 222.577 81.9605 222.839 81.0355 223.102C80.5728 223.232 80.1101 223.362 79.6334 223.496C77.0647 224.232 74.5211 225.048 71.9737 225.853C70.5147 226.271 70.5147 226.271 69.3195 226.271C69.4692 221.861 70.7866 218.737 72.7977 214.82C73.7205 213.135 73.7205 213.135 72.9051 211.345C72.5107 211.345 72.1162 211.345 71.7099 211.345C71.5201 211.746 71.3304 212.146 71.1349 212.558C70.2699 214.381 69.4026 216.203 68.5352 218.025C68.0875 218.969 68.0875 218.969 67.6307 219.933C67.3399 220.543 67.0491 221.153 66.7495 221.782C66.3505 222.621 66.3505 222.621 65.9434 223.477C63.5298 228.261 63.5298 228.261 60.5799 229.293C59.1492 229.75 59.1492 229.75 57.9654 230.45C57.5781 231.661 57.5781 231.661 57.3678 232.838C58.0473 232.607 58.7267 232.376 59.4267 232.138C65.0797 230.23 70.7375 228.454 76.4906 226.868C78.5343 226.294 80.5438 225.721 82.5411 225.002C84.2327 224.488 85.4971 224.439 87.2471 224.48C88.7783 228.685 89.9365 232.543 90.235 237.017C89.4144 237.393 88.5924 237.765 87.77 238.137C87.3124 238.344 86.8549 238.552 86.3834 238.766C84.8568 239.405 84.8568 239.405 83.2508 239.939C81.1314 240.646 79.0605 241.443 76.9786 242.252C53.7998 251.243 53.7998 251.243 45.911 248.508C44.1223 247.38 43.2045 246.102 42.4282 244.182C40.0954 228.333 56.3176 204.503 65.4656 192.187C69.1298 188.036 75.2366 185.124 80.6737 184.479C80.9548 184.947 81.236 185.414 81.5257 185.895C82.0838 186.801 82.0838 186.801 82.6532 187.726C83.0206 188.328 83.3881 188.931 83.7666 189.552C84.7495 191.203 84.7495 191.203 86.6495 191.644C86.3907 191.14 86.1319 190.637 85.8652 190.118C85.5324 189.464 85.1996 188.81 84.8568 188.136C84.524 187.485 84.1912 186.834 83.8483 186.163C83.064 184.479 83.064 184.479 83.064 183.285Z" fill="#F9EFE5"/>
<path id="Vector_5" d="M90.8329 93.1357C92.45 93.7729 94.032 94.4288 95.6065 95.167C100.906 97.6122 105.985 98.8505 111.748 99.703C111.748 100.097 111.748 100.491 111.748 100.897C118.848 100.7 125.947 100.503 133.261 100.3C133.261 104.71 133.229 109.001 132.911 113.381C132.874 113.914 132.837 114.446 132.799 114.995C132.721 116.114 132.642 117.232 132.561 118.35C132.441 120.021 132.326 121.692 132.211 123.363C131.717 130.421 131.064 137.449 130.273 144.48C132.27 143.815 132.381 143.597 133.411 141.905C134.997 139.613 136.572 138.214 139.237 137.315C142.098 136.831 144.053 137.04 146.67 138.323C149.021 140.443 149.451 142.189 149.62 145.263C149.524 148.665 148.482 151.334 146.084 153.778C143.226 156.058 140.41 156.622 136.81 156.315C135.821 156.182 134.839 156.007 133.859 155.823C133.844 156.252 133.828 156.68 133.812 157.122C133.301 166.436 130.816 175.482 128.481 184.48C125.661 185.273 123.158 184.942 120.301 184.592C119.852 184.542 119.402 184.493 118.939 184.442C116.576 184.166 114.268 183.797 111.943 183.293C108.904 182.678 105.907 182.383 102.817 182.181C102.282 182.142 101.747 182.104 101.195 182.065C99.509 181.946 97.8227 181.832 96.1364 181.719C94.9832 181.638 93.8301 181.557 92.677 181.476C89.8714 181.279 87.0655 181.087 84.2594 180.898C84.2445 178.275 84.2337 175.653 84.2266 173.031C84.2236 172.141 84.2195 171.251 84.2143 170.361C84.1649 161.701 84.1649 161.701 84.7226 157.572C84.9549 155.58 84.9124 153.611 84.8943 151.607C84.889 150.824 84.8836 150.041 84.878 149.235C84.8711 148.651 84.8641 148.067 84.857 147.465C84.4838 147.45 84.1105 147.435 83.726 147.419C82.0114 147.349 80.2969 147.276 78.5823 147.203C77.9954 147.18 77.4084 147.157 76.8036 147.132C73.4806 146.989 70.223 146.737 66.9294 146.271C68.4786 141.104 70.7524 136.3 73.0173 131.42C73.4404 130.503 73.8631 129.586 74.2856 128.669C74.9438 127.241 75.6023 125.813 76.2618 124.385C77.8294 120.992 79.3856 117.594 80.9353 114.192C81.1496 113.722 81.364 113.252 81.5848 112.768C82.8324 110.032 82.8324 110.032 84.0786 107.294C86.2462 102.532 88.4375 97.7899 90.8329 93.1357Z" fill="#F9EFE5"/>
<path id="Vector_6" d="M195.41 149.256C196.406 150.251 197.402 151.246 198.398 152.241C198.734 152.523 199.07 152.805 199.416 153.095C199.672 153.404 199.927 153.714 200.191 154.032C199.913 155.919 199.521 157.58 198.996 159.405C198.737 160.347 198.737 160.347 198.473 161.307C197.854 163.526 197.214 165.739 196.568 167.95C196.452 168.351 196.335 168.751 196.215 169.163C194.095 176.441 191.816 183.66 189.46 190.865C187.737 196.148 186.091 201.449 184.607 206.803C182.983 212.655 181.128 218.404 179.174 224.153C177.819 228.165 176.649 232.172 175.606 236.276C174.956 238.727 174.158 241.112 173.332 243.508C172.717 245.332 172.141 247.164 171.579 249.005C170.773 251.637 169.961 254.266 169.137 256.892C167.145 263.273 165.222 269.648 163.573 276.126C162.644 279.732 161.505 283.225 160.297 286.748C158.526 292.025 157.04 297.393 155.554 302.756C153.894 308.745 152.214 314.682 150.183 320.557C148.879 324.465 147.84 328.46 146.758 332.434C145.758 336.085 144.649 339.675 143.432 343.259C141.216 349.878 139.31 356.6 137.339 363.294C137.138 363.975 136.937 364.655 136.73 365.357C136.551 365.964 136.372 366.571 136.188 367.197C135.643 368.988 135.049 370.765 134.456 372.542C127.16 372.542 119.863 372.542 112.346 372.542C112.543 371.557 112.74 370.572 112.943 369.557C113.486 369.631 114.028 369.705 114.587 369.781C120.122 369.747 125.141 365.648 128.959 362.024C131.575 359.193 134.287 355.9 134.643 351.982C134.664 349.91 134.664 349.91 133.614 348.834C131.211 347.639 128.882 347.876 126.24 347.952C125.444 347.964 125.444 347.964 124.631 347.977C123.325 347.998 122.018 348.027 120.712 348.064C122.436 335.958 124.658 323.971 126.99 311.971C127.292 310.418 127.593 308.865 127.894 307.312C129.003 301.594 130.12 295.878 131.245 290.163C131.837 287.155 132.417 284.144 132.991 281.132C133.255 279.761 133.52 278.39 133.784 277.018C133.898 276.406 134.012 275.793 134.13 275.161C134.289 274.344 134.289 274.344 134.452 273.511C134.585 272.811 134.585 272.811 134.72 272.098C134.83 271.751 134.94 271.405 135.054 271.048C135.448 270.851 135.843 270.654 136.249 270.451C136.587 268.947 136.587 268.947 136.758 267.128C136.835 266.456 136.912 265.785 136.992 265.093C137.067 264.386 137.143 263.679 137.22 262.951C137.3 262.242 137.381 261.533 137.463 260.802C137.661 259.044 137.854 257.285 138.042 255.526C144.018 256.72 144.018 256.72 145.598 257.048C150.324 257.951 154.982 257.964 159.07 255.239C161.625 253.099 162.389 251.476 162.765 248.249C163.265 233.952 156.578 219.459 151.338 206.458C151.135 205.949 150.932 205.44 150.723 204.915C148.939 200.607 146.602 196.712 144.018 192.838C144.352 192.797 144.686 192.755 145.03 192.712C146.574 192.514 148.115 192.303 149.658 192.092C150.445 191.994 150.445 191.994 151.248 191.894C154.545 191.432 157.211 190.646 160.16 189.087C161.63 188.558 162.267 188.8 163.738 189.256C168.478 189.657 173 188.797 177.632 187.876C178.316 187.748 179 187.621 179.705 187.49C185.46 186.531 185.46 186.531 189.936 183.102C190.726 181.27 190.889 179.865 190.966 177.876C191.239 173.137 191.695 168.545 193.316 164.062C194.355 161.034 194.67 158.068 194.925 154.89C194.998 154.072 194.998 154.072 195.073 153.238C195.191 151.911 195.303 150.584 195.41 149.256Z" fill="#9B9B9B"/>
<path id="Vector_7" d="M159.555 389.855C168.74 389.785 177.925 389.732 187.11 389.7C191.375 389.685 195.641 389.664 199.906 389.63C203.629 389.6 207.351 389.581 211.074 389.574C213.041 389.57 215.007 389.559 216.974 389.539C225.459 389.455 232.923 389.517 240.827 392.84C241.406 393.066 241.985 393.292 242.582 393.524C243.529 393.896 244.474 394.277 245.414 394.668C247.938 395.686 250.528 396.51 253.115 397.355C253.641 397.528 254.168 397.702 254.71 397.881C256.257 398.391 257.805 398.899 259.352 399.407C262.077 400.302 264.779 401.217 267.457 402.243C272.123 403.775 276.372 402.035 280.865 400.601C281.062 398.04 281.26 395.479 281.463 392.84C281.66 392.84 281.857 392.84 282.06 392.84C282.06 393.825 282.06 394.81 282.06 395.825C282.695 395.89 283.33 395.956 283.984 396.023C293.006 397.009 293.006 397.009 296.402 398.81C296.816 400.065 296.816 400.065 297 401.198C292.602 403.474 288.257 404.374 283.406 405.155C282.489 405.307 281.574 405.469 280.661 405.64C274.646 406.733 268.565 407.286 262.487 407.904C260.552 408.101 258.617 408.301 256.682 408.501C255.43 408.63 254.179 408.759 252.928 408.887C252.36 408.946 251.792 409.004 251.207 409.064C245.646 409.629 240.09 410.187 234.499 410.3C233.687 410.319 232.875 410.338 232.064 410.358C231.441 410.371 231.441 410.371 230.805 410.385C224.765 410.522 218.742 410.698 212.718 411.181C204.634 411.821 196.577 412.117 188.471 412.273C187.847 412.286 187.224 412.298 186.582 412.311C171.069 412.614 155.557 412.653 140.042 412.652C136.873 412.652 133.703 412.656 130.534 412.664C113.763 412.707 97.0111 412.621 80.2492 412.012C79.5947 411.989 78.9402 411.966 78.2659 411.942C69.6595 411.627 61.083 411.09 52.4974 410.418C48.908 410.139 45.3197 409.948 41.7236 409.776C33.4439 409.366 25.2517 408.572 17.0312 407.504C16.3012 407.412 16.3012 407.412 15.5564 407.317C2.67871 405.665 2.67871 405.665 0 402.989C0.0903089 401.781 0.0903089 401.781 0.597585 400.601C3.61782 399.232 6.73899 398.349 9.97221 397.616C10.4112 397.517 10.8502 397.417 11.3025 397.315C18.5766 395.79 26.072 395.29 33.4648 394.631C33.803 395.141 34.1411 395.651 34.4896 396.177C34.9323 396.843 35.375 397.51 35.8178 398.176C36.1523 398.681 36.1523 398.681 36.4936 399.196C37.564 400.876 37.564 400.876 38.8431 402.392C39.9239 402.485 41.0083 402.535 42.0926 402.569C42.8146 402.593 43.5367 402.616 44.2806 402.64C45.102 402.663 45.9234 402.685 46.7447 402.707C47.1697 402.719 47.5947 402.731 48.0326 402.744C61.4749 403.125 74.9241 403.196 88.3708 403.307C91.1781 403.331 93.9854 403.357 96.7927 403.384C110.729 403.514 124.666 403.614 138.603 403.636C139.927 403.639 141.252 403.642 142.576 403.646C144.396 403.652 146.216 403.653 148.036 403.654C148.844 403.657 148.844 403.657 149.668 403.661C150.161 403.66 150.653 403.659 151.16 403.658C151.587 403.659 152.013 403.659 152.453 403.66C153.715 403.625 153.715 403.625 155.372 402.989C155.906 401.364 155.906 401.364 156.231 399.407C156.701 396.902 157.343 394.715 158.395 392.404C158.612 391.925 158.829 391.446 159.052 390.953C159.218 390.59 159.384 390.228 159.555 389.855Z" fill="#9B9B9B"/>
<path id="Vector_8" d="M83.064 183.285C84.2965 183.269 85.529 183.258 86.7616 183.248C87.4479 183.241 88.1343 183.234 88.8414 183.227C90.6114 183.279 92.0942 183.537 93.8206 183.882C94.9184 184.004 96.0182 184.11 97.1189 184.202C98.0347 184.28 98.0347 184.28 98.9689 184.359C99.9147 184.437 99.9147 184.437 100.88 184.517C101.843 184.598 101.843 184.598 102.825 184.681C104.405 184.814 105.985 184.946 107.565 185.076C107.861 185.963 107.861 185.963 108.163 186.867C107.317 187.001 106.47 187.123 105.623 187.241C105.151 187.31 104.68 187.379 104.194 187.451C102.592 187.466 101.752 187.086 100.394 186.27C100.236 186.622 100.077 186.974 99.9141 187.337C99.1766 188.7 98.4059 189.605 97.315 190.699C96.9495 191.066 96.584 191.433 96.2074 191.81C95.8265 192.186 95.4455 192.562 95.0531 192.95C94.6745 193.333 94.2958 193.715 93.9058 194.11C93.3563 194.656 93.3563 194.656 92.7958 195.214C92.4623 195.546 92.1288 195.878 91.7852 196.22C90.8326 197.017 90.8326 197.017 89.0399 197.614C89.2477 198.793 89.2477 198.793 89.6375 200.002C90.0319 200.199 90.4263 200.396 90.8326 200.599C91.0175 200.119 91.0175 200.119 91.2061 199.629C92.346 197.662 93.8494 196.065 95.6133 194.629C96.0077 194.629 96.4021 194.629 96.8085 194.629C96.8878 195.032 96.9672 195.435 97.0489 195.851C97.2072 196.65 97.2072 196.65 97.3687 197.465C97.5247 198.254 97.5247 198.254 97.6838 199.06C97.9655 200.56 97.9655 200.56 98.4052 201.821C98.6699 203.395 98.2429 204.225 97.5928 205.674C96.582 207.988 95.8403 210.257 95.1651 212.689C94.1472 215.866 92.8871 217.326 90.06 219.055C88.9421 219.643 88.9421 219.643 88.4423 220.898C86.9001 221.424 85.3804 221.886 83.811 222.316C82.8857 222.577 81.9605 222.839 81.0355 223.102C80.5728 223.232 80.1101 223.362 79.6334 223.496C77.0647 224.232 74.5211 225.048 71.9737 225.853C70.5147 226.271 70.5147 226.271 69.3195 226.271C69.4692 221.861 70.7866 218.737 72.7977 214.82C73.7205 213.135 73.7205 213.135 72.9051 211.345C72.5107 211.345 72.1162 211.345 71.7099 211.345C71.5201 211.746 71.3304 212.146 71.1349 212.558C70.2699 214.381 69.4026 216.203 68.5352 218.025C68.0875 218.969 68.0875 218.969 67.6307 219.933C67.3399 220.543 67.0491 221.153 66.7495 221.782C66.3505 222.621 66.3505 222.621 65.9434 223.477C63.5298 228.261 63.5298 228.261 60.5799 229.293C59.1492 229.75 59.1492 229.75 57.9654 230.45C57.5781 231.661 57.5781 231.661 57.3678 232.838C58.0473 232.607 58.7267 232.376 59.4267 232.138C65.0797 230.23 70.7375 228.454 76.4906 226.868C78.5343 226.294 80.5438 225.721 82.5411 225.002C84.2327 224.488 85.4971 224.439 87.2471 224.48C88.7783 228.685 89.9365 232.543 90.235 237.017C89.4144 237.393 88.5924 237.765 87.77 238.137C87.3124 238.344 86.8549 238.552 86.3834 238.766C84.8568 239.405 84.8568 239.405 83.2508 239.939C81.1314 240.646 79.0605 241.443 76.9786 242.252C53.7998 251.243 53.7998 251.243 45.911 248.508C44.1223 247.38 43.2045 246.102 42.4282 244.182C40.0954 228.333 56.3176 204.503 65.4656 192.187C69.1298 188.036 75.2366 185.124 80.6737 184.479C80.9548 184.947 81.236 185.414 81.5257 185.895C82.0838 186.801 82.0838 186.801 82.6532 187.726C83.0206 188.328 83.3881 188.931 83.7666 189.552C84.7495 191.203 84.7495 191.203 86.6495 191.644C86.3907 191.14 86.1319 190.637 85.8652 190.118C85.5324 189.464 85.1996 188.81 84.8568 188.136C84.524 187.485 84.1912 186.834 83.8483 186.163C83.064 184.479 83.064 184.479 83.064 183.285Z" fill="#F9EFE5"/>
<path id="Vector_9" d="M164.335 54.3293C168.512 62.1849 172.568 70.0936 176.546 78.0516C177.124 79.2072 177.703 80.3628 178.282 81.5183C179.485 83.9221 180.688 86.3263 181.89 88.7309C183.41 91.7709 184.932 94.8099 186.454 97.8486C197.924 120.746 197.924 120.746 201.968 129.368C202.854 131.253 203.722 133.05 204.825 134.822C205.876 136.659 205.691 138.227 205.568 140.3C205.174 140.3 204.78 140.3 204.373 140.3C203.464 138.398 202.555 136.495 201.647 134.591C201.373 134.019 201.1 133.446 200.818 132.856C199.272 129.611 197.741 126.361 196.231 123.099C194.295 118.94 192.253 114.841 190.185 110.746C189.213 108.818 188.247 106.887 187.281 104.956C186.851 104.096 186.42 103.235 185.99 102.375C185.769 101.933 185.547 101.49 185.319 101.035C184.258 98.9139 183.197 96.7932 182.135 94.6726C181.701 93.804 181.266 92.9354 180.831 92.0668C180.611 91.6264 180.39 91.186 180.163 90.7322C174.489 79.3939 168.814 68.0557 163.14 56.7174C151.913 56.6644 151.913 56.6644 140.693 56.9786C130.379 57.3925 120.059 57.5219 109.739 57.6769C103.08 57.7814 96.432 57.9317 89.7793 58.2263C82.6449 58.5389 75.5253 58.5778 68.3852 58.5458C67.1866 58.5427 65.9879 58.54 64.7892 58.5376C61.9168 58.5312 59.0445 58.5209 56.1721 58.5084C56.0266 58.896 55.8812 59.2835 55.7313 59.6828C54.7494 62.0395 53.6122 64.3035 52.4675 66.5849C52.2146 67.0911 51.9618 67.5974 51.7013 68.1191C50.8646 69.7934 50.0263 71.4668 49.1878 73.1401C48.6008 74.3133 48.014 75.4866 47.4271 76.6599C46.1941 79.1244 44.9603 81.5886 43.7258 84.0524C42.1599 87.1778 40.5961 90.3043 39.033 93.4312C37.8187 95.8596 36.6033 98.2875 35.3875 100.715C34.8117 101.865 34.2361 103.016 33.661 104.166C30.3126 110.863 26.9051 117.523 23.393 124.136C21.6342 127.454 19.9625 130.814 18.3001 134.181C15.0651 140.729 15.0651 140.729 13.5474 143.22C9.56226 150.625 13.6584 165.344 14.5862 173.449C15.4603 181.207 16.2142 188.972 16.9153 196.747C17.1066 198.864 17.3017 200.981 17.4971 203.098C18.0874 209.566 18.6598 216.025 18.9291 222.515C19.009 224.306 19.1477 225.752 19.7194 227.465C19.8323 228.281 19.9225 229.099 19.9971 229.919C20.043 230.412 20.0889 230.905 20.1362 231.413C20.1835 231.947 20.2308 232.48 20.2796 233.03C20.3304 233.586 20.3812 234.143 20.4335 234.716C20.541 235.899 20.6474 237.083 20.7529 238.266C20.9113 240.042 21.0737 241.817 21.2367 243.592C21.6999 248.697 22.1389 253.797 22.4085 258.916C22.6463 263.361 23.0725 267.773 23.5319 272.199C23.9989 276.716 24.4237 281.236 24.8502 285.757C24.9139 286.431 24.9139 286.431 24.9788 287.119C25.2936 290.456 25.6067 293.793 25.9193 297.13C25.9888 297.872 25.9888 297.872 26.0597 298.628C27.3445 312.336 28.575 326.047 29.665 339.772C29.754 340.892 29.843 342.012 29.932 343.131C29.9752 343.675 30.0184 344.218 30.0629 344.778C30.6064 351.561 31.2129 358.339 31.8205 365.116C31.8738 365.711 31.9271 366.306 31.982 366.919C32.2753 370.186 32.57 373.454 32.8662 376.721C68.488 378.195 104.188 378.149 139.834 378.512C139.92 377.87 140.006 377.227 140.095 376.566C140.463 374.122 141.097 371.823 141.816 369.466C142.034 368.737 142.034 368.737 142.257 367.994C142.753 366.338 143.255 364.682 143.756 363.027C144.122 361.806 144.489 360.585 144.855 359.365C145.805 356.202 146.757 353.041 147.71 349.879C150.215 341.575 152.714 333.269 155.211 324.962C155.671 323.433 156.131 321.903 156.592 320.374C160.027 308.955 163.441 297.53 166.798 286.088C166.946 285.584 167.093 285.081 167.245 284.562C168.66 279.739 170.071 274.916 171.477 270.091C174.586 259.429 177.784 248.804 181.106 238.207C181.844 235.848 182.571 233.485 183.292 231.12C183.408 230.74 183.524 230.36 183.643 229.969C183.873 229.214 184.103 228.46 184.333 227.705C187.014 218.904 189.721 210.111 192.432 201.319C196.246 188.95 200.038 176.574 203.776 164.181C204.17 164.181 204.565 164.181 204.971 164.181C205.407 168.295 204.647 171.59 203.257 175.464C202.174 178.486 201.282 181.528 200.452 184.629C199.517 188.09 198.456 191.432 197.177 194.783C196.503 196.713 195.993 198.658 195.484 200.637C194.605 204.036 193.591 207.351 192.459 210.674C191.152 214.514 189.937 218.366 188.81 222.262C187.807 225.724 186.758 229.17 185.699 232.615C183.876 238.557 182.143 244.524 180.422 250.497C178.839 255.984 177.17 261.435 175.404 266.867C173.898 271.542 172.588 276.264 171.284 280.999C169.973 285.728 168.528 290.402 167.019 295.071C164.992 301.346 163.102 307.647 161.459 314.034C160.221 318.749 158.707 323.367 157.202 328.003C155.919 331.972 154.705 335.951 153.579 339.967C152.106 345.214 150.526 350.422 148.908 355.626C147.767 359.305 146.644 362.989 145.546 366.681C145.425 367.09 145.303 367.498 145.178 367.919C144.583 369.917 143.99 371.916 143.401 373.916C143.187 374.637 142.973 375.358 142.752 376.101C142.563 376.74 142.375 377.379 142.18 378.037C141.7 379.486 141.13 380.743 140.432 382.094C131.63 382.113 122.828 382.125 114.026 382.131C113.367 382.132 112.707 382.132 112.028 382.133C92.0755 382.147 72.1269 382.052 52.1757 381.796C51.619 381.788 51.0622 381.781 50.4886 381.774C43.8176 381.688 37.1467 381.596 30.4759 381.497C30.435 381.033 30.394 380.569 30.3518 380.091C29.9582 375.633 29.5631 371.175 29.1663 366.717C28.9626 364.427 28.7594 362.138 28.5575 359.848C27.761 350.815 26.9467 341.79 25.9497 332.777C25.1658 325.675 24.5637 318.569 24.0432 311.443C23.7985 308.097 23.544 304.751 23.2909 301.405C23.2412 300.746 23.1916 300.087 23.1404 299.409C22.7019 293.609 22.2317 287.813 21.7362 282.018C21.7025 281.618 21.6688 281.218 21.6341 280.805C21.2627 276.403 20.8276 272.013 20.3216 267.625C19.6074 261.392 19.1621 255.144 18.7171 248.887C18.3622 243.934 17.9826 239.004 17.3313 234.079C16.5819 228.385 16.1964 222.671 15.7977 216.943C15.6852 215.341 15.5719 213.738 15.4566 212.136C15.3857 211.15 15.3164 210.164 15.2491 209.178C15.0704 206.681 14.7558 204.264 14.3411 201.794C14.1659 200.067 14.0386 198.338 13.9116 196.607C13.874 196.117 13.8365 195.627 13.7978 195.122C13.6384 193.039 13.4826 190.956 13.3265 188.873C13.2116 187.346 13.0948 185.82 12.9778 184.293C12.9436 183.827 12.9093 183.36 12.874 182.88C12.6836 180.396 12.3769 177.981 11.9507 175.525C11.8781 174.668 11.8207 173.809 11.7827 172.95C11.7603 172.493 11.738 172.036 11.715 171.565C11.673 170.623 11.6309 169.68 11.5889 168.738C11.5666 168.281 11.5442 167.824 11.5212 167.353C11.5031 166.944 11.485 166.536 11.4664 166.115C11.3258 164.456 11.034 162.837 10.7556 161.196C9.45547 151.054 9.69626 143.611 15.1129 134.848C21.727 123.759 27.111 111.849 32.8662 100.3C44.3722 77.211 44.3722 77.211 48.9307 68.7114C49.9332 66.8388 50.9255 64.9608 51.9188 63.0833C52.9367 61.1596 53.9568 59.237 54.9769 57.3144C55.5009 57.3008 56.0248 57.2871 56.5647 57.2731C61.5478 57.1431 66.531 57.0116 71.514 56.8783C74.0747 56.8098 76.6354 56.742 79.1962 56.6755C81.6761 56.6112 84.1559 56.5452 86.6357 56.4781C87.573 56.453 88.5103 56.4285 89.4476 56.4046C94.1687 56.2838 98.8792 56.1209 103.593 55.8218C109.29 55.463 114.988 55.3295 120.695 55.2038C121.808 55.1781 122.921 55.1521 124.034 55.1261C126.344 55.0723 128.655 55.0198 130.965 54.9681C133.917 54.9022 136.868 54.8342 139.82 54.7654C142.658 54.6994 145.495 54.6344 148.333 54.5695C148.868 54.5572 149.402 54.5449 149.952 54.5322C151.472 54.4973 152.991 54.4633 154.51 54.4294C154.952 54.4192 155.394 54.409 155.849 54.3984C158.678 54.3365 161.505 54.3208 164.335 54.3293Z" fill="#F9EFE5"/>
<path id="Vector_10" d="M40.0384 247.167C40.3057 247.412 40.573 247.657 40.8484 247.909C41.3903 248.392 41.3903 248.392 41.9432 248.884C42.2967 249.203 42.6503 249.521 43.0146 249.849C45.6233 251.795 47.9198 252.108 51.131 252.093C52.1305 252.098 52.1305 252.098 53.1502 252.102C56.3856 251.982 59.5676 251.326 62.7466 250.75C62.777 253.792 62.7982 256.835 62.8123 259.878C62.8181 260.905 62.8262 261.932 62.8368 262.96C62.9177 271.036 62.4323 278.986 61.7189 287.029C61.4402 290.241 61.197 293.456 60.9538 296.671C60.905 297.315 60.8561 297.958 60.8057 298.621C60.6549 300.611 60.5053 302.602 60.3563 304.593C60.2787 305.628 60.2787 305.628 60.1996 306.683C59.2756 319.076 58.5331 331.471 57.9659 343.885C58.9643 344.161 58.9643 344.161 59.9829 344.442C62.3905 345.15 63.7425 346.011 65.7345 347.467C63.9418 348.064 63.9418 348.064 61.7802 347.12C60.929 346.682 60.0809 346.237 59.2358 345.788C55.4196 343.798 52.1025 342.174 47.807 341.497C46.6714 332.228 45.9454 322.927 45.2143 313.619C44.1381 299.881 44.1381 299.881 42.9703 286.151C42.924 285.616 42.8778 285.082 42.8301 284.531C42.7859 284.042 42.7416 283.554 42.696 283.051C42.6585 282.632 42.6211 282.213 42.5825 281.781C42.4231 280.558 42.1394 279.406 41.8311 278.213C41.7598 277.371 41.7121 276.527 41.684 275.682C41.6651 275.197 41.6462 274.712 41.6267 274.213C41.6079 273.698 41.5891 273.183 41.5697 272.653C41.4153 268.954 41.158 265.343 40.5986 261.683C39.8771 256.834 39.9306 252.055 40.0384 247.167Z" fill="#9B9B9B"/>
<path id="Vector_11" d="M86.6492 242.391C89.496 247.336 92.307 252.295 95.0154 257.317C97.6308 257.066 98.9114 255.333 100.543 253.473C100.83 253.155 101.117 252.837 101.413 252.509C103.664 249.986 105.754 247.354 107.77 244.639C108.097 244.292 108.423 243.944 108.76 243.585C109.351 243.585 109.943 243.585 110.553 243.585C110.553 243.979 110.553 244.373 110.553 244.779C111.298 245.02 112.044 245.261 112.812 245.509C116.187 246.634 119.493 247.918 122.803 249.22C123.389 249.448 123.976 249.676 124.58 249.911C128.114 251.296 131.601 252.756 135.054 254.332C134.716 258.916 134.344 263.492 133.858 268.063C130.102 268.264 126.773 267.779 123.091 267.036C119.292 266.296 115.479 265.795 111.636 265.339C111.066 265.271 110.496 265.203 109.91 265.132C107.934 264.903 105.957 264.691 103.979 264.481C103.538 264.432 103.096 264.384 102.641 264.333C94.2566 263.415 85.9295 263.049 77.4987 262.914C76.2891 262.891 75.0795 262.868 73.87 262.844C70.9587 262.788 68.0475 262.737 65.1361 262.69C65.128 261.567 65.1222 260.445 65.1174 259.322C65.114 258.697 65.1105 258.072 65.1069 257.428C65.1475 254.783 65.4083 252.179 65.7337 249.556C68.1167 248.543 70.5081 247.551 72.9047 246.57C73.3493 246.388 73.7939 246.206 74.2519 246.019C75.6803 245.438 77.1119 244.865 78.5444 244.294C79.2335 244.013 79.2335 244.013 79.9366 243.726C82.2499 242.813 84.114 242.134 86.6492 242.391Z" fill="#F9EFE5"/>
<path id="Vector_12" d="M228.277 71.6431C229.066 71.8401 229.855 72.0371 230.668 72.2401C230.479 73.0536 230.479 73.0536 230.286 73.8835C228.092 83.3423 225.918 92.7995 223.982 102.315C222.57 109.245 221.002 116.119 219.314 122.987C218.765 125.225 218.218 127.463 217.674 129.702C217.308 131.204 216.941 132.705 216.571 134.206C215.658 137.948 214.833 141.679 214.193 145.478C213.84 147.383 213.316 149.198 212.74 151.047C213.135 151.047 213.529 151.047 213.935 151.047C213.987 151.553 214.038 152.058 214.09 152.579C214.282 154.469 214.475 156.358 214.668 158.247C214.752 159.063 214.835 159.878 214.917 160.693C215.036 161.87 215.157 163.047 215.278 164.223C215.35 164.93 215.422 165.637 215.496 166.365C215.645 167.65 215.824 168.933 216.039 170.209C216.313 171.866 216.471 173.484 216.582 175.159C216.625 175.762 216.668 176.365 216.712 176.987C216.757 177.625 216.802 178.263 216.849 178.92C217.19 183.501 217.625 188.014 218.417 192.54C219.291 197.561 219.717 202.575 220.092 207.655C220.456 212.574 220.952 217.462 221.529 222.361C221.733 224.135 221.924 225.911 222.115 227.687C222.189 228.371 222.263 229.055 222.339 229.76C222.482 231.078 222.623 232.397 222.762 233.717C223.211 237.822 223.763 241.904 224.36 245.99C225.293 252.388 226.044 258.8 226.746 265.227C226.874 266.387 227.003 267.547 227.131 268.707C228.122 277.734 229.025 286.768 229.865 295.81C230.316 300.626 230.844 305.407 231.56 310.193C232.117 313.965 232.584 317.75 233.058 321.534C233.11 321.948 233.162 322.362 233.216 322.789C233.918 328.388 234.567 333.987 235.04 339.61C235.271 342.299 235.589 344.962 235.962 347.635C236.98 355.109 237.717 362.617 238.511 370.116C238.678 371.686 238.846 373.256 239.013 374.826C239.42 378.642 239.825 382.457 240.229 386.273C240.566 386.368 240.903 386.462 241.25 386.559C247.898 388.424 254.499 390.343 261.033 392.579C262.397 393.04 263.762 393.5 265.127 393.96C265.771 394.177 266.415 394.394 267.079 394.618C270.859 395.877 274.664 397.053 278.475 398.214C278.475 398.608 278.475 399.002 278.475 399.408C272.809 400.849 268.157 398.47 262.937 396.423C259.899 395.256 256.846 394.182 253.749 393.176C250.69 392.174 247.696 391.074 244.723 389.84C243.182 389.245 241.639 388.758 240.054 388.293C239.525 388.137 238.995 387.981 238.45 387.82C237.852 387.645 237.852 387.645 237.241 387.467C237.115 386.322 237.115 386.322 236.986 385.154C235.158 368.625 233.307 352.098 231.424 335.576C231.327 334.724 231.23 333.872 231.133 333.021C230.737 329.541 230.34 326.061 229.943 322.581C226.839 295.346 223.745 268.111 220.77 240.861C219.148 226.005 217.503 211.152 215.765 196.309C215.683 195.602 215.6 194.895 215.515 194.166C214.274 183.576 213.018 172.985 211.587 162.418C211.074 158.59 210.827 154.908 210.947 151.047C208.285 151.638 208.285 151.638 205.569 152.241C205.569 151.65 205.569 151.059 205.569 150.45C207.936 149.859 207.936 149.859 210.35 149.256C210.473 148.695 210.596 148.135 210.722 147.558C213.168 136.423 215.675 125.311 218.392 114.239C220.588 105.256 222.548 96.2197 224.537 87.1895C224.931 85.4042 225.326 83.6193 225.721 81.8344C225.84 81.2927 225.959 80.7509 226.082 80.1928C226.722 77.3096 227.431 74.4729 228.277 71.6431Z" fill="#F9EFE5"/>
<path id="Vector_13" d="M96.2105 286.57C96.4077 286.57 96.6049 286.57 96.8081 286.57C96.9421 295.839 97.0622 305.108 97.1657 314.377C97.2141 318.681 97.267 322.985 97.3307 327.289C97.3862 331.041 97.4331 334.793 97.4698 338.545C97.4895 340.532 97.5148 342.517 97.5477 344.503C97.5839 346.723 97.6048 348.942 97.6222 351.162C97.6364 351.817 97.6506 352.472 97.6652 353.146C97.6763 357.048 97.1683 359.15 95.0153 362.392C94.2029 365.943 94.2029 365.943 94.4178 371.944C89.0933 371.944 83.7688 371.944 78.2829 371.944C78.6774 370.762 79.0718 369.58 79.4781 368.362C79.87 364.173 79.9338 360.633 77.6854 357.019C77.9812 356.428 77.9812 356.428 78.2829 355.825C78.6774 355.825 79.0718 355.825 79.4781 355.825C79.852 354.245 80.2255 352.666 80.5986 351.086C80.7026 350.647 80.8066 350.208 80.9137 349.755C81.0177 349.315 81.1217 348.874 81.2289 348.42C81.3227 348.023 81.4166 347.626 81.5134 347.217C82.4695 343.066 83.363 338.903 84.2308 334.733C88.4957 314.383 88.4957 314.383 90.7667 306.949C92.2162 302.196 93.3422 297.374 94.4684 292.536C94.6096 291.932 94.7508 291.328 94.8963 290.705C95.0206 290.166 95.1448 289.627 95.2729 289.071C95.6129 287.764 95.6129 287.764 96.2105 286.57Z" fill="#9B9B9B"/>
<path id="Vector_14" d="M34.0618 184.479C34.7314 184.686 34.7314 184.686 35.4146 184.896C40.7899 186.507 45.8501 186.429 51.3917 186.271C53.7821 186.271 53.7821 186.271 55.3134 187.091C58.1054 188.41 60.9108 188.781 63.941 189.256C63.555 189.851 63.555 189.851 63.1612 190.457C56.8773 200.22 51.4512 210.46 46.2376 220.823C46.0335 221.226 45.8295 221.629 45.6193 222.045C43.25 226.736 41.0853 231.416 39.44 236.42C39.2428 236.42 39.0456 236.42 38.8424 236.42C37.6085 229.503 36.9809 222.521 36.3133 215.531C36.1182 213.495 35.9171 211.46 35.7156 209.425C34.9073 201.114 34.3483 192.825 34.0618 184.479Z" fill="#9B9B9B"/>
<path id="Vector_15" d="M133.261 215.524C134.05 215.524 134.839 215.524 135.652 215.524C135.86 216.179 135.86 216.179 136.072 216.847C136.702 218.832 137.335 220.816 137.967 222.801C138.294 223.831 138.294 223.831 138.628 224.882C138.84 225.546 139.052 226.21 139.27 226.893C139.464 227.503 139.658 228.113 139.858 228.741C140.689 231.826 140.689 231.826 142.659 234.118C143.034 234.25 143.408 234.382 143.794 234.517C144.459 234.751 145.125 234.985 145.811 235.226C145.613 236.211 145.416 237.196 145.213 238.211C141.257 237.296 137.569 236.308 133.859 234.629C127.841 232.334 121.765 230.446 115.334 231.644C115.038 232.531 115.038 232.531 114.736 233.435C114.736 233.041 114.736 232.647 114.736 232.241C114.145 232.241 113.553 232.241 112.943 232.241C112.833 232.961 112.833 232.961 112.719 233.696C112.277 236.216 111.722 238.703 111.151 241.196C106.524 242.317 103.666 241.884 99.6308 239.461C99.1213 239.138 99.1213 239.138 98.6014 238.808C98.6014 238.414 98.6014 238.02 98.6014 237.614C99.1549 237.353 99.1549 237.353 99.7196 237.087C103.315 235.349 106.772 233.474 109.956 231.047C109.956 230.85 109.956 230.653 109.956 230.45C107.191 230.107 107.191 230.107 104.71 231.185C104.014 231.823 103.322 232.467 102.635 233.116C99.7411 235.652 96.9121 235.902 93.2231 235.823C92.603 233.986 91.9968 232.144 91.393 230.301C91.217 229.78 91.041 229.259 90.8596 228.722C90.696 228.218 90.5323 227.714 90.3636 227.194C90.2103 226.732 90.0569 226.269 89.8989 225.792C89.6062 224.322 89.7187 223.489 90.2352 222.092C91.1456 221.117 91.1456 221.117 92.2521 220.226C92.6141 219.929 92.9762 219.632 93.3492 219.326C95.6812 217.545 96.8804 217.186 99.7966 217.315C99.7966 217.71 99.7966 218.104 99.7966 218.51C100.388 218.313 100.98 218.115 101.589 217.912C102.984 217.889 104.378 217.886 105.772 217.912C104.984 218.701 104.195 219.489 103.382 220.301C103.777 220.104 104.171 219.907 104.577 219.704C106.575 219.562 108.571 219.475 110.572 219.391C111.157 219.297 111.743 219.203 112.346 219.107C112.74 218.515 113.135 217.924 113.541 217.315C116.397 219.456 117.94 221.271 119.517 224.48C119.565 224.89 119.613 225.3 119.663 225.722C120.03 227.036 120.03 227.036 121.609 227.577C122.58 227.859 122.58 227.859 123.572 228.146C124.271 228.354 124.97 228.561 125.69 228.775C126.426 228.983 127.162 229.191 127.92 229.405C128.659 229.622 129.397 229.839 130.158 230.063C131.987 230.599 133.818 231.126 135.652 231.644C135.529 230.931 135.407 230.217 135.281 229.482C135.118 228.524 134.955 227.565 134.793 226.607C134.672 225.905 134.672 225.905 134.549 225.19C134.006 221.975 133.596 218.768 133.261 215.524Z" fill="black"/>
<path id="Vector_16" d="M47.1348 344.221C54.4653 344.334 60.0182 349.912 65.1371 354.631C65.6459 355.096 65.6459 355.096 66.1651 355.571C67.0545 356.415 67.8928 357.311 68.7226 358.213C68.7226 358.804 68.7226 359.395 68.7226 360.004C69.2587 360.06 69.2587 360.06 69.8057 360.116C71.6518 360.801 71.911 361.893 72.9057 363.587C74.0074 364.668 75.1358 365.704 76.2951 366.723C77.0888 367.766 77.0888 367.766 76.9697 369.023C76.2825 370.647 75.6798 371.136 74.1009 371.945C70.1268 372.561 67.9093 371.401 64.5418 369.321C63.3443 368.363 63.3443 368.363 62.7467 366.572C63.1712 366.284 63.5956 365.996 64.0329 365.699C64.5822 365.322 65.1314 364.945 65.6973 364.557C66.245 364.183 66.7927 363.809 67.357 363.423C68.7727 362.513 68.7727 362.513 69.3202 361.198C68.3403 361.605 68.3403 361.605 67.3407 362.019C66.9732 362.172 66.6058 362.324 66.2272 362.481C64.9785 363.03 64.9785 363.03 63.3443 364.184C60.2425 364.843 57.7256 364.282 54.9781 362.766C49.818 359.35 45.6961 354.528 43.624 348.661C43.3999 346.534 43.3999 346.534 43.624 345.079C44.6203 344.084 45.7637 344.285 47.1348 344.221Z" fill="#9B9B9B"/>
<path id="Vector_17" d="M127.921 350.377C128.556 350.376 129.192 350.374 129.847 350.373C131.469 350.452 131.469 350.452 132.664 351.049C132.16 355.574 129.809 359.059 126.338 362.002C118.171 368.234 118.171 368.234 114.139 367.765C110.655 366.583 108.031 364.682 105.175 362.392C106.012 365.551 108.076 367.034 110.554 368.96C109.735 370.847 109.365 371.343 107.566 372.542C105.943 372.689 104.407 372.763 102.785 372.766C102.352 372.78 101.919 372.795 101.473 372.81C99.4821 372.821 98.3111 372.805 96.7717 371.483C96.2115 370.154 96.2115 370.154 96.2325 368.929C97.0147 367.35 97.9724 366.788 99.4609 365.862C99.9408 365.558 100.421 365.254 100.915 364.941C102.187 364.183 102.187 364.183 103.383 363.586C103.58 362.995 103.777 362.404 103.98 361.795C105.175 361.198 106.37 360.601 107.566 360.004C108.347 359.381 109.118 358.746 109.881 358.101C114.791 354.162 121.575 350.362 127.921 350.377Z" fill="#9B9B9B"/>
<path id="Vector_18" d="M99.7966 217.316C99.7966 217.71 99.7966 218.104 99.7966 218.51C100.388 218.313 100.98 218.116 101.589 217.913C102.984 217.89 104.378 217.887 105.772 217.913C104.984 218.701 104.195 219.49 103.382 220.301C106.34 220.301 109.298 220.301 112.346 220.301C112.346 220.498 112.346 220.696 112.346 220.898C111.878 220.971 111.411 221.043 110.929 221.118C110.022 221.268 110.022 221.268 109.097 221.421C108.493 221.518 107.89 221.615 107.269 221.715C106.775 221.839 106.281 221.964 105.772 222.093C105.575 222.487 105.378 222.881 105.175 223.287C108.527 223.287 111.88 223.287 115.334 223.287C115.728 224.075 116.123 224.863 116.529 225.675C115.937 225.478 115.346 225.281 114.736 225.078C113.405 225.036 112.072 225.027 110.74 225.04C110.035 225.046 109.33 225.051 108.604 225.057C108.064 225.064 107.524 225.071 106.968 225.078C106.968 225.866 106.968 226.654 106.968 227.466C107.559 227.269 108.151 227.072 108.76 226.869C109.893 226.828 111.026 226.818 112.159 226.831C112.753 226.837 113.347 226.842 113.959 226.848C114.639 226.858 114.639 226.858 115.334 226.869C115.728 227.657 116.123 228.445 116.529 229.257C115.439 230.345 113.93 229.915 112.479 229.936C107.507 229.876 107.507 229.876 103.307 232.167C102.871 232.648 102.871 232.648 102.425 233.137C101.001 234.664 99.3592 235.197 97.4062 235.824C96.0121 235.85 94.6172 235.854 93.2231 235.824C92.603 233.986 91.9968 232.145 91.393 230.302C91.217 229.781 91.041 229.26 90.8596 228.723C90.696 228.219 90.5323 227.715 90.3636 227.195C90.2103 226.732 90.0569 226.27 89.8989 225.793C89.6062 224.323 89.7187 223.49 90.2352 222.093C91.1456 221.118 91.1456 221.118 92.2521 220.227C92.6141 219.93 92.9762 219.633 93.3492 219.327C95.6812 217.546 96.8804 217.187 99.7966 217.316Z" fill="#F9EFE5"/>
<path id="Vector_19" d="M90.8328 160.003C92.9243 159.95 95.0155 159.919 97.1075 159.891C97.9879 159.868 97.9879 159.868 98.8862 159.845C103.171 159.802 106.613 160.141 110.121 162.841C110.449 163.197 110.776 163.553 111.113 163.92C111.452 164.278 111.79 164.636 112.138 165.005C113.983 167.222 113.63 169.156 113.541 171.943C112.943 172.54 112.943 172.54 111.151 172.652C109.054 172.627 107.181 172.152 105.147 171.651C101.03 170.939 96.7946 170.92 92.6256 170.749C92.6256 167.991 92.6256 165.232 92.6256 162.391C91.8368 162.391 91.0479 162.391 90.2352 162.391C90.4324 161.603 90.6296 160.814 90.8328 160.003Z" fill="black"/>
<path id="Vector_20" d="M81.8688 0C82.6576 0 83.4464 0 84.2591 0C84.0125 2.36563 83.6506 4.33382 82.7278 6.52992C81.723 9.09936 81.5571 10.9732 81.8688 13.7315C83.3174 16.5101 85.4577 18.7415 87.5529 21.0543C89.9413 23.8351 89.2533 27.5809 89.0398 31.0451C87.872 38.1821 87.872 38.1821 86.0519 40.0004C84.782 39.7765 84.782 39.7765 83.6616 39.4034C82.848 37.2053 83.3084 36.0633 84.2218 33.9556C85.4325 30.7571 86.3056 27.874 85.4543 24.4779C84.2648 22.6754 82.7836 21.2345 81.2712 19.7017C78.7017 16.6326 77.8393 14.0958 78.0242 10.0817C78.5726 6.43404 79.8236 3.06497 81.8688 0Z" fill="black"/>
<path id="Vector_21" d="M109.357 2.38867C110.146 2.78271 110.935 3.17674 111.748 3.58271C111.625 3.92903 111.503 4.27535 111.377 4.63217C110.47 7.25801 109.653 9.76279 109.357 12.538C109.259 13.2522 109.16 13.9664 109.059 14.7022C109.059 17.2096 110.122 18.7375 111.449 20.8217C113.524 24.1497 114.305 26.5701 113.54 30.4487C112.989 31.8608 112.395 33.2571 111.748 34.6278C111.505 36.014 111.293 37.4071 111.15 38.807C110.16 39.0351 109.163 39.2332 108.162 39.404C107.965 39.207 107.768 39.01 107.565 38.807C107.595 37.6572 107.595 37.6572 107.751 36.2323C107.798 35.7667 107.845 35.3011 107.894 34.8214C108.162 33.4338 108.162 33.4338 108.767 32.2747C110.024 29.6577 109.768 26.6928 109.357 23.8814C108.388 21.7074 107.159 19.8385 105.772 17.9112C104.383 15.137 104.927 12.1497 105.8 9.30572C107.836 3.90831 107.836 3.90831 109.357 2.38867Z" fill="black"/>
<path id="Vector_22" d="M132.663 10.1494C133.896 10.4106 133.896 10.4106 135.054 10.7464C134.601 14.0651 134.601 14.0651 133.821 15.4853C132.961 17.3746 133.074 18.8408 133.261 20.8958C134.388 22.6039 134.388 22.6039 135.913 24.1048C139.451 28.2213 139.451 28.2213 139.531 31.3553C138.874 34.6644 137.229 37.6421 135.651 40.5975C134.665 40.4005 133.679 40.2035 132.663 40.0005C132.946 38.1333 133.393 36.7303 134.195 35.0004C135.164 32.5575 135.509 31.2517 135.054 28.6571C134.093 27.327 133.057 26.1774 131.902 25.012C129.765 22.6692 129.421 20.6717 129.477 17.5865C129.817 15.0698 130.822 11.9888 132.663 10.1494Z" fill="black"/>
<path id="Vector_23" d="M112.345 232.242C112.031 235.245 111.684 238.223 111.15 241.197C106.523 242.318 103.665 241.885 99.6301 239.462C99.1206 239.139 99.1206 239.139 98.6007 238.809C98.6007 238.415 98.6007 238.021 98.6007 237.615C99.1854 237.333 99.1854 237.333 99.7819 237.046C102.143 235.891 104.347 234.796 106.481 233.249C108.558 232.004 109.965 232.051 112.345 232.242Z" fill="#F9EFE5"/>
<path id="Vector_24" d="M50.1968 361.795C50.9109 362.248 50.9109 362.248 51.6394 362.71C52.5892 363.291 52.5892 363.291 53.5582 363.885C54.1822 364.273 54.8062 364.661 55.449 365.06C57.4839 366.03 58.7318 366.161 60.9534 365.975C60.7931 366.307 60.6329 366.639 60.4678 366.982C60.4124 367.665 60.4124 367.665 60.3558 368.363C61.3418 369.348 62.3278 370.333 63.3437 371.348C59.2024 371.348 55.0612 371.348 50.7944 371.348C50.2428 369.143 50.135 367.478 50.1595 365.228C50.1676 364.263 50.1676 364.263 50.1758 363.279C50.1827 362.789 50.1897 362.3 50.1968 361.795Z" fill="#9B9B9B"/>
<path id="Vector_25" d="M105.773 125.972C107.252 126.267 107.252 126.267 108.761 126.569C109.155 127.751 109.549 128.933 109.956 130.151C111.326 130.664 111.326 130.664 112.944 130.748C114.312 129.647 115.147 128.734 115.932 127.166C116.72 127.363 117.509 127.56 118.322 127.763C118.195 129.988 117.724 130.748 116.193 132.427C114.706 133.555 113.576 133.97 111.711 134.069C109.142 133.702 108.155 133.182 106.37 131.345C105.487 129.58 105.737 127.917 105.773 125.972Z" fill="black"/>
<path id="Vector_26" d="M86.0519 122.987C87.2845 123.248 87.2845 123.248 88.4423 123.584C88.8367 124.963 89.2311 126.342 89.6374 127.763C91.3037 128.063 91.3037 128.063 93.223 127.763C94.4564 126.674 95.249 125.538 96.2109 124.181C96.9997 124.378 97.7885 124.575 98.6012 124.778C98.3187 127.318 96.853 128.495 95.0157 130.151C93.0773 131.119 91.1278 131.168 89.0399 130.748C87.0627 128.983 86.2059 127.748 85.529 125.188C85.5044 124.659 85.4797 124.129 85.4543 123.584C85.6515 123.387 85.8488 123.19 86.0519 122.987Z" fill="black"/>
<path id="Vector_27" d="M108.761 110.449C110.105 110.561 110.105 110.561 111.749 111.046C112.081 111.49 112.414 111.933 112.757 112.39C114.762 114.772 117.308 115.759 120.115 117.016C119.918 117.805 119.72 118.593 119.517 119.405C115.489 119.198 112.461 116.881 109.503 114.314C108.437 113.051 108.631 112.045 108.761 110.449Z" fill="black"/>
<path id="Vector_28" d="M99.6845 108.844C100.332 109.048 100.332 109.048 100.992 109.255C99.913 111.896 98.3846 112.746 95.9309 114.047C93.5434 114.964 91.5725 114.829 89.04 114.628C88.7038 113.471 88.7038 113.471 88.4424 112.24C89.397 111.286 90.568 111.341 91.8785 111.121C93.8136 110.76 94.9895 110.465 96.6965 109.442C98.0038 108.658 98.0038 108.658 99.6845 108.844Z" fill="black"/>
<path id="Vector_29" d="M15.5368 147.465C17.8078 148.249 19.2949 149.18 21.0388 150.823C21.4875 151.245 21.9363 151.667 22.3986 152.101C22.8581 152.541 23.3176 152.982 23.791 153.435C24.262 153.875 24.7331 154.315 25.2184 154.769C27.7832 157.2 27.7832 157.2 28.6837 158.211C28.6837 158.605 28.6837 158.999 28.6837 159.405C26.9012 158.598 25.5888 157.684 24.1621 156.35C23.7735 155.988 23.3849 155.625 22.9845 155.252C22.5851 154.874 22.1857 154.496 21.7741 154.107C21.3724 153.733 20.9707 153.36 20.5568 152.976C18.6953 151.229 17.0317 149.543 15.5368 147.465Z" fill="#9B9B9B"/>
<path id="Vector_30" d="M215.131 133.733C215.328 133.733 215.525 133.733 215.729 133.733C215.485 138.146 214.781 142.091 213.338 146.271C212.944 146.271 212.55 146.271 212.143 146.271C211.808 141.92 212.925 138.363 214.533 134.33C214.731 134.133 214.928 133.936 215.131 133.733Z" fill="#F9EFE5"/>
<path id="Vector_31" d="M181.068 244.779C180.999 245.737 180.923 246.695 180.843 247.652C180.802 248.186 180.76 248.719 180.717 249.269C180.47 250.75 180.47 250.75 179.275 252.541C178.409 247.666 178.409 247.666 179.499 245.638C180.47 244.779 180.47 244.779 181.068 244.779Z" fill="#F9EFE5"/>
<path id="Vector_32" d="M117.724 348.66C117.724 349.054 117.724 349.448 117.724 349.854C116.778 350.141 115.832 350.427 114.885 350.712C114.095 350.951 114.095 350.951 113.289 351.195C111.984 351.576 110.679 351.924 109.358 352.242C111.849 349.477 113.986 348.447 117.724 348.66Z" fill="#9B9B9B"/>
<path id="Vector_33" d="M215.131 133.733C215.328 133.733 215.525 133.733 215.729 133.733C215.531 135.901 215.334 138.068 215.131 140.301C214.539 140.104 213.948 139.907 213.338 139.704C213.522 138.82 213.71 137.937 213.898 137.054C214.002 136.563 214.106 136.071 214.214 135.564C214.533 134.33 214.533 134.33 215.131 133.733Z" fill="#F9EFE5"/>
<path id="Vector_34" d="M41.2331 69.8516C41.8247 69.8516 42.4163 69.8516 43.0258 69.8516C42.6314 71.0337 42.237 72.2158 41.8307 73.4337C41.239 73.4337 40.6474 73.4337 40.0379 73.4337C40.4323 72.2516 40.8267 71.0695 41.2331 69.8516Z" fill="black"/>
</g>
</g>
</svg>
