<svg width="257" height="257" viewBox="0 0 257 257" fill="none" xmlns="http://www.w3.org/2000/svg">
<mask id="mask0_425_2541" style="mask-type:alpha" maskUnits="userSpaceOnUse" x="0" y="0" width="257" height="257">
<circle cx="128.5" cy="128.5" r="128.5" fill="white"/>
</mask>
<g mask="url(#mask0_425_2541)">
<path d="M133.276 27C149.199 31.9595 170.544 39.3085 182.471 51.5533C182.471 52.1121 182.471 52.6709 182.471 53.2467C179.532 54.504 179.532 54.504 176.534 55.7867C180.173 55.5073 183.811 55.2279 187.561 54.94C182.32 82.497 182.32 82.497 177.594 95.5271C176.603 98.3047 176.34 100.84 176.163 103.782C175.86 107.869 175.164 110.268 172.293 113.36C168.789 115.966 166.699 116.936 162.337 116.833C161.657 116.82 160.978 116.808 160.278 116.795C159.765 116.779 159.251 116.763 158.722 116.747C158.619 117.719 158.516 118.692 158.411 119.693C157.572 127.498 156.618 135.249 155.329 142.993C156.192 143.267 156.192 143.267 157.072 143.546C160.346 145.041 162.849 147.119 165.614 149.396C166.175 149.853 166.737 150.31 167.316 150.78C168.451 151.704 169.584 152.629 170.716 153.557C172.083 154.675 173.461 155.781 174.841 156.884C180.732 161.609 186.296 166.619 191.801 171.78C192.583 172.485 193.365 173.19 194.17 173.917C194.876 174.574 195.581 175.231 196.307 175.908C196.934 176.482 197.56 177.056 198.206 177.647C199.435 179.4 199.435 179.4 199.409 181.421C196.088 190.361 188.162 198.142 181.917 205.19C180.901 206.349 179.912 207.531 178.926 208.716C178.417 209.327 177.907 209.938 177.382 210.568C176.962 211.08 176.542 211.592 176.11 212.119C174.602 213.479 173.428 213.785 171.445 214.113C170.371 219.303 170.371 219.303 171.445 224.273C171.816 226.655 171.816 226.655 171.445 229.353C168.734 232.324 167.226 233.358 163.334 234.38C160.369 234.434 158.841 233.908 156.177 232.74C156.187 233.5 156.197 234.26 156.207 235.044C156.265 243.051 155.914 250.944 155.329 258.934C155.247 260.1 155.165 261.265 155.084 262.431C154.887 265.234 154.686 268.037 154.481 270.84C155.282 270.961 156.082 271.083 156.907 271.208C161.406 272.017 164.986 274.424 168.052 277.772C168.9 279.307 168.9 279.307 168.9 281C158.824 281 148.747 281 138.365 281C135.609 268.67 135.609 268.67 134.763 264.868C133.243 258.113 131.58 251.423 129.728 244.75C128.913 241.578 128.454 238.539 128.187 235.28C123.988 235.28 119.79 235.28 115.464 235.28C111.506 250.541 109.11 265.284 107.83 281C98.0338 281 88.2372 281 78.1437 281C80.1179 276.073 82.1381 274.291 86.6256 271.687C89.5943 270.946 89.5943 270.946 91.7148 270.84C91.4546 269.865 91.1943 268.891 90.9262 267.887C87.2426 253.11 87.0568 236.621 89.5645 221.657C89.9719 218.686 90.2066 215.772 90.3994 212.78C90.8095 206.72 91.568 200.753 92.457 194.746C92.6059 193.721 92.7549 192.696 92.9084 191.639C94.0166 184.133 95.2775 176.674 96.8039 169.24C96.2441 169.411 95.6842 169.581 95.1073 169.757C92.5453 170.538 89.9831 171.318 87.4208 172.097C86.0997 172.5 86.0997 172.5 84.752 172.911C83.0352 173.433 81.3178 173.954 79.5997 174.472C78.2217 174.887 76.8448 175.306 75.4701 175.733C71.6442 176.889 68.5332 176.999 64.5726 176.86C61.3933 168.562 58.9265 160.222 56.7968 151.602C56.3005 149.599 55.7903 147.6 55.279 145.601C53.7218 139.414 52.3144 133.481 52.1415 127.067C51.6767 124.114 49.9777 122.276 48.0892 120.041C44.4075 115.605 42.9899 111.45 43.0001 105.723C43.4674 103.593 44.1732 102.802 45.9124 101.507C46.7521 101.507 47.5918 101.507 48.457 101.507C48.5095 100.747 48.5095 100.747 48.563 99.9721C49.3052 98.12 49.3052 98.12 51.6377 96.6912C54.0265 95.7283 56.1195 95.1903 58.6353 94.7333C58.5762 93.2485 58.5762 93.2485 58.516 91.7336C58.4842 90.4228 58.4533 89.1121 58.4232 87.8012C58.3948 87.1502 58.3664 86.4992 58.3371 85.8284C58.277 82.333 58.356 80.762 60.3449 77.757C60.9004 77.2124 61.4558 76.6678 62.0281 76.1067C64.2188 76.4083 65.2141 76.733 66.7461 78.3655C70.5486 84.5231 69.9154 93.6418 69.6618 100.66C70.5015 100.939 71.3412 101.219 72.2064 101.507C74.6226 104.454 75.1341 106.987 75.0127 110.78C74.7509 112.513 74.7509 112.513 73.4256 115.582C71.4465 120.221 73.2447 124.5 74.4064 129.268C74.6677 130.344 74.929 131.42 75.1982 132.529C75.4732 133.654 75.7482 134.778 76.0232 135.902C76.2984 137.034 76.5734 138.165 76.8482 139.296C78.3278 145.382 78.3278 145.382 79.8401 151.46C80.602 151.152 81.364 150.844 82.149 150.527C84.971 149.388 87.7945 148.253 90.6185 147.119C91.8415 146.627 93.0641 146.135 94.2863 145.641C96.0411 144.932 97.7973 144.227 99.5539 143.522C100.102 143.3 100.65 143.078 101.214 142.849C105.093 141.3 105.093 141.3 106.982 141.3C107.136 139.812 107.136 139.812 107.294 138.294C108.061 131.053 108.895 123.884 110.375 116.747C114.503 117.568 114.503 117.568 116.336 117.98C119.595 118.586 121.036 118.619 124.105 117.117C126.678 114.892 128.654 112.657 130.732 109.973C129.892 110.392 129.892 110.392 129.035 110.82C126.955 110.948 124.914 111.016 122.833 111.032C121.158 111.064 121.158 111.064 119.45 111.098C116.221 110.812 114.65 110.172 112.071 108.28C112.617 103.106 114.217 99.9628 116.312 94.7333C110.714 92.4981 105.116 90.2629 99.3485 87.96C99.3485 85.42 99.3485 85.42 101.032 83.4381C101.806 82.6733 102.58 81.9085 103.377 81.1205C103.794 80.7059 104.211 80.2914 104.641 79.8642C105.528 78.9845 106.418 78.1079 107.311 77.234C108.656 75.9176 109.991 74.5927 111.326 73.2657C115.506 69.1255 119.743 65.0883 124.217 61.2619C126.242 59.4979 128.115 57.6017 129.989 55.6808C132.943 52.6966 135.917 49.9181 139.214 47.32C138.98 46.8616 138.746 46.4032 138.505 45.9309C132.603 33.9906 132.603 33.9906 133.276 27Z" fill="black"/>
<path d="M69.6617 125.213C72.811 135.276 75.2595 145.351 77.2954 155.693C77.9663 155.426 77.9663 155.426 78.6508 155.152C79.2805 154.901 79.9102 154.649 80.559 154.39C81.2595 154.11 81.96 153.83 82.6817 153.542C84.2248 152.926 85.7689 152.314 87.3141 151.704C90.889 150.288 94.4447 148.859 97.9502 147.28C107.379 143.086 107.379 143.086 112.628 144.865C123.827 148.629 137.513 148.396 148.739 145.16C151.418 144.62 152.752 144.623 155.329 145.533C157.298 146.892 159.11 148.252 160.948 149.767C161.472 150.188 161.995 150.609 162.534 151.044C164.096 152.304 165.65 153.575 167.204 154.847C168.408 155.814 168.408 155.814 169.636 156.801C177.619 163.245 185.559 169.817 193.021 176.86C193.632 177.436 194.243 178.013 194.873 178.606C196.042 180.247 196.042 180.247 196.039 181.838C194.848 184.37 193.217 186.482 191.483 188.66C191.11 189.137 190.736 189.614 190.351 190.106C186.854 194.537 183.217 198.848 179.539 203.13C177.384 205.645 175.259 208.18 173.141 210.727C170.264 210.225 168.721 209.23 166.568 207.287C166.047 206.823 165.527 206.359 164.991 205.882C164.601 205.525 164.212 205.168 163.811 204.8C164.895 201.827 166.154 199.465 168.055 196.939C168.544 196.28 169.032 195.621 169.535 194.943C170.563 193.573 171.593 192.204 172.623 190.835C173.11 190.177 173.597 189.52 174.099 188.842C174.545 188.249 174.992 187.655 175.452 187.043C176.539 185.319 177.015 183.931 177.382 181.94C174.961 180.194 172.54 178.447 170.119 176.701C169.441 176.212 168.763 175.722 168.064 175.218C166.719 174.248 165.373 173.279 164.026 172.311C162.806 171.432 161.59 170.548 160.379 169.658C158.14 168.024 156.282 166.735 153.633 165.853C153.658 166.474 153.684 167.095 153.711 167.734C153.963 173.948 154.182 180.162 154.375 186.377C154.442 188.39 154.517 190.403 154.603 192.415C154.71 194.938 154.785 197.46 154.852 199.985C154.891 200.73 154.931 201.476 154.971 202.244C155.04 206.256 154.654 208.432 151.966 211.504C151.507 211.951 151.048 212.397 150.575 212.857C149.177 214.166 149.177 214.166 148.544 216.653C130.35 216.653 112.156 216.653 93.4111 216.653C93.9194 209.55 94.4262 202.791 95.6111 195.827C95.7397 195.046 95.8682 194.265 96.0007 193.46C96.4048 191.013 96.8163 188.567 97.2279 186.12C97.5034 184.456 97.7784 182.792 98.0529 181.128C100.182 168.274 100.182 168.274 101.045 164.16C100.407 164.438 100.407 164.438 99.756 164.722C89.512 169.008 78.3474 173.423 67.1171 173.473C64.4505 165.347 62.0379 157.152 59.7311 148.917C59.279 147.307 58.8213 145.698 58.3635 144.089C56.8436 138.618 55.6588 133.419 55.2424 127.753C57.0084 127.325 58.7757 126.903 60.5436 126.483C61.5277 126.248 62.5117 126.012 63.5256 125.769C66.2689 125.213 66.2689 125.213 69.6617 125.213Z" fill="white"/>
<path d="M141.758 49.0134C142.576 49.4926 143.394 49.9717 144.236 50.4653C145.319 51.0928 146.401 51.7201 147.483 52.3472C148.021 52.6631 148.559 52.9791 149.113 53.3046C154.202 56.2412 158.215 56.7973 164.023 57.1097C164.971 57.1645 164.971 57.1645 165.938 57.2205C167.491 57.3099 169.044 57.3954 170.597 57.4801C169.411 61.6948 168.155 65.8211 166.462 69.8626C164.923 73.5789 163.71 77.3442 162.539 81.1868C161.138 85.7808 159.599 90.2443 157.744 94.6805C156.823 96.9195 156.059 99.1992 155.329 101.507C156.449 101.786 157.568 102.066 158.722 102.353C159.002 101.515 159.282 100.677 159.57 99.8134C162.198 98.0649 162.924 97.8705 165.931 97.8555C166.588 97.8413 167.244 97.8271 167.919 97.8125C170.211 98.1979 170.936 98.7974 172.293 100.66C173.014 106.148 173.014 106.148 171.428 108.975C169.607 111.248 168.293 112.433 165.507 113.36C163.864 113.473 163.864 113.473 162.115 113.466C161.249 113.469 161.249 113.469 160.365 113.473C158.722 113.36 158.722 113.36 156.177 112.513C156.021 114.044 156.021 114.044 155.863 115.606C155.266 120.967 154.416 126.288 153.58 131.616C153.422 132.632 153.264 133.647 153.101 134.694C152.714 137.178 152.326 139.663 151.936 142.147C144.742 144.349 138.074 144.963 130.572 145.004C129.289 145.021 129.289 145.021 127.98 145.039C121.752 145.002 115.995 144.105 110.375 141.3C110.226 136.64 110.776 132.379 111.647 127.806C111.829 126.817 111.829 126.817 112.015 125.807C112.312 124.197 112.615 122.589 112.919 120.98C113.575 121.029 114.232 121.078 114.907 121.129C119.91 121.345 124.156 121.459 128.336 118.476C131.809 114.594 133.767 109.627 135.821 104.893C135.378 105.138 134.935 105.382 134.479 105.634C128.276 108.757 122.186 109.357 115.464 107.433C116.961 102.263 118.599 97.2105 120.553 92.1934C120.039 92.0494 119.525 91.9053 118.996 91.7569C113.717 90.2328 108.656 88.3867 103.589 86.2668C107.293 81.7888 111.241 77.815 115.517 73.8843C120.126 69.6066 124.667 65.2852 129.088 60.8138C132.883 56.9788 136.78 53.3338 140.91 49.8601C141.19 49.5807 141.47 49.3013 141.758 49.0134Z" fill="white"/>
<path d="M127.339 148.92C129.194 150.772 129.194 150.772 129.883 153.153C129.758 155.713 129.396 156.962 127.731 158.921C123.895 164.649 126.892 175.363 127.763 181.834C128.004 183.666 128.243 185.498 128.478 187.331C128.585 188.126 128.692 188.922 128.801 189.741C129.475 196.544 129.475 196.544 127.514 199.379C126.509 200.412 126.509 200.412 125.483 201.466C124.824 202.157 124.165 202.848 123.485 203.56C119.163 207.888 119.163 207.888 117.16 209.88C115.527 207.829 113.955 205.738 112.389 203.636C111.93 203.061 111.471 202.485 110.998 201.893C109.215 199.452 107.859 197.505 107.784 194.427C108.193 192.158 108.81 190.059 109.527 187.867C109.819 186.913 110.112 185.959 110.414 184.976C111.59 181.213 112.806 177.462 114.056 173.722C114.592 172.112 115.112 170.497 115.633 168.883C115.946 167.935 116.26 166.986 116.583 166.01C117.347 162.443 117.072 159.666 115.358 156.434C114.616 154.847 114.616 154.847 114.722 153.1C117.043 147.971 122.458 148.03 127.339 148.92Z" fill="black"/>
<path d="M56.0908 98.1201C57.2104 98.1201 58.33 98.1201 59.4835 98.1201C59.7634 99.2377 60.0434 100.355 60.3317 101.507C59.492 101.926 59.492 101.926 58.6354 102.353C58.9153 104.03 59.1952 105.706 59.4835 107.433C60.3233 107.713 61.163 107.992 62.0281 108.28C61.4683 111.074 60.9085 113.868 60.3317 116.747C60.8915 116.747 61.4514 116.747 62.0281 116.747C61.9232 115.568 61.9232 115.568 61.8161 114.366C62.0281 111.667 62.0281 111.667 63.6185 110.079C65.4209 109.127 65.4209 109.127 67.1173 109.127C67.1173 108.289 67.1173 107.45 67.1173 106.587C66.3126 106.604 65.5078 106.622 64.6787 106.64C62.0281 106.587 62.0281 106.587 60.3317 105.74C60.6116 104.902 60.8915 104.064 61.1799 103.2C63.7668 101.909 65.9657 102.154 68.8137 102.353C70.5161 103.622 71.2444 104.402 71.726 106.481C71.7359 111.857 71.3002 117.441 67.9655 121.827C64.0827 123.644 60.3295 124.506 56.0908 125.213C50.8445 120.019 50.8445 120.019 49.3052 117.593C49.3052 116.755 49.3052 115.917 49.3052 115.053C51.2646 114.495 53.2239 113.936 55.2426 113.36C54.9627 112.801 54.6828 112.243 54.3944 111.667C53.5547 111.667 52.715 111.667 51.8498 111.667C51.5699 110.549 51.29 109.432 51.0016 108.28C50.4418 108.28 49.882 108.28 49.3052 108.28C49.3052 109.957 49.3052 111.633 49.3052 113.36C48.7454 113.36 48.1856 113.36 47.6089 113.36C46.2487 110.39 45.7256 108.159 45.9125 104.893C47.0321 104.893 48.1517 104.893 49.3052 104.893C49.3052 105.452 49.3052 106.011 49.3052 106.587C49.865 106.587 50.4249 106.587 51.0016 106.587C51.0016 104.631 51.0016 102.675 51.0016 100.66C52.1212 101.219 53.2409 101.778 54.3944 102.353C54.9542 100.956 55.514 99.5595 56.0908 98.1201Z" fill="white"/>
<path d="M157.025 170.933C161.266 173.241 165.06 175.779 168.847 178.765C169.596 179.348 169.596 179.348 170.36 179.942C171.572 180.887 172.781 181.836 173.989 182.787C172.625 187.065 170.054 190.272 167.363 193.793C166.92 194.385 166.478 194.976 166.022 195.586C163.503 198.914 160.909 201.932 157.874 204.8C156.868 197.727 156.929 190.705 156.972 183.58C156.977 182.351 156.98 181.121 156.984 179.891C156.993 176.905 157.008 173.919 157.025 170.933Z" fill="#F4F4F4"/>
<path d="M161.737 207.485C164.911 208.558 166.669 209.927 168.9 212.42C169.278 214.877 168.896 216.868 168.052 219.193C166.356 221.469 166.356 221.469 164.659 223.426C163.99 225.7 163.99 225.7 163.811 227.66C164.651 227.38 165.49 227.101 166.356 226.813C166.635 226.254 166.915 225.696 167.204 225.12C167.764 225.12 168.323 225.12 168.9 225.12C168.583 227.415 168.21 228.354 166.515 229.988C164.659 231.046 164.659 231.046 161.266 231.046C161.266 230.488 161.266 229.929 161.266 229.353C159.867 229.633 158.467 229.912 157.025 230.2C156.919 223.638 156.919 223.638 157.874 221.733C157.489 222.117 157.104 222.502 156.707 222.897C155.682 223.92 154.658 224.943 153.633 225.966C152.944 224.273 152.944 224.273 152.784 221.733C153.982 219.32 155.455 217.145 157.025 214.96C155.346 215.519 153.667 216.077 151.936 216.653C152.411 213.51 153.616 212.132 155.965 210.039C156.538 209.509 157.111 208.98 157.701 208.435C159.57 207.34 159.57 207.34 161.737 207.485Z" fill="white"/>
<path d="M62.8761 79.4934C64.8925 80.9811 65.4027 81.9598 66.0038 84.4147C66.5566 89.5126 66.3329 94.6945 66.2689 99.8134C64.8694 99.8134 63.4699 99.8134 62.0279 99.8134C61.3435 95.5992 61.0421 91.5542 61.0207 87.2722C61.0087 86.1666 60.9966 85.061 60.9843 83.9219C61.1797 81.1867 61.1797 81.1867 62.8761 79.4934Z" fill="white"/>
<path d="M145.416 70.3389C145.888 70.5659 146.36 70.7929 146.847 71.0268C147.275 75.5094 146.159 77.6428 143.454 81.1868C142.055 80.9074 140.655 80.628 139.213 80.3401C138.844 76.5837 138.81 74.9497 141.122 71.8735C143.454 70.1801 143.454 70.1801 145.416 70.3389Z" fill="black"/>
<path d="M133.276 65.9468C134.676 66.2262 136.075 66.5056 137.517 66.7934C137.812 69.9535 137.716 71.5344 136.086 74.3076C134.124 76.1068 134.124 76.1068 131.792 76.3714C130.847 76.2404 130.847 76.2404 129.883 76.1068C129.601 72.5128 129.511 70.7259 131.58 67.693C132.14 67.1168 132.699 66.5405 133.276 65.9468Z" fill="black"/>
<path d="M149.392 59.1733C152.302 60.1417 152.712 60.7524 154.322 63.2479C154.712 63.8296 155.102 64.4114 155.505 65.0107C156.177 66.7933 156.177 66.7933 155.445 68.7083C155.127 69.1939 154.809 69.6796 154.481 70.18C150.905 68.9053 149.51 66.6414 147.695 63.4067C147.695 62.2891 147.695 61.1715 147.695 60.02C148.255 59.7406 148.815 59.4612 149.392 59.1733Z" fill="black"/>
<path d="M135.82 56.6333C139.179 56.6333 142.538 56.6333 145.999 56.6333C145.439 58.0303 144.879 59.4273 144.302 60.8666C141.503 60.8666 138.704 60.8666 135.82 60.8666C135.82 59.4696 135.82 58.0726 135.82 56.6333Z" fill="black"/>
<path d="M51.8494 98.1201C52.969 98.1201 54.0886 98.1201 55.2422 98.1201C55.2422 101.473 55.2422 104.826 55.2422 108.28C54.9623 108.28 54.6824 108.28 54.394 108.28C54.3065 107.355 54.219 106.429 54.1289 105.476C53.5686 102.476 53.3739 101.564 51.0012 99.8135C51.2811 99.2547 51.561 98.6959 51.8494 98.1201Z" fill="#272726"/>
<path d="M196.89 181.093C197.45 181.373 198.01 181.652 198.587 181.94C198.027 183.337 197.467 184.734 196.89 186.173C196.051 186.173 195.211 186.173 194.346 186.173C194.832 183.746 195.076 182.904 196.89 181.093Z" fill="#363636"/>
</g>
</svg>
