<svg width="257" height="257" viewBox="0 0 257 257" fill="none" xmlns="http://www.w3.org/2000/svg">
<mask id="mask0_425_2876" style="mask-type:alpha" maskUnits="userSpaceOnUse" x="0" y="0" width="257" height="257">
<circle cx="128.5" cy="128.5" r="128.5" fill="white"/>
</mask>
<g mask="url(#mask0_425_2876)">
<path d="M151.468 20.4598C150.489 27.7428 148.583 32.6442 143.991 38.4156C142.532 40.5148 142.532 40.5148 143.135 42.7767C144.046 45.4465 145.208 47.5769 146.692 49.9735C147.239 50.8637 147.786 51.754 148.349 52.6712C149.221 54.0743 149.221 54.0743 150.111 55.5059C151.3 57.4412 152.487 59.3771 153.673 61.3137C154.246 62.2466 154.819 63.1796 155.409 64.1409C158.45 69.1248 161.349 74.1838 164.211 79.2725C164.659 80.0317 165.108 80.791 165.571 81.5732C166.725 83.5895 166.725 83.5895 168.122 86.7057C166.398 89.638 166.398 89.638 163.844 90.3784C162.833 90.533 161.823 90.6877 160.782 90.847C159.775 91.011 158.768 91.1749 157.731 91.3439C154.987 91.6055 154.987 91.6055 151.833 90.9332C151.846 91.7275 151.86 92.5217 151.873 93.34C152.183 111.954 152.183 111.954 152.243 115.771C152.289 118.406 152.342 121.042 152.403 123.677C152.431 124.96 152.459 126.242 152.487 127.564C152.515 128.721 152.543 129.879 152.571 131.072C152.549 133.983 152.549 133.983 151.876 137.139C152.782 137.099 153.688 137.059 154.622 137.018C158.007 136.872 161.392 136.734 164.777 136.6C166.238 136.541 167.699 136.479 169.159 136.414C171.267 136.32 173.376 136.238 175.484 136.156C176.75 136.104 178.016 136.051 179.32 135.997C182.802 136.048 185.823 136.544 189.191 137.394C189.354 136.257 189.516 135.121 189.684 133.95C191.132 124.053 192.866 114.31 195.092 104.554C194.344 104.1 193.597 103.645 192.826 103.177C188.841 100.281 187.009 96.3522 185.77 91.5676C186.453 87.6729 187.052 84.6929 189.064 81.2704C189.306 80.0289 189.548 78.7874 189.797 77.5082C190.634 73.9056 190.634 73.9056 193.185 72.2495C194.573 72.5453 195.96 72.8411 197.39 73.1459C197.781 72.5217 198.172 71.8975 198.575 71.2544C200.39 69.3856 200.39 69.3856 202.744 69.1785C205.556 69.5847 208.34 70.0229 211.128 70.5745C212.327 70.809 212.327 70.809 213.551 71.0481C215.713 71.6207 215.713 71.6207 219.314 73.4194C223.091 80.3017 223.479 86.2646 221.834 93.824C221.436 95.732 221.436 95.732 221.029 97.6785C220.087 100.828 219.272 102.504 217.015 104.827C217.709 104.975 218.403 105.123 219.118 105.276C216.959 122.033 213.253 138.462 209.628 154.95C209.282 154.876 208.935 154.802 208.577 154.725C212.154 131.804 212.154 131.804 214.703 120.833C212.968 120.464 211.233 120.094 209.446 119.713C209.52 119.366 209.594 119.018 209.67 118.661C211.405 119.031 213.14 119.4 214.927 119.781C215.394 115.888 215.861 111.995 216.342 107.984C213.914 107.466 211.485 106.948 208.983 106.415C210.445 106.364 211.907 106.312 213.413 106.259C213.706 104.723 213.706 104.723 214.006 103.155C214.758 99.9466 214.758 99.9466 216.034 99.1186C218.398 91.3153 219.137 84.3564 217.59 76.3517C216.202 76.0559 214.814 75.7601 213.384 75.4553C213.236 76.1497 213.088 76.8441 212.936 77.5595C212.242 77.4116 211.548 77.2637 210.833 77.1113C210.634 76.343 210.435 75.5746 210.23 74.783C209.264 74.2139 208.297 73.6449 207.301 73.0586C207.13 75.5629 206.958 78.0673 206.782 80.6475C206.088 80.4996 205.394 80.3517 204.68 80.1993C204.6 79.2976 204.52 78.3958 204.438 77.4667C204.028 74.3727 204.028 74.3727 201.646 73.1595C201.01 72.9557 200.373 72.7519 199.717 72.542C199.349 76.8193 199.349 76.8193 198.974 81.1831C200.709 81.5529 202.444 81.9226 204.231 82.3036C204.208 84.1135 204.185 85.9235 204.161 87.7883C204.855 87.9362 205.549 88.0841 206.264 88.2365C206.56 86.8477 206.856 85.4589 207.161 84.028C208.201 84.2499 209.242 84.4717 210.315 84.7003C210.514 85.4687 210.712 86.237 210.917 87.0287C213.63 87.0625 213.63 87.0625 216.398 87.097C215.755 88.4119 215.112 89.7267 214.45 91.0814C211.873 91.2582 209.297 91.4349 206.642 91.617C206.619 93.4269 206.596 95.2369 206.572 97.1017C206.126 96.6436 205.679 96.1854 205.219 95.7134C201.766 93.3975 198.487 93.037 194.405 92.3082C194.553 91.6138 194.701 90.9194 194.853 90.204C195.754 90.1239 196.656 90.0437 197.584 89.9612C200.676 89.5507 200.676 89.5507 201.889 87.1666C202.093 86.5294 202.297 85.8923 202.507 85.2359C196.591 84.1936 196.591 84.1936 191.321 86.1512C189.979 89.9142 189.764 91.853 191.081 95.6557C193.247 98.9032 195.527 100.871 198.694 103.122C198.546 103.816 198.398 104.511 198.246 105.226C201.479 105.371 201.479 105.371 204.778 105.519C204.556 106.56 204.334 107.602 204.105 108.675C202.023 108.231 199.942 107.788 197.797 107.33C197.131 110.455 196.465 113.58 195.779 116.8C199.595 117.613 203.411 118.427 207.343 119.265C207.195 119.959 207.047 120.653 206.895 121.369C203.425 120.629 199.956 119.89 196.381 119.128C194.901 126.072 193.421 133.016 191.896 140.17C186.015 141.333 182.559 141.922 176.909 141.513C173.044 140.949 173.044 140.949 169.524 142.001C166.608 141.819 163.717 141.59 160.809 141.312C159.991 141.238 159.174 141.163 158.331 141.087C156.305 140.902 154.28 140.711 152.254 140.52C152.495 142.004 152.495 142.004 152.74 143.519C152.95 144.832 153.161 146.144 153.377 147.496C153.69 149.439 153.69 149.439 154.009 151.421C154.543 154.969 154.979 158.511 155.352 162.079C162.753 161.981 169.837 161.559 177.108 160.16C180.426 159.579 183.734 159.219 187.085 158.875C190.759 158.493 194.233 158.061 197.782 157.03C198.694 156.794 199.606 156.557 200.545 156.313C201.165 156.808 201.785 157.303 202.423 157.813C202.201 158.855 201.979 159.897 201.751 160.97C161.692 167.83 161.692 167.83 155.507 166.511C155.529 167.292 155.551 168.072 155.573 168.875C155.673 172.467 155.77 176.058 155.866 179.65C155.901 180.876 155.935 182.103 155.971 183.367C156.494 203.129 156.494 203.129 155.171 209.337C155.746 209.285 156.32 209.233 156.913 209.18C158.808 209.017 160.704 208.865 162.601 208.721C165.397 208.498 168.181 208.24 170.971 207.962C196.411 205.637 196.411 205.637 205.427 212.445C207.951 216.007 208.029 218.709 207.656 223.017C206.464 229.42 204.536 235.019 201.772 240.877C199.961 244.87 198.511 248.992 197.016 253.111C193.937 261.472 190.557 269.6 186.767 277.668C182.902 277.933 182.902 277.933 178.959 278.204C178.811 278.898 178.663 279.593 178.511 280.308C179.279 280.109 180.046 279.909 180.838 279.704C182.993 280.07 185.138 280.503 187.274 280.969C188.547 281.244 189.821 281.519 191.132 281.802C192.467 282.096 193.801 282.389 195.176 282.692C196.519 282.983 197.863 283.274 199.247 283.575C202.573 284.297 205.899 285.024 209.223 285.755C209.621 287.292 210.019 288.828 210.429 290.412C198.607 296.527 189.124 300.616 175.974 297.366C175.354 296.871 174.734 296.376 174.095 295.866C173.725 297.602 173.355 299.338 172.974 301.126C162.525 301.628 162.525 301.628 158.031 299.041C157.327 292.749 159.372 286.885 161.844 281.155C160.803 280.933 159.762 280.711 158.69 280.483C160.137 272.01 162.886 264.314 166.035 256.338C166.947 254.003 167.857 251.668 168.765 249.332C169.367 247.802 169.367 247.802 169.981 246.242C171.111 243.303 171.111 243.303 171.866 239.294C170.788 239.544 169.711 239.793 168.601 240.05C165.526 240.762 162.451 241.471 159.376 242.179C156.284 242.89 153.194 243.61 150.106 244.336C148.773 244.646 147.44 244.956 146.067 245.276C144.249 245.702 144.249 245.702 142.393 246.138C139.513 246.697 139.513 246.697 137.411 246.249C137.577 247.07 137.744 247.891 137.916 248.736C139.611 257.391 140.768 265.99 141.566 274.77C141.697 276.01 141.827 277.25 141.961 278.528C142.633 285.845 142.848 292.659 140.313 299.664C136.338 304.207 130.283 306.755 125.006 309.6C123.7 310.322 122.396 311.045 121.092 311.769C117.389 313.82 113.669 315.837 109.937 317.833C108.357 318.681 106.78 319.534 105.206 320.393C102.887 321.653 100.555 322.88 98.2156 324.101C97.1484 324.69 97.1484 324.69 96.0596 325.29C94.0272 326.328 94.0272 326.328 90.4104 327.524C87.5186 326.126 87.5186 326.126 85.6023 324.3C86.5362 332.64 89.196 338.983 94.5375 345.444C96.0597 347.427 96.0597 347.427 97.4896 351.032C97.1935 352.421 96.8975 353.81 96.5925 355.24C85.6037 353.529 77.1217 348.536 70.2252 339.721C67.8817 335.445 67.8817 335.445 68.3879 331.904C68.6195 331.137 68.8511 330.37 69.0896 329.579C68.1437 329.763 67.1977 329.947 66.223 330.137C62.5574 329.287 62.5574 329.287 60.7004 326.76C59.0922 323.886 57.5814 320.998 56.1653 318.025C58.4839 314.592 60.6624 313.321 64.4934 311.826C65.4207 311.45 66.3479 311.075 67.3032 310.689C69.9726 309.969 69.9726 309.969 74.1779 310.865C73.854 308.981 73.5302 307.097 73.1966 305.156C78.475 301.625 83.8233 298.342 89.3939 295.294C92.4761 293.583 95.5073 291.793 98.5455 290.005C102.898 287.48 107.095 285.347 111.843 283.696C111.53 282.973 111.218 282.249 110.895 281.504C103.593 264.452 96.3932 246.773 91.671 228.799C91.4254 227.927 91.1799 227.055 90.9269 226.156C88.0793 214.19 89.4283 202.223 90.2417 190.066C90.377 187.817 90.5109 185.567 90.6433 183.318C90.7746 181.168 90.9071 179.019 91.0411 176.87C91.1341 175.37 91.1341 175.37 91.2291 173.84C91.292 172.906 91.3549 171.971 91.4197 171.008C91.4735 170.193 91.5273 169.377 91.5827 168.536C91.861 165.93 92.3732 163.432 92.9599 160.878C92.0261 160.929 92.0261 160.929 91.0734 160.981C88.2521 161.132 85.4305 161.277 82.6088 161.422C81.629 161.475 80.6493 161.529 79.6398 161.584C78.2273 161.655 78.2273 161.655 76.7863 161.728C75.4853 161.796 75.4853 161.796 74.1581 161.865C71.8634 161.881 71.8634 161.881 68.7095 161.209C68.6841 161.953 68.6588 162.696 68.6327 163.462C68.5164 166.828 68.3958 170.194 68.2751 173.559C68.2352 174.73 68.1954 175.9 68.1544 177.106C68.1136 178.228 68.0728 179.35 68.0307 180.506C67.9943 181.541 67.9579 182.576 67.9204 183.642C67.7565 186.304 67.7565 186.304 67.0837 189.461C68.3474 189.594 69.6111 189.727 70.9132 189.864C75.3717 190.907 78.1451 192.472 80.7586 196.285C81.8795 200.548 81.0015 204.002 79.9162 208.214C79.6283 209.38 79.6283 209.38 79.3346 210.571C77.9963 214.951 77.0009 216.534 73.1962 219.336C68.7436 220.876 66.2727 220.838 61.6732 219.999C60.4266 219.786 59.1799 219.572 57.8955 219.353C56.6997 219.113 55.5039 218.874 54.2719 218.628C53.1151 218.445 51.9583 218.262 50.7664 218.074C49.8416 217.813 48.9168 217.552 47.964 217.283C43.1804 208.49 44.5244 201.016 46.8143 191.739C45.4265 191.444 44.0388 191.148 42.609 190.843C41.8835 172.727 41.8835 172.727 42.0948 164.352C42.1613 162.158 42.1613 162.158 41.9985 160.031C41.972 157.051 42.4297 154.321 42.9809 151.394C43.1703 150.312 43.3597 149.231 43.5548 148.117C44.9974 144.192 46.4661 142.943 49.9958 140.721C52.8705 139.712 55.5561 138.901 58.5009 138.203C59.7174 137.9 59.7174 137.9 60.9585 137.591C68.1515 135.865 75.3915 134.74 82.7159 133.749C86.9146 133.143 90.9884 132.305 95.0989 131.267C97.1369 130.971 97.1369 130.971 101.342 131.867C101.104 130.75 100.866 129.633 100.621 128.482C99.2316 121.387 98.3179 114.387 98.9169 107.152C97.8021 107.277 96.6873 107.402 95.5386 107.532C90.0869 107.03 86.1282 106.547 82.4277 102.331C81.9203 101.202 81.4129 100.073 80.8902 98.9095C80.4417 97.9291 79.9933 96.9488 79.5313 95.9387C78.4928 91.373 79.4878 88.0512 81.6084 83.9385C83.1309 78.775 81.7347 74.3372 80.6375 69.1575C80.1198 66.2628 79.6289 63.3646 79.1417 60.4646C78.8393 58.6993 78.5176 56.9371 78.1731 55.1795C77.3396 50.6289 77.0592 47.6576 79.4878 43.6141C85.8501 42.7704 85.8501 42.7704 89.3983 43.5267C89.0181 42.6517 88.6379 41.7766 88.2462 40.875C87.3657 37.5938 87.3657 37.5938 87.9404 34.8977C91.5283 29.6428 98.3576 28.5545 104.235 27.0968C105.046 26.892 105.856 26.6872 106.691 26.4762C145.359 16.8637 145.359 16.8638 151.468 20.4598Z" fill="black"/>
<path d="M149.325 138.796C149.225 143.723 149.127 146.471 145.806 150.145C145.498 149.523 145.19 148.902 144.873 148.261C142.152 143.232 142.152 143.232 137.526 140.169C134.647 139.545 134.647 139.545 130.555 139.194C125.247 146.23 125.247 146.23 119.832 153.407C120.526 153.555 121.22 153.703 121.934 153.856C123.072 151.92 124.21 149.985 125.383 147.991C126.622 148.981 127.862 149.972 129.139 150.992C128.991 151.686 128.843 152.381 128.691 153.096C129.385 153.244 130.079 153.392 130.794 153.544C130.548 154.739 130.302 155.935 130.049 157.166C129.143 161.643 128.306 166.13 127.488 170.624C127.126 172.559 126.746 174.491 126.347 176.419C123.732 187.787 123.732 187.787 125.768 198.92C128.647 202.969 131.285 205.935 135.574 208.46C136.249 207.208 136.249 207.208 136.937 205.932C138.64 203.207 139.88 201.737 142.131 199.614C144.681 196.852 145.199 195.018 145.215 191.266C145.015 187.562 144.284 184.02 143.546 180.391C142.804 176.443 142.328 172.462 141.83 168.477C141.724 167.653 141.619 166.829 141.51 165.979C141.306 164.374 141.105 162.769 140.908 161.163C140.659 159.146 140.392 157.131 140.123 155.116C139.866 152.046 140.168 150.743 141.825 148.196C144.749 149.917 145.583 150.924 147.236 153.749C147.953 152.087 148.67 150.425 149.409 148.713C151.287 150.213 151.287 150.213 151.835 153.204C152.83 163.484 153.12 173.692 153.148 184.02C153.153 185.328 153.159 186.635 153.164 187.982C153.143 195.308 152.806 202.459 151.792 209.717C150.852 209.745 149.911 209.772 148.941 209.801C132.272 210.454 115.786 212.492 99.4927 216.095C96.465 216.622 96.465 216.622 93.3111 215.95C93.3491 214.889 93.3871 213.827 93.4262 212.734C93.5691 208.74 93.7115 204.746 93.8539 200.752C93.9152 199.034 93.9765 197.316 94.0381 195.598C94.0978 193.929 94.1574 192.26 94.2168 190.591C94.2752 188.953 94.3339 187.314 94.3929 185.676C94.5885 180.183 94.7451 174.69 94.8581 169.195C95.0489 165.816 95.712 162.718 96.5626 159.447C97.9503 159.742 99.3381 160.038 100.768 160.343C100.916 159.649 101.064 158.954 101.216 158.239C100.507 158.243 99.7983 158.247 99.0678 158.251C95.7954 158.268 92.523 158.284 89.2506 158.301C88.1357 158.307 87.0208 158.313 85.8721 158.319C78.8972 158.352 71.9268 158.322 64.9529 158.208C65.0148 159.447 65.0767 160.685 65.1405 161.961C65.3269 167.317 65.052 172.613 64.727 177.959C64.6728 178.905 64.6186 179.85 64.5628 180.824C64.4302 183.128 64.2927 185.432 64.1541 187.736C58.1102 188.565 52.5109 188.993 46.4359 188.359C46.4273 187.03 46.4187 185.701 46.4099 184.332C46.397 182.553 46.384 180.775 46.371 178.996C46.3655 178.124 46.3601 177.252 46.3545 176.354C46.3227 172.191 46.2513 168.046 46.0409 163.887C45.9633 159.883 46.2591 156.385 47.0129 152.459C47.2149 151.306 47.4169 150.152 47.625 148.964C48.8745 145.982 48.8745 145.982 51.7842 144.114C61.8956 140.31 72.6146 138.813 83.2486 137.192C88.2212 136.366 93.1294 135.287 98.0418 134.159C100.894 133.972 100.894 133.972 102.989 135.239C103.537 135.811 104.086 136.383 104.651 136.972C107.099 139.999 107.099 139.999 110.51 140.421C109.918 139.796 109.326 139.17 108.716 138.526C108.142 137.814 107.568 137.102 106.977 136.368C107.125 135.674 107.273 134.98 107.426 134.264C112.242 134.543 117.056 134.841 121.87 135.143C123.22 135.221 124.57 135.299 125.961 135.379C133.951 135.891 141.556 136.835 149.325 138.796Z" fill="#F7F7F7"/>
<path d="M140.605 45.6422C141.914 47.3737 141.914 47.3737 142.992 49.5884C145.735 54.8941 148.751 59.9836 151.847 65.0876C158.321 75.8348 158.321 75.8348 161.044 80.591C161.673 81.6885 161.673 81.6885 162.315 82.8082C163.089 84.5329 163.089 84.5329 162.641 86.6372C160.008 87.1808 157.375 87.7185 154.74 88.2528C153.991 88.408 153.243 88.5632 152.472 88.7231C146.815 89.8633 146.815 89.8633 144.474 89.3643C144.252 90.4059 144.03 91.4475 143.801 92.5207C145.994 92.4436 145.994 92.4436 148.231 92.3649C148.963 110.657 148.963 110.657 148.679 119.164C148.539 121.052 148.539 121.052 149.535 122.341C149.329 124.515 149.063 126.683 148.766 128.846C148.527 130.617 148.527 130.617 148.282 132.425C148.155 133.337 148.027 134.25 147.895 135.191C132.676 135.176 118.742 133.55 103.893 130.211C103.502 126.967 103.119 123.723 102.739 120.478C102.573 119.109 102.573 119.109 102.404 117.713C101.843 112.865 101.51 108.278 101.917 103.391C101.259 103.606 100.601 103.82 99.9234 104.041C95.3458 105.002 91.0999 103.933 86.7495 102.358C83.9839 99.3584 83.5157 97.9174 83.0628 93.8727C83.9801 87.3048 83.9801 87.3048 86.1185 84.6935C89.9073 83.6096 93.3121 84.3376 96.8701 85.8166C99.3784 88.5511 99.3784 88.5511 101.23 91.1456C102.27 91.3675 103.311 91.5893 104.384 91.8179C104.682 84.0266 104.207 76.5493 103.241 68.8195C101.053 50.7233 101.053 50.7233 102.238 45.1636C103.034 45.251 103.83 45.3385 104.651 45.4286C113.087 46.1535 120.681 45.6405 129.011 44.2101C133.525 43.4903 136.707 43.0337 140.605 45.6422Z" fill="white"/>
<path d="M207.301 73.0588C208.615 73.7018 209.928 74.3448 211.282 75.0073C211.134 75.7017 210.986 76.3961 210.833 77.1116C211.527 77.2595 212.221 77.4074 212.936 77.5598C213.084 76.8654 213.232 76.171 213.385 75.4555C214.772 75.7514 216.16 76.0472 217.59 76.3519C220.942 84.803 219.604 93.416 216.086 101.695C215.26 103.253 214.347 104.764 213.413 106.26C214.38 106.829 215.347 107.398 216.343 107.984C214.703 120.834 214.703 120.834 213.063 133.683C214.987 124.656 216.911 115.629 218.894 106.328C219.241 106.402 219.588 106.476 219.945 106.552C218.914 118.936 217.218 131.143 214.85 143.345C214.633 144.582 214.416 145.818 214.193 147.092C212.471 155.509 212.471 155.509 209.769 158.148C206.441 160.027 204.245 160.386 200.46 159.939C199.572 159.636 198.684 159.333 197.77 159.022C198.612 158.475 199.454 157.929 200.321 157.365C199.642 157.487 198.963 157.609 198.263 157.735C192.115 158.818 185.965 159.767 179.779 160.6C174.868 161.302 169.983 162.152 165.095 163C161.685 163.421 158.548 163.387 155.128 163.131C151.301 144.992 151.301 144.992 152.255 140.52C153.439 140.56 154.623 140.6 155.844 140.641C157.422 140.688 159.001 140.735 160.579 140.782C161.357 140.809 162.135 140.836 162.936 140.863C167.549 140.995 171.915 140.752 176.505 140.19C178.402 140.17 180.3 140.182 182.197 140.234C185.174 140.312 187.876 140.28 190.845 139.947C192.672 133.076 194.499 126.206 196.382 119.128C199.851 119.868 203.32 120.607 206.895 121.369C207.043 120.675 207.191 119.98 207.344 119.265C203.527 118.451 199.711 117.638 195.779 116.8C196.445 113.675 197.111 110.55 197.797 107.331C199.879 107.774 201.961 108.218 204.105 108.675C204.327 107.634 204.549 106.592 204.778 105.519C201.545 105.374 201.545 105.374 198.246 105.226C197.948 104.074 197.948 104.074 197.643 102.898C196.765 102.234 195.886 101.571 194.981 100.887C191.703 98.1415 190.319 96.268 188.924 92.2401C189.168 88.8091 189.517 86.8218 191.742 84.1787C195.572 82.9825 198.672 84.2193 202.507 85.2361C201.79 86.8982 201.073 88.5602 200.334 90.2726C198.526 90.2501 196.717 90.2275 194.854 90.2042C194.706 90.8986 194.558 91.593 194.405 92.3085C195.757 92.3471 197.109 92.3857 198.502 92.4255C201.872 92.6939 202.746 92.7849 205.346 95.1218C205.751 95.7753 206.155 96.4287 206.572 97.1019C206.249 95.218 205.925 93.3341 205.591 91.3931C206.227 91.3287 206.862 91.2643 207.517 91.1979C208.345 91.0978 209.172 90.9977 210.025 90.8946C210.848 90.8021 211.671 90.7095 212.519 90.6142C215.033 90.2022 215.033 90.2022 216.399 87.0973C214.516 87.4219 212.633 87.7466 210.693 88.081C210.506 86.4077 210.506 86.4077 210.315 84.7006C209.274 84.4787 208.233 84.2568 207.161 84.0283C206.865 85.4171 206.569 86.8059 206.264 88.2367C205.57 88.0888 204.876 87.9409 204.161 87.7885C204.196 85.0736 204.196 85.0736 204.231 82.3038C202.497 81.9341 200.762 81.5643 198.975 81.1833C199.22 78.3318 199.465 75.4802 199.717 72.5422C202.208 73.6177 202.208 73.6177 204.75 74.7149C204.715 77.4298 204.715 77.4298 204.68 80.1996C205.374 80.3475 206.068 80.4954 206.782 80.6478C207.039 76.8912 207.039 76.8912 207.301 73.0588Z" fill="white"/>
<path d="M73.7699 194.185C76.3722 196.781 76.3722 196.781 78.1294 199.514C77.7291 203.004 77.7291 203.004 76.7838 205.827C76.0899 205.679 75.3961 205.531 74.6812 205.379C74.5563 204.263 74.4314 203.148 74.3027 201.998C73.6828 201.503 73.0629 201.008 72.4243 200.498C72.6113 201.109 72.7984 201.721 72.9911 202.351C75.4797 211.042 75.4797 211.042 73.7141 215.072C70.1115 216.504 70.1115 216.504 67.9195 215.831C67.3292 215.41 66.7388 214.989 66.1305 214.556C66.0056 213.44 65.8807 212.324 65.752 211.175C65.1321 210.68 64.5123 210.185 63.8736 209.675C63.7765 211.832 63.6794 213.989 63.5793 216.212C61.4237 216.115 59.2681 216.019 57.0471 215.919C57.3432 214.53 57.6392 213.142 57.9442 211.711C57.2503 211.563 56.5565 211.415 55.8416 211.262C55.5455 212.651 55.2495 214.04 54.9445 215.471C53.2098 215.101 51.4751 214.731 49.6879 214.35C48.0799 206.092 47.7917 199.466 50.1923 191.359C58.4993 189.509 66.0546 190.525 73.7699 194.185Z" fill="#F3F3F4"/>
<path d="M216.342 107.983C216.306 110.614 216.306 110.614 215.794 113.779C215.637 114.797 215.479 115.816 215.317 116.865C215.114 118.174 214.911 119.484 214.703 120.833C214.161 125.073 213.62 129.314 213.063 133.683C214.987 124.655 216.911 115.628 218.894 106.327C219.241 106.401 219.588 106.475 219.945 106.552C218.914 118.935 217.218 131.143 214.85 143.344C214.633 144.581 214.416 145.818 214.193 147.092C212.471 155.509 212.471 155.509 209.769 158.147C206.441 160.026 204.245 160.385 200.459 159.938C199.128 159.484 199.128 159.484 197.77 159.021C201.101 157.254 203.525 155.978 207.302 155.553C207.518 154.164 207.735 152.776 207.958 151.345C209.53 141.38 211.194 131.502 213.427 121.661C207.603 120.057 201.779 118.452 195.779 116.799C196.445 113.674 197.111 110.55 197.797 107.33C199.879 107.774 201.96 108.218 204.105 108.675C204.327 107.633 204.549 106.592 204.778 105.518C202.622 105.422 200.467 105.325 198.246 105.226C203.634 101.728 212.042 103.57 216.342 107.983Z" fill="black"/>
<path d="M122.704 93.5234C129.916 95.4237 137.128 97.3239 144.558 99.2817C144.262 100.67 143.966 102.059 143.661 103.49C138.184 101.96 132.707 100.429 127.064 98.8524C128.798 105.827 128.798 105.827 133.232 111.166C136.039 112.018 138.731 112.489 141.642 112.959C139.853 116.84 139.853 116.84 138.418 117.772C134.699 117.365 132.654 116.941 129.902 114.341C125.758 108.503 123.188 103.783 122.032 96.6798C122.254 95.6382 122.476 94.5966 122.704 93.5234Z" fill="black"/>
<path d="M215.067 108.812C214.748 112.011 214.428 115.209 214.1 118.505C207.752 118.58 201.937 118.395 195.779 116.8C196.445 113.675 197.111 110.55 197.797 107.331C204.011 106.904 209.027 107.297 215.067 108.812Z" fill="white"/>
<path d="M125.522 54.5265C123.356 58.21 121.81 58.2226 117.868 59.4946C117.373 60.1151 116.878 60.7355 116.368 61.3748C115.674 61.2269 114.981 61.079 114.266 60.9266C115.241 58.2048 116.041 56.2654 118.159 54.2632C120.963 53.1218 122.675 53.6741 125.522 54.5265Z" fill="black"/>
<path d="M193.788 74.5779C195.102 75.2209 196.415 75.8639 197.769 76.5264C197.746 78.3364 197.723 80.1463 197.699 82.0111C195.89 81.9886 194.082 81.966 192.218 81.9428C192.736 79.5123 193.254 77.0819 193.788 74.5779Z" fill="white"/>
<path d="M132.727 51.6626C135.155 52.1803 137.584 52.6979 140.086 53.2313C140.211 54.3469 140.336 55.4624 140.464 56.6118C137.689 56.0201 134.913 55.4285 132.054 54.819C132.276 53.7774 132.498 52.7358 132.727 51.6626Z" fill="black"/>
<path d="M124.255 66.2439C124.262 66.3073 124.269 66.3708 124.293 66.5522C124.316 66.7337 124.356 67.0312 124.396 67.2401C124.435 67.4491 124.474 67.5604 124.5 67.735" stroke="black" stroke-width="6" stroke-linecap="round"/>
<path d="M136.893 63.3071C137.014 63.7047 137.136 64.1022 137.198 64.3585C137.26 64.6148 137.259 64.7177 137.305 64.8964" stroke="black" stroke-width="6" stroke-linecap="round"/>
</g>
</svg>
