<svg width="223" height="257" viewBox="0 0 223 257" fill="none" xmlns="http://www.w3.org/2000/svg">
<g id="Mask group">
<mask id="mask0_21_4" style="mask-type:alpha" maskUnits="userSpaceOnUse" x="-34" y="0" width="257" height="257">
<g id="Ellipse 2">
<path d="M223 128.5C223 199.469 165.469 257 94.5 257C23.5314 257 -34 199.469 -34 128.5C-34 57.5314 23.5314 0 94.5 0C165.469 0 223 57.5314 223 128.5Z" fill="#FFF8E7"/>
<path d="M223 128.5C223 199.469 165.469 257 94.5 257C23.5314 257 -34 199.469 -34 128.5C-34 57.5314 23.5314 0 94.5 0C165.469 0 223 57.5314 223 128.5Z" fill="#FFF8E7"/>
</g>
</mask>
<g mask="url(#mask0_21_4)">
<g id="Group 2">
<path id="Vector" d="M100.619 69.7424C102.725 69.3136 104.959 71.2302 105.578 74.0045C105.86 75.2692 105.781 76.5427 105.353 77.5909C104.868 78.7798 103.961 79.5898 102.859 79.8107C102.657 79.8519 102.447 79.8713 102.24 79.8713C100.286 79.8713 98.4603 78.0522 97.9025 75.5465C97.6201 74.2817 97.6998 73.0082 98.1279 71.96C98.6106 70.7732 99.5191 69.9654 100.619 69.7424Z" fill="black"/>
<path id="Vector_2" d="M90.7481 71.1372C92.8498 70.704 95.0903 72.625 95.7074 75.3992C95.9897 76.664 95.91 77.9375 95.4819 78.9857C94.9969 80.1746 94.0907 80.9846 92.9887 81.2055C92.786 81.2467 92.5765 81.2662 92.3671 81.2662C90.4112 81.2662 88.585 79.4469 88.0295 76.9412C87.7471 75.6765 87.8268 74.403 88.2549 73.3548C88.7376 72.168 89.6484 71.3581 90.7481 71.1372Z" fill="black"/>
<path id="Vector_3" d="M94.4137 59.5274L106.082 61.5991L105.014 67.0384L93.3462 64.9668L94.4137 59.5274Z" fill="black"/>
<path id="Vector_4" d="M86.0152 58.6976L89.2397 63.2983L79.3893 69.544L76.1648 64.9433L86.0152 58.6976Z" fill="black"/>
<path id="Vector_5" d="M39.4005 220.161H38.8699L42.7999 175.671L69.3243 147.246L67.8693 107.666L60.0274 103.98C63.2539 74.7776 49.3052 88.2244 50.1909 60.7828C50.874 39.5915 64.5517 41.4388 70.7496 43.3793C72.0042 40.5292 78.9216 27.9378 100.723 35.2536C115.453 40.1979 124.149 33.4517 124.149 33.4517C124.149 33.4517 117.562 49.4541 103.895 54.2294L137.032 97.9203L107.825 97.054L110.738 113.282L109.611 113.459C108.768 113.591 107.415 113.749 105.749 113.749C101.632 113.749 94.4118 112.732 88.8902 106.492C89.1725 109.13 90.1356 112.907 93.0889 116.088C96.9119 120.205 103.076 122.308 111.409 122.336L112.259 122.339L119.208 144.84L145.363 162.735L166.928 134.35L167.133 134.503C166.229 131.681 166.439 130.793 166.792 130.324C167.026 130.012 167.382 129.838 167.791 129.838C168.361 129.838 169.214 130.118 171.07 132.121C173.035 125.338 174.433 125.338 174.893 125.338C175.207 125.338 175.508 125.466 175.738 125.693C176.177 126.133 176.601 127.107 176.562 130.705C178.7 128.234 180.205 126.984 181.05 126.984C181.421 126.984 181.747 127.153 181.943 127.445C182.289 127.965 182.416 128.814 180.435 133.054C181.838 132.543 183.673 131.961 184.75 131.961C185.741 131.961 186.069 132.448 186.176 132.738C186.433 133.436 186.298 134.352 182.204 137.633C185.545 138.15 185.586 139.04 185.604 139.409C185.65 140.32 185.051 141.187 177.719 142.495L178.044 142.744L149.15 176.895L120.531 164.568L122.787 201.688L122.846 202.814L122.106 202.827C126.383 212.806 126.282 227.951 122.876 240.278C118.249 257.021 108.98 271.046 105.323 276.158C118.839 276.036 122.876 284.036 122.876 284.036H96.6273H90.8256H64.5791L66.2117 278.254H65.228C65.228 278.254 88.6169 241.201 75.768 227.8C66.0431 217.653 64.4721 209.434 65.2189 203.853L63.9711 203.869L67.2636 169.373L54.3168 184.31L53.8591 220.159H53.0166C55.9107 222.099 56.1635 222.994 55.9585 223.659C55.6557 224.638 54.2917 224.638 53.8409 224.638C53.1829 224.638 52.3473 224.553 51.4615 224.354C52.6364 227.068 53.8682 230.539 53.0668 231.676C52.8482 231.988 52.4975 232.168 52.1059 232.168C51.4274 232.168 50.446 231.698 48.0256 228.67C47.9527 230.946 47.7022 233.452 46.9986 234.128C46.7869 234.331 46.5159 234.444 46.2359 234.444C45.4549 234.444 44.7377 234.015 43.4603 229.088C41.8914 231.577 40.6437 232.835 39.7352 232.835C39.38 232.835 39.0589 232.685 38.8335 232.415C38.3963 231.886 38.1436 230.767 39.1136 226.465C38.1504 226.957 36.9983 227.453 36.2605 227.453C35.4932 227.453 35.1995 227 35.1084 226.805C34.785 226.119 34.9171 224.986 39.4005 220.161ZM110.546 124.493C101.962 124.32 95.5139 121.977 91.3789 117.522C85.5954 111.291 86.5358 103.285 86.5791 102.947L86.9729 99.8521L88.6807 102.514C93.4941 110.011 100.619 111.586 105.747 111.586C106.648 111.586 107.443 111.536 108.101 111.469L105.109 94.8082L132.476 95.6225L102.338 55.8819C93.8722 58.0801 84.6027 55.6805 74.9165 48.7979L75.1077 84.833L73.1518 83.3256C70.2305 81.3007 66.2185 79.6136 65.055 84.5189C62.8509 93.8163 70.2259 96.5386 74.0079 97.5564H75.085V112.268L70.235 109.988L71.5761 146.508L116.721 144.487L110.546 124.493ZM180.187 138.93L179.755 137.585C182.826 135.233 183.971 134.059 184.395 133.505C182.983 133.68 180.217 134.748 179.188 135.181L178.145 134.165C179.538 131.341 180.13 129.821 180.374 129.011C179.356 129.897 177.676 131.746 176.325 133.433L174.895 132.938C175.069 129.373 174.891 127.831 174.738 127.179C174.233 127.924 173.415 129.719 172.603 132.522C172.286 133.607 170.82 134.025 170.05 133.226C169 132.141 168.395 131.681 168.076 131.491C168.087 131.933 168.231 132.918 168.964 134.978L176.986 141.085C181.148 140.359 182.879 139.816 183.593 139.504C182.863 139.277 181.508 139.04 180.187 138.93ZM92.1098 279.467L92.4513 278.254H90.6822C99.3551 262.349 105.175 250.223 106.846 240.62C110.364 220.391 101.136 212.557 101.136 212.557H88.0568C103.178 234.606 85.5476 267.627 80.4996 276.162C85.8481 276.346 89.596 277.825 92.1098 279.467ZM70.194 162.586L66.4621 201.668L120.44 200.691L118.033 161.12L148.476 174.235L174.836 143.082L167.407 137.416L145.876 165.759L117.878 146.605L117.241 146.633L102.652 147.287L106.687 150.374L103.829 158.257L108.939 184.598L101.525 193.564L93.9792 185.287L97.5221 158.705L91.98 151.287L95.3818 147.617L90.5911 147.831L71.0092 148.708L45.0018 176.579L41.345 218.002H51.6004L52.0399 183.528L70.194 162.586ZM39.8627 224.287L41.0695 225.099C40.1519 228.761 40.0061 230.357 40.0266 231.035C40.7393 230.34 41.9848 228.566 43.0618 226.665L44.5418 226.86C45.2568 229.905 45.7691 231.451 46.0993 232.235C46.3338 230.94 46.4681 228.503 46.4522 226.385L47.9004 225.944C50.0863 228.893 51.2179 230 51.7348 230.414C51.6596 229.539 51.1496 227.637 49.9815 224.939C49.7607 224.438 49.8084 223.888 50.1021 223.466C50.3663 223.087 50.7989 222.87 51.2816 222.87L51.5457 222.894C52.7776 223.091 53.7726 223.158 54.2234 223.111C53.9115 222.749 53.0941 221.995 50.9606 220.677H41.0444C38.1914 223.704 37.1645 225.153 36.7979 225.82C37.5812 225.554 38.8586 224.902 39.8627 224.287Z" fill="black"/>
</g>
</g>
</g>
</svg>
