<svg width="257" height="257" viewBox="0 0 257 257" fill="none" xmlns="http://www.w3.org/2000/svg">
<mask id="mask0_425_2859" style="mask-type:alpha" maskUnits="userSpaceOnUse" x="0" y="0" width="257" height="257">
<circle cx="128.5" cy="128.5" r="128.5" fill="white"/>
</mask>
<g mask="url(#mask0_425_2859)">
<path d="M130.951 53.6271L132.499 57.9214L121.481 61.8932L119.933 57.5989L130.951 53.6271Z" fill="black"/>
<path d="M140.186 56.8047L148.599 64.4153L145.534 67.8025L137.122 60.1919L140.186 56.8047Z" fill="black"/>
<path d="M133.499 77.454C131.858 77.454 130.53 75.4246 130.53 72.9215C130.53 70.4184 131.858 68.3889 133.499 68.3889C135.139 68.3889 136.468 70.4184 136.468 72.9215C136.468 75.4246 135.139 77.454 133.499 77.454Z" fill="black"/>
<path d="M123.123 66.3597C123.175 66.3597 123.225 66.3448 123.277 66.3498C124.913 66.4769 126.079 68.6036 125.885 71.0992C125.69 73.5949 124.207 75.5146 122.572 75.3874C120.936 75.2603 119.769 73.1336 119.964 70.638C120.151 68.2221 121.552 66.3622 123.123 66.3597Z" fill="black"/>
<path d="M37.5551 135.886C36.2786 134.744 35.4634 133.772 35.244 132.83C35.0844 132.142 35.2939 131.693 35.4983 131.438C35.8149 131.04 36.3136 130.838 36.9842 130.838C38.0737 130.838 39.6968 131.384 41.2724 132.142C40.2278 130.411 39.784 129.023 39.9785 128.043C40.0583 127.634 40.2502 127.3 40.527 127.073C40.7214 126.839 41.0431 126.659 41.5143 126.659C42.4791 126.659 44.0498 127.392 45.5956 128.92C45.3263 127.143 45.3313 125.313 46.0742 124.079C46.5255 123.333 47.1114 123.221 47.4205 123.221C47.8219 123.221 49.0411 123.221 50.5818 127.193C51.0605 128.432 51.447 129.571 51.7362 130.504C52.4966 128.866 53.4315 127.422 54.9274 126.766L55.3039 126.644H55.4884C55.8623 126.644 56.2089 126.809 56.4607 127.108C57.4405 128.262 56.9942 132.014 56.6402 134.146C56.4308 135.425 56.2762 137.267 56.1665 138.616C56.1515 138.813 56.1341 138.985 56.1191 139.175L56.5455 138.935L79.8988 174.435L106 154.994L106.109 153.822L109.849 114.891L109.864 114.901C109.906 114.45 109.954 114.001 109.991 113.61L109.971 113.598L111.342 99.3292H81.1254L120.014 48.3742C110.535 44.9785 105.214 39.3191 105.214 39.3191C128.032 30.8798 164.289 41.1964 164.289 41.1964C162.746 42.1763 161.238 43.0364 159.744 43.8467L168.042 41.1964L173.255 93.7071C172.936 93.4778 172.629 93.2808 172.317 93.0814C174.686 95.9061 174.743 98.4566 174.225 100.229C172.641 105.667 164.496 109.556 158.617 110.566L156.83 152.057L200.694 195.226L189.218 236.869L187.064 236.201C187.792 238.499 188.416 241.072 188.578 242.349C188.647 242.892 188.707 243.513 188.76 244.151L205 249.245L190.186 293.663L149.286 279.502L162.923 236.048L166.596 237.2C166.122 237.824 165.713 238.492 165.369 239.195L164.781 239.005L152.392 277.938L188.62 290.481L201.839 250.853L188.829 246.694C188.777 247.881 188.578 248.826 188.206 249.581C187.722 250.569 187.067 250.776 186.601 250.776C185.651 250.776 184.803 249.846 184.125 248.641C184.04 250.334 183.798 251.571 183.205 252.331C182.766 252.892 182.282 253.007 181.953 253.007C181.465 253.007 181.008 252.76 180.602 252.276C179.909 251.449 179.296 249.801 178.884 248.056C177.909 250.753 176.65 252.089 175.416 251.845C175.115 251.843 174.681 251.71 174.309 251.112C173.833 250.342 173.469 248.771 173.664 246.739C172.452 248.07 171.023 249.217 169.595 249.417L169.273 249.442C168.485 249.442 168.111 248.995 167.957 248.731C167.767 248.407 167.196 247.42 169.178 243.957C169.834 242.817 170.475 241.805 171.028 240.975C169.313 241.406 167.436 241.531 166.112 240.845C165.713 240.641 165.464 240.299 165.406 239.885C165.322 239.262 165.676 238.619 166.558 237.796C167.483 236.939 169.056 235.844 170.769 234.869C171.886 234.236 173.347 233.246 174.656 232.354L171.624 231.411L184.053 198.537L159.692 180.125L163.818 220.918H162.656C164.741 227.248 165.135 238.616 151.629 253.428C137.094 269.372 163.551 313.441 163.551 313.441H162.439L164.287 320.317H134.593H128.029H98.3356C98.3356 320.317 102.978 310.614 118.61 310.943C112.38 299.04 86.8098 247.043 100.502 220.918H99.7791L103.873 177.537L74.177 197.255L43.788 146.068L44.5434 145.647C42.6112 144.849 40.5868 143.882 39.4549 143.181L39.2081 143.027C37.1213 141.72 35.0744 140.259 34.2293 138.439C34.1769 138.325 34.147 138.227 34.1121 138.098C33.8653 137.332 34.0722 136.814 34.2891 136.515C34.8152 135.794 35.9919 135.61 37.5551 135.886ZM157.269 108.247C162.464 107.639 170.517 104.029 171.829 99.5312C172.452 97.3896 171.385 95.1756 168.657 92.9542C168.361 92.7124 168.069 92.4905 167.782 92.2836C166.927 92.0317 166.092 91.9046 165.299 91.9046C159.311 91.9046 155.905 99.2345 154.274 104.258L154.272 104.271C153.536 106.063 152.27 112.543 152.427 112.371L144.711 103.64L150.375 90.0447L148.792 49.8527C139.495 52.7048 130.268 52.8345 121.716 50.2566L86.169 96.8361H114.085L112.606 112.236C115.98 114.039 119.655 114.67 122.28 113.864C128.253 112.019 131.779 104.869 131.926 104.567L132.464 103.458L138.101 106.086L137.583 107.213C137.396 107.616 132.936 117.095 124.142 119.823C120.191 121.032 116.167 120.713 111.978 118.821L108.63 153.7L134.99 152.411L154.359 151.463C154.359 151.448 156.473 108.3 156.728 108.282C156.91 108.27 157.077 108.272 157.269 108.247ZM171.627 236.383C170.024 237.295 168.573 238.3 167.74 239.07C167.565 239.232 167.438 239.364 167.348 239.469C168.416 239.798 170.078 239.439 171.442 239.048L175.519 237.821L173.861 239.975C173.856 239.98 173.654 240.242 173.335 240.691C172.686 241.598 171.704 243.049 170.687 244.817C169.877 246.23 169.545 247.203 169.483 247.659C171.46 247.243 173.988 243.702 175.192 241.633L176.728 242.461C174.813 246.293 175.332 249.3 175.73 250.087C176.047 249.876 177.346 248.676 178.421 242.84L180.138 243.149C179.774 245.216 181.018 250.13 181.906 251.14C182.482 250.155 182.437 247.155 182.405 244.947L182.385 243.174L184.13 243.226C184.13 243.304 184.137 243.393 184.15 243.493C184.392 245.512 185.972 248.808 186.471 249.063C186.471 249.06 186.538 249.01 186.635 248.808C187.022 248.023 187.167 246.819 187.077 245.136C187.029 244.224 186.937 243.321 186.842 242.566C186.665 241.169 185.85 237.963 185.002 235.56L176.783 233.009C176.451 233.234 176.119 233.456 175.755 233.702C174.389 234.64 172.841 235.697 171.627 236.383ZM134.748 313.441H132.744L133.13 314.882C135.975 312.927 140.216 311.17 146.266 310.95C140.555 300.801 120.612 261.526 137.715 235.298H122.921C122.923 235.301 104.274 254.677 134.748 313.441ZM74.9823 193.73L106.845 172.57L102.519 218.427H161.061L156.63 174.692L187.037 197.676L174.883 229.816L187.493 233.73L197.895 195.981L155.162 153.924L142.252 154.555L108.378 156.21L106.87 157.454L79.263 178.018L55.7327 142.249L47.2336 146.998L74.9823 193.73ZM35.8124 137.706C36.5554 139.307 38.9713 140.82 40.1281 141.546L40.537 141.8C41.5941 142.456 44.167 143.665 46.508 144.547L54.2767 140.207C54.3266 139.671 54.3764 139.095 54.4288 138.474C54.5759 136.692 54.7155 135.113 54.9199 133.864C55.3562 131.232 55.3687 129.377 55.2291 128.586C54.0349 129.387 53.2919 131.222 52.5115 133.151L51.3572 135.993L50.7265 133.343C50.719 133.318 50.1231 130.843 48.9588 127.828C48.3679 126.308 47.8219 125.437 47.5053 125.103C46.705 126.684 47.4629 130.344 48.5973 133.333L46.9867 134.001C45.2216 130.117 42.5689 128.631 41.6863 128.429C41.6539 128.816 41.781 130.586 45.628 135.078L44.3066 136.22C43.0351 134.762 38.6696 132.59 36.9917 132.583C37.4105 133.652 39.7516 135.49 41.4843 136.849L42.8431 137.928C42.8531 137.936 42.8606 137.941 42.868 137.948L42.8755 137.956L42.3071 138.616C42.3096 138.619 42.3121 138.621 42.3171 138.624C42.3146 138.621 42.3096 138.619 42.3071 138.616L41.7386 139.277C41.6414 139.2 41.3971 139.03 40.8611 138.773C39.5646 138.148 37.4803 137.502 36.2363 137.502C35.9869 137.502 35.8399 137.524 35.7676 137.524L35.8124 137.706Z" fill="black"/>
<path d="M114.581 160.773L117.598 157.641H126.109L128.655 161.723L124.566 170.456L129.784 202.71L119.009 213.361L109.794 201.977L118.373 170.805L114.581 160.773Z" fill="black"/>
</g>
</svg>
