<?xml version="1.0" encoding="UTF-8" standalone="no"?>
<svg
   width="257"
   height="257"
   viewBox="0 0 257 257"
   fill="none"
   version="1.1"
   id="svg22"
   xmlns="http://www.w3.org/2000/svg"
   xmlns:svg="http://www.w3.org/2000/svg">
  <defs
     id="defs22" />
  <mask
     id="mask0_425_2347"
     maskUnits="userSpaceOnUse"
     x="0"
     y="0"
     width="257"
     height="257">
    <circle
       cx="128.5"
       cy="128.5"
       r="128.5"
       fill="#ffffff"
       id="circle2" />
  </mask>
  <g
     mask="url(#mask0_425_2347)"
     id="g22">
    <path
       d="m 158.423,20.929 c 2.726,-0.1599 2.726,-0.1599 5.235,0 -0.837,0.6856 -0.837,0.6856 -1.691,1.3852 -2.135,2.4027 -2.381,4.018 -2.671,7.139 1.727,0 3.454,0 5.234,0 0,-2.2504 0,-4.5008 0,-6.8194 0.576,0 1.151,0 1.745,0 0,2.2504 0,4.5008 0,6.8194 1.439,0.5626 2.879,1.1252 4.362,1.7049 0.431,2.9537 0.431,2.9537 0.872,5.967 1.439,-0.2813 2.879,-0.5626 4.362,-0.8524 0,0.5626 0,1.1252 0,1.7048 -1.08,0.5538 -1.08,0.5538 -2.181,1.1188 -1.08,0.7121 -1.08,0.7121 -2.181,1.4385 -0.365,2.2393 -0.365,2.2393 0,4.2622 -0.576,0 -1.152,0 -1.745,0 -0.432,-1.6878 -0.432,-1.6879 -0.872,-3.4098 -2.303,-0.2813 -4.606,-0.5626 -6.979,-0.8524 -0.432,-1.2658 -0.432,-1.2658 -0.873,-2.5573 2.016,-0.5626 4.031,-1.1252 6.107,-1.7048 0.288,-1.4065 0.576,-2.813 0.872,-4.2622 -1.563,0.0971 -3.126,0.2059 -4.689,0.3197 -0.87,0.0593 -1.74,0.1187 -2.637,0.1798 -2.405,0.1515 -2.405,0.1515 -4.015,2.0578 -0.423,3.5827 -0.263,5.4985 1.527,8.6841 1.863,2.3895 1.863,2.3895 3.926,4.2089 1.527,1.5983 1.527,1.5983 1.527,5.008 4.318,0 8.636,0 13.085,0 0.288,-1.1252 0.576,-2.2504 0.873,-3.4097 0.575,-0.8263 1.151,-1.6526 1.744,-2.504 1.645,-2.4601 2.272,-4.0016 2.618,-6.8727 -1.44,0 -2.879,0 -4.362,0 2.617,-1.7049 2.617,-1.7049 6.106,-1.7049 0,-2.5317 0,-5.0634 0,-7.6718 0.288,0 0.576,0 0.873,0 0.094,2.3096 0.163,4.6154 0.218,6.926 0.029,0.6483 0.058,1.2966 0.088,1.9645 0.083,4.6615 -0.89,6.8892 -3.796,10.7153 -0.835,2.8097 -0.949,5.3467 -0.872,8.2579 0.07,10.2933 -0.673,20.3342 -2.466,30.4759 -0.846,4.9345 -1.35,9.8291 -1.726,14.8157 -0.724,8.776 -1.8,17.488 -2.961,26.216 -0.177,1.334 -0.353,2.669 -0.53,4.003 -0.728,5.493 -1.462,10.984 -2.21,16.474 -0.464,3.41 -0.917,6.82 -1.364,10.232 -0.169,1.279 -0.343,2.558 -0.52,3.836 -1.043,7.501 -1.509,14.547 -0.437,22.078 0.082,0.596 0.164,1.192 0.248,1.807 0.227,1.519 0.493,3.033 0.761,4.546 0.19,1.09 0.38,2.18 0.576,3.304 0.197,1.103 0.394,2.206 0.596,3.343 0.74,4.189 1.471,8.379 2.181,12.573 0.109,0.641 0.218,1.282 0.331,1.943 1.355,9.036 0.344,17.897 -1.053,26.856 -0.166,1.104 -0.332,2.208 -0.503,3.346 -0.44,2.922 -0.888,5.843 -1.339,8.764 -0.444,2.893 -0.88,5.786 -1.317,8.68 -1.191,7.876 -2.398,15.749 -3.606,23.622 -0.482,3.139 -0.961,6.279 -1.441,9.418 -0.143,0.928 -0.286,1.857 -0.434,2.813 -0.604,3.962 -1.17,7.912 -1.584,11.898 -0.395,3.247 -0.395,3.247 -1.267,4.099 -1.454,0.035 -2.908,0.036 -4.362,0 0,0.563 0,1.125 0,1.705 0.763,0.11 0.763,0.11 1.54,0.223 9.669,1.619 17.706,4.805 24.632,11.711 -0.288,0.844 -0.576,1.688 -0.873,2.557 -21.921,0.162 -21.921,0.162 -31.896,-0.373 -0.653,-0.033 -1.306,-0.067 -1.978,-0.101 -4.397,-0.267 -4.397,-0.267 -5.383,-1.231 -0.025,-1.168 0.012,-2.337 0.075,-3.503 0.056,-1.116 0.056,-1.116 0.114,-2.253 0.046,-0.813 0.091,-1.625 0.138,-2.462 0.089,-1.724 0.178,-3.448 0.266,-5.172 0.07,-1.335 0.07,-1.335 0.142,-2.697 0.213,-4.134 0.392,-8.268 0.574,-12.402 0.072,-1.61 0.145,-3.219 0.218,-4.829 0.11,-2.435 0.22,-4.869 0.327,-7.304 0.107,-2.42 0.216,-4.84 0.327,-7.26 0.031,-0.718 0.062,-1.435 0.094,-2.175 0.199,-4.288 0.559,-8.536 1.018,-12.804 0.24,-2.347 0.376,-4.688 0.473,-7.045 0.036,-0.857 0.073,-1.714 0.11,-2.597 0.035,-0.863 0.069,-1.727 0.104,-2.617 0.057,-1.345 0.057,-1.345 0.114,-2.717 0.092,-2.184 0.181,-4.369 0.268,-6.553 -0.576,0 -1.152,0 -1.745,0 -0.202,1.003 -0.405,2.006 -0.613,3.04 -1.346,5.907 -3.349,11.621 -5.275,17.365 -0.396,1.187 -0.79,2.374 -1.185,3.561 -2.287,6.869 -4.61,13.726 -6.962,20.574 -3.162,9.227 -5.946,18.553 -8.647,27.916 -0.576,0 -1.151,0 -1.745,0 0.142,0.472 0.284,0.943 0.43,1.429 0.489,2.187 0.559,4.166 0.552,6.403 0.003,1.126 0.003,1.126 0.007,2.274 -0.116,1.828 -0.116,1.828 -0.989,2.681 -2.832,0.453 -5.702,0.653 -8.56,0.905 -0.852,0.077 -1.705,0.153 -2.583,0.231 -8.508,0.703 -16.9662,0.731 -25.4966,0.569 1.0361,-4.659 3.9274,-6.701 7.8515,-9.377 6.1501,-3.257 11.3371,-4.831 18.3201,-4.262 0,-0.563 0,-1.125 0,-1.705 -2.015,0 -4.031,0 -6.107,0 0.414,-8.02 2.049,-15.764 3.673,-23.613 0.801,-3.875 1.586,-7.754 2.369,-11.633 0.234,-1.158 0.234,-1.158 0.473,-2.339 1.959,-9.755 3.66,-19.551 5.31,-29.36 0.345,-1.865 0.764,-3.681 1.261,-5.512 -0.864,-0.035 -1.727,-0.07 -2.617,-0.106 -4.23,-0.582 -7.546,-2.886 -10.469,-5.861 -0.101,-0.583 -0.202,-1.167 -0.307,-1.768 -0.28,-0.812 -0.28,-0.812 -0.565,-1.641 -1.729,-0.613 -3.4775,-1.174 -5.2345,-1.705 -8.9448,-5.801 -19.1267,-13.551 -25.299,-22.163 -0.6443,-7.177 4.2475,-11.82 8.7238,-17.049 0.4141,-0.487 0.8282,-0.973 1.2549,-1.475 5.1707,-6.047 10.5224,-11.926 15.9746,-17.731 2.2882,-2.454 4.5172,-4.951 6.7232,-7.476 1.346,-1.448 1.346,-1.448 3.963,-3.632 2.03,-1.98 2.03,-1.98 1.8,-4.795 -1.162,-4.075 -2.743,-7.88 -4.417,-11.774 -0.892,-2.267 -1.754,-4.543 -2.617,-6.82 -0.632,0.04 -1.264,0.079 -1.915,0.12 -5.3505,0.195 -8.7909,0.198 -12.9153,-3.53 -2.7401,-3.546 -2.8197,-5.959 -2.5626,-10.335 0.1894,-6.063 -1.0118,-10.592 -3.5441,-16.09 -0.7654,-1.81 -1.5287,-3.622 -2.29,-5.434 -0.5296,-1.223 -0.5296,-1.223 -1.07,-2.471 -0.3306,-0.767 -0.6612,-1.5338 -1.0019,-2.324 -0.4942,-1.134 -0.4942,-1.134 -0.9984,-2.2909 -0.9708,-2.5643 -1.0225,-3.7249 0.1261,-6.2334 3.0546,-1.603 5.2412,-2.5573 8.7238,-2.5573 C 85.4218,86.5042 84.828,85.5899 84.2163,84.648 82.526,81.7328 82.526,81.7328 82.526,79.5334 c 1.9894,-3.4018 5.639,-4.7011 9.2112,-6.1102 0.9584,-0.3804 1.9169,-0.7608 2.9044,-1.1527 1.5328,-0.598 1.5328,-0.598 3.0966,-1.2081 1.5707,-0.6169 1.5707,-0.6169 3.1728,-1.2464 3.175,-1.2425 6.353,-2.4759 9.531,-3.7083 0.929,-0.3637 1.857,-0.7274 2.814,-1.1022 2.493,-0.9747 4.991,-1.9368 7.491,-2.8936 0.738,-0.2886 1.476,-0.5773 2.236,-0.8747 3.817,-1.4378 6.848,-2.2964 11.014,-1.949 0.351,5.27 -0.904,9.5205 -2.618,14.4913 -0.317,0.9307 -0.634,1.8615 -0.961,2.8204 -0.258,0.7571 -0.517,1.5142 -0.783,2.2942 0.601,0.6395 1.203,1.2791 1.823,1.938 7.61,8.0967 15.138,16.2625 22.603,24.4869 1.775,-11.3838 2.908,-22.8032 3.918,-34.2722 0.296,-3.3608 0.629,-6.7156 0.989,-10.0703 0.99,-8.0706 0.99,-8.0706 -2.181,-15.3271 -0.905,-0.8559 -1.813,-1.7089 -2.726,-2.5573 -0.76,-2.2276 -1.037,-3.6715 -1.09,-5.967 -0.023,-0.5802 -0.045,-1.1604 -0.068,-1.7581 0.286,-1.6516 0.286,-1.6516 1.577,-2.9036 1.736,-1.7093 1.692,-2.7721 1.817,-5.1412 0.168,-2.9872 0.34,-3.7759 2.126,-6.3932 z"
       fill="#000000"
       id="path2" />
    <path
       d="m 154.061,155.613 c -0.288,2.813 -0.576,5.626 -0.873,8.524 -3.489,-1.705 -3.489,-1.705 -4.961,-3.569 -2.219,-1.7 -3.026,-1.943 -5.78,-2.025 -2.13,0.181 -2.13,0.181 -4.089,1.332 -2.568,3.489 -4.365,7.147 -6.107,11.082 -0.575,0 -1.151,0 -1.744,0 0,0.843 0,1.687 0,2.557 2.877,-0.616 2.877,-0.616 4.089,-3.463 0.378,-0.827 0.756,-1.653 1.145,-2.504 2.617,0.852 2.617,0.852 4.362,3.41 0.178,1.668 0.178,1.668 0.126,3.584 -0.014,0.72 -0.028,1.441 -0.042,2.183 -0.02,0.778 -0.04,1.556 -0.06,2.357 -0.012,1.658 -0.022,3.317 -0.029,4.975 -0.018,2.607 -0.049,5.21 -0.124,7.816 -0.657,11.442 -0.657,11.442 4.413,21.253 3.462,3.426 3.462,3.426 7.929,4.715 1.098,-1.504 2.123,-3.058 3.108,-4.635 2.953,-4.696 2.953,-4.696 3.871,-5.594 -0.222,-5.546 -2.041,-10.222 -4.011,-15.394 -1.577,-4.223 -2.836,-8.534 -4.102,-12.854 -0.774,-2.642 -1.573,-5.241 -2.529,-7.827 -0.861,-2.816 -0.335,-3.998 1.046,-6.546 1.439,0.843 2.879,1.687 4.362,2.557 0.162,-1.213 0.162,-1.213 0.327,-2.451 0.545,-2.664 0.545,-2.664 2.29,-4.369 0.664,1.328 1.316,2.661 1.963,3.996 0.364,0.742 0.729,1.484 1.104,2.248 3.658,8.852 5.623,17.808 7.129,27.214 0.277,1.658 0.277,1.658 0.561,3.35 1.36,8.234 2.464,16.217 2.329,24.567 -1.04,0.052 -2.081,0.104 -3.152,0.157 -1.367,0.072 -2.733,0.144 -4.1,0.216 -0.685,0.034 -1.371,0.067 -2.077,0.102 -0.661,0.035 -1.321,0.071 -2.002,0.108 -0.608,0.031 -1.215,0.062 -1.841,0.095 -1.852,0.137 -1.852,0.137 -4.276,1.027 -3.589,0.391 -7.19,0.556 -10.796,0.746 -0.991,0.072 -1.983,0.145 -3.005,0.22 -7.357,0.371 -7.357,0.371 -10.738,-2.145 -0.539,-0.736 -1.077,-1.472 -1.632,-2.231 -2.617,-1.746 -4.788,-2.726 -7.852,-3.409 -0.105,-1.009 -0.211,-2.018 -0.32,-3.057 -0.692,-6.427 -1.42,-12.744 -2.839,-19.063 -0.603,-3.189 -0.974,-6.457 0.542,-9.42 -3.585,1.804 -6.054,4.117 -8.819,6.912 -1.664,1.626 -3.399,3.109 -5.194,4.596 -3.2585,2.737 -5.9529,5.699 -8.6688,8.95 1.2954,0.422 1.2954,0.422 2.6171,0.853 1.3767,1.395 1.3767,1.395 2.8352,3.143 2.8735,3.323 5.9315,6.042 9.3785,8.791 -1.23,2.59 -2.695,4.768 -4.471,7.032 -0.47,0.602 -0.94,1.204 -1.425,1.825 -0.536,0.679 -0.536,0.679 -1.083,1.372 -7.9591,-1.279 -15.2203,-10.202 -20.9376,-15.344 -0.5004,-0.413 -1.0008,-0.826 -1.5164,-1.252 -2.0743,-1.781 -2.8098,-2.702 -3.1249,-5.424 0.3286,-3.176 1.1365,-4.449 3.1147,-6.963 0.6387,-0.812 1.2775,-1.624 1.9356,-2.461 3.6585,-4.441 7.4728,-8.751 11.3081,-13.047 1.3534,-1.523 2.6939,-3.056 4.0301,-4.594 0.4405,-0.506 0.8811,-1.012 1.335,-1.534 0.8139,-0.936 1.6268,-1.873 2.4382,-2.811 0.8192,-0.938 1.6542,-1.863 2.5022,-2.777 1.648,-1.834 1.648,-1.834 3.336,-4.289 4.637,-6.143 8.831,-8.625 16.591,-9.816 3.277,-0.437 6.557,-0.765 9.848,-1.079 1.685,-0.196 3.37,-0.396 5.054,-0.6 5.785,-0.679 11.469,-1.318 17.301,-1.318 z"
       fill="#ffffff"
       id="path3" />
    <path
       d="m 127.89,80.5991 c 1.544,1.6017 1.544,1.6017 3.326,3.8892 3.397,4.2051 6.977,8.1464 10.741,12.0406 4.128,4.2761 8.208,8.5721 12.104,13.0531 -2.487,1.62 -4.621,2.525 -7.415,3.516 -0.837,0.301 -1.673,0.602 -2.535,0.912 -2.263,0.686 -2.263,0.686 -4.88,0.686 0,0.844 0,1.688 0,2.558 0.864,0 1.727,0 2.617,0 1.113,3.479 2.22,6.96 3.326,10.442 0.311,0.971 0.622,1.943 0.942,2.943 5.328,16.813 5.328,16.813 5.328,22.417 -7.861,1.531 -15.73,2.871 -23.663,3.995 -0.775,0.112 -1.549,0.224 -2.347,0.339 -0.739,0.103 -1.478,0.205 -2.24,0.311 -0.651,0.09 -1.302,0.181 -1.973,0.275 -2.438,0.23 -4.841,0.225 -7.289,0.194 -1.294,-3.337 -2.583,-6.677 -3.871,-10.016 -0.367,-0.947 -0.735,-1.894 -1.113,-2.87 -0.351,-0.912 -0.703,-1.824 -1.065,-2.764 -0.324,-0.839 -0.649,-1.678 -0.983,-2.543 -0.683,-1.887 -1.243,-3.725 -1.692,-5.675 -0.73,0.2 -0.73,0.2 -1.476,0.403 -3.9617,0.884 -8.6443,1.678 -12.2742,-0.453 -2.2494,-2.324 -3.1192,-4.622 -3.3157,-7.728 0.4907,-3.303 0.4907,-3.303 1.8538,-5.435 2.9672,-1.784 4.8053,-1.748 8.2331,-1.278 2.345,1.705 2.345,1.705 4.362,3.41 1.151,0 2.303,0 3.489,0 -1.466,-8.122 -3.777,-15.719 -6.6074,-23.4745 -1.5881,-4.437 -2.5765,-8.4925 -2.9884,-13.1804 0.7602,-0.0318 1.5204,-0.0637 2.3037,-0.0965 9.8101,-0.5291 19.9271,-5.8705 29.1021,-5.8705 z"
       fill="#ffffff"
       id="path4" />
    <path
       d="m 161.912,55.0259 c 5.182,0 10.364,0 15.703,0 0,8.6311 0,8.6311 -0.372,11.9123 -0.082,0.7377 -0.164,1.4754 -0.248,2.2355 -0.09,0.7726 -0.18,1.5453 -0.273,2.3413 -0.092,0.8252 -0.185,1.6503 -0.28,2.5004 -0.296,2.6211 -0.597,5.2415 -0.899,7.862 -0.195,1.7314 -0.391,3.4629 -0.586,5.1945 -0.842,7.4521 -1.705,14.9011 -2.613,22.3461 -0.843,6.911 -1.58,13.832 -2.309,20.755 -1.083,10.244 -2.181,20.488 -3.434,30.714 -0.096,0.828 -0.193,1.657 -0.292,2.511 -0.142,1.122 -0.142,1.122 -0.287,2.267 -0.078,0.638 -0.156,1.275 -0.237,1.932 -0.383,1.654 -0.383,1.654 -2.128,4.212 -0.201,-0.527 -0.402,-1.053 -0.61,-1.595 -1.784,-4.528 -3.813,-8.719 -6.28,-12.927 -7.55,-13.158 -3.102,-31.255 -0.089,-45.148 0.432,-0.844 0.432,-0.844 0.873,-1.705 0.164,-2.159 0.285,-4.305 0.378,-6.467 0.499,-9.9777 1.405,-19.9173 2.293,-29.868 0.165,-1.8603 0.329,-3.7205 0.493,-5.5808 0.396,-4.4976 0.796,-8.995 1.197,-13.4923 z"
       fill="#ffffff"
       id="path5" />
    <path
       d="m 159.296,20.0764 c 12.894,-0.1573 12.894,-0.1573 18.32,0.8525 0.287,0.8439 0.575,1.6878 0.872,2.5572 0.999,-0.0791 0.999,-0.0791 2.017,-0.1598 2.345,0.1598 2.345,0.1598 3.79,1.0655 1.798,2.5332 1.421,4.7459 1.336,7.7785 -0.036,1.6268 -0.036,1.6268 -0.072,3.2865 -0.03,0.8318 -0.061,1.6636 -0.092,2.5206 -2.591,0.422 -2.591,0.422 -5.234,0.8525 0.575,0.2813 1.151,0.5626 1.744,0.8524 -0.366,4.5688 -1.261,6.8208 -4.361,10.2291 -0.288,0.8439 -0.576,1.6878 -0.873,2.5573 -4.318,0 -8.636,0 -13.086,0 -0.575,-1.4065 -1.151,-2.813 -1.744,-4.2621 -1.252,-1.6725 -1.252,-1.6725 -2.672,-3.1434 -2.432,-2.62 -3.381,-3.7998 -3.653,-7.4587 0.218,-3.0368 0.218,-3.0368 1.23,-4.4952 2.244,-1.5365 3.858,-1.3521 6.567,-1.2587 0.867,0.0231 1.734,0.0461 2.627,0.0699 0.994,0.0445 0.994,0.0445 2.007,0.0899 0.109,2.0245 0.109,2.0245 0,4.2622 -1.744,1.7048 -1.744,1.7048 -4.471,1.8114 -1.241,-0.0528 -1.241,-0.0528 -2.508,-0.1066 0.288,0.5626 0.576,1.1252 0.873,1.7049 1.653,0.3966 1.653,0.3966 3.544,0.5328 1.133,0.1054 2.267,0.2109 3.435,0.3196 0.288,1.4065 0.575,2.813 0.872,4.2622 0.576,0 1.152,0 1.745,0 -0.288,-2.2505 -0.576,-4.5009 -0.873,-6.8195 1.728,0 3.455,0 5.235,0 -1.44,-0.2813 -2.879,-0.5626 -4.362,-0.8524 -0.288,-1.9691 -0.576,-3.9382 -0.873,-5.967 -2.159,-0.8439 -2.159,-0.8439 -4.361,-1.7049 0,-2.2504 0,-4.5008 0,-6.8194 -0.576,0 -1.152,0 -1.745,0 0,2.2504 0,4.5008 0,6.8194 -1.728,0 -3.455,0 -5.234,0 -0.219,-4.7949 -0.219,-4.7949 1.744,-7.6718 -0.575,-0.5626 -1.151,-1.1252 -1.744,-1.7049 z"
       fill="#000000"
       id="path6" />
    <path
       d="m 121.783,219.545 c 3.191,1.739 4.946,2.987 6.979,5.967 -0.327,2.291 -0.327,2.291 -0.872,4.262 -1.745,-1.172 -1.745,-1.172 -3.49,-2.557 0,-0.563 0,-1.125 0,-1.705 -0.864,0 -1.727,0 -2.617,0 0,0.563 0,1.125 0,1.705 0.54,0.246 1.079,0.492 1.636,0.746 1.853,0.959 1.853,0.959 3.598,2.664 0,0.844 0,1.688 0,2.557 -0.863,0.281 -1.727,0.563 -2.617,0.852 -2.344,-1.651 -2.344,-1.651 -4.362,-3.409 0.864,0.975 0.864,0.975 1.745,1.971 1.745,2.291 1.745,2.291 1.745,4.848 -2.944,-0.466 -4.434,-0.899 -6.979,-2.557 0,0.562 0,1.125 0,1.705 1.151,0.562 2.303,1.125 3.489,1.705 -0.576,0.843 -1.151,1.687 -1.745,2.557 -4.812,-0.353 -8.58,-2.056 -12.213,-5.115 -0.872,-2.397 -0.872,-2.397 -0.872,-4.262 -0.576,0 -1.152,0 -1.745,0 0.384,-4.131 2.395,-7.23 5.234,-10.229 0.576,0 1.152,0 1.745,0 0,0.563 0,1.125 0,1.705 0.864,0 1.727,0 2.617,0 0.288,-0.844 0.576,-1.688 0.872,-2.557 2.924,-0.953 4.784,-1.147 7.852,-0.853 z"
       fill="#ffffff"
       id="path7" />
    <path
       d="m 163.385,31.8506 c 0.867,0.0231 1.734,0.0462 2.627,0.07 0.994,0.0445 0.994,0.0445 2.007,0.0899 0.109,2.0245 0.109,2.0245 0,4.2621 -1.744,1.7049 -1.744,1.7049 -4.471,1.8114 -0.827,-0.0351 -1.655,-0.0703 -2.508,-0.1065 0.288,0.5626 0.576,1.1252 0.873,1.7048 1.653,0.3966 1.653,0.3966 3.544,0.5328 1.133,0.1055 2.267,0.211 3.435,0.3197 0.288,1.4065 0.575,2.813 0.872,4.2621 0.576,0 1.152,0 1.745,0 -0.288,-1.6878 -0.576,-3.3756 -0.873,-5.1146 3.743,0 7.486,0 11.341,0 -0.366,4.5689 -1.261,6.8208 -4.361,10.2292 -0.288,0.8439 -0.576,1.6878 -0.873,2.5573 -4.318,0 -8.636,0 -13.086,0 -0.575,-1.4066 -1.151,-2.8131 -1.744,-4.2622 -1.252,-1.6725 -1.252,-1.6725 -2.672,-3.1433 -2.432,-2.62 -3.381,-3.7999 -3.653,-7.4588 0.218,-3.0367 0.218,-3.0367 1.23,-4.4952 2.244,-1.5365 3.858,-1.3521 6.567,-1.2587 z"
       fill="#ffffff"
       id="path8" />
    <path
       d="m 112.187,191.415 c 0.421,1.864 0.838,3.729 1.254,5.594 0.233,1.039 0.466,2.077 0.705,3.147 0.952,4.621 1.651,9.076 1.585,13.795 -0.008,0.737 -0.016,1.475 -0.024,2.234 -0.01,0.547 -0.02,1.093 -0.031,1.655 -1.439,0.563 -2.878,1.126 -4.361,1.705 -4.607,-4.501 -9.213,-9.001 -13.9586,-13.639 1.4152,-2.765 2.2199,-4.091 4.3346,-6.166 0.747,-0.734 0.747,-0.734 1.51,-1.482 0.518,-0.5 1.037,-1 1.571,-1.515 0.518,-0.513 1.037,-1.027 1.571,-1.555 0.498,-0.485 0.996,-0.969 1.509,-1.469 0.455,-0.442 0.91,-0.885 1.379,-1.341 1.211,-0.963 1.211,-0.963 2.956,-0.963 z"
       fill="#f5f5f5"
       id="path9" />
    <path
       d="m 123.528,124.925 c 2.453,-0.023 4.907,-0.04 7.361,-0.053 0.7,-0.007 1.4,-0.015 2.121,-0.022 1.783,-0.007 3.566,0.03 5.348,0.075 0.873,0.852 0.873,0.852 0.989,3.33 -0.003,1.011 -0.005,2.022 -0.007,3.063 0.003,1.517 0.003,1.517 0.007,3.064 -0.116,2.477 -0.116,2.477 -0.989,3.329 -2.671,0.533 -2.671,0.533 -6.106,0 -4.454,-3.6 -7.138,-7.357 -8.724,-12.786 z"
       fill="#ffffff"
       id="path10" />
    <path
       d="m 119.166,121.516 c 0.695,0.13 1.39,0.261 2.106,0.396 3.769,0.549 7.504,0.755 11.307,0.936 1.088,0.055 1.088,0.055 2.198,0.111 1.775,0.09 3.551,0.176 5.326,0.261 0.893,3.194 1.018,6.112 1.036,9.43 0.012,1.048 0.025,2.095 0.038,3.174 -0.201,2.74 -0.201,2.74 -1.946,5.297 -3.944,0.694 -6.407,0.124 -9.651,-2.024 -4.018,-3.194 -6.239,-7.221 -8.669,-11.614 -0.576,-0.844 -1.152,-1.688 -1.745,-2.558 0,-1.125 0,-2.25 0,-3.409 z m 4.362,3.409 c 1.586,5.43 4.27,9.187 8.724,12.787 3.316,0.715 3.316,0.715 6.106,0 1.163,-0.944 1.163,-0.944 0.989,-3.33 -0.003,-1.011 -0.005,-2.022 -0.007,-3.063 0.002,-1.011 0.004,-2.022 0.007,-3.064 0.174,-2.386 0.174,-2.386 -0.989,-3.33 -2.497,-0.062 -4.973,-0.078 -7.469,-0.053 -0.704,0.004 -1.407,0.008 -2.132,0.012 -1.743,0.01 -3.486,0.025 -5.229,0.041 z"
       fill="#000000"
       id="path11" />
    <path
       d="m 154.061,112.991 c -0.467,5.107 -1.046,10.202 -1.69,15.291 -0.134,1.08 -0.268,2.16 -0.406,3.273 -0.521,2.747 -0.521,2.747 -2.266,5.304 -0.878,-2.928 -1.748,-5.859 -2.617,-8.79 -0.374,-1.249 -0.374,-1.249 -0.757,-2.523 -0.236,-0.799 -0.472,-1.599 -0.715,-2.422 -0.219,-0.737 -0.439,-1.473 -0.665,-2.232 -0.48,-1.934 -0.48,-1.934 -0.48,-4.491 1.105,-0.575 2.215,-1.141 3.326,-1.705 0.617,-0.316 1.235,-0.633 1.871,-0.959 1.782,-0.746 1.782,-0.746 4.399,-0.746 z"
       fill="#ffffff"
       id="path12" />
    <path
       d="m 173.254,23.4863 c 1.151,0 2.303,0 3.489,0 0.047,1.6336 0.081,3.2675 0.109,4.9015 0.02,0.9098 0.041,1.8197 0.061,2.7571 -0.166,2.5064 -0.583,3.8693 -1.915,5.9803 -1.151,0 -2.303,0 -3.489,0 0.122,-2.1137 0.25,-4.2268 0.381,-6.34 0.035,-0.6027 0.069,-1.2054 0.104,-1.8263 0.288,-4.5236 0.288,-4.5236 1.26,-5.4726 z"
       fill="#ffffff"
       id="path13" />
    <path
       d="m 179.36,26.0435 c 1.152,0.2813 2.303,0.5626 3.49,0.8524 0.023,1.687 0.04,3.3741 0.054,5.0613 0.01,0.9395 0.02,1.879 0.031,2.847 -0.085,2.3208 -0.085,2.3208 -0.958,3.1733 -1.439,0 -2.879,0 -4.362,0 0.576,-3.9383 1.152,-7.8765 1.745,-11.934 z"
       fill="#ffffff"
       id="path14" />
    <path
       d="m 116.549,99.3525 c 4.105,0.6018 4.105,0.6018 5.234,1.7045 0.164,2.078 0.164,2.078 0,4.263 -0.576,0.562 -1.151,1.125 -1.745,1.704 -3.084,-0.456 -3.084,-0.456 -4.361,-1.704 -0.11,-2.558 -0.11,-2.558 0,-5.115 0.287,-0.2813 0.575,-0.5626 0.872,-0.8525 z"
       fill="#000000"
       id="path15" />
    <path
       d="m 127.889,95.0903 c 2.53,0.3986 3.374,0.7389 5.235,2.5573 0.109,2.2376 0.109,2.2376 0,4.2624 -2.072,0.533 -2.072,0.533 -4.362,0.852 -1.745,-1.705 -1.745,-1.705 -1.908,-4.3152 0.163,-2.504 0.163,-2.504 1.035,-3.3565 z"
       fill="#000000"
       id="path16" />
    <path
       d="m 166.274,22.6338 c 1.44,0 2.879,0 4.362,0 0,2.813 0,5.626 0,8.5243 -2.159,-0.8439 -2.159,-0.8439 -4.362,-1.7049 0,-2.2504 0,-4.5008 0,-6.8194 z"
       fill="#ffffff"
       id="path17" />
    <path
       d="m 160.168,22.6338 c 1.151,0 2.303,0 3.489,0 0,2.2504 0,4.5008 0,6.8194 -1.439,0 -2.879,0 -4.362,0 -0.109,-4.9014 -0.109,-4.9014 0.873,-6.8194 z"
       fill="#ffffff"
       id="path18" />
    <path
       d="m 116.549,90.8278 c -1.215,2.9676 -2.296,3.8179 -5.235,5.1145 -0.287,0.5626 -0.575,1.1252 -0.872,1.7049 -0.576,0 -1.152,0 -1.745,0 0.314,-2.2705 0.621,-3.9057 1.963,-5.8072 2.033,-1.3478 3.485,-1.2027 5.889,-1.0122 z"
       fill="#000000"
       id="path19" />
    <path
       d="m 121.783,87.4185 c 2.591,0 5.182,0 7.852,0 0,0.8439 0,1.6878 0,2.5572 -2.303,0 -4.607,0 -6.979,0 -0.288,-0.8439 -0.576,-1.6878 -0.873,-2.5572 z"
       fill="#000000"
       id="path20" />
    <path
       d="m 120.039,230.626 c 0.521,0.264 1.043,0.527 1.581,0.799 1.986,0.993 1.986,0.993 4.525,1.758 0,0.563 0,1.125 0,1.705 -0.576,0 -1.151,0 -1.745,0 -0.287,0.563 -0.575,1.125 -0.872,1.705 -3.489,-4.049 -3.489,-4.049 -3.489,-5.967 z"
       fill="#000000"
       id="path21" />
    <path
       d="m 131.459,172.003 c -0.082,0 -0.164,0 -0.796,-0.176 -0.633,-0.176 -1.813,-0.528 -3.373,-1.158 -1.559,-0.629 -3.461,-1.526 -4.506,-2.028 -1.184,-0.568 -1.64,-0.792 -2.399,-1.171 -1.021,-0.508 -1.874,-1.397 -2.519,-2.052 -0.691,-0.701 -1.51,-0.917 -1.933,-1.289 -0.275,-0.242 -0.734,-0.725 -1.2,-1.059 -0.15,-0.121 -0.381,-0.251 -0.851,-0.5 -0.306,-0.185 -0.748,-0.49 -1.304,-0.9"
       stroke="#000000"
       stroke-width="2"
       stroke-linecap="round"
       id="path22" />
  </g>
</svg>
