<svg width="20" height="20" viewBox="0 0 20 20" fill="none" xmlns="http://www.w3.org/2000/svg">
<g clip-path="url(#clip0_13_1527)">
<path d="M10 14.3142V15.7571" stroke="black" stroke-linecap="round" stroke-linejoin="round"/>
<path d="M10 7.15698V8.49984" stroke="black" stroke-linecap="round" stroke-linejoin="round"/>
<path d="M9.99999 19.2714C15 19.2714 18.5714 17.5 18.5714 13.5571C18.5714 9.27139 16.4286 6.41424 12.1428 4.27139L13.8286 2.09996C13.9142 1.95749 13.9606 1.79491 13.9632 1.6287C13.9658 1.46249 13.9243 1.29856 13.8431 1.15353C13.7619 1.00849 13.6438 0.887506 13.5007 0.802834C13.3577 0.718163 13.1948 0.672815 13.0286 0.671387H6.97142C6.80519 0.672815 6.6423 0.718163 6.49926 0.802834C6.35621 0.887506 6.23809 1.00849 6.15687 1.15353C6.07565 1.29856 6.03422 1.46249 6.03677 1.6287C6.03933 1.79491 6.08578 1.95749 6.17142 2.09996L7.85713 4.28567C3.57142 6.44281 1.42856 9.29996 1.42856 13.5857C1.42856 17.5 4.99999 19.2714 9.99999 19.2714Z" stroke="black" stroke-linecap="round" stroke-linejoin="round"/>
<path d="M8.57142 13.657C8.74573 13.8639 8.96511 14.0282 9.21275 14.1371C9.46038 14.2461 9.72968 14.2969 9.99999 14.2856C10.4131 14.3138 10.8211 14.1807 11.1382 13.9142C11.4552 13.6478 11.6566 13.2689 11.7 12.857C11.6566 12.4452 11.4552 12.0663 11.1382 11.7998C10.8211 11.5334 10.4131 11.4003 9.99999 11.4285C9.58684 11.4566 9.17886 11.3235 8.86182 11.0571C8.54479 10.7907 8.3434 10.4117 8.29999 9.9999C8.33991 9.58662 8.54033 9.20549 8.8582 8.93838C9.17606 8.67127 9.58601 8.53948 9.99999 8.57133C10.2655 8.55508 10.5314 8.5979 10.7784 8.69671C11.0254 8.79552 11.2475 8.94785 11.4286 9.14275" stroke="black" stroke-linecap="round" stroke-linejoin="round"/>
</g>
<defs>
<clipPath id="clip0_13_1527">
<rect width="20" height="20" fill="white"/>
</clipPath>
</defs>
</svg>
