<svg width="216" height="223" viewBox="0 0 216 223" fill="none" xmlns="http://www.w3.org/2000/svg">
<path d="M107.995 0C48.3505 0 0 49.9236 0 111.5C0 173.081 48.3505 223 107.995 223C167.644 223 216 173.081 216 111.5C215.995 49.9189 167.644 0 107.995 0ZM116.059 200.594C71.9868 200.594 36.2592 163.293 36.2592 117.282C36.2592 71.2706 71.9868 33.9696 116.059 33.9696C160.127 33.9696 195.859 71.2706 195.859 117.282C195.859 163.293 160.127 200.594 116.059 200.594Z" fill="black"/>
<path d="M115.502 39C74.3584 39 41 73.6962 41 116.498C41 159.299 74.3534 194 115.502 194C156.646 194 190 159.299 190 116.498C190 73.7009 156.646 39 115.502 39ZM114.31 188.62C75.4218 188.62 43.8986 155.823 43.8986 115.372C43.8986 74.9204 75.4218 42.1239 114.31 42.1239C153.194 42.1239 184.722 74.9204 184.722 115.372C184.722 155.828 153.194 188.62 114.31 188.62Z" fill="black"/>
<path d="M121.003 67C124.31 67 127 63.6437 127 59.4977C127 55.3563 124.315 52 121.003 52C117.69 52 115 55.3563 115 59.4977C115 63.6437 117.685 67 121.003 67Z" fill="black"/>
<path d="M121.003 163C117.69 163 115 166.355 115 170.5C115 174.645 117.685 178 121.003 178C124.31 178 127 174.645 127 170.5C127 166.355 124.31 163 121.003 163Z" fill="black"/>
<path d="M168 123C171.314 123 174 119.642 174 115.5C174 111.358 171.314 108 168 108C164.686 108 162 111.358 162 115.5C162 119.642 164.686 123 168 123Z" fill="black"/>
<path d="M59.0025 108C55.6897 108 53 111.36 53 115.5C53 119.64 55.6846 123 59.0025 123C62.3102 123 65 119.645 65 115.5C65 111.36 62.3152 108 59.0025 108Z" fill="black"/>
<path d="M150.607 89.6358L125.058 108.879C123.878 107.111 122.233 106.009 120.41 106.009C117.352 106.009 114.808 109.093 114.112 113.237L87.318 114.164L87.5452 109.635L81 115.357L87.5452 121.079V117.42L114.369 118.959C115.312 122.491 117.658 125 120.415 125C123.571 125 126.2 121.721 126.792 117.367L153.813 92.6774L157.716 97.3635L159 86.1568L147.278 86L150.607 89.6358Z" fill="black"/>
</svg>
