<svg width="160" height="140" viewBox="0 0 160 140" fill="none" xmlns="http://www.w3.org/2000/svg">
<rect width="160" height="140" fill="#1E1E1E"/>
<rect id="Rectangle 34" x="-5849" y="-752" width="6835" height="1503" stroke="white" stroke-width="4"/>
<g id="Steady Builder">
<rect width="1440" height="1024" transform="translate(-766 -478)" fill="#F9EFE5"/>
<g id="Rectangle 4">
<rect x="-168" y="-330" width="786" height="820" rx="12" fill="white"/>
<rect x="-167.5" y="-329.5" width="785" height="819" rx="11.5" stroke="black" stroke-opacity="0.5"/>
</g>
<rect id="Rectangle 49" x="-23" y="-36" width="205" height="205" rx="10" fill="white" stroke="#99BBE0" stroke-width="4"/>
<g id="Group 76">
<path id="Vector" d="M104.401 43.4102L117.813 27.3252L126.051 35.0342L139.903 19.771L142.625 23.3462L142.538 21.63C142.418 19.2696 145.195 12.5431 145.224 12.4752L145.782 11.1294L144.489 11.7999C140.725 13.7471 134.619 15.2084 134.559 15.2227L133.138 15.5597L137.429 17.7178L124.602 28.3923L117.199 22.9448L100.063 36.0334L104.067 43.384C104.179 43.3899 104.289 43.3947 104.401 43.4102Z" fill="black"/>
<path id="Vector_2" d="M133.682 49.0138L131.908 50.8371L132.429 51.1944C133.03 51.6077 133.91 51.7732 134.586 52.0257C127.686 51.5279 120.665 51.1777 113.749 51.4969C108.224 51.7518 102.706 52.1162 97.1819 52.4032C97.2141 52.2555 97.2463 52.1067 97.276 51.9542C97.2689 51.9542 97.2594 51.9554 97.2522 51.9554C98.4158 46.7486 98.2419 41.2083 98.0073 35.9133C97.7584 30.3027 97.2093 24.7124 96.6532 19.1256C97.2081 20.1832 97.7798 21.2312 98.3443 22.2828L100.006 19.2745L99.8151 19.0029C96.7318 14.5893 95.18 10.2232 95.1645 10.1804L94.7107 8.88818C93.2006 12.4289 91.6857 15.9672 90.178 19.5091L89.9814 19.7985L91.6464 22.3924L92.099 21.7302C92.1859 21.604 93.1768 19.7806 94.1093 17.7215C94.956 27.2134 96.1601 45.6898 93.6293 53.8026L93.1041 55.483L93.9926 55.3937C105.352 54.8328 129.398 53.9169 137.073 54.6625C135.123 55.6128 133.134 56.8717 133.024 56.9431L132.427 57.3219L134.212 58.9034L134.555 58.6688C138.572 55.9177 144.202 54.3218 144.258 54.3064L145.782 53.88C141.871 52.3401 137.973 50.7621 134.049 49.2627L133.682 49.0138Z" fill="black"/>
<path id="Vector_3" d="M160 0H77.7493C78.6365 8.7928 79.525 17.5868 80.4122 26.3796C81.5496 37.6377 82.6858 48.8958 83.8231 60.1538C84.0006 61.9093 84.178 63.6624 84.3543 65.4178L84.8962 65.8216L98.267 65.8144L154.317 65.7859L160 0ZM99.0852 64.7509L99.0888 64.7438H98.9709L98.9732 64.7402L91.0534 64.7438L91.0474 64.7533L85.3559 64.7569L82.4381 35.8548H82.4166V35.6488L82.413 35.6083H82.4166C81.3924 25.5043 80.3717 15.399 79.3511 5.29499C79.2094 3.88491 79.0665 2.47362 78.9247 1.06353H158.84L153.34 64.7223L99.0852 64.7509Z" fill="black"/>
<path id="Vector_4" d="M35.3725 11.6523L34.6331 13.7036L39.8964 15.6009L40.6358 13.5496L35.3725 11.6523Z" fill="black"/>
<path id="Vector_5" d="M30.961 13.1707L26.9424 16.8062L28.4062 18.4242L32.4248 14.7887L30.961 13.1707Z" fill="black"/>
<path id="Vector_6" d="M34.1557 23.0344C34.9394 23.0344 35.5742 22.065 35.5742 20.8693C35.5742 19.6735 34.9394 18.7041 34.1557 18.7041C33.3721 18.7041 32.7373 19.6735 32.7373 20.8693C32.7373 22.065 33.3721 23.0344 34.1557 23.0344Z" fill="black"/>
<path id="Vector_7" d="M39.1122 17.7344C39.0871 17.7344 39.0633 17.7273 39.0383 17.7297C38.2571 17.7904 37.6997 18.8063 37.7926 19.9984C37.8855 21.1906 38.5941 22.1076 39.3754 22.0469C40.1566 21.9861 40.714 20.9702 40.6211 19.7781C40.5318 18.6241 39.8625 17.7356 39.1122 17.7344Z" fill="black"/>
<path id="Vector_8" d="M79.9868 50.9471C80.5965 50.4017 80.986 49.9372 81.0908 49.487C81.167 49.1583 81.067 48.9439 80.9693 48.8224C80.8181 48.6319 80.5799 48.5354 80.2595 48.5354C79.7391 48.5354 78.9637 48.7962 78.2111 49.1583C78.7101 48.3318 78.9221 47.6684 78.8292 47.2004C78.7911 47.0051 78.6994 46.8455 78.5672 46.7371C78.4743 46.6251 78.3206 46.5394 78.0955 46.5394C77.6346 46.5394 76.8843 46.8895 76.146 47.6196C76.2746 46.7704 76.2722 45.8963 75.9173 45.3068C75.7017 44.9507 75.4219 44.8971 75.2742 44.8971C75.0824 44.8971 74.5001 44.8971 73.764 46.7942C73.5354 47.3862 73.3508 47.9304 73.2126 48.3758C72.8494 47.5934 72.4028 46.9038 71.6882 46.5906L71.5084 46.5323H71.4203C71.2416 46.5323 71.0761 46.6108 70.9558 46.7538C70.4877 47.3052 70.7009 49.0975 70.87 50.1158C70.9701 50.7268 71.0439 51.6069 71.0963 52.2512C71.1035 52.3453 71.1118 52.4275 71.1189 52.518L70.9153 52.4036L59.7596 69.3616L47.2915 60.0746L47.2391 59.5148L45.4527 40.9181L45.4456 40.9229C45.4253 40.7073 45.4027 40.4929 45.3848 40.3059L45.3944 40.3L44.7393 33.4842H59.1737L40.5972 9.14347C45.1252 7.52139 47.6667 4.81794 47.6667 4.81794C36.7671 0.786562 19.4471 5.71471 19.4471 5.71471C20.1843 6.18276 20.9048 6.59364 21.6182 6.9807L17.6547 5.71471L15.1644 30.7986C15.3168 30.689 15.4633 30.5949 15.6122 30.4996C14.4808 31.849 14.4534 33.0673 14.7011 33.9141C15.4574 36.5116 19.3482 38.3695 22.1565 38.8518L23.0104 58.6716L2.05678 79.293L7.53873 99.1855L8.56772 98.8663C8.21996 99.9643 7.92222 101.193 7.8448 101.803C7.81146 102.063 7.78288 102.359 7.75787 102.664L0 105.097L7.07664 126.315L26.6142 119.551L20.0997 98.7936L18.3454 99.3439C18.5717 99.6416 18.767 99.9608 18.9314 100.297L19.2125 100.206L25.1303 118.804L7.82456 124.796L1.51013 105.866L7.72452 103.879C7.74953 104.446 7.84481 104.897 8.02226 105.258C8.2533 105.73 8.56653 105.829 8.78923 105.829C9.24299 105.829 9.64791 105.384 9.97185 104.809C10.0123 105.618 10.1279 106.209 10.4113 106.572C10.6209 106.84 10.852 106.895 11.0092 106.895C11.2426 106.895 11.4605 106.777 11.6547 106.546C11.9857 106.15 12.2787 105.363 12.4752 104.529C12.9409 105.818 13.5423 106.456 14.1318 106.34C14.276 106.338 14.4832 106.275 14.6606 105.989C14.8881 105.621 15.062 104.871 14.9691 103.9C15.5479 104.536 16.2303 105.084 16.9127 105.18L17.0664 105.191C17.4427 105.191 17.6213 104.978 17.6952 104.852C17.7857 104.697 18.0584 104.226 17.1116 102.571C16.7984 102.027 16.4923 101.544 16.2279 101.147C17.0473 101.353 17.9441 101.413 18.5765 101.085C18.767 100.987 18.8861 100.824 18.9135 100.627C18.954 100.329 18.7849 100.022 18.3633 99.6285C17.9215 99.2188 17.17 98.696 16.3518 98.2303C15.8182 97.9278 15.1203 97.455 14.4951 97.0286L15.9433 96.5785L10.0064 80.8746L21.6432 72.0794L19.6722 91.5657H20.2271C19.2315 94.5896 19.0433 100.02 25.4947 107.096C32.438 114.712 19.7996 135.763 19.7996 135.763H20.3308L19.4483 139.048H33.6325H36.7683H50.9525C50.9525 139.048 48.735 134.413 41.2677 134.57C44.2439 128.884 56.4583 104.046 49.9176 91.5657H50.263L48.3074 70.8432L62.4929 80.2624L77.0094 55.811L76.6485 55.6097C77.5715 55.2286 78.5386 54.7665 79.0793 54.4318L79.1972 54.358C80.194 53.7339 81.1718 53.036 81.5755 52.1666C81.6005 52.1119 81.6148 52.0654 81.6315 52.0035C81.7494 51.6379 81.6505 51.3901 81.5469 51.2472C81.2956 50.903 80.7335 50.8149 79.9868 50.9471ZM22.8008 37.7442C20.3188 37.4536 16.4721 35.7291 15.8456 33.5806C15.5479 32.5576 16.0576 31.5 17.3605 30.4389C17.5022 30.3234 17.6416 30.2174 17.7785 30.1185C18.187 29.9982 18.586 29.9375 18.9647 29.9375C21.8254 29.9375 23.4522 33.4389 24.2311 35.8387L24.2323 35.8446C24.5837 36.7009 25.1887 39.7962 25.1136 39.714L28.7996 35.5433L26.0938 29.0491L26.85 9.8497C31.2911 11.2122 35.6988 11.2741 39.7838 10.0426L56.7644 32.2932H43.4293L44.1355 39.6497C42.5242 40.5108 40.7687 40.8121 39.5146 40.4274C36.6611 39.5461 34.9771 36.1305 34.9068 35.9864L34.6496 35.4564L31.9568 36.7117L32.2046 37.25C32.2939 37.4429 34.4245 41.9709 38.625 43.2738C40.5126 43.8514 42.4348 43.699 44.4356 42.795L46.0351 59.4565L33.4431 58.8407L24.1906 58.3882C24.1906 58.381 23.1807 37.7692 23.0592 37.7609C22.9723 37.7549 22.8925 37.7561 22.8008 37.7442ZM15.9421 98.9532C16.7079 99.3891 17.401 99.8691 17.7988 100.237C17.8822 100.314 17.9429 100.378 17.9858 100.428C17.476 100.585 16.6817 100.413 16.0302 100.226L14.083 99.6404L14.875 100.669C14.8774 100.672 14.9739 100.797 15.1263 101.011C15.4359 101.445 15.9052 102.138 16.3911 102.982C16.7781 103.657 16.9365 104.122 16.9663 104.34C16.0219 104.141 14.8143 102.45 14.239 101.461L13.5054 101.857C14.4201 103.687 14.1723 105.124 13.9818 105.5C13.8305 105.399 13.21 104.826 12.6967 102.038L11.8762 102.185C12.0501 103.173 11.4558 105.52 11.0318 106.002C10.7567 105.532 10.7781 104.099 10.7936 103.044L10.8031 102.197L9.96946 102.222C9.96946 102.259 9.96589 102.302 9.95994 102.35C9.84442 103.314 9.08935 104.889 8.85116 105.01C8.85116 105.009 8.81901 104.985 8.77256 104.889C8.58796 104.514 8.51888 103.939 8.56176 103.135C8.58439 102.699 8.62846 102.268 8.67371 101.907C8.75827 101.24 9.14771 99.7083 9.55263 98.5602L13.4792 97.3419C13.6376 97.4491 13.796 97.555 13.9699 97.6729C14.6225 98.1207 15.3621 98.6257 15.9421 98.9532ZM33.5587 135.763H34.5162L34.3316 136.452C32.9727 135.518 30.9469 134.678 28.0565 134.573C30.7849 129.725 40.3114 110.964 32.1414 98.4352H39.2085C39.2074 98.4364 48.1157 107.692 33.5587 135.763ZM62.1082 78.5784L46.8878 68.4708L48.9541 90.376H20.9894L23.1057 69.4843L8.58081 80.4637L14.3867 95.8163L8.36287 97.6861L3.39421 79.6538L23.8071 59.5636L29.9739 59.865L46.1554 60.6558L46.8759 61.25L60.0633 71.073L71.3035 53.9864L75.3635 56.2552L62.1082 78.5784ZM80.8193 51.8165C80.4643 52.5811 79.3103 53.304 78.7577 53.6506L78.5624 53.772C78.0574 54.0853 76.8284 54.6629 75.7101 55.0845L71.9991 53.011C71.9752 52.755 71.9514 52.4799 71.9264 52.1833C71.8561 51.3318 71.7895 50.5779 71.6918 49.9812C71.4834 48.7236 71.4774 47.8375 71.5441 47.46C72.1146 47.8423 72.4695 48.7188 72.8423 49.6406L73.3937 50.9983L73.695 49.7323C73.6985 49.7204 73.9832 48.5378 74.5394 47.0979C74.8216 46.3715 75.0824 45.9558 75.2337 45.7962C75.616 46.5513 75.2539 48.2996 74.7121 49.7276L75.4814 50.0467C76.3246 48.1912 77.5918 47.4814 78.0134 47.385C78.0288 47.5696 77.9681 48.4151 76.1305 50.5612L76.7617 51.1067C77.3691 50.41 79.4544 49.3727 80.2559 49.3691C80.0559 49.88 78.9375 50.7577 78.1098 51.4068L77.4608 51.9225C77.456 51.9261 77.4524 51.9285 77.4489 51.932L77.4453 51.9356L77.7168 52.2512C77.7156 52.2524 77.7144 52.2536 77.7121 52.2548C77.7132 52.2536 77.7156 52.2524 77.7168 52.2512L77.9884 52.5668C78.0348 52.5299 78.1515 52.4489 78.4076 52.3262C79.0269 52.0273 80.0225 51.7188 80.6168 51.7188C80.7359 51.7188 80.8062 51.7296 80.8407 51.7296L80.8193 51.8165Z" fill="black"/>
<path id="Vector_9" d="M43.1921 62.8347L41.7511 61.3389H37.6852L36.4692 63.2884L38.4224 67.4604L35.9297 82.8677L41.077 87.9555L45.4787 82.5176L41.3807 67.6271L43.1921 62.8347Z" fill="black"/>
</g>
</g>
</svg>
