<svg width="255" height="254" viewBox="0 0 255 254" fill="none" xmlns="http://www.w3.org/2000/svg">
<path d="M149.468 17.4597C148.489 24.7427 146.583 29.6441 141.991 35.4155C140.532 37.5147 140.532 37.5147 141.135 39.7766C142.046 42.4464 143.208 44.5768 144.693 46.9734C145.239 47.8636 145.786 48.7538 146.349 49.671C147.221 51.0742 147.221 51.0742 148.111 52.5058C149.3 54.4411 150.487 56.377 151.673 58.3135C152.246 59.2465 152.819 60.1795 153.41 61.1407C156.45 66.1247 159.349 71.1837 162.211 76.2724C162.66 77.0316 163.108 77.7908 163.571 78.5731C164.725 80.5894 164.725 80.5894 166.122 83.7056C164.398 86.6379 164.398 86.6379 161.844 87.3783C160.834 87.5329 159.823 87.6876 158.782 87.8469C157.775 88.0109 156.768 88.1748 155.731 88.3437C152.987 88.6054 152.987 88.6054 149.833 87.9331C149.847 88.7273 149.86 89.5216 149.873 90.3399C150.183 108.953 150.183 108.953 150.243 112.77C150.289 115.406 150.342 118.042 150.403 120.677C150.431 121.96 150.459 123.242 150.487 124.564C150.515 125.721 150.543 126.879 150.571 128.072C150.549 130.983 150.549 130.983 149.876 134.139C150.782 134.099 151.688 134.059 152.622 134.018C156.007 133.872 159.392 133.733 162.777 133.6C164.238 133.54 165.699 133.478 167.159 133.413C169.267 133.32 171.376 133.238 173.484 133.156C174.75 133.104 176.016 133.051 177.32 132.997C180.802 133.048 183.823 133.544 187.191 134.394C187.354 133.257 187.517 132.121 187.684 130.95C189.132 121.053 190.866 111.31 193.092 101.554C192.344 101.1 191.597 100.645 190.826 100.177C186.841 97.2805 185.009 93.3521 183.77 88.5674C184.453 84.6727 185.052 81.6927 187.064 78.2703C187.306 77.0288 187.548 75.7873 187.797 74.5081C188.634 70.9054 188.634 70.9054 191.185 69.2494C192.573 69.5452 193.961 69.841 195.39 70.1458C195.781 69.5216 196.172 68.8974 196.575 68.2543C198.39 66.3855 198.39 66.3855 200.744 66.1783C203.556 66.5846 206.34 67.0228 209.128 67.5744C210.327 67.8088 210.327 67.8088 211.551 68.048C213.713 68.6206 213.713 68.6206 217.314 70.4193C221.091 77.3016 221.479 83.2644 219.834 90.8239C219.436 92.7319 219.436 92.7319 219.029 94.6784C218.087 97.8275 217.272 99.5034 215.015 101.827C215.709 101.975 216.403 102.123 217.118 102.276C214.959 119.033 211.253 135.462 207.629 151.949C207.282 151.875 206.935 151.802 206.577 151.725C210.154 128.804 210.154 128.804 212.703 117.833C210.968 117.464 209.233 117.094 207.446 116.713C207.52 116.366 207.594 116.018 207.67 115.661C209.405 116.03 211.14 116.4 212.927 116.781C213.394 112.888 213.861 108.995 214.343 104.984C211.914 104.466 209.485 103.948 206.983 103.415C208.445 103.364 209.907 103.312 211.413 103.259C211.706 101.722 211.706 101.722 212.006 100.155C212.758 96.9465 212.758 96.9465 214.034 96.1185C216.398 88.3151 217.137 81.3562 215.59 73.3516C214.202 73.0558 212.814 72.76 211.385 72.4552C211.236 73.1496 211.088 73.844 210.936 74.5594C210.242 74.4115 209.548 74.2636 208.833 74.1112C208.634 73.3429 208.435 72.5745 208.231 71.7829C207.264 71.2138 206.297 70.6448 205.301 70.0585C205.13 72.5628 204.959 75.0672 204.782 77.6474C204.088 77.4995 203.395 77.3516 202.68 77.1992C202.6 76.2974 202.52 75.3957 202.438 74.4666C202.029 71.3726 202.029 71.3726 199.646 70.1593C199.01 69.9556 198.373 69.7518 197.717 69.5419C197.35 73.8192 197.35 73.8192 196.974 78.183C198.709 78.5527 200.444 78.9225 202.231 79.3035C202.208 81.1134 202.185 82.9234 202.161 84.7882C202.855 84.9361 203.549 85.084 204.264 85.2364C204.56 83.8476 204.856 82.4588 205.161 81.0279C206.202 81.2498 207.242 81.4716 208.315 81.7002C208.514 82.4685 208.713 83.2369 208.918 84.0285C211.631 84.0624 211.631 84.0624 214.398 84.0969C213.755 85.4118 213.112 86.7266 212.45 88.0813C209.873 88.258 207.297 88.4348 204.642 88.6169C204.619 90.4268 204.596 92.2368 204.572 94.1016C204.126 93.6434 203.679 93.1853 203.219 92.7133C199.766 90.3974 196.487 90.0369 192.405 89.3081C192.553 88.6137 192.701 87.9193 192.853 87.2039C193.755 87.1237 194.656 87.0436 195.584 86.961C198.676 86.5506 198.676 86.5506 199.889 84.1665C200.093 83.5293 200.297 82.8922 200.507 82.2357C194.591 81.1935 194.591 81.1935 189.321 83.1511C187.979 86.9141 187.764 88.8528 189.081 92.6556C191.247 95.9031 193.527 97.8708 196.694 100.122C196.546 100.816 196.398 101.511 196.246 102.226C199.479 102.371 199.479 102.371 202.778 102.519C202.556 103.56 202.334 104.602 202.105 105.675C200.024 105.231 197.942 104.788 195.797 104.33C195.131 107.455 194.465 110.58 193.779 113.799C197.595 114.613 201.411 115.426 205.343 116.265C205.195 116.959 205.047 117.653 204.895 118.369C201.425 117.629 197.956 116.89 194.382 116.128C192.901 123.072 191.421 130.016 189.896 137.17C184.015 138.333 180.559 138.922 174.91 138.513C171.044 137.949 171.044 137.949 167.524 139.001C164.608 138.819 161.717 138.59 158.809 138.312C157.992 138.238 157.174 138.163 156.331 138.087C154.305 137.902 152.28 137.711 150.254 137.52C150.495 139.004 150.495 139.004 150.74 140.519C150.95 141.832 151.161 143.144 151.378 144.496C151.69 146.439 151.69 146.439 152.009 148.42C152.543 151.969 152.979 155.51 153.352 159.079C160.753 158.981 167.837 158.558 175.108 157.16C178.426 156.579 181.734 156.219 185.085 155.875C188.759 155.493 192.233 155.061 195.782 154.03C196.694 153.794 197.606 153.557 198.545 153.313C199.165 153.808 199.785 154.303 200.424 154.813C200.202 155.855 199.979 156.897 199.751 157.97C159.692 164.83 159.692 164.83 153.507 163.511C153.529 164.291 153.551 165.072 153.573 165.875C153.673 169.467 153.77 173.058 153.866 176.65C153.901 177.876 153.935 179.103 153.971 180.367C154.494 200.129 154.494 200.129 153.171 206.337C153.746 206.285 154.321 206.233 154.913 206.18C156.808 206.017 158.704 205.865 160.601 205.721C163.397 205.498 166.181 205.24 168.971 204.962C194.411 202.637 194.411 202.637 203.427 209.445C205.951 213.007 206.029 215.708 205.656 220.017C204.464 226.42 202.536 232.019 199.772 237.877C197.961 241.87 196.511 245.992 195.016 250.111C191.937 258.472 188.557 266.6 184.767 274.668C180.902 274.933 180.902 274.933 176.959 275.204C176.811 275.898 176.663 276.593 176.511 277.308C177.279 277.109 178.047 276.909 178.838 276.704C180.993 277.07 183.138 277.503 185.274 277.969C186.547 278.244 187.821 278.519 189.132 278.802C190.467 279.095 191.801 279.389 193.176 279.692C194.519 279.983 195.863 280.274 197.247 280.574C200.573 281.297 203.899 282.023 207.223 282.755C207.621 284.291 208.019 285.828 208.429 287.411C196.607 293.527 187.124 297.616 173.974 294.366C173.354 293.871 172.734 293.376 172.095 292.866C171.725 294.602 171.355 296.338 170.974 298.126C160.525 298.627 160.525 298.627 156.031 296.041C155.327 289.749 157.372 283.885 159.844 278.155C158.803 277.933 157.762 277.711 156.69 277.483C158.137 269.01 160.886 261.314 164.035 253.337C164.947 251.003 165.858 248.668 166.765 246.332C167.367 244.802 167.367 244.802 167.981 243.242C169.111 240.303 169.111 240.303 169.866 236.294C168.788 236.544 167.711 236.793 166.601 237.05C163.526 237.762 160.451 238.471 157.376 239.179C154.284 239.89 151.194 240.609 148.106 241.336C146.773 241.646 145.441 241.956 144.067 242.275C142.249 242.702 142.249 242.702 140.393 243.138C137.513 243.697 137.513 243.697 135.411 243.249C135.577 244.07 135.744 244.89 135.916 245.736C137.611 254.391 138.768 262.99 139.566 271.77C139.697 273.01 139.827 274.25 139.961 275.528C140.633 282.845 140.848 289.659 138.313 296.664C134.338 301.207 128.283 303.755 123.006 306.6C121.7 307.322 120.396 308.045 119.092 308.769C115.389 310.82 111.669 312.837 107.937 314.833C106.357 315.68 104.78 316.534 103.206 317.393C100.888 318.652 98.5546 319.88 96.2157 321.101C95.1484 321.69 95.1484 321.69 94.0597 322.29C92.0273 323.327 92.0273 323.327 88.4105 324.524C85.5187 323.126 85.5187 323.126 83.6024 321.3C84.5363 329.64 87.196 335.983 92.5376 342.444C94.0598 344.427 94.0598 344.427 95.4896 348.032C95.1936 349.421 94.8976 350.809 94.5926 352.24C83.6038 350.529 75.1218 345.536 68.2253 336.721C65.8818 332.445 65.8818 332.445 66.388 328.904C66.6196 328.137 66.8511 327.37 67.0897 326.579C66.1438 326.763 65.1978 326.947 64.2231 327.137C60.5575 326.287 60.5575 326.287 58.7005 323.76C57.0923 320.886 55.5815 317.998 54.1654 315.025C56.484 311.592 58.6625 310.321 62.4935 308.825C63.4207 308.45 64.348 308.075 65.3033 307.689C67.9727 306.969 67.9727 306.969 72.1779 307.865C71.8541 305.981 71.5303 304.097 71.1966 302.156C76.4751 298.625 81.8234 295.342 87.394 292.294C90.4762 290.583 93.5074 288.793 96.5456 287.005C100.898 284.48 105.095 282.347 109.843 280.696C109.53 279.972 109.218 279.249 108.895 278.504C101.593 261.451 94.3933 243.772 89.6711 225.799C89.4255 224.927 89.18 224.055 88.927 223.156C86.0794 211.19 87.4284 199.222 88.2418 187.066C88.3771 184.817 88.511 182.567 88.6434 180.318C88.7747 178.168 88.9072 176.019 89.0412 173.869C89.1342 172.37 89.1342 172.37 89.2292 170.84C89.2921 169.906 89.355 168.971 89.4198 168.008C89.4736 167.192 89.5274 166.377 89.5828 165.536C89.8611 162.929 90.3733 160.432 90.96 157.878C90.0262 157.929 90.0262 157.929 89.0735 157.981C86.2522 158.132 83.4306 158.277 80.6089 158.422C79.6291 158.475 78.6494 158.529 77.6399 158.584C76.2274 158.655 76.2274 158.655 74.7864 158.727C73.4854 158.796 73.4854 158.796 72.1582 158.865C69.8635 158.881 69.8635 158.881 66.7096 158.209C66.6842 158.952 66.6589 159.696 66.6328 160.462C66.5164 163.828 66.3958 167.194 66.2751 170.559C66.2353 171.73 66.1955 172.9 66.1545 174.106C66.1137 175.228 66.0728 176.35 66.0308 177.506C65.9944 178.541 65.958 179.576 65.9205 180.642C65.7566 183.304 65.7566 183.304 65.0838 186.46C66.3475 186.594 67.6112 186.727 68.9133 186.864C73.3718 187.907 76.1452 189.472 78.7587 193.285C79.8796 197.548 79.0016 201.002 77.9162 205.214C77.6284 206.38 77.6284 206.38 77.3347 207.571C75.9964 211.951 75.001 213.534 71.1963 216.336C66.7437 217.876 64.2728 217.838 59.6733 216.999C58.4267 216.786 57.18 216.572 55.8956 216.353C54.6998 216.113 53.504 215.874 52.272 215.627C51.1152 215.445 49.9584 215.262 48.7665 215.074C47.8417 214.813 46.9169 214.552 45.9641 214.283C41.1805 205.49 42.5245 198.016 44.8144 188.739C43.4266 188.444 42.0389 188.148 40.6091 187.843C39.8836 169.727 39.8836 169.727 40.0949 161.352C40.1614 159.158 40.1614 159.158 39.9986 157.031C39.9721 154.051 40.4298 151.321 40.981 148.394C41.1704 147.312 41.3598 146.231 41.5549 145.117C42.9975 141.192 44.4661 139.943 47.9958 137.721C50.8706 136.712 53.5562 135.901 56.501 135.203C57.7175 134.9 57.7175 134.9 58.9586 134.591C66.1516 132.865 73.3916 131.74 80.716 130.749C84.9147 130.143 88.9885 129.305 93.099 128.267C95.137 127.971 95.137 127.971 99.3423 128.867C99.1043 127.75 98.8664 126.633 98.6212 125.482C97.2317 118.387 96.318 111.387 96.917 104.152C95.8022 104.277 94.6873 104.402 93.5387 104.531C88.087 104.029 84.1283 103.547 80.4278 99.3307C79.9204 98.2016 79.413 97.0726 78.8902 95.9094C78.4418 94.929 77.9934 93.9487 77.5314 92.9386C76.4929 88.3729 77.4879 85.0511 79.6085 80.9384C81.131 75.7748 79.7348 71.337 78.6376 66.1574C78.1199 63.2627 77.629 60.3645 77.1418 57.4645C76.8394 55.6992 76.5177 53.937 76.1732 52.1794C75.3397 47.6288 75.0593 44.6575 77.4879 40.6139C83.8502 39.7703 83.8502 39.7703 87.3984 40.5266C87.0182 39.6515 86.638 38.7765 86.2463 37.8749C85.3658 34.5937 85.3658 34.5937 85.9405 31.8976C89.5284 26.6426 96.3577 25.5544 102.235 24.0967C103.046 23.8919 103.856 23.6871 104.692 23.4761C143.359 13.8636 143.359 13.8636 149.468 17.4597Z" fill="black"/>
<path d="M147.325 135.796C147.225 140.723 147.127 143.471 143.806 147.145C143.498 146.523 143.19 145.902 142.873 145.262C140.153 140.232 140.153 140.232 135.526 137.169C132.647 136.545 132.647 136.545 128.555 136.194C123.247 143.23 123.247 143.23 117.832 150.408C118.526 150.555 119.22 150.703 119.935 150.856C121.072 148.92 122.21 146.985 123.383 144.991C124.623 145.981 125.862 146.972 127.14 147.992C126.992 148.686 126.843 149.381 126.691 150.096C127.385 150.244 128.079 150.392 128.794 150.544C128.548 151.74 128.302 152.935 128.049 154.166C127.143 158.643 126.306 163.13 125.488 167.624C125.127 169.559 124.747 171.491 124.347 173.419C121.733 184.787 121.733 184.787 123.768 195.92C126.647 199.969 129.285 202.935 133.574 205.46C134.249 204.209 134.249 204.209 134.937 202.932C136.64 200.207 137.88 198.737 140.131 196.614C142.682 193.852 143.199 192.018 143.216 188.266C143.015 184.563 142.284 181.02 141.546 177.391C140.805 173.443 140.328 169.462 139.83 165.477C139.724 164.653 139.619 163.829 139.51 162.979C139.306 161.375 139.105 159.769 138.909 158.163C138.659 156.146 138.392 154.131 138.123 152.116C137.866 149.047 138.168 147.743 139.825 145.196C142.749 146.917 143.583 147.925 145.236 150.749C145.953 149.087 146.67 147.425 147.409 145.713C149.287 147.213 149.287 147.213 149.835 150.204C150.83 160.484 151.12 170.692 151.149 181.02C151.154 182.328 151.159 183.635 151.164 184.982C151.143 192.308 150.806 199.459 149.793 206.717C148.852 206.745 147.911 206.773 146.941 206.801C130.272 207.454 113.786 209.492 97.4928 213.095C94.4651 213.622 94.4651 213.622 91.3112 212.95C91.3492 211.889 91.3872 210.827 91.4263 209.734C91.5692 205.74 91.7116 201.746 91.8539 197.752C91.9152 196.034 91.9766 194.316 92.0382 192.598C92.0979 190.929 92.1575 189.26 92.2169 187.591C92.2753 185.953 92.334 184.314 92.393 182.676C92.5886 177.183 92.7452 171.69 92.8582 166.195C93.049 162.816 93.7121 159.718 94.5627 156.447C95.9504 156.743 97.3382 157.038 98.768 157.343C98.916 156.649 99.064 155.954 99.2165 155.239C98.5075 155.243 97.7984 155.247 97.0678 155.251C93.7955 155.268 90.5231 155.285 87.2507 155.301C86.1358 155.307 85.0209 155.313 83.8722 155.319C76.8973 155.352 69.9269 155.322 62.9529 155.208C63.0149 156.447 63.0768 157.685 63.1406 158.961C63.327 164.317 63.0521 169.613 62.7271 174.959C62.6729 175.905 62.6187 176.85 62.5629 177.824C62.4303 180.128 62.2928 182.432 62.1542 184.736C56.1102 185.565 50.511 185.993 44.436 185.359C44.4274 184.03 44.4188 182.701 44.41 181.332C44.3971 179.553 44.3841 177.775 44.3711 175.996C44.3656 175.124 44.3602 174.252 44.3545 173.354C44.3228 169.191 44.2514 165.046 44.041 160.887C43.9634 156.883 44.2592 153.385 45.013 149.459C45.215 148.306 45.4169 147.152 45.6251 145.964C46.8746 142.982 46.8746 142.982 49.7843 141.114C59.8957 137.31 70.6147 135.813 81.2487 134.192C86.2213 133.366 91.1295 132.287 96.0419 131.159C98.8939 130.972 98.8939 130.972 100.989 132.239C101.538 132.811 102.086 133.383 102.651 133.972C105.099 136.999 105.099 136.999 108.51 137.421C107.918 136.796 107.326 136.171 106.716 135.526C106.142 134.814 105.569 134.102 104.978 133.368C105.126 132.674 105.274 131.98 105.426 131.264C110.242 131.543 115.056 131.841 119.87 132.143C121.22 132.221 122.57 132.299 123.961 132.379C131.952 132.891 139.556 133.835 147.325 135.796Z" fill="white"/>
<path d="M138.605 42.6423C139.914 44.3737 139.914 44.3737 140.992 46.5885C143.735 51.8942 146.751 56.9837 149.847 62.0877C156.321 72.8349 156.321 72.8349 159.044 77.5911C159.673 78.6886 159.673 78.6886 160.315 79.8083C161.089 81.533 161.089 81.533 160.641 83.6372C158.008 84.1809 155.375 84.7186 152.74 85.2529C151.992 85.4081 151.243 85.5633 150.472 85.7232C144.815 86.8634 144.815 86.8634 142.474 86.3644C142.252 87.406 142.03 88.4476 141.801 89.5208C143.994 89.4437 143.994 89.4437 146.231 89.365C146.963 107.657 146.963 107.657 146.679 116.164C146.539 118.053 146.539 118.053 147.535 119.341C147.329 121.515 147.064 123.683 146.766 125.846C146.527 127.617 146.527 127.617 146.283 129.425C146.155 130.337 146.027 131.25 145.895 132.191C130.676 132.176 116.742 130.55 101.893 127.211C101.502 123.967 101.119 120.723 100.739 117.478C100.573 116.109 100.573 116.109 100.404 114.713C99.8431 109.865 99.5103 105.278 99.9167 100.391C99.2589 100.606 98.6012 100.82 97.9235 101.041C93.3459 102.002 89.1 100.933 84.7496 99.3582C81.984 96.3585 81.5157 94.9175 81.0629 90.8728C81.9802 84.3049 81.9802 84.3049 84.1186 81.6936C87.9074 80.6097 91.3122 81.3377 94.8701 82.8167C97.3784 85.5512 97.3784 85.5512 99.2297 88.1457C100.27 88.3676 101.311 88.5894 102.384 88.818C102.682 81.0267 102.207 73.5494 101.241 65.8196C99.0534 47.7234 99.0534 47.7234 100.238 42.1637C101.034 42.2511 101.831 42.3386 102.651 42.4287C111.087 43.1536 118.681 42.6406 127.011 41.2102C131.525 40.4904 134.708 40.0338 138.605 42.6423Z" fill="white"/>
<path d="M205.301 70.0588C206.615 70.7018 207.929 71.3448 209.282 72.0073C209.134 72.7017 208.986 73.3961 208.834 74.1116C209.527 74.2595 210.221 74.4074 210.936 74.5598C211.084 73.8654 211.232 73.171 211.385 72.4555C212.773 72.7514 214.16 73.0472 215.59 73.3519C218.942 81.803 217.604 90.416 214.086 98.695C213.26 100.253 212.348 101.764 211.413 103.26C212.38 103.829 213.347 104.398 214.343 104.984C212.703 117.834 212.703 117.834 211.063 130.683C212.987 121.656 214.911 112.629 216.894 103.328C217.241 103.402 217.588 103.476 217.945 103.552C216.914 115.936 215.218 128.143 212.85 140.345C212.633 141.582 212.417 142.818 212.193 144.092C210.471 152.509 210.471 152.509 207.769 155.148C204.441 157.027 202.245 157.386 198.46 156.939C197.572 156.636 196.684 156.333 195.77 156.022C196.612 155.475 197.454 154.929 198.321 154.365C197.642 154.487 196.963 154.609 196.263 154.735C190.116 155.818 183.966 156.767 177.779 157.6C172.869 158.302 167.983 159.152 163.095 160C159.686 160.421 156.549 160.387 153.128 160.131C149.301 141.992 149.301 141.992 150.255 137.52C151.439 137.56 152.624 137.6 153.844 137.641C155.422 137.688 157.001 137.735 158.579 137.782C159.357 137.809 160.135 137.836 160.936 137.863C165.549 137.995 169.915 137.752 174.505 137.19C176.402 137.17 178.3 137.182 180.197 137.234C183.174 137.312 185.876 137.28 188.845 136.947C190.672 130.076 192.499 123.206 194.382 116.128C197.851 116.868 201.321 117.607 204.895 118.369C205.043 117.675 205.191 116.98 205.344 116.265C201.527 115.451 197.711 114.638 193.779 113.8C194.445 110.675 195.111 107.55 195.798 104.331C197.879 104.774 199.961 105.218 202.105 105.675C202.327 104.634 202.55 103.592 202.778 102.519C199.545 102.374 199.545 102.374 196.246 102.226C195.948 101.074 195.948 101.074 195.643 99.8981C194.765 99.2344 193.886 98.5707 192.981 97.8869C189.703 95.1415 188.32 93.268 186.924 89.2401C187.168 85.8091 187.517 83.8218 189.742 81.1787C193.572 79.9825 196.673 81.2193 200.507 82.2361C199.79 83.8982 199.073 85.5602 198.335 87.2726C196.526 87.2501 194.717 87.2275 192.854 87.2042C192.706 87.8986 192.558 88.593 192.405 89.3085C193.757 89.3471 195.109 89.3857 196.502 89.4255C199.872 89.6939 200.746 89.7849 203.346 92.1218C203.751 92.7753 204.155 93.4287 204.572 94.1019C204.249 92.218 203.925 90.3341 203.591 88.3931C204.227 88.3287 204.863 88.2643 205.518 88.1979C206.345 88.0978 207.173 87.9977 208.025 87.8946C208.848 87.8021 209.671 87.7095 210.519 87.6142C213.033 87.2022 213.033 87.2022 214.399 84.0973C212.516 84.4219 210.633 84.7466 208.694 85.081C208.506 83.4077 208.506 83.4077 208.315 81.7006C207.274 81.4787 206.233 81.2568 205.161 81.0283C204.865 82.4171 204.569 83.8059 204.264 85.2367C203.57 85.0888 202.876 84.9409 202.161 84.7885C202.196 82.0736 202.196 82.0736 202.231 79.3038C200.497 78.9341 198.762 78.5643 196.975 78.1833C197.22 75.3318 197.465 72.4802 197.718 69.5422C200.209 70.6177 200.209 70.6177 202.75 71.7149C202.715 74.4298 202.715 74.4298 202.68 77.1996C203.374 77.3475 204.068 77.4954 204.783 77.6478C205.039 73.8912 205.039 73.8912 205.301 70.0588Z" fill="white"/>
<path d="M71.77 191.185C74.3723 193.781 74.3723 193.781 76.1295 196.514C75.7292 200.004 75.7292 200.004 74.7839 202.827C74.09 202.679 73.3962 202.531 72.6813 202.379C72.5563 201.263 72.4314 200.148 72.3027 198.999C71.6829 198.503 71.063 198.008 70.4244 197.498C70.6114 198.11 70.7985 198.721 70.9912 199.351C73.4797 208.042 73.4797 208.042 71.7141 212.072C68.1116 213.504 68.1116 213.504 65.9196 212.831C65.3292 212.41 64.7389 211.989 64.1306 211.556C64.0057 210.44 63.8808 209.325 63.7521 208.175C63.1322 207.68 62.5124 207.185 61.8737 206.675C61.7766 208.832 61.6795 210.989 61.5794 213.212C59.4238 213.115 57.2682 213.019 55.0472 212.919C55.3432 211.53 55.6393 210.142 55.9443 208.711C55.2504 208.563 54.5565 208.415 53.8416 208.263C53.5456 209.651 53.2496 211.04 52.9446 212.471C51.2099 212.101 49.4752 211.732 47.6879 211.351C46.08 203.092 45.7918 196.466 48.1923 188.36C56.4994 186.509 64.0547 187.526 71.77 191.185Z" fill="white"/>
<path d="M214.343 104.983C214.306 107.614 214.306 107.614 213.794 110.779C213.637 111.797 213.479 112.816 213.317 113.865C213.114 115.174 212.911 116.484 212.703 117.833C212.161 122.073 211.62 126.314 211.063 130.683C212.987 121.655 214.911 112.628 216.894 103.327C217.241 103.401 217.588 103.475 217.945 103.551C216.914 115.935 215.218 128.143 212.85 140.344C212.633 141.581 212.416 142.818 212.193 144.092C210.471 152.508 210.471 152.508 207.769 155.147C204.441 157.026 202.245 157.385 198.459 156.938C197.128 156.484 197.128 156.484 195.77 156.021C199.101 154.254 201.525 152.978 205.302 152.553C205.518 151.164 205.735 149.776 205.958 148.345C207.53 138.38 209.194 128.502 211.427 118.661C205.603 117.057 199.779 115.452 193.779 113.799C194.445 110.674 195.111 107.55 195.797 104.33C197.879 104.774 199.96 105.218 202.105 105.675C202.327 104.633 202.549 103.592 202.778 102.518C200.622 102.422 198.467 102.325 196.246 102.226C201.634 98.7282 210.042 100.57 214.343 104.983Z" fill="black"/>
<path d="M120.705 90.5234C127.916 92.4236 135.128 94.3238 142.558 96.2816C142.262 97.6704 141.966 99.0593 141.661 100.49C136.184 98.9597 130.707 97.4292 125.064 95.8524C126.798 102.827 126.798 102.827 131.232 108.166C134.04 109.018 136.732 109.489 139.643 109.959C137.854 113.84 137.854 113.84 136.419 114.772C132.699 114.365 130.654 113.941 127.902 111.341C123.758 105.503 121.188 100.783 120.032 93.6798C120.254 92.6382 120.476 91.5966 120.705 90.5234Z" fill="black"/>
<path d="M213.067 105.812C212.748 109.011 212.429 112.209 212.1 115.505C205.752 115.58 199.937 115.395 193.779 113.8C194.445 110.675 195.111 107.55 195.797 104.331C202.011 103.904 207.027 104.297 213.067 105.812Z" fill="white"/>
<path d="M123.522 51.5264C121.356 55.2099 119.81 55.2225 115.868 56.4945C115.373 57.115 114.878 57.7354 114.368 58.3747C113.675 58.2268 112.981 58.0789 112.266 57.9265C113.242 55.2047 114.041 53.2653 116.159 51.2631C118.963 50.1217 120.676 50.674 123.522 51.5264Z" fill="black"/>
<path d="M191.788 71.578C193.102 72.221 194.416 72.864 195.769 73.5265C195.746 75.3365 195.723 77.1464 195.699 79.0112C193.89 78.9887 192.082 78.9661 190.218 78.9428C190.736 76.5124 191.254 74.082 191.788 71.578Z" fill="white"/>
<path d="M130.727 48.6625C133.155 49.1802 135.584 49.6979 138.086 50.2312C138.211 51.3468 138.336 52.4623 138.465 53.6117C135.689 53.0201 132.914 52.4284 130.054 51.8189C130.276 50.7773 130.498 49.7357 130.727 48.6625Z" fill="black"/>
<path d="M122.255 63.2439C122.262 63.3074 122.269 63.3708 122.293 63.5523C122.316 63.7337 122.356 64.0312 122.396 64.2402C122.435 64.4491 122.474 64.5605 122.5 64.7351" stroke="black" stroke-width="6" stroke-linecap="round"/>
<path d="M134.893 60.3072C135.014 60.7047 135.136 61.1023 135.198 61.3585C135.26 61.6148 135.259 61.7178 135.305 61.8964" stroke="black" stroke-width="6" stroke-linecap="round"/>
</svg>
