<svg width="114" height="237" viewBox="0 0 114 237" fill="none" xmlns="http://www.w3.org/2000/svg">
<path d="M86.4232 0.928955C89.1494 0.769124 89.1494 0.769124 91.6575 0.928955C90.8208 1.61463 90.8208 1.61463 89.9673 2.31415C87.8319 4.71687 87.586 6.33217 87.2956 9.45324C89.0229 9.45324 90.7502 9.45324 92.5299 9.45324C92.5299 7.20283 92.5299 4.95242 92.5299 2.63381C93.1057 2.63381 93.6814 2.63381 94.2747 2.63381C94.2747 4.88422 94.2747 7.13464 94.2747 9.45324C95.7141 10.0158 97.1535 10.5784 98.6366 11.1581C99.0684 14.1118 99.0684 14.1118 99.5089 17.1251C100.948 16.8438 102.388 16.5625 103.871 16.2727C103.871 16.8353 103.871 17.3979 103.871 17.9775C102.791 18.5313 102.791 18.5313 101.69 19.0963C100.61 19.8084 100.61 19.8084 99.5089 20.5348C99.1444 22.7741 99.1444 22.7741 99.5089 24.797C98.9332 24.797 98.3574 24.797 97.7642 24.797C97.3323 23.1092 97.3323 23.1091 96.8918 21.3872C94.5887 21.1059 92.2856 20.8246 89.9127 20.5348C89.4809 19.269 89.4809 19.269 89.0404 17.9775C91.0556 17.4149 93.0708 16.8523 95.147 16.2727C95.4349 14.8662 95.7228 13.4597 96.0194 12.0105C94.4557 12.1076 92.8928 12.2164 91.3304 12.3302C90.46 12.3895 89.5895 12.4489 88.6928 12.51C86.2879 12.6615 86.2879 12.6615 84.6785 14.5678C84.2554 18.1505 84.4152 20.0663 86.2051 23.2519C88.0684 25.6414 88.0684 25.6414 90.1308 27.4608C91.6575 29.0591 91.6575 29.0591 91.6575 32.4688C95.9758 32.4688 100.294 32.4688 104.743 32.4688C105.031 31.3436 105.319 30.2184 105.616 29.0591C106.191 28.2328 106.767 27.4065 107.36 26.5551C109.005 24.095 109.632 22.5535 109.978 19.6824C108.538 19.6824 107.099 19.6824 105.616 19.6824C108.233 17.9775 108.233 17.9775 111.722 17.9775C111.722 15.4458 111.722 12.9141 111.722 10.3057C112.01 10.3057 112.298 10.3057 112.595 10.3057C112.689 12.6153 112.758 14.9211 112.813 17.2317C112.842 17.88 112.871 18.5283 112.901 19.1962C112.984 23.8577 112.011 26.0854 109.105 29.9115C108.27 32.7212 108.156 35.2582 108.233 38.1694C108.303 48.4627 107.56 58.5036 105.767 68.6453C104.921 73.5798 104.417 78.4744 104.041 83.4614C103.317 92.2367 102.241 100.949 101.08 109.677C100.903 111.011 100.727 112.346 100.55 113.68C99.8217 119.173 99.0876 124.664 98.3399 130.154C97.8759 133.564 97.4228 136.974 96.9763 140.386C96.8068 141.665 96.6333 142.944 96.4555 144.222C95.4131 151.723 94.9472 158.769 96.0194 166.3C96.1011 166.896 96.1827 167.492 96.2669 168.107C96.4939 169.626 96.76 171.14 97.0281 172.653C97.2182 173.743 97.4082 174.833 97.604 175.957C97.8008 177.06 97.9976 178.163 98.2004 179.3C98.9405 183.489 99.6707 187.679 100.381 191.873C100.49 192.514 100.599 193.155 100.712 193.816C102.067 202.852 101.056 211.713 99.6589 220.672C99.4929 221.776 99.3269 222.88 99.1559 224.018C98.7164 226.94 98.2679 229.861 97.8175 232.782C97.3729 235.675 96.9367 238.568 96.4999 241.462C95.309 249.338 94.1024 257.211 92.8939 265.084C92.4124 268.223 91.9326 271.363 91.453 274.502C91.3099 275.43 91.1668 276.359 91.0194 277.315C90.4147 281.277 89.849 285.227 89.4348 289.213C89.0404 292.46 89.0404 292.46 88.168 293.312C86.7144 293.347 85.2596 293.348 83.8061 293.312C83.8061 293.875 83.8061 294.437 83.8061 295.017C84.5685 295.127 84.5685 295.127 85.3464 295.24C95.0155 296.859 103.052 300.045 109.978 306.951C109.69 307.795 109.402 308.639 109.105 309.508C87.1836 309.67 87.1836 309.67 77.2087 309.135C76.556 309.102 75.9034 309.068 75.2309 309.034C70.8345 308.767 70.8345 308.767 69.848 307.803C69.8226 306.635 69.8599 305.466 69.9229 304.3C69.9794 303.184 69.9794 303.184 70.0371 302.047C70.0826 301.234 70.1282 300.422 70.1751 299.585C70.264 297.861 70.3526 296.137 70.4409 294.413C70.5113 293.078 70.5113 293.078 70.5832 291.716C70.7959 287.582 70.9753 283.448 71.1565 279.314C71.229 277.704 71.3017 276.095 71.3746 274.485C71.485 272.05 71.5946 269.616 71.7018 267.181C71.8086 264.761 71.9185 262.341 72.0289 259.921C72.0598 259.203 72.0908 258.486 72.1226 257.746C72.3219 253.458 72.6818 249.21 73.1411 244.942C73.3808 242.595 73.5165 240.254 73.6135 237.897C73.6501 237.04 73.6866 236.183 73.7243 235.3C73.7586 234.437 73.7929 233.573 73.8282 232.683C73.8847 231.338 73.8847 231.338 73.9424 229.966C74.0338 227.782 74.1229 225.597 74.2099 223.413C73.6341 223.413 73.0583 223.413 72.4651 223.413C72.2627 224.416 72.0603 225.419 71.8517 226.453C70.506 232.36 68.5034 238.074 66.5765 243.818C66.1814 245.005 65.7865 246.192 65.3919 247.379C63.1049 254.248 60.7819 261.105 58.4299 267.953C55.2682 277.18 52.4842 286.506 49.7832 295.869C49.2074 295.869 48.6317 295.869 48.0384 295.869C48.1801 296.341 48.3218 296.812 48.4678 297.298C48.9569 299.485 49.0266 301.464 49.0199 303.701C49.0232 304.827 49.0232 304.827 49.0267 305.975C48.9108 307.803 48.9108 307.803 48.0384 308.656C45.2056 309.109 42.3362 309.309 39.4782 309.561C38.6256 309.638 37.7731 309.714 36.8947 309.792C28.387 310.495 19.9288 310.523 11.3984 310.361C12.4345 305.702 15.3258 303.66 19.2499 300.984C25.4 297.727 30.587 296.153 37.5699 296.722C37.5699 296.159 37.5699 295.597 37.5699 295.017C35.5547 295.017 33.5395 295.017 31.4632 295.017C31.8767 286.997 33.5119 279.253 35.1356 271.404C35.9369 267.529 36.7219 263.65 37.5051 259.771C37.7391 258.613 37.7391 258.613 37.9777 257.432C39.9368 247.677 41.6382 237.881 43.2878 228.072C43.6327 226.207 44.0515 224.391 44.5489 222.56C43.6852 222.525 42.8216 222.49 41.9318 222.454C37.7021 221.872 34.3865 219.568 31.4632 216.593C31.362 216.01 31.2608 215.426 31.1565 214.825C30.8765 214.013 30.8765 214.013 30.5908 213.184C28.862 212.571 27.1135 212.01 25.3565 211.479C16.4117 205.678 6.22978 197.928 0.057463 189.316C-0.586793 182.139 4.30495 177.496 8.78128 172.267C9.19539 171.78 9.60951 171.294 10.0362 170.792C15.2069 164.745 20.5586 158.866 26.0108 153.061C28.2991 150.607 30.5283 148.11 32.7343 145.585C34.0803 144.137 34.0803 144.137 36.6975 141.953C38.7273 139.973 38.7273 139.973 38.4968 137.158C37.3347 133.083 35.754 129.278 34.0803 125.384C33.1885 123.117 32.3263 120.841 31.4632 118.564C30.8312 118.604 30.1992 118.643 29.548 118.684C24.1975 118.879 20.7571 118.882 16.6327 115.154C13.8926 111.608 13.813 109.195 14.0701 104.819C14.2595 98.7558 13.0583 94.2269 10.526 88.7291C9.76064 86.9185 8.99733 85.1071 8.23604 83.2949C7.70637 82.0719 7.70637 82.0719 7.16601 80.8242C6.83539 80.0572 6.50477 79.2902 6.16413 78.5C5.66989 77.366 5.66989 77.366 5.16566 76.2091C4.19485 73.6448 4.14324 72.4842 5.29175 69.9757C8.34638 68.3727 10.533 67.4184 14.0156 67.4184C13.4218 66.5042 12.828 65.5899 12.2163 64.648C10.526 61.7328 10.526 61.7328 10.526 59.5334C12.5154 56.1316 16.165 54.8323 19.7372 53.4232C20.6956 53.0428 21.6541 52.6624 22.6416 52.2705C24.1744 51.6725 24.1744 51.6725 25.7382 51.0624C27.3089 50.4455 27.3089 50.4455 28.9114 49.816C32.0858 48.5735 35.2638 47.3401 38.4422 46.1077C39.3708 45.744 40.2994 45.3803 41.2562 45.0055C43.7492 44.0308 46.2469 43.0687 48.7472 42.1119C49.4849 41.8233 50.2225 41.5346 50.9825 41.2372C54.7999 39.7994 57.8308 38.9408 61.9965 39.2882C62.3483 44.5582 61.0935 48.8087 59.3794 53.7795C59.0623 54.7102 58.7451 55.641 58.4184 56.5999C58.1598 57.357 57.9011 58.1141 57.6346 58.8941C58.2363 59.5336 58.8379 60.1732 59.4578 60.8321C67.0684 68.9288 74.5959 77.0946 82.0613 85.3194C83.8364 73.9352 84.969 62.5158 85.9787 51.0468C86.2751 47.686 86.6082 44.3312 86.9685 40.9765C87.958 32.9059 87.958 32.9059 84.7875 25.6494C83.8821 24.7935 82.974 23.9405 82.0613 23.0921C81.3014 20.8645 81.0242 19.4206 80.9708 17.1251C80.9483 16.5449 80.9258 15.9647 80.9027 15.367C81.1889 13.7154 81.1889 13.7154 82.4805 12.4634C84.2163 10.7541 84.1715 9.69129 84.2968 7.32217C84.4649 4.33497 84.6374 3.54634 86.4232 0.928955Z" fill="black"/>
<path d="M82.0609 135.613C81.773 138.426 81.4851 141.239 81.1885 144.137C77.6989 142.432 77.6989 142.432 76.2268 140.567C74.0081 138.868 73.2013 138.625 70.4473 138.543C68.3168 138.724 68.3168 138.724 66.358 139.875C63.79 143.364 61.9932 147.021 60.2513 150.956C59.6755 150.956 59.0998 150.956 58.5066 150.956C58.5066 151.8 58.5066 152.644 58.5066 153.514C61.3841 152.898 61.3841 152.898 62.5958 150.051C62.9737 149.224 63.3515 148.398 63.7408 147.547C66.358 148.399 66.358 148.399 68.1027 150.956C68.2811 152.625 68.2811 152.625 68.2286 154.541C68.215 155.261 68.2013 155.982 68.1873 156.724C68.1673 157.502 68.1472 158.28 68.1266 159.081C68.1145 160.739 68.105 162.397 68.0976 164.056C68.0799 166.662 68.0487 169.266 67.9743 171.872C67.3171 183.314 67.3171 183.314 72.3875 193.125C75.8495 196.551 75.8495 196.551 80.3161 197.84C81.4139 196.336 82.4393 194.781 83.4239 193.205C86.3765 188.508 86.3765 188.508 87.2951 187.611C87.0725 182.064 85.254 177.389 83.2842 172.217C81.7069 167.993 80.4482 163.683 79.1822 159.363C78.4077 156.721 77.6086 154.121 76.6528 151.536C75.7915 148.72 76.3184 147.537 77.6989 144.989C79.1384 145.833 80.5778 146.677 82.0609 147.547C82.2228 146.333 82.2228 146.333 82.388 145.096C82.9332 142.432 82.9332 142.432 84.678 140.727C85.3422 142.054 85.9937 143.388 86.6409 144.723C87.0052 145.465 87.3696 146.206 87.745 146.97C91.4034 155.823 93.3679 164.778 94.874 174.185C95.1514 175.843 95.1514 175.843 95.4345 177.535C96.7946 185.769 97.8994 193.752 97.7637 202.102C96.7235 202.154 95.6833 202.205 94.6116 202.258C93.245 202.33 91.8785 202.403 90.512 202.475C89.8266 202.508 89.1412 202.542 88.435 202.576C87.7744 202.612 87.1137 202.648 86.433 202.685C85.8254 202.716 85.2178 202.747 84.5917 202.779C82.7399 202.917 82.7399 202.917 80.3161 203.807C76.727 204.197 73.1256 204.362 69.5204 204.553C68.5285 204.625 67.5367 204.698 66.5147 204.772C59.1576 205.144 59.1576 205.144 55.777 202.628C55.2383 201.892 54.6996 201.156 54.1446 200.397C51.5276 198.651 49.3575 197.671 46.2932 196.987C46.1875 195.979 46.0818 194.97 45.9729 193.931C45.2811 187.504 44.5527 181.187 43.1342 174.868C42.5312 171.678 42.1599 168.411 43.6761 165.448C40.091 167.252 37.622 169.564 34.8568 172.36C33.1928 173.986 31.4584 175.469 29.6634 176.955C26.4045 179.693 23.7101 182.655 20.9942 185.906C22.2896 186.328 22.2896 186.328 23.6113 186.758C24.988 188.153 24.988 188.153 26.4465 189.902C29.3204 193.225 32.3783 195.943 35.8246 198.692C34.5948 201.282 33.1301 203.461 31.3537 205.725C30.8836 206.327 30.4136 206.929 29.9292 207.55C29.3928 208.229 29.3928 208.229 28.8456 208.921C20.8869 207.643 13.6257 198.719 7.90843 193.578C7.408 193.165 6.90758 192.751 6.39199 192.326C4.31765 190.544 3.58223 189.624 3.26709 186.901C3.59574 183.725 4.4036 182.453 6.38176 179.939C7.02051 179.127 7.65926 178.315 8.31736 177.478C11.9759 173.037 15.7902 168.726 19.6255 164.431C20.9789 162.907 22.3194 161.374 23.6556 159.837C24.0961 159.331 24.5367 158.824 24.9906 158.303C25.8045 157.367 26.6174 156.43 27.4288 155.492C28.248 154.554 29.0835 153.629 29.931 152.714C31.5786 150.881 31.5786 150.881 33.2671 148.426C37.9041 142.283 42.0983 139.8 49.8577 138.609C53.1345 138.173 56.415 137.845 59.7061 137.531C61.3911 137.335 63.0757 137.135 64.7598 136.931C70.5453 136.251 76.2287 135.613 82.0609 135.613Z" fill="white"/>
<path d="M55.89 60.5991C57.4337 62.2008 57.4337 62.2008 59.2159 64.4883C62.6131 68.6934 66.1926 72.6347 69.9571 76.5289C74.0849 80.805 78.1645 85.1011 82.0614 89.5817C79.5738 91.2021 77.4403 92.1072 74.6462 93.098C73.8095 93.399 72.9728 93.7001 72.1108 94.0103C69.8481 94.6963 69.8481 94.6963 67.2309 94.6963C67.2309 95.5402 67.2309 96.3841 67.2309 97.2536C68.0946 97.2536 68.9582 97.2536 69.8481 97.2536C70.9615 100.733 72.0683 104.214 73.174 107.696C73.485 108.667 73.7959 109.639 74.1163 110.639C79.4443 127.452 79.4443 127.452 79.4443 133.056C71.5834 134.587 63.7136 135.927 55.7809 137.051C55.0065 137.163 54.232 137.275 53.4341 137.39C52.6949 137.493 51.9557 137.595 51.1941 137.701C50.5428 137.791 49.8916 137.882 49.2206 137.976C46.7826 138.206 44.3797 138.201 41.9319 138.17C40.6383 134.833 39.3491 131.493 38.0607 128.154C37.6935 127.207 37.3263 126.26 36.948 125.284C36.5966 124.372 36.2452 123.46 35.8831 122.52C35.5588 121.681 35.2344 120.842 34.9002 119.977C34.2175 118.09 33.6572 116.252 33.2081 114.302C32.4777 114.502 32.4777 114.502 31.7325 114.705C27.7703 115.589 23.0877 116.383 19.4578 114.252C17.2084 111.928 16.3386 109.63 16.1421 106.524C16.6328 103.221 16.6328 103.221 17.9959 101.089C20.9631 99.3053 22.8012 99.3407 26.229 99.8108C28.5735 101.516 28.5735 101.516 30.5909 103.221C31.7424 103.221 32.894 103.221 34.0804 103.221C32.6137 95.0991 30.3028 87.5024 27.4726 79.7465C25.8845 75.3095 24.8961 71.254 24.4842 66.5661C25.2444 66.5343 26.0046 66.5024 26.7879 66.4696C36.5976 65.9405 46.715 60.5991 55.89 60.5991Z" fill="white"/>
<path d="M89.9124 35.0261C95.0944 35.0261 100.276 35.0261 105.615 35.0261C105.615 43.6572 105.615 43.6572 105.243 46.9385C105.161 47.6762 105.079 48.4139 104.995 49.1739C104.905 49.9466 104.815 50.7192 104.722 51.5153C104.63 52.3404 104.537 53.1655 104.442 54.0157C104.146 56.6368 103.845 59.2572 103.543 61.8776C103.348 63.6091 103.152 65.3406 102.957 67.0721C102.115 74.5243 101.252 81.9737 100.344 89.4184C99.501 96.3294 98.764 103.25 98.0352 110.173C96.9525 120.418 95.8538 130.661 94.6015 140.887C94.5048 141.716 94.4082 142.544 94.3086 143.398C94.1668 144.52 94.1668 144.52 94.0222 145.665C93.9439 146.303 93.8656 146.94 93.7849 147.597C93.402 149.252 93.402 149.252 91.6572 151.809C91.4559 151.283 91.2546 150.756 91.0472 150.214C89.2628 145.686 87.2339 141.495 84.7667 137.288C77.217 124.129 81.6646 106.032 84.6781 92.1388C85.11 91.2949 85.11 91.2949 85.5505 90.434C85.7155 88.2752 85.8357 86.1295 85.9288 83.9675C86.4276 73.9895 87.3335 64.05 88.2222 54.0992C88.3866 52.239 88.5507 50.3787 88.7146 48.5185C89.1114 44.0208 89.5111 39.5234 89.9124 35.0261Z" fill="white"/>
<path d="M87.2955 0.0764222C100.19 -0.0808597 100.19 -0.0808596 105.616 0.928851C105.903 1.77276 106.191 2.61666 106.488 3.48614C107.487 3.40702 107.487 3.40702 108.505 3.32631C110.85 3.48614 110.85 3.48614 112.295 4.39184C114.093 6.92496 113.716 9.13772 113.631 12.1703C113.595 13.7971 113.595 13.7971 113.559 15.4568C113.529 16.2886 113.498 17.1204 113.467 17.9774C110.876 18.3994 110.876 18.3994 108.233 18.8299C108.808 19.1112 109.384 19.3925 109.977 19.6823C109.611 24.2511 108.716 26.5031 105.616 29.9114C105.328 30.7553 105.04 31.5992 104.743 32.4687C100.425 32.4687 96.1066 32.4687 91.6574 32.4687C91.0816 31.0622 90.5059 29.6557 89.9127 28.2066C88.6612 26.5341 88.6612 26.5341 87.241 25.0632C84.8094 22.4432 83.8602 21.2634 83.5879 17.6045C83.806 14.5677 83.806 14.5677 84.8181 13.1093C87.0624 11.5728 88.6757 11.7572 91.3848 11.8506C92.2518 11.8737 93.1189 11.8967 94.0122 11.9205C95.0057 11.965 95.0057 11.965 96.0193 12.0104C96.1284 14.0349 96.1284 14.0349 96.0193 16.2726C94.2746 17.9774 94.2746 17.9774 91.5484 18.084C90.3069 18.0312 90.3069 18.0312 89.0403 17.9774C89.3282 18.54 89.616 19.1026 89.9127 19.6823C91.5661 20.0789 91.5661 20.0789 93.4567 20.2151C94.5903 20.3205 95.7238 20.426 96.8917 20.5347C97.1796 21.9412 97.4675 23.3477 97.7641 24.7969C98.3399 24.7969 98.9156 24.7969 99.5089 24.7969C99.221 22.5464 98.9331 20.296 98.6365 17.9774C100.364 17.9774 102.091 17.9774 103.871 17.9774C102.431 17.6961 100.992 17.4148 99.5089 17.125C99.221 15.1559 98.9331 13.1868 98.6365 11.158C96.4773 10.3141 96.4773 10.3141 94.2746 9.45314C94.2746 7.20273 94.2746 4.95231 94.2746 2.63371C93.6988 2.63371 93.123 2.63371 92.5298 2.63371C92.5298 4.88412 92.5298 7.13453 92.5298 9.45314C90.8025 9.45314 89.0752 9.45314 87.2955 9.45314C87.0774 4.65823 87.0774 4.65823 89.0403 1.78128C88.4645 1.21868 87.8887 0.656074 87.2955 0.0764222Z" fill="black"/>
<path d="M49.7829 199.545C52.9739 201.284 54.7288 202.532 56.7619 205.512C56.4348 207.803 56.4348 207.803 55.8896 209.774C54.1448 208.602 54.1448 208.602 52.4 207.217C52.4 206.654 52.4 206.092 52.4 205.512C51.5364 205.512 50.6727 205.512 49.7829 205.512C49.7829 206.074 49.7829 206.637 49.7829 207.217C50.3227 207.463 50.8625 207.709 51.4186 207.963C53.2724 208.922 53.2724 208.922 55.0172 210.626C55.0172 211.47 55.0172 212.314 55.0172 213.184C54.1535 213.465 53.2899 213.746 52.4 214.036C50.0555 212.385 50.0555 212.385 48.0381 210.626C48.9018 211.602 48.9018 211.602 49.7829 212.598C51.5277 214.889 51.5277 214.889 51.5277 217.446C48.5837 216.979 47.0939 216.547 44.5486 214.889C44.5486 215.451 44.5486 216.014 44.5486 216.593C45.7002 217.156 46.8517 217.719 48.0381 218.298C47.4624 219.142 46.8866 219.986 46.2934 220.856C41.4809 220.503 37.7129 218.799 34.08 215.741C33.2077 213.344 33.2077 213.344 33.2077 211.479C32.6319 211.479 32.0561 211.479 31.4629 211.479C31.8472 207.348 33.8576 204.249 36.6972 201.25C37.273 201.25 37.8487 201.25 38.4419 201.25C38.4419 201.812 38.4419 202.375 38.4419 202.955C39.3056 202.955 40.1693 202.955 41.0591 202.955C41.347 202.111 41.6349 201.267 41.9315 200.397C44.8551 199.445 46.7148 199.251 49.7829 199.545Z" fill="white"/>
<path d="M91.3848 11.8506C92.2518 11.8737 93.1189 11.8968 94.0122 11.9206C95.0057 11.9651 95.0057 11.9651 96.0193 12.0105C96.1284 14.035 96.1284 14.035 96.0193 16.2726C94.2746 17.9775 94.2746 17.9775 91.5484 18.084C90.7207 18.0489 89.893 18.0137 89.0403 17.9775C89.3282 18.5401 89.616 19.1027 89.9127 19.6823C91.5661 20.0789 91.5661 20.0789 93.4567 20.2151C94.5903 20.3206 95.7238 20.4261 96.8917 20.5348C97.1796 21.9413 97.4675 23.3478 97.7641 24.7969C98.3399 24.7969 98.9156 24.7969 99.5089 24.7969C99.221 23.1091 98.9331 21.4213 98.6365 19.6823C102.379 19.6823 106.122 19.6823 109.977 19.6823C109.611 24.2512 108.716 26.5031 105.616 29.9115C105.328 30.7554 105.04 31.5993 104.743 32.4688C100.425 32.4688 96.1066 32.4688 91.6574 32.4688C91.0816 31.0622 90.5059 29.6557 89.9127 28.2066C88.6612 26.5341 88.6612 26.5341 87.241 25.0633C84.8094 22.4433 83.8602 21.2634 83.5879 17.6045C83.806 14.5678 83.806 14.5678 84.8181 13.1093C87.0624 11.5728 88.6757 11.7572 91.3848 11.8506Z" fill="white"/>
<path d="M40.1869 171.415C40.6076 173.279 41.025 175.144 41.441 177.009C41.6738 178.047 41.9065 179.086 42.1464 180.156C43.0982 184.777 43.7971 189.232 43.731 193.951C43.7231 194.688 43.7152 195.426 43.7071 196.185C43.697 196.731 43.6869 197.277 43.6765 197.84C42.237 198.403 40.7976 198.965 39.3145 199.545C34.7084 195.044 30.1022 190.543 25.3564 185.906C26.7716 183.141 27.5763 181.815 29.6911 179.739C30.4384 179.006 30.4384 179.006 31.2007 178.258C31.7191 177.758 32.2376 177.258 32.7717 176.742C33.2901 176.229 33.8085 175.716 34.3427 175.187C34.8408 174.703 35.339 174.218 35.8523 173.719C36.3072 173.276 36.762 172.834 37.2307 172.378C38.4422 171.415 38.4422 171.415 40.1869 171.415Z" fill="white"/>
<path d="M51.5278 104.925C53.9815 104.902 56.4349 104.885 58.8885 104.872C59.5886 104.865 60.2886 104.858 61.0099 104.85C62.7929 104.843 64.5759 104.881 66.3583 104.925C67.2307 105.778 67.2307 105.778 67.3466 108.255C67.3443 109.266 67.3421 110.277 67.3397 111.318C67.3431 112.835 67.3431 112.835 67.3466 114.382C67.2307 116.859 67.2307 116.859 66.3583 117.712C63.6866 118.244 63.6866 118.244 60.2516 117.712C55.7983 114.111 53.1142 110.355 51.5278 104.925Z" fill="white"/>
<path d="M47.166 101.515C47.861 101.646 48.556 101.777 49.272 101.912C53.041 102.461 56.7756 102.667 60.5789 102.847C61.6669 102.903 61.6669 102.903 62.7769 102.959C64.5522 103.049 66.3277 103.135 68.1032 103.22C68.9965 106.414 69.1213 109.332 69.1391 112.65C69.1515 113.697 69.1639 114.745 69.1766 115.824C68.9755 118.564 68.9755 118.564 67.2308 121.121C63.2873 121.815 60.8242 121.244 57.5801 119.097C53.5621 115.903 51.3409 111.876 48.9108 107.482C48.335 106.638 47.7592 105.795 47.166 104.925C47.166 103.8 47.166 102.675 47.166 101.515ZM51.5279 104.925C53.1143 110.354 55.7984 114.111 60.2517 117.712C63.5676 118.427 63.5676 118.427 66.3584 117.712C67.5205 116.768 67.5205 116.768 67.3466 114.382C67.3444 113.371 67.3422 112.36 67.3398 111.318C67.3421 110.307 67.3443 109.296 67.3466 108.255C67.5205 105.869 67.5205 105.869 66.3584 104.925C63.8611 104.863 61.3852 104.846 58.8886 104.872C58.1852 104.876 57.4818 104.88 56.7571 104.883C55.014 104.894 53.271 104.909 51.5279 104.925Z" fill="black"/>
<path d="M82.061 92.9912C81.5937 98.0983 81.0154 103.193 80.3708 108.282C80.237 109.362 80.1032 110.442 79.9653 111.555C79.4439 114.302 79.4439 114.302 77.6991 116.859C76.8211 113.931 75.9508 111 75.082 108.069C74.7075 106.82 74.7075 106.82 74.3255 105.546C74.0893 104.747 73.8532 103.947 73.6098 103.124C73.3906 102.387 73.1713 101.651 72.9453 100.892C72.4648 98.9582 72.4648 98.9582 72.4648 96.4009C73.5701 95.8263 74.6796 95.2595 75.7908 94.6961C76.4082 94.3796 77.0256 94.0631 77.6616 93.7371C79.4439 92.9912 79.4439 92.9912 82.061 92.9912Z" fill="white"/>
<path d="M101.254 3.48633C102.405 3.48633 103.557 3.48633 104.743 3.48633C104.79 5.11988 104.824 6.75381 104.852 8.38779C104.872 9.29763 104.893 10.2075 104.913 11.1449C104.747 13.6513 104.33 15.0142 102.998 17.1252C101.847 17.1252 100.695 17.1252 99.5088 17.1252C99.6311 15.0115 99.7591 12.8984 99.8905 10.7852C99.9248 10.1825 99.9591 9.57983 99.9944 8.95885C100.282 4.43532 100.282 4.43532 101.254 3.48633Z" fill="white"/>
<path d="M107.36 6.04346C108.512 6.32476 109.663 6.60606 110.85 6.89589C110.873 8.58292 110.89 10.27 110.904 11.9572C110.914 12.8967 110.924 13.8362 110.935 14.8042C110.85 17.125 110.85 17.125 109.977 17.9775C108.538 17.9775 107.098 17.9775 105.615 17.9775C106.191 14.0392 106.767 10.101 107.36 6.04346Z" fill="white"/>
<path d="M44.5489 79.3523C48.6542 79.954 48.6542 79.954 49.7832 81.0572C49.9468 83.1349 49.9468 83.1349 49.7832 85.3193C49.2074 85.8819 48.6316 86.4445 48.0384 87.0242C44.9539 86.5675 44.9539 86.5675 43.6765 85.3193C43.5675 82.762 43.5675 82.762 43.6765 80.2047C43.9644 79.9234 44.2523 79.6421 44.5489 79.3523Z" fill="black"/>
<path d="M55.8895 75.0903C58.4187 75.4889 59.2628 75.8292 61.1238 77.6476C61.2328 79.8852 61.2328 79.8852 61.1238 81.9098C59.0519 82.4425 59.0519 82.4425 56.7618 82.7622C55.0171 81.0573 55.0171 81.0573 54.8535 78.4468C55.0171 75.9428 55.0171 75.9428 55.8895 75.0903Z" fill="black"/>
<path d="M94.2744 2.63379C95.7138 2.63379 97.1533 2.63379 98.6363 2.63379C98.6363 5.4468 98.6363 8.25982 98.6363 11.1581C96.4772 10.3142 96.4772 10.3142 94.2744 9.45322C94.2744 7.20281 94.2744 4.9524 94.2744 2.63379Z" fill="white"/>
<path d="M88.1676 2.63379C89.3192 2.63379 90.4707 2.63379 91.6572 2.63379C91.6572 4.8842 91.6572 7.13461 91.6572 9.45322C90.2177 9.45322 88.7783 9.45322 87.2953 9.45322C87.1862 4.55175 87.1862 4.55175 88.1676 2.63379Z" fill="white"/>
<path d="M44.5487 70.828C43.3339 73.7956 42.2528 74.6459 39.3144 75.9426C39.0265 76.5052 38.7386 77.0678 38.442 77.6474C37.8663 77.6474 37.2905 77.6474 36.6973 77.6474C37.0113 75.3769 37.3181 73.7417 38.6601 71.8403C40.6929 70.4924 42.1453 70.6376 44.5487 70.828Z" fill="black"/>
<path d="M49.7832 67.4182C52.3742 67.4182 54.9651 67.4182 57.6346 67.4182C57.6346 68.2621 57.6346 69.106 57.6346 69.9755C55.3315 69.9755 53.0285 69.9755 50.6556 69.9755C50.3677 69.1316 50.0798 68.2877 49.7832 67.4182Z" fill="black"/>
<path d="M48.0386 210.626C48.5604 210.89 49.0822 211.154 49.6198 211.425C51.6062 212.418 51.6062 212.418 54.1452 213.184C54.1452 213.746 54.1452 214.309 54.1452 214.888C53.5695 214.888 52.9937 214.888 52.4005 214.888C52.1126 215.451 51.8247 216.014 51.5281 216.593C48.0386 212.544 48.0386 212.544 48.0386 210.626Z" fill="black"/>
<path d="M59.4592 152.003C59.3772 152.003 59.2953 152.003 58.6627 151.827C58.0302 151.651 56.8497 151.299 55.2905 150.669C53.7313 150.039 51.8293 149.143 50.7839 148.641C49.6003 148.073 49.1442 147.848 48.385 147.47C47.3635 146.961 46.5113 146.072 45.8661 145.418C45.1752 144.717 44.3563 144.501 43.9335 144.129C43.6582 143.887 43.1986 143.404 42.7326 143.069C42.5835 142.948 42.352 142.818 41.8822 142.569C41.5763 142.384 41.1336 142.08 40.5781 141.67" stroke="black" stroke-width="2" stroke-linecap="round"/>
</svg>
