<svg width="159" height="122" viewBox="0 0 159 122" fill="none" xmlns="http://www.w3.org/2000/svg">
<rect width="159" height="122" fill="#1E1E1E"/>
<rect id="Rectangle 34" x="-4220" y="-758" width="6835" height="1503" stroke="white" stroke-width="4"/>
<g id="No pain - No gain">
<rect width="1440" height="1024" transform="translate(-772 -484)" fill="#F9EFE5"/>
<g id="Rectangle 4">
<rect x="-174" y="-336" width="786" height="820" rx="12" fill="white"/>
<rect x="-173.5" y="-335.5" width="785" height="819" rx="11.5" stroke="black" stroke-opacity="0.5"/>
</g>
<rect id="Rectangle 49" x="-29" y="-42" width="205" height="205" rx="10" fill="white" stroke="#99BBE0" stroke-width="4"/>
<g id="Group 74">
<path id="Vector" d="M127.055 13.813C128.906 14.3734 130.591 15.1491 132.323 15.9937C132.768 16.2091 132.768 16.2091 133.222 16.429C133.849 16.7335 134.477 17.0388 135.104 17.3447C136.042 17.8021 136.982 18.2562 137.923 18.71C141.739 20.5616 145.464 22.5278 149.135 24.6528C149.135 24.8913 149.135 25.1298 149.135 25.3755C144.568 26.938 139.803 28.35 135.069 26.4835C133.547 25.7264 132.103 24.8499 130.674 23.9302C130.377 24.1836 130.079 24.4369 129.772 24.698C127.914 26.2757 126.057 27.8484 124.136 29.3501C122.356 30.7575 120.698 32.2808 119.033 33.8201C118.146 34.6403 117.256 35.4561 116.354 36.2605C116.137 36.4552 115.92 36.6499 115.696 36.8505C115.109 37.2993 115.109 37.2993 114.023 37.6606C114.023 37.8991 114.023 38.1376 114.023 38.3833C114.26 38.4201 114.497 38.4569 114.74 38.4948C116.162 38.8198 117.483 39.3287 118.842 39.8512C119.11 39.953 119.378 40.0547 119.655 40.1596C120.312 40.4093 120.969 40.6608 121.625 40.9126C121.432 42.0328 121.234 42.7714 120.675 43.7806C120.079 45.1055 120.091 45.6847 120.539 47.0552C121.052 47.9886 121.052 47.9886 121.987 48.5005C124.305 48.5789 125.597 47.8042 127.424 46.4327C128.141 45.9712 128.141 45.9712 129.227 45.9712C129.099 46.985 128.948 47.3456 128.155 48.0192C127.866 48.2004 127.578 48.3816 127.281 48.5682C126.994 48.7522 126.708 48.9362 126.413 49.1258C124.97 49.9467 123.825 49.9947 122.191 49.991C121.78 49.9919 121.37 49.9928 120.948 49.9938C120.004 49.9538 119.268 49.8294 118.367 49.5845C117.891 50.7582 117.416 51.9327 116.942 53.1074C116.807 53.44 116.672 53.7725 116.533 54.1152C116.403 54.4366 116.274 54.758 116.14 55.0891C116.021 55.3843 115.901 55.6795 115.778 55.9836C115.499 56.7369 115.287 57.4736 115.109 58.2563C121.107 60.7671 126 60.9374 132.151 58.7058C133.102 58.091 133.235 57.5253 133.583 56.4596C133.704 56.1049 133.825 55.7502 133.95 55.3848C134.071 55.0133 134.192 54.6419 134.317 54.2592C134.559 53.5235 134.804 52.789 135.054 52.0559C135.16 51.7294 135.266 51.4028 135.376 51.0664C135.497 50.8158 135.618 50.5653 135.742 50.3071C136.872 49.9313 137.574 49.9422 138.751 49.991C140.441 50.0066 141.557 49.8468 142.982 48.8618C143.761 47.6946 143.813 47.304 143.819 45.9486C143.825 45.6314 143.831 45.3142 143.837 44.9874C143.794 44.7159 143.75 44.4443 143.706 44.1646C142.361 43.2696 141.282 43.2846 139.724 43.4419C138.681 43.7606 138.681 43.7606 137.914 44.1646C137.292 42.6872 137.881 41.4932 138.416 40.0841C138.51 39.8292 138.603 39.5743 138.699 39.3116C138.898 38.7719 139.099 38.2328 139.301 37.6944C139.607 36.8807 139.907 36.0652 140.207 35.2492C140.675 33.9775 141.158 32.7118 141.648 31.4481C141.866 30.875 142.068 30.2964 142.269 29.717C142.569 28.9121 142.838 28.2375 143.344 27.5435C144.584 26.9888 144.584 26.9888 145.991 26.7982C146.452 26.727 146.914 26.6557 147.389 26.5823C148.704 26.4656 149.988 26.4339 151.307 26.4595C150.985 28.07 150.615 29.6397 150.12 31.2061C149.995 31.6058 149.995 31.6058 149.867 32.0136C149.699 32.5477 149.526 33.0806 149.349 33.6118C148.74 35.5516 148.507 37.176 149.493 39.0695C149.955 39.8209 150.445 40.5471 150.945 41.2739C151.284 41.7956 151.622 42.3183 151.958 42.842C152.218 43.2457 152.218 43.2457 152.484 43.6575C154.131 46.2245 155.735 48.8131 157.212 51.4814C157.354 51.7264 157.495 51.9714 157.641 52.2238C158.304 53.4554 158.545 54.2052 158.586 55.6325C158.051 57.2028 157.453 57.4813 155.99 58.2338C155.768 58.3507 155.546 58.4676 155.318 58.588C154.589 58.9686 153.853 59.335 153.117 59.7017C152.584 59.9763 152.051 60.2516 151.518 60.5274C147.486 62.5923 147.486 62.5923 146.602 62.5923C146.635 63.1065 146.635 63.1065 146.669 63.6311C146.586 72.0584 138.634 81.6911 133.932 88.2466C133.539 88.8003 133.146 89.3541 132.753 89.9078C127.87 96.7534 127.87 96.7534 125.969 98.7251C125.73 98.7251 125.491 98.7251 125.245 98.7251C125.088 98.5611 124.931 98.3972 124.77 98.2283C123.296 96.8113 121.395 96.7542 119.453 96.5571C119.86 95.4833 120.258 94.6297 120.901 93.6665C120.669 93.8668 120.437 94.0671 120.198 94.2734C118.442 95.742 117.062 96.8875 114.747 97.2798C114.391 97.3422 114.035 97.4046 113.669 97.4689C102.61 99.0201 94.1954 95.4922 85.0651 89.6919C85.0651 90.1688 85.0651 90.6458 85.0651 91.1372C84.4318 91.1568 83.7982 91.1708 83.1647 91.1824C82.812 91.1908 82.4592 91.1991 82.0957 91.2078C81.0833 91.1372 81.0833 91.1372 79.6354 90.4146C81.0689 90.4146 82.5023 90.4146 83.9792 90.4146C83.9792 88.8645 83.9792 87.3144 83.9792 85.7173C56.7439 85.7173 29.5085 85.7173 1.44792 85.7173C1.44792 87.2674 1.44792 88.8175 1.44792 90.4146C23.7857 90.4146 46.1234 90.4146 69.138 90.4146C67.8208 91.2911 66.8595 91.2364 65.338 91.2241C64.9197 91.225 64.9197 91.225 64.4931 91.226C63.556 91.2272 62.6189 91.2232 61.6818 91.2192C61.0112 91.219 60.3406 91.2192 59.67 91.2196C57.8467 91.2198 56.0235 91.2155 54.2003 91.2105C52.2959 91.206 50.3915 91.2055 48.4871 91.2047C44.8796 91.2024 41.2721 91.1965 37.6647 91.1893C33.5582 91.1812 29.4517 91.1772 25.3453 91.1736C16.8968 91.166 8.44842 91.1532 0 91.1372C0 88.9909 0 86.8446 0 84.6333C2.74742 84.6333 5.49484 84.6333 8.32552 84.6333C8.44497 84.2756 8.56443 83.9179 8.6875 83.5493C8.92641 83.6686 9.16531 83.7878 9.41146 83.9106C9.41146 84.1491 9.41146 84.3876 9.41146 84.6333C31.3908 84.6333 53.3702 84.6333 76.0156 84.6333C76.0156 84.3948 76.0156 84.1563 76.0156 83.9106C75.7193 83.8771 75.423 83.8436 75.1177 83.809C73.5766 83.4949 72.2618 82.9302 70.8348 82.2847C70.5714 82.1687 70.308 82.0527 70.0366 81.9332C68.1076 81.0754 68.1076 81.0754 67.6901 80.6587C67.035 80.6141 66.3783 80.5944 65.7218 80.5845C65.3014 80.5773 64.8811 80.5701 64.4481 80.5627C63.9907 80.5566 63.5334 80.5506 63.0621 80.5444C62.3639 80.5331 62.3639 80.5331 61.6516 80.5216C60.412 80.5016 59.1724 80.4838 57.9329 80.4664C56.6688 80.4483 55.4047 80.4281 54.1406 80.4082C51.6589 80.3693 49.1771 80.3326 46.6953 80.2974C46.6953 80.0589 46.6953 79.8204 46.6953 79.5747C46.434 79.6939 46.1727 79.8132 45.9035 79.936C44.8718 80.3022 44.1566 80.3264 43.0755 80.2974C42.4301 78.4352 41.7866 76.5723 41.1446 74.709C40.9267 74.0774 40.7084 73.446 40.4895 72.8148C36.7497 62.024 36.7497 62.024 37.2839 60.4243C41.7825 63.4698 43.9163 66.9167 45.6094 71.9868C46.8681 72.1082 48.1276 72.2182 49.3875 72.3256C49.7982 72.3617 50.2088 72.3979 50.6318 72.4351C53.3038 72.6465 55.9392 72.7227 58.6194 72.6855C66.0673 72.6101 71.6182 72.9565 78.2034 76.8071C80.0808 77.8592 82.0463 78.7292 84.0049 79.6186C84.6886 79.9294 85.3709 80.243 86.0529 80.5576C87.4108 81.1831 88.7711 81.8031 90.1328 82.4202C90.3715 82.5284 90.6102 82.6366 90.8562 82.7481C95.2605 84.7394 99.7191 86.5597 104.25 88.2466C103.796 87.7619 103.796 87.7619 102.666 87.1852C100.552 85.8884 98.8045 84.1607 97.0104 82.4653C97.5652 80.4616 98.5328 78.846 99.6121 77.0906C99.7997 76.7822 99.9872 76.4739 100.18 76.1562C101.77 73.5522 103.382 70.9617 104.997 68.3735C105.229 68.0005 105.462 67.6275 105.702 67.2431C105.921 66.8933 106.141 66.5434 106.367 66.183C106.561 65.8732 106.755 65.5635 106.955 65.2444C107.508 64.3989 107.508 64.3989 108.145 63.6777C108.675 62.9772 108.675 62.9772 108.547 62.1213C108.153 60.9047 107.677 59.7358 107.164 58.5655C107.057 58.3171 106.951 58.0687 106.841 57.8127C106.499 57.0189 106.155 56.2261 105.811 55.4335C104.472 52.347 103.143 49.2562 101.913 46.125C101.819 45.8975 101.726 45.67 101.63 45.4357C100.968 43.7139 100.796 42.3654 100.992 40.5513C101.582 39.8527 101.582 39.8527 102.403 39.3897C102.702 39.2174 103 39.0451 103.308 38.8676C103.774 38.6279 103.774 38.6279 104.25 38.3833C104.676 38.1638 104.676 38.1638 105.11 37.9399C105.976 37.5162 106.851 37.1218 107.734 36.7347C108.049 36.593 108.365 36.4513 108.689 36.3053C110.546 35.487 112.362 34.8551 114.318 34.3184C117.379 33.3525 119.325 31.4442 121.617 29.2958C122.933 28.0945 124.317 26.9757 125.697 25.8497C125.961 25.6329 126.224 25.4162 126.495 25.1928C127.508 24.3622 128.497 23.5728 129.589 22.8462C129.068 21.4609 128.431 20.1667 127.743 18.8589C126.965 17.1671 127.024 15.6453 127.055 13.813Z" fill="black"/>
<path id="Vector_2" d="M114.023 35.4927C114.262 35.6119 114.501 35.7312 114.747 35.854C114.569 36.0021 114.39 36.1502 114.206 36.3028C113.858 36.5949 113.858 36.5949 113.503 36.8928C113.157 37.1821 113.157 37.1821 112.803 37.4772C112.174 37.9939 112.174 37.9939 111.852 38.7446C112.078 38.8145 112.305 38.8844 112.539 38.9563C112.835 39.0504 113.13 39.1445 113.435 39.2415C113.729 39.3337 114.023 39.4259 114.326 39.5209C115.109 39.8286 115.109 39.8286 115.833 40.5513C115.028 40.968 114.221 41.3815 113.413 41.7933C113.073 41.9697 113.073 41.9697 112.726 42.1497C111.476 42.7834 110.349 43.2531 108.956 43.4419C109.822 45.7576 110.823 48.0027 111.874 50.2394C111.997 50.5027 112.121 50.7661 112.247 51.0375C112.769 52.1393 113.296 53.192 113.933 54.2337C114.385 55.0044 114.385 55.0044 114.363 55.84C113.89 57.1924 113.25 58.4395 112.576 59.7017C112.889 59.5526 113.203 59.4036 113.526 59.25C114.747 58.979 114.747 58.979 115.765 59.5887C116.337 60.0024 116.337 60.0024 116.919 60.4243C118.969 61.5273 121.088 61.6182 123.367 61.6438C123.759 61.6513 123.759 61.6513 124.159 61.659C128.984 61.6185 133.546 59.5877 138.01 57.9519C139.092 57.5557 140.176 57.1637 141.26 56.7722C141.956 56.5186 142.653 56.2648 143.349 56.0107C143.669 55.8952 143.989 55.7796 144.319 55.6605C146.238 54.9538 148.045 54.1436 149.859 53.1978C149.728 52.9736 149.596 52.7494 149.461 52.5184C148.867 51.5042 148.277 50.4879 147.688 49.4716C147.48 49.1187 147.273 48.7659 147.06 48.4024C146.864 48.0635 146.668 47.7247 146.466 47.3756C146.284 47.0634 146.102 46.7511 145.914 46.4295C145.516 45.6099 145.516 45.6099 145.516 44.5259C146.282 43.8667 146.282 43.8667 147.28 43.1935C147.608 42.9685 147.935 42.7435 148.273 42.5118C149.135 41.9966 149.135 41.9966 149.859 41.9966C150.411 42.7685 150.411 42.7685 151.054 43.8456C151.289 44.2368 151.523 44.6281 151.765 45.0312C151.887 45.2379 152.009 45.4445 152.134 45.6575C152.498 46.2738 152.867 46.8875 153.235 47.5012C154.324 49.3279 155.392 51.1653 156.391 53.0425C156.538 53.3183 156.685 53.5941 156.836 53.8782C157.156 54.8093 157.153 55.1969 156.737 56.0884C156.086 56.6141 156.086 56.6141 155.218 57.1032C154.889 57.289 154.56 57.4748 154.221 57.6662C152.422 58.628 150.61 59.56 148.782 60.4658C148.075 60.8182 147.371 61.1769 146.667 61.5364C144.303 62.7337 141.96 63.823 139.46 64.7052C135.089 66.3113 132.056 67.6436 129.971 71.9824C129.296 73.5634 128.705 75.1735 128.148 76.799C127.323 79.2005 126.236 81.4554 125.109 83.73C124.929 84.1013 124.75 84.4726 124.564 84.8552C123.295 87.4718 121.971 90.0509 120.539 92.5825C119.125 92.1364 117.809 91.6267 116.482 90.9658C116.125 90.7885 115.767 90.6112 115.399 90.4285C114.829 90.1428 114.829 90.1428 114.247 89.8514C113.654 89.556 113.654 89.556 113.049 89.2547C112.216 88.839 111.383 88.4226 110.55 88.0055C109.276 87.3674 107.999 86.7324 106.723 86.0977C105.913 85.693 105.103 85.2882 104.292 84.8831C103.911 84.6934 103.529 84.5037 103.136 84.3082C102.781 84.1298 102.426 83.9513 102.06 83.7675C101.592 83.5336 101.592 83.5336 101.115 83.2951C100.288 82.8374 99.5612 82.3276 98.8203 81.7427C99.4015 80.1295 100.229 78.6929 101.105 77.2261C101.262 76.9629 101.418 76.6997 101.579 76.4286C102.9 74.2125 104.25 72.0133 105.607 69.8188C105.799 69.5084 105.991 69.198 106.189 68.8781C106.376 68.5775 106.563 68.2768 106.756 67.967C106.937 67.6741 107.119 67.3811 107.306 67.0792C107.691 66.4828 108.092 65.8967 108.507 65.3206C108.709 65.0388 108.911 64.757 109.12 64.4667C109.398 64.0943 109.398 64.0943 109.681 63.7144C110.167 62.6896 110.015 62.2198 109.68 61.147C109.402 60.4368 109.106 59.7338 108.796 59.0369C108.616 58.6266 108.435 58.2163 108.25 57.7936C108.057 57.3575 107.865 56.9215 107.666 56.4723C106.237 53.1973 104.854 49.9112 103.617 46.5583C103.435 46.0763 103.435 46.0763 103.25 45.5845C102.667 43.9721 102.292 42.6545 102.44 40.9126C105.412 39.3941 108.395 37.9113 111.444 36.5541C111.815 36.3857 111.815 36.3857 112.194 36.2138C112.794 35.9508 113.408 35.7186 114.023 35.4927Z" fill="white"/>
<path id="Vector_3" d="M1.44792 85.7173C28.6832 85.7173 55.9185 85.7173 83.9792 85.7173C83.9792 87.2674 83.9792 88.8175 83.9792 90.4146C83.0235 90.5338 82.0679 90.653 81.0833 90.7759C83.0543 90.9547 83.0543 90.9547 85.0651 91.1372C85.0651 91.2564 85.0651 91.3757 85.0651 91.4985C83.3928 91.4985 81.7204 91.4985 79.9974 91.4985C80.0044 92.3253 80.0114 93.152 80.0186 94.0038C80.0319 98.7887 79.8591 103.571 79.708 108.353C79.6655 109.699 79.6256 111.044 79.5863 112.389C79.5556 113.431 79.5232 114.473 79.4903 115.515C79.4749 116.012 79.4601 116.508 79.4458 117.005C79.4258 117.693 79.4035 118.38 79.381 119.067C79.3689 119.457 79.3569 119.848 79.3445 120.25C79.2734 121.127 79.2734 121.127 78.9115 121.489C77.9955 121.515 77.0896 121.522 76.174 121.511C75.788 121.509 75.788 121.509 75.3942 121.506C74.7567 121.502 74.1192 121.496 73.4818 121.489C73.3861 118.592 73.2916 115.696 73.1986 112.799C73.1553 111.453 73.1117 110.108 73.0671 108.762C73.0239 107.457 72.9818 106.152 72.9404 104.847C72.9171 104.12 72.8926 103.394 72.8682 102.667C72.7513 98.9386 72.7578 95.2349 72.7578 91.4985C52.9286 91.4985 33.0994 91.4985 12.6693 91.4985C12.6693 94.0025 12.6693 96.5065 12.6693 99.0864C12.6314 100.663 12.5879 102.235 12.5236 103.811C12.5008 104.407 12.5008 104.407 12.4775 105.016C12.4457 105.84 12.4131 106.664 12.3798 107.488C12.3294 108.742 12.2818 109.996 12.2345 111.249C12.2028 112.059 12.171 112.869 12.139 113.679C12.1181 114.232 12.1181 114.232 12.0967 114.796C12.0044 117.039 11.8274 119.257 11.5833 121.489C9.91099 121.489 8.23865 121.489 6.51562 121.489C5.65943 111.507 5.56694 101.511 5.42969 91.4985C3.63789 91.4985 1.84609 91.4985 0 91.4985C0 91.3793 0 91.2601 0 91.1372C3.93933 90.8201 7.84426 90.7256 11.7946 90.7349C12.4223 90.735 13.0499 90.7349 13.6776 90.7347C15.3415 90.7346 17.0053 90.7367 18.6692 90.7393C20.237 90.7414 21.8047 90.7414 23.3724 90.7417C27.9417 90.7436 32.511 90.7486 37.0802 90.7533C47.3009 90.7607 57.5217 90.7682 68.0521 90.7759C46.0727 90.6566 24.0933 90.5374 1.44792 90.4146C1.44792 88.8645 1.44792 87.3144 1.44792 85.7173Z" fill="black"/>
<path id="Vector_4" d="M54.7821 2.40291C55.5064 2.91913 56.1676 3.46543 56.831 4.05711C57.0452 4.23364 57.2594 4.41017 57.48 4.59205C59.9143 6.76448 62.0112 10.1566 62.3305 13.4487C62.5272 18.5623 62.0508 22.7652 58.5956 26.8236C55.852 29.7335 52.6043 32.1821 48.4602 32.3395C43.5182 32.4846 39.5945 31.7043 35.8362 28.2661C32.9564 25.5204 30.9017 22.1965 30.695 18.1574C30.6141 13.4115 31.1097 10.102 34.0263 6.22508C34.2876 5.85246 34.5489 5.47984 34.8181 5.09593C39.8911 -0.728303 48.4027 -1.46675 54.7821 2.40291Z" fill="white"/>
<path id="Vector_5" d="M130.674 23.5688C130.928 23.743 131.182 23.9172 131.444 24.0967C135.646 26.8891 139.315 27.4617 144.379 26.5766C145.49 26.321 146.59 26.0471 147.688 25.7368C146.831 27.1205 146.831 27.1205 145.783 27.4023C145.212 27.4354 144.641 27.4684 144.069 27.5015C143.71 27.5223 143.71 27.5223 143.344 27.5435C143.211 27.9543 143.078 28.3651 142.941 28.7883C142.392 30.4319 141.801 32.0578 141.202 33.6832C141.058 34.0719 141.058 34.0719 140.912 34.4683C140.513 35.5532 140.113 36.6379 139.71 37.7217C139.414 38.5203 139.12 39.3198 138.826 40.1194C138.734 40.3644 138.643 40.6094 138.548 40.8619C138.17 41.8968 137.914 42.6916 137.914 43.8032C138.153 43.684 138.392 43.5647 138.638 43.4419C140.083 42.9611 141.094 42.9597 142.62 43.0806C143.422 43.5195 143.422 43.5195 144.068 44.1646C144.457 45.8506 144.302 47.3617 143.457 48.8618C141.851 50.2484 140.429 50.3943 138.344 50.3523C137.923 50.3458 137.503 50.3393 137.07 50.3325C136.751 50.3242 136.433 50.3158 136.104 50.3071C136.032 50.5404 135.959 50.7736 135.884 51.0139C135.547 52.077 135.192 53.1339 134.837 54.1914C134.666 54.742 134.666 54.742 134.492 55.3036C133.452 58.3386 133.452 58.3386 131.792 59.1935C131.304 59.379 130.811 59.5499 130.312 59.7017C129.948 59.8265 129.583 59.9513 129.207 60.0799C124.122 61.3453 119.724 60.8252 115.109 58.2563C115.312 56.1699 115.9 54.4446 116.716 52.5203C116.829 52.2417 116.942 51.9632 117.059 51.6762C117.912 49.6312 117.912 49.6312 118.729 49.2231C119.088 49.3424 119.446 49.4616 119.815 49.5845C122.953 49.892 125.546 49.6794 128.141 47.7778C128.917 46.8455 128.917 46.8455 129.227 45.9712C129.021 46.089 128.815 46.2069 128.603 46.3283C124.143 48.848 124.143 48.848 122.281 48.8844C120.853 48.3459 120.459 47.6954 119.815 46.3325C119.815 44.3828 120.796 42.6437 121.625 40.9126C121.38 40.8511 121.134 40.7896 120.881 40.7263C118.513 40.1107 116.274 39.3431 114.023 38.3833C114.023 37.6606 114.023 37.6606 114.53 37.1511C114.766 36.9541 115.002 36.7571 115.245 36.5541C116.387 35.586 117.509 34.6032 118.616 33.5957C122.486 30.112 126.483 26.6609 130.674 23.5688Z" fill="white"/>
<path id="Vector_6" d="M15.2 48.8687C15.5559 49.6458 15.9099 50.424 16.2631 51.2025C16.4604 51.6357 16.6578 52.0689 16.8611 52.5153C17.9593 55.1143 18.2908 58.0296 17.3799 60.7553C16.5986 62.4047 15.7194 63.972 14.4762 65.299C14.2373 65.299 13.9985 65.299 13.7524 65.299C13.9315 67.7019 13.9315 67.7019 14.1143 70.1534C14.3158 69.5064 14.5174 68.8595 14.725 68.1929C15.4555 66.1181 16.2014 65.2384 18.0528 64.1525C19.3644 63.5582 20.6712 63.6325 22.0762 63.8053C23.3655 64.3654 23.3655 64.3654 24.2476 64.9256C23.5782 67.3813 21.8331 69.2486 19.769 70.5501C18.1398 70.9849 16.8365 70.8446 15.2 70.5268C14.9611 71.3894 14.7223 72.252 14.4762 73.1407C16.6259 73.1407 18.7756 73.1407 20.9905 73.1407C20.6858 77.2277 19.9101 81.15 18.819 85.09C37.6888 84.9668 56.5585 84.8436 76 84.7166C76 84.9631 76 85.2095 76 85.4634C68.4399 85.5212 60.8797 85.5765 53.3196 85.6289C49.8085 85.6532 46.2974 85.6784 42.7863 85.7055C39.7225 85.7291 36.6588 85.7512 33.595 85.7715C31.9759 85.7823 30.3569 85.7938 28.7379 85.8072C17.1111 85.9021 17.1111 85.9021 12.4019 85.6997C12.0975 85.688 11.7932 85.6763 11.4796 85.6642C9.49934 85.5561 9.49934 85.5561 8.68571 84.7166C8.56629 84.9631 8.44686 85.2095 8.32381 85.4634C5.57695 85.4634 2.8301 85.4634 0 85.4634C0 85.3402 0 85.217 0 85.09C2.508 85.09 5.016 85.09 7.6 85.09C7.36114 84.2274 7.12229 83.3648 6.87619 82.4761C6.64026 81.2922 6.46635 80.0999 6.2881 78.9053C6.23958 78.5975 6.19106 78.2897 6.14107 77.9725C6.09535 77.6714 6.04963 77.3703 6.00253 77.0601C5.94121 76.6568 5.94121 76.6568 5.87866 76.2454C5.77359 75.2157 5.79048 74.176 5.79048 73.1407C7.94019 73.1407 10.0899 73.1407 12.3048 73.1407C12.0659 72.4013 11.827 71.662 11.581 70.9002C11.3052 70.9219 11.0295 70.9435 10.7455 70.9659C7.19298 71.126 5.29019 70.078 2.53333 67.9129C2.73591 66.6901 3.01801 66.1375 3.98095 65.3923C5.51469 64.3427 6.89343 64.1944 8.68571 64.5521C10.6493 65.5078 11.368 66.7267 12.3048 68.6597C12.5173 66.3702 12.5173 66.3702 11.6488 64.3421C11.3876 64.0417 11.1263 63.7414 10.8571 63.4319C9.69016 60.9807 9.3748 58.6773 9.77143 55.9636C10.5041 53.7733 12.466 48.8687 15.2 48.8687Z" fill="black"/>
<path id="Vector_7" d="M1.448 85.7173C28.6833 85.7173 55.9186 85.7173 83.9792 85.7173C83.9792 87.1481 83.9792 88.579 83.9792 90.0532C56.7439 90.0532 29.5086 90.0532 1.448 90.0532C1.448 88.6224 1.448 87.1915 1.448 85.7173Z" fill="white"/>
<path id="Vector_8" d="M99.7253 97.5959C100.138 97.6455 100.138 97.6455 100.558 97.6961C102.603 97.9499 102.603 97.9499 103.523 98.1921C104.833 98.5012 106.167 98.4326 107.508 98.4314C107.814 98.4314 108.121 98.4314 108.436 98.4313C111.059 98.4077 113.625 98.179 116.154 97.442C117.243 97.211 118.296 97.2037 119.408 97.1894C119.84 97.18 120.272 97.1707 120.717 97.1611C122.447 97.3226 123.654 97.8597 124.883 99.0863C125.059 100.403 124.99 101.07 124.317 102.225C121.064 105.306 116.02 104.967 111.852 104.868C111.819 105.28 111.819 105.28 111.785 105.702C111.602 107.958 111.391 110.207 111.128 112.455C111.413 112.461 111.698 112.466 111.992 112.471C115.339 112.617 119.298 113.103 121.738 115.662C122.498 117.066 122.653 117.748 122.349 119.321C121.776 120.37 121.161 121.161 120.177 121.85C118.82 121.895 118.82 121.895 117.643 121.489C116.865 120.324 116.781 119.947 116.919 118.598C117.278 118.24 117.278 118.24 117.643 117.875C118.121 117.875 118.599 117.875 119.091 117.875C117.185 115.368 113.318 115.149 110.404 114.623C110.384 115.15 110.37 115.677 110.358 116.204C110.35 116.498 110.342 116.791 110.333 117.093C110.326 117.953 110.326 117.953 111.128 118.598C111.06 119.863 111.06 119.863 110.766 121.127C109.59 121.91 109.234 122.049 107.87 121.85C107.01 121.263 107.01 121.263 106.422 120.405C106.512 119.23 106.512 119.23 106.784 118.237C107.142 118.117 107.501 117.998 107.87 117.875C107.691 116.266 107.691 116.266 107.508 114.623C102.775 115.009 102.775 115.009 98.7978 117.22C98.6858 117.437 98.5738 117.653 98.4584 117.875C98.7496 117.928 99.0407 117.98 99.3407 118.033C100.268 118.237 100.268 118.237 100.63 118.598C100.727 119.703 100.787 120.48 100.246 121.466C99.5444 121.85 99.5444 121.85 98.3227 121.918C96.7191 121.393 96.2803 120.838 95.499 119.39C95.0174 118.112 95.1044 117.344 95.5626 116.069C97.4817 113.957 100.359 112.844 103.164 112.455C104.359 112.455 105.553 112.455 106.784 112.455C106.426 110.071 106.067 107.686 105.698 105.229C104.097 105.095 104.097 105.095 102.463 104.958C99.4689 104.667 97.102 104.213 94.6576 102.383C93.936 101.363 93.7527 100.698 93.7527 99.4477C94.3525 98.4497 94.7625 97.7922 95.8871 97.4041C97.1747 97.1937 98.4423 97.4284 99.7253 97.5959Z" fill="black"/>
<path id="Vector_9" d="M64.0706 52.8364C65.9637 53.1606 66.6166 53.7393 67.8177 55.2105C69.7798 58.0973 70.0772 60.985 69.8623 64.3989C70.1312 64.3209 70.4002 64.2428 70.6773 64.1624C71.8904 64.0102 72.1629 64.1974 73.1116 64.931C73.5153 65.2361 73.5153 65.2361 73.9271 65.5473C74.2132 65.772 74.4994 65.9967 74.7943 66.2281C75.4121 66.6983 76.03 67.1683 76.648 67.6382C77.1211 68.0021 77.1211 68.0021 77.6037 68.3734C79.0716 69.4948 80.5646 70.5813 82.0565 71.6707C95.0873 81.2481 95.0873 81.2481 99.5446 85.356C99.1862 85.5348 99.1862 85.5348 98.8206 85.7173C97.9771 85.4361 97.9771 85.4361 96.8962 84.9664C96.2788 84.6996 96.2788 84.6996 95.6489 84.4273C95.1903 84.2252 94.7317 84.0228 94.2733 83.8203C93.7968 83.6121 93.3204 83.4038 92.8439 83.1957C88.5835 81.3256 84.3566 79.3815 80.1335 77.4293C79.8162 77.2827 79.499 77.1361 79.1721 76.9851C75.6805 75.3695 72.2034 73.7359 68.7764 71.9868C68.7764 71.7483 68.7764 71.5099 68.7764 71.2642C68.418 71.5026 68.0596 71.7411 67.6904 71.9868C66.8463 72.0154 66.0006 72.0186 65.1566 71.9868C65.1085 71.5164 65.0604 71.046 65.0109 70.5613C64.9464 69.9374 64.8818 69.3135 64.8172 68.6897C64.77 68.2258 64.77 68.2258 64.7218 67.7525C64.6903 67.4497 64.6588 67.147 64.6263 66.8351C64.5979 66.5588 64.5695 66.2825 64.5402 65.9979C64.4614 65.3564 64.3585 64.7178 64.2417 64.0821C64.0594 62.8795 64.0297 61.7447 64.0353 60.5288C64.0364 60.0793 64.0376 59.6298 64.0388 59.1667C64.0419 58.7023 64.0449 58.238 64.048 57.7595C64.0496 57.2868 64.0513 56.814 64.053 56.3269C64.0572 55.1634 64.0632 53.9999 64.0706 52.8364Z" fill="black"/>
<path id="Vector_10" d="M54.7821 2.40291C55.5064 2.91913 56.1676 3.46543 56.831 4.05711C57.0452 4.23364 57.2594 4.41017 57.48 4.59205C59.9143 6.76448 62.0112 10.1566 62.3305 13.4487C62.5272 18.5623 62.0508 22.7652 58.5956 26.8236C55.852 29.7335 52.6043 32.1821 48.4602 32.3395C43.5182 32.4846 39.5945 31.7043 35.8362 28.2661C32.9564 25.5204 30.9017 22.1965 30.695 18.1574C30.6141 13.4115 31.1097 10.102 34.0263 6.22508C34.2876 5.85246 34.5489 5.47984 34.8181 5.09593C39.8911 -0.728303 48.4027 -1.46675 54.7821 2.40291ZM34.8181 7.89623C32.5919 11.2916 31.6523 15.0478 32.4681 19.0099C33.1413 21.6697 33.9114 23.7597 35.8362 25.7368C36.0751 25.9851 36.314 26.2333 36.5602 26.4891C39.6629 29.4701 42.6902 30.6974 46.9564 30.6234C51.3207 30.4118 54.5352 28.5801 57.4645 25.4206C60.3848 21.9331 60.7264 18.202 60.5188 13.7844C60.1983 10.5147 58.1103 7.64881 55.7451 5.50243C55.5491 5.3231 55.3531 5.14378 55.1512 4.95902C52.2831 2.5592 48.587 1.58168 44.8772 1.72824C40.7861 2.33919 37.3019 4.65531 34.8181 7.89623Z" fill="black"/>
<path id="Vector_11" d="M117.643 61.5085C118.253 61.7333 118.859 61.9693 119.453 62.2311C119.633 63.4831 119.633 63.4831 119.815 64.7604C119.597 64.8456 119.379 64.9309 119.154 65.0187C117.884 65.6585 116.845 66.2451 116.273 67.6048C115.807 69.1762 115.529 70.7781 115.251 72.391C115.069 73.2676 114.723 74.0498 114.386 74.8776C114.13 76.1777 113.906 77.4803 113.689 78.7873C113.3 79.9362 113.3 79.9362 112.497 80.5615C112.164 80.7128 111.832 80.8642 111.49 81.0202C111.126 81.2116 110.763 81.403 110.388 81.6003C109.825 81.8832 109.825 81.8832 109.25 82.1719C108.872 82.3633 108.493 82.5548 108.103 82.752C107.146 83.1881 107.146 83.1881 106.422 83.1881C106.299 82.5187 106.179 81.8486 106.06 81.1783C105.993 80.8052 105.926 80.4321 105.857 80.0477C105.425 76.7869 105.425 76.7869 106.337 75.2389C106.634 74.8812 106.931 74.5235 107.237 74.1549C107.396 73.9568 107.555 73.7587 107.719 73.5546C108.624 72.4322 109.564 71.3423 110.513 70.2565C113.346 67.0987 113.346 67.0987 113.956 63.0159C114.024 62.2311 114.024 62.2311 114.681 61.5776C115.8 60.9682 116.431 61.1874 117.643 61.5085Z" fill="black"/>
<path id="Vector_12" d="M7.60174 74.1548C11.4242 74.1548 15.2467 74.1548 19.1851 74.1548C18.9492 76.5091 18.6969 78.591 18.0991 80.8394C18.0347 81.0927 17.9704 81.3461 17.904 81.6072C17.4318 83.4362 17.4318 83.4362 17.0132 84.272C14.5047 84.272 11.9962 84.272 9.41164 84.272C9.06448 82.897 9.06448 82.897 8.7103 81.4943C8.63801 81.2089 8.56571 80.9235 8.49122 80.6295C8.31216 79.9173 8.1372 79.2043 7.96372 78.4907C7.85103 78.0289 7.85103 78.0289 7.73607 77.5578C7.56355 76.4357 7.60174 75.29 7.60174 74.1548Z" fill="white"/>
<path id="Vector_13" d="M74.2058 92.5825C75.6393 92.5825 77.0727 92.5825 78.5496 92.5825C78.6873 101.752 78.2626 110.886 77.8256 120.043C76.87 120.043 75.9144 120.043 74.9298 120.043C74.4928 110.886 74.0682 101.752 74.2058 92.5825Z" fill="white"/>
<path id="Vector_14" d="M6.87766 92.5825C8.3111 92.5825 9.74454 92.5825 11.2214 92.5825C11.2575 95.6752 11.2422 98.7533 11.063 101.842C10.8406 105.708 10.7512 109.578 10.6558 113.449C10.6478 113.774 10.6398 114.099 10.6315 114.433C10.5857 116.303 10.5411 118.173 10.4975 120.043C9.54183 120.043 8.58621 120.043 7.60162 120.043C7.49674 117.236 7.39388 114.429 7.29231 111.621C7.25779 110.669 7.22255 109.717 7.18697 108.765C6.98564 103.369 6.81656 97.9829 6.87766 92.5825Z" fill="white"/>
<path id="Vector_15" d="M35.1122 58.2563C37.2 64.3832 37.2 64.3832 38.0533 67.4701C38.5343 69.2001 39.1168 70.8231 39.8151 72.4751C40.424 74.0722 40.8481 75.7208 41.2913 77.37C41.5834 78.4601 41.5834 78.4601 42.0323 79.2952C42.3518 79.936 42.3518 79.936 42.3518 81.02C41.5156 81.4969 40.6795 81.9739 39.818 82.4653C39.6999 82.1336 39.5819 81.802 39.4602 81.4603C39.302 81.0169 39.1439 80.5735 38.9809 80.1166C38.8255 79.6807 38.6701 79.2447 38.51 78.7955C38.184 77.8867 37.8478 76.9839 37.5055 76.0809C36.5474 73.5337 35.6822 70.954 34.8098 68.3766C34.5883 67.7246 34.365 67.0732 34.14 66.4224C33.8132 65.4769 33.4922 64.5295 33.1723 63.5816C33.0202 63.1469 33.0202 63.1469 32.865 62.7033C31.9977 60.097 31.9977 60.097 32.5784 58.6176C33.4699 58.1727 34.1275 58.2304 35.1122 58.2563Z" fill="black"/>
<path id="Vector_16" d="M63.4606 53.5323C63.5927 58.3663 63.5927 58.3663 63.5176 60.7579C63.4775 62.0987 63.5335 63.3857 63.6657 64.7192C63.7463 65.9936 63.6836 67.2637 63.6344 68.5386C63.6013 69.3811 63.6013 69.3811 63.7365 70.0764C63.8225 70.6044 63.8225 70.6044 63.5824 71.3778C62.8801 71.5328 62.1778 71.6879 61.4543 71.8476C61.4435 71.5848 61.4328 71.3221 61.4217 71.0513C61.4071 70.6999 61.3925 70.3485 61.3774 69.9864C61.3631 69.6409 61.3489 69.2955 61.3342 68.9395C61.3029 68.2189 61.2631 67.5002 61.2189 66.7801C61.0997 64.7504 61.054 62.7182 61.0026 60.6859C60.989 60.1717 60.974 59.6574 60.9576 59.1433C60.934 58.3962 60.9148 57.6492 60.8966 56.902C60.8844 56.5581 60.8844 56.5581 60.872 56.2073C60.8306 54.1555 60.8306 54.1555 61.5727 53.2287C62.3074 53.1088 62.7638 53.2957 63.4606 53.5323Z" fill="black"/>
<path id="Vector_17" d="M44.842 81.2585C45.0894 81.2583 45.3367 81.2582 45.5916 81.258C46.4064 81.2588 47.221 81.2672 48.0358 81.2757C48.6019 81.2777 49.1679 81.2793 49.7339 81.2803C51.2217 81.2845 52.7093 81.2951 54.197 81.3071C55.716 81.3182 57.2349 81.3232 58.7538 81.3286C61.7327 81.3402 64.7114 81.3587 67.6902 81.3816C67.7056 82.104 67.705 82.827 67.6902 83.5495C67.3282 83.9109 67.3282 83.9109 66.2678 83.9543C65.7927 83.9535 65.3176 83.9527 64.8282 83.9519C64.5669 83.9519 64.3056 83.952 64.0363 83.952C63.1686 83.9518 62.301 83.949 61.4333 83.9461C60.8333 83.9455 60.2332 83.9449 59.6332 83.9446C58.0508 83.9432 56.4685 83.9397 54.8862 83.9357C53.2727 83.932 51.6593 83.9303 50.0458 83.9285C46.8778 83.9246 43.7098 83.9184 40.5417 83.9109C40.6707 82.9774 40.8395 82.5334 41.4947 81.8409C42.6558 81.2185 43.5261 81.2514 44.842 81.2585Z" fill="black"/>
<path id="Vector_18" d="M118.82 41.2287C119.148 41.3629 119.477 41.497 119.815 41.6352C119.66 42.5681 119.525 43.3187 119.046 44.142C118.468 45.5021 119.004 46.7927 119.453 48.1391C119.115 48.1503 118.778 48.1615 118.43 48.173C118.051 48.2811 117.672 48.3891 117.281 48.5005C116.649 49.5585 116.649 49.5585 116.286 50.8491C116.029 51.6367 115.76 52.421 115.472 53.1977C115.113 53.3766 115.113 53.3766 114.748 53.5591C111.69 47.5218 111.69 47.5218 110.404 44.5259C112.334 43.5623 114.265 42.5988 116.195 41.6352C116.439 41.495 116.683 41.3547 116.934 41.2102C117.643 40.9126 117.643 40.9126 118.82 41.2287Z" fill="white"/>
<path id="Vector_19" d="M14.1172 51.3911C14.3561 51.3911 14.595 51.3911 14.8411 51.3911C16.2838 54.297 16.9635 57.1445 15.9865 60.3255C15.0776 62.4743 15.0776 62.4743 14.1172 62.9536C14.1172 61.0458 14.1172 59.138 14.1172 57.1724C13.8783 57.1724 13.6394 57.1724 13.3932 57.1724C13.1543 59.0802 12.9154 60.988 12.6693 62.9536C11.2514 61.5382 11.1605 60.6579 11.1309 58.7306C11.1645 55.6364 11.9551 53.6047 14.1172 51.3911Z" fill="white"/>
<path id="Vector_20" d="M45.6095 6.94775C46.0873 6.94775 46.5651 6.94775 47.0574 6.94775C47.0653 7.28403 47.0653 7.28403 47.0734 7.6271C47.1004 8.64294 47.1354 9.65836 47.1705 10.674C47.1787 11.0268 47.1869 11.3796 47.1953 11.7431C47.2081 12.082 47.2209 12.4208 47.2342 12.7699C47.2436 13.0821 47.2531 13.3944 47.2629 13.716C47.4495 14.6935 47.7809 14.9671 48.5053 15.6196C48.5497 15.9079 48.594 16.1963 48.6397 16.4933C48.9591 17.8025 49.6339 18.1898 50.6998 18.9845C51.0325 19.2365 51.3652 19.4885 51.708 19.7481C51.9651 19.9358 52.2222 20.1235 52.4871 20.3169C52.3676 20.7938 52.2482 21.2708 52.1251 21.7622C50.9579 21.2496 50.1836 20.6153 49.2745 19.7297C48.1216 18.6683 48.1216 18.6683 46.5823 18.4199C46.1008 18.4646 46.1008 18.4646 45.6095 18.5103C44.9308 18.1038 44.9308 18.1038 44.5236 17.4263C44.4104 16.3197 44.4104 16.3197 44.5236 15.2583C44.7625 15.0198 45.0014 14.7813 45.2475 14.5356C45.3815 13.7311 45.3815 13.7311 45.3974 12.8052C45.4114 12.4652 45.4254 12.1252 45.4398 11.7749C45.451 11.419 45.4622 11.0632 45.4738 10.6965C45.4878 10.3379 45.5018 9.97924 45.5162 9.60973C45.5504 8.72247 45.5813 7.83522 45.6095 6.94775Z" fill="black"/>
<path id="Vector_21" d="M145.154 47.7778C145.393 47.7778 145.631 47.7778 145.878 47.7778C146.242 48.4765 146.604 49.1769 146.964 49.8781C147.165 50.2679 147.367 50.6578 147.574 51.0594C148.049 52.1138 148.049 52.1138 148.049 53.1978C147.486 53.452 146.92 53.699 146.353 53.943C146.038 54.0813 145.723 54.2197 145.398 54.3622C144.048 54.7538 143.163 54.5414 141.911 53.943C141.579 53.753 141.579 53.753 141.24 53.5591C139.756 52.7805 138.493 52.5938 136.828 52.4751C136.948 52.1174 137.067 51.7597 137.19 51.3911C137.623 51.4163 137.623 51.4163 138.064 51.4419C140.505 51.5313 140.505 51.5313 142.801 50.804C143.775 49.8799 144.434 48.9061 145.154 47.7778Z" fill="white"/>
<path id="Vector_22" d="M22.4427 65.1214C21.9519 66.9723 20.804 68.136 19.1849 69.0961C17.7596 69.2316 17.7596 69.2316 16.651 69.0961C17.2483 68.3806 17.8456 67.6652 18.4609 66.9281C17.7442 67.1666 17.0275 67.405 16.2891 67.6507C16.6386 66.7309 16.9908 66.2248 17.737 65.5731C19.3019 64.9222 20.7699 65.0339 22.4427 65.1214Z" fill="white"/>
<path id="Vector_23" d="M8.6875 65.8445C9.61507 66.3865 9.61507 66.3865 10.1354 66.9284C10.016 67.1669 9.89651 67.4054 9.77344 67.6511C9.29562 67.6511 8.81781 67.6511 8.32552 67.6511C8.80333 68.1281 9.28115 68.605 9.77344 69.0964C7.99438 69.2522 6.92023 69.2758 5.42969 68.2383C5.07133 67.9253 4.71297 67.6123 4.34375 67.2898C4.34375 67.0513 4.34375 66.8128 4.34375 66.5671C5.79645 65.6004 6.98031 65.6322 8.6875 65.8445Z" fill="white"/>
<path id="Vector_24" d="M125.607 30.4341C125.965 30.5533 126.323 30.6726 126.693 30.7954C126.573 31.5108 126.454 32.2263 126.331 32.9634C126.6 32.8516 126.868 32.7398 127.145 32.6246C127.962 32.3096 128.736 32.0685 129.589 31.8794C129.458 32.8276 129.289 33.2597 128.616 33.957C127.533 34.5413 126.82 34.5666 125.607 34.4087C124.883 33.3247 124.883 33.3247 124.996 32.0149C125.245 30.7954 125.245 30.7954 125.607 30.4341Z" fill="black"/>
<path id="Vector_25" d="M130.675 32.9634C131.033 32.9634 131.391 32.9634 131.761 32.9634C131.641 33.798 131.522 34.6327 131.399 35.4927C132.474 35.2542 133.549 35.0157 134.656 34.77C134.294 36.2153 134.294 36.2153 133.661 36.667C132.707 36.9845 132.036 37.0659 131.037 36.938C130.358 36.5541 130.358 36.5541 129.951 35.854C130.112 33.5254 130.112 33.5254 130.675 32.9634Z" fill="black"/>
<path id="Vector_26" d="M0 84.9946C1.19453 84.9946 2.38906 84.9946 3.61979 84.9946C3.61979 85.1139 3.61979 85.2331 3.61979 85.356C2.78362 85.356 1.94745 85.356 1.08594 85.356C1.20539 87.1445 1.32484 88.9331 1.44792 90.7759C0.970104 90.8951 0.492292 91.0144 0 91.1372C0 89.1102 0 87.0831 0 84.9946Z" fill="black"/>
<path id="Vector_27" d="M133.57 28.6274C133.929 28.6274 134.287 28.6274 134.656 28.6274C134.739 28.8436 134.821 29.0597 134.905 29.2823C135.503 30.2764 136.176 30.6237 137.19 31.1567C137.071 31.6337 136.951 32.1106 136.828 32.6021C135.229 32.1004 134.264 31.3746 133.208 30.0728C133.276 29.2372 133.276 29.2372 133.57 28.6274Z" fill="black"/>
<path id="Vector_28" d="M127.779 27.1821C129.093 27.1821 130.407 27.1821 131.761 27.1821C131.761 27.6591 131.761 28.136 131.761 28.6274C130.447 28.6274 129.133 28.6274 127.779 28.6274C127.779 28.1505 127.779 27.6735 127.779 27.1821Z" fill="black"/>
<path id="Vector_29" d="M147.688 39.4673C148.23 39.9641 148.23 39.9641 148.773 40.5513C148.773 40.7897 148.773 41.0282 148.773 41.2739C147.52 42.3579 147.52 42.3579 146.602 42.3579C147.28 39.8738 147.28 39.8738 147.688 39.4673Z" fill="white"/>
<path id="Vector_30" d="M45.6094 27.1821C46.0872 27.1821 46.565 27.1821 47.0573 27.1821C47.0573 27.8976 47.0573 28.613 47.0573 29.3501C46.5795 29.3501 46.1017 29.3501 45.6094 29.3501C45.6094 28.6347 45.6094 27.9192 45.6094 27.1821Z" fill="black"/>
<path id="Vector_31" d="M50.6772 19.2329C51.2744 19.5906 51.8717 19.9483 52.4871 20.3169C52.3676 20.7938 52.2482 21.2708 52.1251 21.7622C51.4237 21.4912 51.4237 21.4912 50.6772 21.0396C50.3831 20.2943 50.3831 20.2943 50.3152 19.5942C50.4346 19.475 50.5541 19.3558 50.6772 19.2329Z" fill="black"/>
<path id="Vector_32" d="M57.1929 15.6196C57.9096 15.6196 58.6263 15.6196 59.3647 15.6196C59.3647 16.0966 59.3647 16.5735 59.3647 17.0649C58.648 17.0649 57.9313 17.0649 57.1929 17.0649C57.1929 16.588 57.1929 16.111 57.1929 15.6196Z" fill="black"/>
<path id="Vector_33" d="M33.6641 15.6196C34.3808 15.6196 35.0975 15.6196 35.8359 15.6196C35.8359 16.0966 35.8359 16.5735 35.8359 17.0649C35.1192 17.0649 34.4025 17.0649 33.6641 17.0649C33.6641 16.588 33.6641 16.111 33.6641 15.6196Z" fill="black"/>
<path id="Vector_34" d="M118.729 118.598C119.207 118.837 119.685 119.075 120.177 119.321C120.058 119.679 119.938 120.036 119.815 120.405C119.337 120.405 118.859 120.405 118.367 120.405C118.487 119.809 118.606 119.212 118.729 118.598Z" fill="white"/>
<path id="Vector_35" d="M97.7345 118.959C98.3318 119.079 98.9291 119.198 99.5444 119.321C99.425 119.679 99.3055 120.036 99.1825 120.405C98.5852 120.286 97.9879 120.166 97.3726 120.043C97.492 119.686 97.6115 119.328 97.7345 118.959Z" fill="white"/>
<path id="Vector_36" d="M45.6094 3.33447C46.0872 3.33447 46.565 3.33447 47.0573 3.33447C47.0573 3.93066 47.0573 4.52686 47.0573 5.14111C46.5795 5.14111 46.1017 5.14111 45.6094 5.14111C45.6094 4.54492 45.6094 3.94873 45.6094 3.33447Z" fill="black"/>
<path id="Vector_37" d="M107.87 118.959C108.467 118.959 109.064 118.959 109.68 118.959C109.68 119.436 109.68 119.913 109.68 120.405C109.083 120.286 108.485 120.166 107.87 120.043C107.87 119.686 107.87 119.328 107.87 118.959Z" fill="white"/>
</g>
</g>
</svg>
