<svg width="519" height="747" viewBox="0 0 519 747" fill="none" xmlns="http://www.w3.org/2000/svg">
<path d="M287.671 97.5266L263.842 102.506L266.143 113.615L289.973 108.628L287.671 97.5266Z" fill="black"/>
<path d="M313.358 97.2077L307.93 107.164L329.297 118.813L334.725 108.857L313.358 97.2077Z" fill="black"/>
<path d="M265.01 139.279C260.084 139.279 256.095 145.371 256.095 152.882C256.095 160.4 260.092 166.477 265.01 166.477C269.928 166.477 273.917 160.393 273.917 152.882C273.917 145.371 269.928 139.279 265.01 139.279Z" fill="black"/>
<path d="M289.974 143.183C285.048 143.183 281.059 149.282 281.059 156.793C281.059 164.304 285.056 170.396 289.974 170.396C294.899 170.396 298.889 164.304 298.889 156.793C298.889 149.282 294.892 143.183 289.974 143.183Z" fill="black"/>
<path d="M518.732 583.314C519.077 581.657 519.668 578.404 501.416 570.778C515.977 566.597 518.839 563.712 518.44 560.406C518.218 558.572 517.681 554.26 494.795 554.26C493.629 554.26 492.44 554.276 491.105 554.843C495.693 547.117 496.951 542.898 495.462 540.289C494.703 538.954 493.291 538.195 491.58 538.195C485.481 538.195 471.594 549.181 467.482 552.549L467.475 552.557L391.582 505.543L325.096 389.579V326.592C331.18 329.914 340.195 330.643 348.627 330.351C350.383 340.946 359.575 349.048 370.722 349.048C379.66 349.048 387.309 343.815 390.93 336.297C443.108 353.651 430.817 301.358 430.817 301.358C493.406 290.188 435.29 233.184 435.29 233.184C496.759 232.056 427.457 160.537 427.457 160.537C467.697 135.948 397.283 87.7218 397.283 87.7218C445.885 74.0195 397.283 31.9996 397.283 31.9996C297.807 -40.6472 301.727 33.1197 301.727 33.1197C200.571 0.705219 203.931 61.0614 203.931 61.0614C211.135 89.8623 224.209 99.621 238.011 100.358L170.75 221.093L220.656 234.419C220.465 239.951 220.158 251.797 220.503 261.21L220.695 266.182L269.19 251.459C264.426 264.31 241.67 281.649 226.464 290.656L224.063 292.083L224.669 294.799C226.625 303.514 234.013 312.153 241.148 320.5C244.24 324.121 247.186 327.558 249.312 330.612C247.11 336.673 243.304 350.068 235.141 379.337L130.924 349.255L60.8856 252.057C64.0004 243.142 68.3813 228.55 65.2971 224.193C64.4992 223.057 63.2869 222.428 61.9136 222.428C59.8422 222.428 57.019 223.533 50.8813 231.182C45.6566 215.508 40.9153 207.567 36.7954 207.567C35.6983 207.567 34.6625 208.043 33.88 208.902C32.4223 210.521 31.1256 214.088 31.9542 227.215C25.8703 220.587 19.4641 214.61 16.1114 214.61C14.8071 214.61 13.687 215.232 13.0349 216.329C11.8994 218.231 11.5773 221.3 19.234 236.307C14.6001 234.803 8.58506 233.123 4.86411 233.123C2.83101 233.123 1.596 233.652 0.790433 234.35L0 239.706C1.31192 242.26 4.99456 246.127 14.0936 252.986C2.69294 255.449 2.74667 258.663 2.75434 259.99C2.80804 263.512 5.51636 266.734 36.8261 270.401L112.826 367.76L209.133 402.407C201.607 409.465 196.605 415.634 195.891 418.334C189.6 442.363 216.368 468.533 216.368 468.533L216.468 529.917H213.383L180.209 682.959H218.777L236.699 853.187H235.563L184.966 894.163H223.48L234.942 876.917L236.323 894.163H244.57L246.833 861.956V861.948L247.447 853.187H246.68L243.788 682.959H259.4L255.771 853.187H254.966L257.851 894.163H266.098L267.479 876.917L278.934 894.163H317.44L266.85 853.187H265.714L283.636 682.959H325.564L306.768 529.917H304.167L321.23 447.503V447.496L373.361 524.424L457.908 577.184L457.639 577.913L458.145 578.949C472.032 607.19 476.136 609.545 479.144 609.545C480.302 609.545 481.353 609.039 482.105 608.11C483.824 606.008 483.709 600.983 483.103 596.288C494.91 604.006 498.991 605.088 501.201 605.088C503.763 605.088 504.776 603.492 505.099 602.801C506.41 599.94 503.741 594.239 497.158 585.815C502.889 586.544 507.377 586.912 510.553 586.912C512.993 586.912 518.087 586.912 518.732 583.314ZM491.158 579.563L484.038 578.496L488.719 583.959C493.805 589.897 498.24 596.203 499.667 599.364C497.342 598.566 492.163 596.042 480.962 588.355L475.454 584.573L476.811 591.117C477.747 595.62 478.261 600.369 478.185 603.008C476.205 600.784 471.932 594.623 463.516 577.606L471.441 556.24C478.3 550.693 486.8 544.893 490.521 543.765C490.191 544.992 489.225 547.463 486.478 552.104C485.558 553.662 485.512 555.48 486.371 556.991C487.307 558.649 489.179 559.677 491.373 559.677C492.509 559.654 493.652 559.638 494.78 559.638C503.771 559.638 509.357 560.436 511.911 561.18C509.863 562.346 504.746 564.533 492.194 567.679L483.862 569.766L491.903 572.796C499.084 575.504 507.155 579.118 511.182 581.542C507.362 581.665 500.426 580.944 491.158 579.563ZM318.268 317.938C318.222 318.007 318.176 318.091 318.122 318.152L317.424 319.142V383.027L256.086 425.047L241.172 386.395C246.32 367.936 253.654 341.644 256.032 333.22H260.252L256.347 327.282C253.93 323.607 250.57 319.679 247.01 315.521C241.54 309.13 235.433 301.987 232.985 295.704C243.742 289.021 279.194 265.438 277.744 245.751L277.384 240.971L228.068 255.94C227.907 244.616 228.451 231.819 228.459 231.673L228.589 228.596L182.265 216.229L247.194 99.6825C269.059 95.3094 289.974 73.8277 289.974 73.8277C301.113 101.447 339.873 84.5378 354.473 76.9501C317.378 99.1454 359.298 118.878 359.298 118.878C312.667 153.203 338.523 179.787 338.523 179.787C287.565 231.427 334.679 238.785 334.679 238.785C287.703 260.021 325.396 294.906 325.396 294.906C318.89 305.209 317.11 312.613 318.268 317.938ZM316.926 675.287H189.761L219.613 537.589H300.016L316.926 675.287ZM38.3681 265.161C19.5101 262.99 12.2754 261.041 9.5058 259.929C11.9532 258.962 16.6026 257.842 21.1598 257.205L27.7654 256.269L22.3489 252.364C11.3242 244.424 7.21196 240.411 5.68522 238.516C10.5877 238.877 20.331 242.245 23.8525 243.595L30.581 246.158L27.1824 239.813C21.8042 229.793 19.5025 224.438 18.5358 221.607C22.1801 224.561 28.31 230.959 33.3045 236.805L38.8745 243.35L38.0304 234.811C36.7415 221.891 37.0792 216.352 37.4859 214.035C39.3502 216.566 42.5033 222.881 45.8407 232.877C47.1142 236.706 52.1396 237.926 54.6253 234.933C58.1161 230.714 60.1185 228.988 61.1312 228.282C61.3 231.734 59.1058 241.056 55.8145 250.485L38.3681 265.161Z" fill="black"/>
</svg>
