<svg width="157" height="230" viewBox="0 0 157 230" fill="none" xmlns="http://www.w3.org/2000/svg">
<path d="M90.2762 0C106.199 4.95952 127.544 12.3085 139.471 24.5533C139.471 25.1121 139.471 25.6709 139.471 26.2467C136.532 27.504 136.532 27.504 133.534 28.7867C137.173 28.5073 140.811 28.2279 144.561 27.94C139.32 55.497 139.32 55.497 134.594 68.5271C133.603 71.3047 133.34 73.8405 133.163 76.7821C132.86 80.8685 132.164 83.2678 129.293 86.36C125.789 88.9662 123.699 89.9364 119.337 89.8326C118.657 89.8202 117.978 89.8078 117.278 89.795C116.765 89.7791 116.251 89.7631 115.722 89.7467C115.619 90.7191 115.516 91.6916 115.411 92.6935C114.572 100.498 113.618 108.249 112.329 115.993C113.192 116.267 113.192 116.267 114.072 116.546C117.346 118.041 119.849 120.119 122.614 122.396C123.175 122.853 123.737 123.31 124.316 123.78C125.451 124.704 126.584 125.629 127.716 126.557C129.083 127.675 130.461 128.781 131.841 129.884C137.732 134.609 143.296 139.619 148.801 144.78C149.583 145.485 150.365 146.19 151.17 146.917C151.876 147.574 152.581 148.231 153.307 148.908C153.934 149.482 154.56 150.056 155.206 150.647C156.435 152.4 156.435 152.4 156.409 154.421C153.088 163.361 145.162 171.142 138.917 178.19C137.901 179.349 136.912 180.531 135.926 181.716C135.417 182.327 134.907 182.938 134.382 183.568C133.962 184.08 133.542 184.592 133.11 185.119C131.602 186.479 130.428 186.785 128.445 187.113C127.371 192.303 127.371 192.303 128.445 197.273C128.816 199.655 128.816 199.655 128.445 202.353C125.734 205.324 124.226 206.358 120.334 207.38C117.369 207.434 115.841 206.908 113.177 205.74C113.187 206.5 113.197 207.26 113.207 208.044C113.265 216.051 112.914 223.944 112.329 231.934C112.247 233.1 112.165 234.265 112.084 235.431C111.887 238.234 111.686 241.037 111.481 243.84C112.282 243.961 113.082 244.083 113.907 244.208C118.406 245.017 121.986 247.424 125.052 250.772C125.9 252.307 125.9 252.307 125.9 254C115.824 254 105.747 254 95.3653 254C92.6087 241.67 92.6087 241.67 91.763 237.868C90.2433 231.113 88.5796 224.423 86.7277 217.75C85.9133 214.578 85.4536 211.539 85.187 208.28C80.9885 208.28 76.7899 208.28 72.4642 208.28C68.5055 223.541 66.1096 238.284 64.8304 254C55.0338 254 45.2372 254 35.1437 254C37.1179 249.073 39.1381 247.291 43.6256 244.687C46.5943 243.946 46.5943 243.946 48.7148 243.84C48.4546 242.865 48.1943 241.891 47.9262 240.887C44.2426 226.11 44.0568 209.621 46.5645 194.657C46.9719 191.686 47.2066 188.772 47.3994 185.78C47.8095 179.72 48.568 173.753 49.457 167.746C49.6059 166.721 49.7549 165.696 49.9084 164.639C51.0166 157.133 52.2775 149.674 53.8039 142.24C53.2441 142.411 52.6842 142.581 52.1073 142.757C49.5453 143.538 46.9831 144.318 44.4208 145.097C43.0997 145.5 43.0997 145.5 41.752 145.911C40.0352 146.433 38.3178 146.954 36.5997 147.472C35.2217 147.887 33.8448 148.306 32.4701 148.733C28.6442 149.889 25.5332 149.999 21.5726 149.86C18.3933 141.562 15.9265 133.222 13.7968 124.602C13.3005 122.599 12.7903 120.6 12.279 118.601C10.7218 112.414 9.31439 106.481 9.14152 100.067C8.67669 97.1141 6.97771 95.2756 5.08921 93.0407C1.40753 88.605 -0.0100995 84.4499 5.41177e-05 78.7235C0.467362 76.5928 1.17315 75.8016 2.9124 74.5067C3.75211 74.5067 4.59182 74.5067 5.45698 74.5067C5.50946 73.747 5.50946 73.747 5.563 72.9721C6.30517 71.12 6.30517 71.12 8.6377 69.6912C11.0265 68.7283 13.1195 68.1903 15.6353 67.7333C15.5762 66.2485 15.5762 66.2485 15.516 64.7336C15.4842 63.4228 15.4533 62.1121 15.4232 60.8012C15.3948 60.1502 15.3664 59.4992 15.3371 58.8284C15.277 55.333 15.356 53.762 17.3449 50.757C17.9004 50.2124 18.4558 49.6678 19.0281 49.1067C21.2188 49.4083 22.2141 49.733 23.7461 51.3655C27.5486 57.5231 26.9154 66.6418 26.6618 73.66C27.5015 73.9394 28.3412 74.2188 29.2064 74.5067C31.6226 77.4545 32.1341 79.987 32.0127 83.7803C31.7509 85.5133 31.7509 85.5133 30.4256 88.5825C28.4465 93.2207 30.2447 97.5005 31.4064 102.268C31.6677 103.344 31.929 104.42 32.1982 105.529C32.4732 106.654 32.7482 107.778 33.0232 108.902C33.2984 110.034 33.5734 111.165 33.8482 112.296C35.3278 118.382 35.3278 118.382 36.8401 124.46C37.602 124.152 38.364 123.844 39.149 123.527C41.971 122.388 44.7945 121.253 47.6185 120.119C48.8415 119.627 50.0641 119.135 51.2863 118.641C53.0411 117.932 54.7973 117.227 56.5539 116.522C57.1018 116.3 57.6496 116.078 58.2141 115.849C62.0927 114.3 62.0927 114.3 63.9822 114.3C64.1364 112.812 64.1364 112.812 64.2937 111.294C65.0612 104.053 65.8945 96.8843 67.375 89.7467C71.5034 90.568 71.5034 90.568 73.3355 90.9803C76.5948 91.5857 78.0362 91.6188 81.1051 90.1171C83.6776 87.8916 85.6539 85.6574 87.7316 82.9733C86.8919 83.3924 86.8919 83.3924 86.0352 83.82C83.9547 83.9478 81.9142 84.0158 79.8328 84.0317C78.1583 84.0644 78.1583 84.0644 76.45 84.0978C73.221 83.8119 71.6504 83.1722 69.0714 81.28C69.617 76.106 71.2168 72.9628 73.3124 67.7333C67.7143 65.4981 62.1162 63.2629 56.3485 60.96C56.3485 58.42 56.3485 58.42 58.0316 56.4381C58.8058 55.6733 59.5799 54.9085 60.3774 54.1205C60.7943 53.7059 61.2113 53.2914 61.6408 52.8642C62.5278 51.9845 63.4179 51.1079 64.3107 50.234C65.6555 48.9176 66.9915 47.5927 68.3259 46.2657C72.5064 42.1255 76.7432 38.0883 81.2169 34.2619C83.2418 32.4979 85.1147 30.6017 86.9895 28.6808C89.9426 25.6966 92.9167 22.9181 96.2135 20.32C95.9796 19.8616 95.7456 19.4032 95.5045 18.9309C89.6028 6.99062 89.6028 6.99062 90.2762 0Z" fill="black"/>
<path d="M26.6617 98.2134C29.811 108.276 32.2595 118.351 34.2954 128.693C34.9663 128.426 34.9663 128.426 35.6508 128.152C36.2805 127.901 36.9102 127.649 37.559 127.39C38.2595 127.11 38.96 126.83 39.6817 126.542C41.2248 125.926 42.7689 125.314 44.3141 124.704C47.889 123.288 51.4447 121.859 54.9502 120.28C64.3793 116.086 64.3793 116.086 69.6279 117.865C80.8271 121.629 94.5127 121.396 105.739 118.16C108.418 117.62 109.752 117.623 112.329 118.533C114.298 119.892 116.11 121.252 117.948 122.767C118.472 123.188 118.995 123.609 119.534 124.044C121.096 125.304 122.65 126.575 124.204 127.847C125.408 128.814 125.408 128.814 126.636 129.801C134.619 136.245 142.559 142.817 150.021 149.86C150.632 150.436 151.243 151.013 151.873 151.606C153.042 153.247 153.042 153.247 153.039 154.838C151.848 157.37 150.217 159.482 148.483 161.66C148.11 162.137 147.736 162.614 147.351 163.106C143.854 167.537 140.217 171.848 136.539 176.13C134.384 178.645 132.259 181.18 130.141 183.727C127.264 183.225 125.721 182.23 123.568 180.287C123.047 179.823 122.527 179.359 121.991 178.882C121.601 178.525 121.212 178.168 120.811 177.8C121.895 174.827 123.154 172.465 125.055 169.939C125.544 169.28 126.032 168.621 126.535 167.943C127.563 166.573 128.593 165.204 129.623 163.835C130.11 163.177 130.597 162.52 131.099 161.842C131.545 161.249 131.992 160.655 132.452 160.043C133.539 158.319 134.015 156.931 134.382 154.94C131.961 153.194 129.54 151.447 127.119 149.701C126.441 149.212 125.763 148.722 125.064 148.218C123.719 147.248 122.373 146.279 121.026 145.311C119.806 144.432 118.59 143.548 117.379 142.658C115.14 141.024 113.282 139.735 110.633 138.853C110.658 139.474 110.684 140.095 110.711 140.734C110.963 146.948 111.182 153.162 111.375 159.377C111.442 161.39 111.517 163.403 111.603 165.415C111.71 167.938 111.785 170.46 111.852 172.985C111.891 173.73 111.931 174.476 111.971 175.244C112.04 179.256 111.654 181.432 108.966 184.504C108.507 184.951 108.048 185.397 107.575 185.857C106.177 187.166 106.177 187.166 105.544 189.653C87.3499 189.653 69.1561 189.653 50.4111 189.653C50.9194 182.55 51.4262 175.791 52.6111 168.827C52.7397 168.046 52.8682 167.265 53.0007 166.46C53.4048 164.013 53.8163 161.567 54.2279 159.12C54.5034 157.456 54.7784 155.792 55.0529 154.128C57.1819 141.274 57.1819 141.274 58.0448 137.16C57.4068 137.438 57.4068 137.438 56.756 137.722C46.512 142.008 35.3474 146.423 24.1171 146.473C21.4505 138.347 19.0379 130.152 16.7311 121.917C16.279 120.307 15.8213 118.698 15.3635 117.089C13.8436 111.618 12.6588 106.419 12.2424 100.753C14.0084 100.325 15.7757 99.9032 17.5436 99.4834C18.5277 99.2476 19.5117 99.0119 20.5256 98.769C23.2689 98.2134 23.2689 98.2134 26.6617 98.2134Z" fill="white"/>
<path d="M98.758 22.0134C99.5758 22.4925 100.394 22.9717 101.236 23.4653C102.319 24.0928 103.401 24.7201 104.483 25.3471C105.021 25.6631 105.559 25.9791 106.113 26.3046C111.202 29.2412 115.215 29.7972 121.023 30.1096C121.971 30.1645 121.971 30.1645 122.938 30.2204C124.491 30.3099 126.044 30.3953 127.597 30.4801C126.411 34.6947 125.155 38.821 123.462 42.8626C121.923 46.5788 120.71 50.3441 119.539 54.1867C118.138 58.7808 116.599 63.2442 114.744 67.6805C113.823 69.9195 113.059 72.1992 112.329 74.5067C113.449 74.7861 114.568 75.0655 115.722 75.3534C116.002 74.5152 116.282 73.677 116.57 72.8134C119.198 71.0649 119.924 70.8705 122.931 70.8555C123.588 70.8413 124.244 70.8271 124.919 70.8125C127.211 71.1978 127.936 71.7974 129.293 73.6601C130.014 79.1483 130.014 79.1483 128.428 81.9746C126.607 84.2484 125.293 85.4333 122.507 86.3601C120.864 86.4725 120.864 86.4725 119.115 86.4659C118.249 86.4692 118.249 86.4692 117.365 86.4725C115.722 86.3601 115.722 86.3601 113.177 85.5134C113.021 87.0441 113.021 87.0441 112.863 88.6057C112.266 93.9672 111.416 99.2877 110.58 104.616C110.422 105.632 110.264 106.647 110.101 107.694C109.714 110.178 109.326 112.663 108.936 115.147C101.742 117.349 95.0735 117.963 87.5725 118.004C86.2891 118.021 86.2891 118.021 84.9799 118.039C78.7518 118.002 72.9952 117.105 67.3749 114.3C67.2261 109.64 67.7757 105.379 68.6472 100.806C68.8292 99.8167 68.8292 99.8167 69.015 98.8071C69.3118 97.1972 69.615 95.5885 69.9195 93.9801C70.5755 94.0292 71.2315 94.0783 71.9074 94.1289C76.9105 94.3452 81.1558 94.4594 85.336 91.4764C88.8086 87.5944 90.7671 82.6274 92.8207 77.8934C92.3778 78.1379 91.935 78.3823 91.4788 78.6342C85.2759 81.7572 79.1862 82.3573 72.464 80.4334C73.9608 75.2625 75.5986 70.2105 77.5532 65.1934C77.0393 65.0493 76.5254 64.9053 75.996 64.7568C70.7172 63.2328 65.6561 61.3866 60.5894 59.2667C64.2929 54.7888 68.2413 50.815 72.5171 46.8842C77.1259 42.6066 81.6675 38.2852 86.0881 33.8138C89.8828 29.9788 93.7803 26.3338 97.9098 22.8601C98.1897 22.5807 98.4696 22.3013 98.758 22.0134Z" fill="white"/>
<path d="M84.3387 121.92C86.1941 123.772 86.1941 123.772 86.8832 126.153C86.7582 128.713 86.3957 129.962 84.7313 131.921C80.8947 137.649 83.8915 148.363 84.7628 154.834C85.0041 156.666 85.2428 158.498 85.4784 160.331C85.585 161.126 85.6916 161.922 85.8015 162.741C86.4751 169.544 86.4751 169.544 84.5143 172.379C83.5089 173.412 83.5089 173.412 82.4832 174.466C81.8239 175.157 81.1646 175.848 80.4853 176.56C76.1634 180.888 76.1634 180.888 74.1604 182.88C72.527 180.829 70.9549 178.738 69.3893 176.636C68.9301 176.061 68.4708 175.485 67.9977 174.893C66.2154 172.452 64.8586 170.505 64.7841 167.427C65.1929 165.158 65.8103 163.059 66.5266 160.867C66.8194 159.913 67.1121 158.959 67.4137 157.976C68.5904 154.213 69.8062 150.462 71.056 146.722C71.5916 145.112 72.1125 143.497 72.6329 141.883C72.9464 140.935 73.2599 139.986 73.5828 139.01C74.3468 135.443 74.0721 132.666 72.3579 129.434C71.6158 127.847 71.6158 127.847 71.7218 126.1C74.0425 120.971 79.4583 121.03 84.3387 121.92Z" fill="black"/>
<path d="M13.0908 71.12C14.2104 71.12 15.33 71.12 16.4835 71.12C16.7634 72.2376 17.0434 73.3552 17.3317 74.5067C16.492 74.9258 16.492 74.9258 15.6354 75.3533C15.9153 77.0297 16.1952 78.7061 16.4835 80.4333C17.3233 80.7127 18.163 80.9921 19.0281 81.28C18.4683 84.074 17.9085 86.868 17.3317 89.7467C17.8915 89.7467 18.4514 89.7467 19.0281 89.7467C18.9232 88.5679 18.9232 88.5679 18.8161 87.3654C19.0281 84.6667 19.0281 84.6667 20.6185 83.0792C22.4209 82.1267 22.4209 82.1267 24.1173 82.1267C24.1173 81.2885 24.1173 80.4503 24.1173 79.5867C23.3126 79.6041 22.5078 79.6216 21.6787 79.6396C19.0281 79.5867 19.0281 79.5867 17.3317 78.74C17.6116 77.9018 17.8915 77.0636 18.1799 76.2C20.7668 74.9089 22.9657 75.1538 25.8137 75.3533C27.5161 76.622 28.2444 77.4018 28.726 79.4808C28.7359 84.8567 28.3002 90.4407 24.9655 94.8267C21.0827 96.6437 17.3295 97.5063 13.0908 98.2133C7.84445 93.0193 7.84445 93.0193 6.30524 90.5933C6.30524 89.7551 6.30524 88.9169 6.30524 88.0533C8.26456 87.4945 10.2239 86.9357 12.2426 86.36C11.9627 85.8012 11.6828 85.2424 11.3944 84.6667C10.5547 84.6667 9.71497 84.6667 8.84982 84.6667C8.56991 83.5491 8.29001 82.4315 8.00162 81.28C7.44182 81.28 6.88201 81.28 6.30524 81.28C6.30524 82.9564 6.30524 84.6328 6.30524 86.36C5.74543 86.36 5.18563 86.36 4.60886 86.36C3.24874 83.3901 2.72556 81.1585 2.91247 77.8933C4.03208 77.8933 5.1517 77.8933 6.30524 77.8933C6.30524 78.4521 6.30524 79.0109 6.30524 79.5867C6.86505 79.5867 7.42485 79.5867 8.00162 79.5867C8.00162 77.6309 8.00162 75.6751 8.00162 73.66C9.12124 74.2188 10.2409 74.7776 11.3944 75.3533C11.9542 73.9563 12.514 72.5593 13.0908 71.12Z" fill="white"/>
<path d="M114.025 143.933C118.266 146.241 122.06 148.779 125.847 151.765C126.596 152.348 126.596 152.348 127.36 152.942C128.572 153.887 129.781 154.836 130.989 155.787C129.625 160.065 127.054 163.272 124.363 166.793C123.92 167.385 123.478 167.976 123.022 168.586C120.503 171.914 117.909 174.932 114.874 177.8C113.868 170.727 113.929 163.705 113.972 156.58C113.977 155.351 113.98 154.121 113.984 152.891C113.993 149.905 114.008 146.919 114.025 143.933Z" fill="white"/>
<path d="M118.737 180.485C121.911 181.559 123.669 182.928 125.9 185.42C126.278 187.877 125.896 189.868 125.052 192.193C123.356 194.469 123.356 194.469 121.659 196.427C120.99 198.7 120.99 198.7 120.811 200.66C121.651 200.38 122.49 200.101 123.356 199.813C123.635 199.254 123.915 198.696 124.204 198.12C124.764 198.12 125.323 198.12 125.9 198.12C125.583 200.415 125.21 201.354 123.515 202.988C121.659 204.047 121.659 204.047 118.266 204.047C118.266 203.488 118.266 202.929 118.266 202.353C116.867 202.633 115.467 202.912 114.025 203.2C113.919 196.638 113.919 196.638 114.874 194.733C114.489 195.117 114.104 195.502 113.707 195.897C112.682 196.92 111.658 197.943 110.633 198.967C109.944 197.273 109.944 197.273 109.784 194.733C110.982 192.32 112.455 190.145 114.025 187.96C112.346 188.519 110.667 189.077 108.936 189.653C109.411 186.51 110.616 185.132 112.965 183.039C113.538 182.509 114.111 181.98 114.701 181.435C116.57 180.34 116.57 180.34 118.737 180.485Z" fill="white"/>
<path d="M19.8761 52.4933C21.8925 53.981 22.4027 54.9597 23.0038 57.4146C23.5566 62.5126 23.3329 67.6944 23.2689 72.8133C21.8694 72.8133 20.4699 72.8133 19.0279 72.8133C18.3435 68.5992 18.0421 64.5541 18.0207 60.2721C18.0087 59.1665 17.9966 58.0609 17.9843 56.9218C18.1797 54.1866 18.1797 54.1866 19.8761 52.4933Z" fill="white"/>
<path d="M102.416 43.3389C102.888 43.5659 103.36 43.7929 103.847 44.0268C104.275 48.5094 103.159 50.6428 100.454 54.1868C99.0547 53.9074 97.6551 53.628 96.2132 53.3401C95.8443 49.5837 95.8103 47.9497 98.1217 44.8735C100.454 43.1801 100.454 43.1801 102.416 43.3389Z" fill="black"/>
<path d="M90.2761 38.9467C91.6756 39.2261 93.0751 39.5055 94.517 39.7934C94.8115 42.9534 94.7164 44.5344 93.0857 47.3075C91.1243 49.1067 91.1243 49.1067 88.7917 49.3713C87.8471 49.2403 87.8471 49.2403 86.8833 49.1067C86.6009 45.5128 86.5111 43.7258 88.5797 40.693C89.1395 40.1167 89.6993 39.5404 90.2761 38.9467Z" fill="black"/>
<path d="M106.392 32.1733C109.302 33.1416 109.712 33.7523 111.322 36.2479C111.712 36.8296 112.102 37.4113 112.505 38.0106C113.177 39.7933 113.177 39.7933 112.445 41.7082C112.127 42.1939 111.809 42.6796 111.481 43.1799C107.905 41.9053 106.51 39.6413 104.695 36.4066C104.695 35.289 104.695 34.1714 104.695 33.0199C105.255 32.7405 105.815 32.4611 106.392 32.1733Z" fill="black"/>
<path d="M92.8204 29.6333C96.1793 29.6333 99.5381 29.6333 102.999 29.6333C102.439 31.0303 101.879 32.4273 101.302 33.8667C98.5033 33.8667 95.7043 33.8667 92.8204 33.8667C92.8204 32.4697 92.8204 31.0727 92.8204 29.6333Z" fill="black"/>
<path d="M8.84941 71.12C9.96903 71.12 11.0886 71.12 12.2422 71.12C12.2422 74.4728 12.2422 77.8256 12.2422 81.28C11.9623 81.28 11.6824 81.28 11.394 81.28C11.3065 80.3545 11.219 79.429 11.1289 78.4754C10.5686 75.4756 10.3739 74.5639 8.00122 72.8133C8.28112 72.2545 8.56103 71.6957 8.84941 71.12Z" fill="black"/>
<path d="M153.89 154.093C154.45 154.373 155.01 154.652 155.587 154.94C155.027 156.337 154.467 157.734 153.89 159.173C153.051 159.173 152.211 159.173 151.346 159.173C151.832 156.746 152.076 155.904 153.89 154.093Z" fill="black"/>
</svg>
