<svg width="286" height="381" viewBox="0 0 286 381" fill="none" xmlns="http://www.w3.org/2000/svg">
<rect width="286" height="381" fill="#1E1E1E"/>
<rect id="Rectangle 35" x="-711" y="-569" width="3557" height="1503" stroke="white" stroke-width="4"/>
<g id="Cash">
<rect width="1440" height="1024" transform="translate(-556 -284)" fill="#F9EFE5"/>
<g id="Group 77">
<path id="Vector" d="M180.943 0.49244C180.943 4.86955 180.943 9.24665 180.943 13.7564C181.916 13.2918 182.889 12.8272 183.892 12.3485C185.169 11.7481 186.447 11.1482 187.725 10.5485C188.367 10.2411 189.008 9.93375 189.669 9.61704C190.595 9.18494 190.595 9.18494 191.54 8.74412C192.109 8.47533 192.677 8.20655 193.262 7.92962C194.89 7.38132 195.552 7.29887 197.105 7.98946C198.672 10.0977 199.515 12.4604 200.424 14.9098C200.571 15.304 200.717 15.6982 200.868 16.1043C202.284 19.9583 203.573 23.8546 204.826 27.7637C205.692 30.4226 206.654 32.9979 207.755 35.5694C209.296 39.2008 210.509 42.8996 211.681 46.664C211.883 47.3059 212.085 47.9478 212.294 48.6092C212.665 49.7851 213.034 50.9614 213.402 52.1382C213.732 53.1881 214.074 54.2343 214.422 55.2784C214.922 55.3259 215.422 55.3735 215.938 55.4225C219.752 56.2694 221.963 58.5536 224.235 61.622C225.829 64.2862 226.266 66.5283 226.22 69.5876C226.215 69.9953 226.21 70.4031 226.205 70.8232C226.039 75.9557 224.219 79.3549 220.777 83.0768C218.789 84.854 216.035 86.9965 213.268 86.9965C213.562 87.6832 213.856 88.3699 214.16 89.0774C215.251 91.626 216.34 94.1756 217.429 96.7254C217.9 97.8287 218.372 98.9318 218.845 100.035C219.524 101.62 220.201 103.206 220.878 104.793C221.09 105.286 221.301 105.778 221.519 106.286C221.716 106.748 221.912 107.209 222.115 107.685C222.288 108.09 222.461 108.494 222.639 108.911C223.081 110.064 223.081 110.064 223.342 111.335C223.446 111.677 223.551 112.019 223.658 112.371C224.804 112.782 225.961 113.158 227.122 113.524C243.092 121.763 252.409 136.733 257.715 153.316C257.869 153.793 258.022 154.271 258.18 154.762C259.074 157.549 259.951 160.341 260.819 163.135C261.128 164.113 261.455 165.085 261.785 166.055C263.758 172.099 265.043 178.401 266.104 184.661C266.302 185.781 266.512 186.898 266.729 188.015C269.344 201.491 269.594 214.587 269.26 228.286C268.879 228.286 268.498 228.286 268.106 228.286C268.078 228.737 268.05 229.187 268.021 229.65C267.697 234.361 267.105 238.977 266.351 243.636C266.173 244.762 265.995 245.889 265.816 247.015C265.628 248.2 265.438 249.385 265.249 250.57C264.851 253.055 264.46 255.541 264.07 258.027C263.012 264.772 261.951 271.517 260.85 278.255C258.027 295.592 256.446 312.944 255.129 330.456C254.748 335.504 254.326 340.549 253.897 345.593C253.721 347.673 253.548 349.754 253.375 351.834C253.282 352.942 253.19 354.051 253.097 355.159C252.526 355.159 251.954 355.159 251.366 355.159C251.649 355.677 251.933 356.195 252.225 356.729C253.558 359.837 253.283 363.047 253.206 366.369C253.194 367.331 253.194 367.331 253.182 368.314C253.162 369.888 253.133 371.462 253.097 373.037C250.089 373.411 247.151 373.684 244.114 373.649C243.518 373.644 242.922 373.639 242.308 373.634C241.648 373.624 241.648 373.624 240.975 373.613C240.785 373.233 240.594 372.852 240.398 372.46C239.797 372.867 239.797 372.867 239.184 373.283C233.063 376.604 223.913 375.522 217.166 375.494C215.374 375.487 213.582 375.494 211.79 375.501C210.649 375.5 209.509 375.499 208.368 375.497C207.566 375.5 207.566 375.5 206.747 375.504C206.255 375.5 205.763 375.496 205.256 375.493C204.607 375.491 204.607 375.491 203.944 375.49C202.878 375.343 202.878 375.343 201.723 374.19C201.723 373.429 201.723 372.668 201.723 371.883C200.39 371.883 199.056 371.883 197.682 371.883C197.682 371.312 197.682 370.741 197.682 370.153C197.111 370.534 196.54 370.914 195.951 371.307C187.765 373.185 179.027 373.207 170.66 373.217C170.044 373.22 170.044 373.22 169.415 373.223C164.155 373.237 158.968 373.021 153.812 371.883C153.235 371.307 153.235 371.307 153.019 370.045C153.41 367.113 155.627 365.346 157.867 363.611C162.666 360.526 167.427 358.102 172.861 356.312C173.226 356.191 173.59 356.07 173.966 355.945C180.345 353.901 186.406 353.745 193.065 354.006C193.065 353.625 193.065 353.244 193.065 352.852C189.826 352.472 186.588 352.091 183.252 351.699C182.667 345.68 182.476 339.683 182.35 333.641C182.338 333.085 182.326 332.529 182.314 331.956C181.787 306.226 181.761 280.483 182.841 254.768C183.231 245.357 183.318 235.974 183.252 226.556C174.03 226.676 174.03 226.676 166.331 230.737C165.985 231.193 165.639 231.649 165.283 232.118C162.872 235.15 158.679 237.561 154.967 238.667C153.184 238.813 151.415 238.802 149.627 238.775C149.15 238.775 148.672 238.774 148.18 238.774C144.658 238.748 144.658 238.748 143.999 238.09C142.228 237.926 140.456 237.832 138.68 237.732C137.072 237.514 137.072 237.514 135.918 236.36C134.165 236.324 132.441 236.438 130.691 236.545C128.991 236.36 128.991 236.36 127.832 235.166C127.453 234.799 127.073 234.432 126.682 234.053C123.974 234.271 121.624 235.156 119.108 236.139C118.725 236.288 118.343 236.437 117.948 236.59C116.734 237.063 115.521 237.541 114.308 238.018C113.496 238.335 112.683 238.651 111.871 238.967C107.48 240.676 107.48 240.676 103.133 242.495C100.786 243.492 98.6502 244.098 96.0885 243.857C94.8979 242.704 94.8979 242.704 93.7795 240.974C93.1005 240.329 92.4005 239.706 91.687 239.099C89.762 237.456 87.867 235.784 85.9868 234.089C85.4927 233.644 84.9986 233.199 84.4896 232.74C84.1264 232.412 83.7633 232.084 83.3892 231.747C82.2035 232.303 81.138 232.857 80.0881 233.643C77.2073 235.802 74.7246 236.253 71.1454 236.108C68.5084 235.577 67.6051 234.493 66.072 232.323C66.072 231.752 66.072 231.181 66.072 230.593C65.5542 230.379 65.5542 230.379 65.0258 230.161C63.5597 229.324 62.915 228.562 62.0314 227.133C61.9599 226.764 61.8885 226.396 61.8149 226.016C61.5166 224.67 61.5166 224.67 60.0832 223.565C58.3586 221.719 57.9195 220.317 57.2353 217.942C56.8873 216.672 56.8873 216.672 55.8621 215.563C54.6247 213.738 54.7849 211.924 55.1045 209.832C55.9588 206.751 57.0815 204.27 59.2895 201.939C60.7222 200.41 60.8651 200.128 61.1294 197.902C60.9289 196.107 60.9289 196.107 60.5883 194.838C60.1323 193.016 60.0993 191.516 60.2997 189.648C61.5691 188.508 61.5691 188.508 63.1859 187.341C63.6703 186.974 64.1547 186.607 64.6538 186.228C76.016 177.878 85.1837 176.853 98.952 176.886C100.545 176.889 102.138 176.886 103.731 176.882C104.746 176.882 105.76 176.883 106.774 176.884C107.25 176.883 107.725 176.882 108.215 176.881C111.541 176.894 111.541 176.894 112.828 177.537C113.036 176.969 113.036 176.969 113.248 176.389C114.191 174.164 115.349 172.086 116.508 169.968C118.344 166.591 119.881 163.32 120.939 159.606C121.487 158.507 121.487 158.507 122.63 158.02C123.796 157.93 123.796 157.93 124.95 158.507C124.293 162.147 123.207 165.178 121.625 168.518C120.15 171.66 119.126 174.671 118.601 178.114C119.284 178.261 119.967 178.407 120.671 178.558C129.544 180.481 129.544 180.481 133.584 181.797C139.732 183.641 146.43 180.709 152.081 178.114C154.469 176.57 156.135 174.517 157.739 172.181C158.519 171.067 159.356 170.013 160.209 168.955C161.761 167.03 163.277 165.083 164.78 163.12C165.732 163.31 166.685 163.501 167.666 163.697C167.172 166.896 164.734 169.011 162.7 171.39C161.845 172.405 161.018 173.438 160.191 174.476C154.617 181.38 154.617 181.38 149.772 182.728C148.532 183.146 147.294 183.567 146.056 183.989C145.473 184.176 144.89 184.362 144.29 184.555C142.868 184.989 142.868 184.989 141.69 185.611C142.022 185.791 142.353 185.971 142.695 186.157C144.213 186.982 145.73 187.811 147.246 188.639C147.768 188.922 148.289 189.205 148.827 189.497C150.303 190.305 151.771 191.126 153.235 191.955C153.794 192.259 153.794 192.259 154.364 192.57C155.918 193.484 156.617 194.001 157.163 195.748C157.176 196.257 157.19 196.765 157.204 197.289C157.226 197.804 157.248 198.318 157.271 198.848C157.273 199.238 157.274 199.627 157.276 200.028C162.814 199.157 167.578 196.207 171.129 191.955C171.584 191.411 172.039 190.868 172.507 190.308C173.436 189.182 174.359 188.051 175.274 186.913C176.325 185.611 176.325 185.611 176.902 185.034C176.946 183.277 176.954 181.533 176.938 179.777C176.936 179.242 176.934 178.708 176.931 178.157C176.922 175.864 176.906 173.571 176.89 171.278C176.879 169.606 176.873 167.933 176.866 166.26C176.859 165.499 176.859 165.499 176.851 164.721C176.811 154.205 176.811 154.205 178.922 152.055C180.365 151.01 180.365 151.01 180.943 151.01C180.94 151.33 180.937 151.651 180.935 151.981C180.672 171.694 180.672 171.694 181.844 191.356C182.155 194.441 182.151 197.507 182.097 200.605C182.609 200.415 183.121 200.225 183.648 200.028C185.411 199.497 186.636 199.402 188.447 199.452C188.438 199.072 188.43 198.691 188.421 198.3C188.372 194.278 188.661 190.391 189.168 186.404C189.244 185.789 189.319 185.175 189.397 184.541C190.05 179.364 190.858 174.215 191.754 169.074C192.936 162.648 192.936 162.648 191.044 156.56C189.601 153.973 189.601 153.973 189.601 152.74C189.22 152.74 188.839 152.74 188.447 152.74C188.357 153.203 188.357 153.203 188.266 153.677C187.765 155.407 186.971 156.914 186.138 158.507C185.376 158.316 184.614 158.126 183.829 157.93C184.137 155.385 184.744 153.582 186.043 151.377C186.372 150.818 186.701 150.259 187.04 149.684C187.385 149.11 187.73 148.537 188.086 147.946C188.597 147.069 188.597 147.069 189.119 146.174C191.689 141.856 191.689 141.856 193.642 141.206C194.925 141.167 196.196 141.207 197.48 141.242C198.95 141.203 200.29 140.953 201.723 140.629C202.17 141.187 202.616 141.744 203.076 142.319C203.365 142.68 203.655 143.041 203.953 143.413C204.585 144.203 205.216 144.994 205.847 145.786C207.259 147.559 208.673 149.324 210.158 151.037C210.577 151.527 210.996 152.018 211.428 152.523C211.801 152.947 212.174 153.371 212.558 153.807C213.268 155.046 213.268 155.046 213.094 156.646C212.961 157.07 212.828 157.493 212.691 157.93C210.698 157.108 209.746 156.144 208.506 154.398C208.205 153.98 207.904 153.562 207.595 153.132C207.372 152.812 207.148 152.492 206.918 152.163C205.68 153.4 205.194 154.351 204.501 155.947C204.291 156.412 204.08 156.877 203.863 157.355C202.885 161.494 204.324 165.86 205.331 169.896C205.456 170.413 205.582 170.93 205.711 171.462C206.247 173.665 206.79 175.867 207.336 178.068C207.741 179.704 208.141 181.342 208.542 182.98C208.668 183.481 208.794 183.982 208.925 184.499C209.545 187.042 209.955 189.314 209.804 191.955C210.185 191.955 210.566 191.955 210.959 191.955C216.453 172.007 216.453 172.007 220.451 151.72C220.772 150.433 220.772 150.433 221.926 149.279C223.153 149.496 223.153 149.496 224.235 149.856C224.168 150.986 224.095 152.115 224.019 153.244C223.979 153.873 223.939 154.502 223.897 155.15C222.739 165.827 219.619 176.77 216.659 187.089C216.534 187.548 216.409 188.006 216.28 188.479C215.317 191.698 213.914 193.673 211.024 195.543C206.028 197.871 201.124 199.735 195.734 200.93C194.664 201.175 193.594 201.42 192.523 201.666C192.017 201.781 191.51 201.896 190.988 202.015C189.292 202.407 187.606 202.836 185.921 203.272C182.642 204.106 179.329 204.741 176.004 205.365C174.019 205.755 174.019 205.755 172.171 206.424C170.552 206.949 170.552 206.949 168.243 206.949C168.31 207.288 168.377 207.628 168.446 207.978C168.753 209.545 169.058 211.112 169.362 212.68C169.467 213.214 169.572 213.748 169.681 214.298C170.321 217.611 170.802 220.891 171.129 224.25C180.863 223.303 190.306 221.687 199.833 219.492C201.598 219.088 203.365 218.7 205.135 218.316C214.478 216.252 224.556 213.894 230.321 205.548C237.835 192.305 240.972 175.62 243.551 160.788C243.862 159.66 243.862 159.66 245.016 158.507C246.243 158.723 246.243 158.723 247.325 159.083C247.035 164.192 246.062 169.065 244.908 174.041C244.818 174.433 244.728 174.825 244.636 175.228C237.256 207.346 237.256 207.346 227.604 214.177C224.057 216.323 220.498 217.879 216.587 219.24C216.036 219.439 215.486 219.639 214.918 219.844C212.714 220.629 210.706 221.323 208.379 221.63C206.836 221.815 206.836 221.815 205.863 223.074C205.592 223.533 205.321 223.993 205.042 224.466C204.765 224.922 204.489 225.379 204.203 225.849C203.956 226.273 203.709 226.697 203.455 227.133C203.074 227.704 202.693 228.275 202.3 228.863C201.919 228.863 201.538 228.863 201.146 228.863C200.276 227.854 200.276 227.854 199.342 226.556C199.031 226.128 198.72 225.7 198.4 225.259C198.163 224.926 197.926 224.593 197.682 224.25C197.181 224.333 196.679 224.416 196.163 224.502C195.497 224.609 194.832 224.716 194.147 224.826C193.491 224.933 192.834 225.04 192.158 225.151C190.316 225.385 188.569 225.448 186.715 225.403C186.715 226.735 186.715 228.067 186.715 229.44C193.385 229.404 200.056 229.359 206.726 229.304C209.826 229.278 212.925 229.256 216.025 229.24C238.505 229.778 238.505 229.778 260.679 226.821C262.376 226.404 264.059 226.523 265.797 226.556C265.683 213.873 265.361 201.558 262.91 189.071C262.758 188.248 262.606 187.425 262.455 186.602C262.059 184.534 261.626 182.478 261.179 180.421C261.006 179.587 260.833 178.752 260.66 177.918C259.532 172.557 258.152 167.354 256.42 162.154C255.926 160.637 255.461 159.112 254.996 157.585C251.71 147.016 247.569 136.642 239.821 128.518C239.349 127.996 238.877 127.473 238.391 126.935C234.164 122.444 229.2 118.6 223.658 115.831C223.637 116.147 223.615 116.463 223.593 116.789C223.33 119.949 222.872 123.059 222.287 126.176C222.152 126.906 222.016 127.637 221.877 128.39C221.341 130.279 221.093 130.794 219.618 131.979C218.525 132.34 218.525 132.34 217.291 132.558C214.261 133.151 211.326 133.97 208.361 134.826C207.85 134.971 207.339 135.117 206.812 135.266C204.42 135.953 202.048 136.667 199.694 137.475C196.898 138.422 194.058 139.116 191.189 139.8C186.816 140.744 186.816 140.744 182.674 142.359C182.277 143.315 181.892 144.276 181.52 145.243C180.293 145.711 180.293 145.711 179.211 145.819C179.211 144.868 179.211 143.916 179.211 142.936C178.578 143.144 177.944 143.352 177.292 143.567C176.452 143.837 175.613 144.107 174.773 144.378C174.357 144.515 173.941 144.653 173.512 144.794C171.306 145.499 169.436 146.004 167.089 145.819C163.755 139.563 160.502 133.275 157.351 126.925C155.298 122.801 153.168 118.722 150.975 114.671C150.636 114.039 150.636 114.039 150.29 113.394C150.092 113.028 149.893 112.661 149.689 112.284C149.173 111.172 148.876 110.107 148.617 108.911C144.972 110.064 141.452 111.408 137.938 112.912C137.482 113.105 137.026 113.298 136.556 113.496C136.101 113.689 135.647 113.882 135.178 114.081C134.73 114.271 134.281 114.461 133.819 114.657C132.884 115.067 131.956 115.494 131.036 115.935C130.582 116.151 130.127 116.368 129.659 116.59C129.253 116.79 128.847 116.99 128.428 117.195C127.031 117.633 126.333 117.382 124.95 116.985C124.892 100.655 124.863 84.329 125.203 68.0017C125.22 67.1469 125.22 67.1469 125.237 66.275C125.387 58.9475 125.674 51.6375 126.105 44.3212C125.166 44.3383 125.166 44.3383 124.209 44.3558C115.768 44.2195 107.436 37.459 101.284 32.2106C101.248 30.913 101.248 30.913 101.861 29.3271C103.005 28.7769 104.157 28.239 105.328 27.7485C107.415 26.8692 109.47 25.9282 111.527 24.9839C112.352 24.6075 113.177 24.2313 114.002 23.8553C115.274 23.2752 116.545 22.6947 117.816 22.1131C122.464 19.9869 127.105 17.8976 131.877 16.0632C132.963 15.6352 134.049 15.2071 135.136 14.7791C147.55 9.93939 160.103 5.49937 172.861 1.64583C173.439 1.45626 174.018 1.2667 174.613 1.07139C175.13 0.904123 175.648 0.736859 176.18 0.564527C176.606 0.423282 177.032 0.282037 177.47 0.136512C178.634 -0.0842537 178.634 -0.0842536 180.943 0.49244Z" fill="black"/>
<path id="Vector_2" d="M171.707 24.7134C172.088 24.7134 172.469 24.7134 172.861 24.7134C173.181 25.3373 173.5 25.9613 173.83 26.6041C175.045 28.9766 176.261 31.3487 177.477 33.7207C177.998 34.7366 178.518 35.7525 179.038 36.7686C182.264 43.0685 185.525 49.3485 188.831 55.6066C190.767 59.2717 192.674 62.9513 194.58 66.6318C194.943 67.332 195.306 68.0323 195.669 68.7325C196.533 70.3989 197.397 72.0656 198.26 73.7323C199.022 73.7323 199.784 73.7323 200.569 73.7323C200.584 73.2863 200.599 72.8403 200.614 72.3807C200.854 67.9728 201.282 64.4129 204.465 61.169C207.419 58.5683 209.32 57.8798 213.293 57.9318C216.702 58.3907 219.022 60.1813 221.158 62.8045C223.165 65.9674 223.698 68.8931 223.081 72.579C221.924 76.6714 219.392 80.765 215.694 83.0135C214.675 83.4641 214.675 83.4641 212.691 84.1128C211.709 84.4518 211.709 84.4518 210.707 84.7977C210.219 84.9523 209.73 85.1069 209.227 85.2662C209.668 87.2633 210.468 88.8992 211.401 90.7178C212.782 93.5628 213.951 96.5023 215.152 99.4265C215.612 100.547 216.075 101.666 216.539 102.786C217.381 104.824 218.212 106.867 219.041 108.911C219.239 109.389 219.437 109.867 219.641 110.359C222.094 116.474 219.531 123.001 217.886 129.095C210.836 131.136 203.771 133.111 196.677 135C193.199 135.928 189.727 136.876 186.262 137.853C185.506 138.066 184.75 138.278 183.994 138.49C182.549 138.897 181.105 139.306 179.662 139.72C176.028 140.739 172.587 141.501 168.821 141.782C168.624 141.403 168.427 141.023 168.224 140.633C164.257 133.001 160.28 125.375 156.263 117.77C154.94 115.262 153.619 112.753 152.297 110.244C151.809 109.317 151.32 108.39 150.832 107.462C150.482 106.798 150.132 106.134 149.772 105.451C145.635 105.694 142.206 107.457 138.48 109.163C137.205 109.74 135.929 110.316 134.653 110.891C134.092 111.147 133.532 111.403 132.954 111.667C131.272 112.383 129.574 112.956 127.837 113.524C127.797 105.476 127.923 97.4352 128.089 89.3887C128.115 88.0976 128.141 86.8066 128.167 85.5155C128.234 82.1538 128.303 78.792 128.372 75.4303C128.442 71.9854 128.512 68.5404 128.581 65.0955C128.717 58.3628 128.853 51.6302 128.991 44.8977C129.317 44.8718 129.642 44.8459 129.978 44.8192C131.478 44.6961 132.976 44.5626 134.475 44.4291C134.987 44.3886 135.499 44.3481 136.026 44.3063C139.362 44.0001 142.069 43.3207 145.154 42.0142C146.315 41.5907 146.315 41.5907 147.476 41.1672C154.911 38.3716 161.054 34.4423 167.089 29.3269C167.544 28.953 168 28.5791 168.469 28.1938C170.356 26.6792 170.356 26.6792 171.707 24.7134Z" fill="#F9EFE5"/>
<path id="Vector_3" d="M253.097 363.233C253.288 363.233 253.478 363.233 253.675 363.233C253.675 364.565 253.675 365.897 253.675 367.27C254.401 367.298 255.127 367.326 255.875 367.355C262.128 367.62 268.262 368.1 274.455 369C275.098 369.082 275.741 369.165 276.403 369.25C280.045 369.764 282.809 370.621 286 372.46C285.423 374.19 285.423 374.19 284.494 374.697C272.165 378.631 258.057 378.618 245.233 379.452C244.84 379.478 244.448 379.504 244.043 379.53C229.155 380.497 214.296 380.744 199.378 380.714C198.629 380.713 198.629 380.713 197.864 380.712C181.983 380.686 166.199 380.246 150.358 379.023C148.428 378.875 146.497 378.734 144.566 378.594C138.838 378.165 133.133 377.677 127.451 376.817C127.019 376.754 126.587 376.69 126.141 376.625C123.402 376.177 121.113 375.372 118.601 374.19C118.601 373.429 118.601 372.668 118.601 371.883C125.24 369.451 132.09 368.782 139.093 368.063C139.802 367.985 140.511 367.908 141.242 367.828C145.642 367.372 149.966 367.169 154.39 367.27C154.199 368.602 154.009 369.934 153.812 371.307C159.441 372.361 164.95 372.667 170.661 372.64C171.083 372.64 171.505 372.64 171.94 372.639C185.003 372.716 185.003 372.716 197.683 370.153C197.683 370.724 197.683 371.295 197.683 371.883C199.016 371.883 200.349 371.883 201.723 371.883C202.295 373.311 202.295 373.311 202.878 374.767C206.418 374.796 209.959 374.816 213.5 374.83C214.701 374.836 215.901 374.844 217.102 374.854C229.421 375.345 229.421 375.345 240.975 371.883C240.975 372.454 240.975 373.025 240.975 373.613C246.976 373.328 246.976 373.328 253.097 373.037C253.097 369.801 253.097 366.566 253.097 363.233Z" fill="#B4B3B4"/>
<path id="Vector_4" d="M221.349 258.851C221.54 258.851 221.73 258.851 221.926 258.851C221.937 259.353 221.948 259.855 221.959 260.372C222.665 293.72 222.665 293.72 224.5 327.021C224.903 332.648 225.203 338.28 225.498 343.913C225.547 344.835 225.596 345.757 225.645 346.679C225.754 348.736 225.86 350.794 225.967 352.852C229.205 353.423 232.444 353.994 235.78 354.582C235.78 354.963 235.78 355.343 235.78 355.736C235.096 355.779 234.411 355.822 233.706 355.866C224.528 356.564 217.166 359.07 209.227 363.809C209.112 363.028 209.112 363.028 208.995 362.23C208.893 361.55 208.791 360.87 208.686 360.169C208.586 359.493 208.485 358.817 208.382 358.121C208.118 356.303 208.118 356.303 207.495 354.582C208.067 354.392 208.638 354.202 209.227 354.006C209.274 353.486 209.32 352.966 209.368 352.43C209.545 350.464 209.723 348.499 209.904 346.533C209.981 345.689 210.057 344.845 210.132 344.001C210.489 340.003 210.849 336.03 211.525 332.071C212.591 325.508 212.884 318.823 213.369 312.197C213.867 305.442 214.449 298.794 215.741 292.14C216.357 288.94 216.81 285.72 217.272 282.496C218.061 277.096 218.873 271.701 219.726 266.312C219.822 265.695 219.918 265.077 220.018 264.441C220.108 263.874 220.198 263.307 220.292 262.723C220.371 262.225 220.45 261.726 220.531 261.212C220.772 260.004 220.772 260.004 221.349 258.851Z" fill="#F9EFE5"/>
<path id="Vector_5" d="M74.2531 60.3333C82.5673 66.8958 87.2984 75.3301 88.5848 85.843C89.513 95.8555 86.0151 104.688 80.5035 112.948C79.551 112.567 78.5986 112.186 77.6173 111.794C78.209 110.119 78.8441 108.808 79.8744 107.35C81.1543 105.335 81.9268 103.348 82.632 101.089C82.7544 100.717 82.8768 100.344 83.003 99.9596C85.735 91.4958 85.3167 82.5011 81.2972 74.5254C79.3388 71.1643 76.8904 68.4068 74.1538 65.6587C73.8123 65.2974 73.4708 64.9361 73.1189 64.5639C69.5112 61.0471 64.8363 59.0719 60.3001 57.0083C59.8499 56.7979 59.3998 56.5875 58.9359 56.3708C47.9093 52.6334 36.0955 54.2436 25.7973 59.127C16.499 63.7859 9.50221 72.0157 5.78714 81.698C4.96395 84.216 4.42044 86.6533 4.30797 89.3031C4.26332 90.1484 4.26332 90.1484 4.21778 91.0107C4.08921 95.517 4.68114 99.4294 6.03969 103.72C6.25064 104.439 6.25064 104.439 6.46585 105.171C9.21279 113.235 15.6407 119.27 22.9938 123.22C33.9316 128.475 46.5478 128.916 57.9912 125.058C58.7758 124.737 58.7758 124.737 59.5763 124.409C61.0511 123.837 62.1952 123.815 63.7636 123.905C63.6553 125.238 63.6553 125.238 63.1863 126.788C55.437 132.505 43.1711 132.369 34.0947 131.228C26.2446 129.931 18.8872 126.303 12.9666 121.021C12.535 120.65 12.1034 120.279 11.6587 119.897C4.16484 113.009 0.537899 103.406 0.0130665 93.3842C-0.262598 83.4945 3.84503 74.0665 10.2968 66.6679C11.1757 65.7442 12.0653 64.8305 12.9666 63.9286C13.3632 63.5257 13.7598 63.1228 14.1684 62.7076C30.85 46.8147 56.2597 47.1388 74.2531 60.3333Z" fill="black"/>
<path id="Vector_6" d="M142.268 197.722C148.295 197.853 154.062 201.515 159.285 204.25C161.319 205.298 163.111 205.982 165.358 206.372C165.689 208.701 166.018 211.03 166.344 213.359C166.455 214.151 166.567 214.942 166.68 215.733C166.842 216.874 167.002 218.015 167.162 219.156C167.258 219.842 167.355 220.527 167.455 221.234C167.947 225.559 167.947 225.559 166.986 227.002C164.153 229.676 161.121 231.933 157.854 234.053C157.106 234.557 157.106 234.557 156.343 235.072C155.889 235.307 155.435 235.541 154.967 235.783C154.396 235.593 153.824 235.403 153.236 235.207C153.617 234.957 153.998 234.707 154.39 234.45C154.962 233.968 154.962 233.968 155.545 233.477C155.545 232.906 155.545 232.335 155.545 231.747C153.009 232.202 151.323 233.573 149.265 235.047C148.04 235.783 148.04 235.783 146.309 235.783C146.309 235.403 146.309 235.022 146.309 234.63C147.466 233.68 148.687 232.852 149.917 231.999C150.25 231.725 150.583 231.452 150.927 231.17C150.927 230.789 150.927 230.409 150.927 230.017C148.914 230.386 147.542 231.209 145.84 232.323C143.403 233.831 141.655 234.506 138.805 234.63C139.584 232.295 140.791 231.895 142.845 230.593C144.985 229.151 144.985 229.151 146.201 226.989C146.254 226.489 146.254 226.489 146.309 225.98C144.331 226.597 142.874 227.499 141.258 228.755C134.993 233.549 134.993 233.549 131.553 233.369C131.089 233.214 130.624 233.059 130.146 232.9C129.956 231.948 129.765 230.997 129.569 230.017C130.301 229.438 131.035 228.862 131.77 228.286C132.243 227.915 132.716 227.545 133.204 227.162C134.237 226.379 135.29 225.62 136.36 224.887C140.226 222.239 143.052 219.442 145.732 215.599C145.994 215.229 146.257 214.859 146.527 214.477C148.041 212.127 148.5 210.282 148.04 207.525C146.265 205.282 144.092 203.862 141.691 202.335C141.114 201.759 141.114 201.759 141.005 200.353C141.114 198.875 141.114 198.875 142.268 197.722Z" fill="#F9EFE5"/>
<path id="Vector_7" d="M36.3084 66.2718C37.7876 66.8124 37.7876 66.8124 38.8338 68.5065C39.5193 70.2726 39.5193 70.2726 39.5193 71.426C39.9003 71.2357 40.2813 71.0453 40.6738 70.8493C43.5767 70.6043 46.1181 70.6429 48.7551 72.0027C48.8273 73.949 48.8273 73.949 48.7551 76.0395C48.3742 76.4201 47.9932 76.8007 47.6007 77.1929C46.2252 77.1794 46.2252 77.1794 44.6423 76.9766C44.117 76.9127 43.5916 76.8488 43.0504 76.7829C42.6471 76.7279 42.2438 76.6729 41.8283 76.6162C41.9816 76.9024 42.1348 77.1886 42.2928 77.4835C43.6271 80.0474 44.5902 82.4633 45.2917 85.2666C45.6898 85.2265 46.0879 85.1863 46.498 85.145C50.3644 84.9224 52.6996 85.4084 55.788 87.7874C58.0395 89.8046 58.6724 91.3761 58.8929 94.3495C58.8065 97.7361 57.3053 100.067 55.1048 102.567C54.5333 102.853 54.5333 102.853 53.9503 103.144C54.3289 105.226 54.3289 105.226 55.1048 107.181C55.1278 108.334 55.1299 109.488 55.1048 110.641C53.8578 111.397 53.0979 111.818 51.6233 111.704C50.4869 111.218 50.4869 111.218 49.8826 110.026C49.6817 109.314 49.6817 109.314 49.4767 108.587C49.3368 108.11 49.1969 107.634 49.0528 107.143C48.9054 106.591 48.9054 106.591 48.7551 106.028C48.1837 106.313 48.1837 106.313 47.6007 106.604C46.1619 106.676 44.7463 106.711 43.3074 106.712C42.7176 106.723 42.7176 106.723 42.1158 106.734C39.9648 106.74 39.046 106.674 37.2104 105.451C36.9939 103.432 36.9939 103.432 37.2104 101.414C40.0354 99.5325 42.6221 100.786 45.8689 101.414C44.726 98.3691 43.5831 95.3242 42.4055 92.1869C40.9411 92.1156 40.9411 92.1156 39.4472 92.0428C35.7291 91.6994 33.7378 90.6024 31.2576 87.7896C29.4505 85.2488 29.262 83.1443 29.7063 80.0764C30.8143 77.5589 32.0285 75.8384 34.3242 74.3094C34.1218 73.6077 33.9194 72.9059 33.7109 72.1829C33.2176 70.2117 33.0336 68.7721 33.7469 66.8124C34.9014 66.2357 34.9014 66.2357 36.3084 66.2718Z" fill="black"/>
<path id="Vector_8" d="M61.4537 203.489C61.8347 203.489 62.2156 203.489 62.6082 203.489C62.4177 205.011 62.2272 206.534 62.0309 208.102C62.3241 207.936 62.6173 207.769 62.9193 207.598C65.3887 206.267 67.2308 205.384 70.1123 205.796C70.4932 206.176 70.8742 206.557 71.2667 206.949C71.2329 208.325 71.2329 208.325 70.6895 209.832C69.3704 210.997 69.3704 210.997 67.7672 212.031C67.2367 212.38 66.7061 212.728 66.1595 213.088C65.7495 213.346 65.3395 213.603 64.9171 213.869C65.1076 214.44 65.2981 215.011 65.4943 215.599C67.3703 214.972 67.3703 214.972 68.9578 213.869C70.3648 213.761 70.3648 213.761 71.844 213.869C72.9985 215.023 72.9985 215.023 73.0345 216.392C72.1016 218.695 70.578 219.135 68.3805 220.213C68.3805 220.974 68.3805 221.735 68.3805 222.52C69.8704 222.254 70.6516 221.974 71.844 221.006C72.9985 220.213 72.9985 220.213 74.2612 220.357C75.3074 220.79 75.3074 220.79 75.8846 221.366C76.2093 222.664 76.2093 222.664 75.8846 224.25C74.4501 225.407 72.8967 226.279 71.2667 227.133C71.4572 227.704 71.6477 228.275 71.844 228.863C72.2488 228.685 72.6536 228.506 73.0706 228.323C74.8111 227.68 76.3445 227.294 78.1936 227.133C78.7651 227.514 79.3365 227.894 79.9253 228.287C79.8892 229.296 79.8892 229.296 79.3481 230.593C76.6093 232.563 74.7188 233.356 71.2667 232.9C69.6038 232.047 69.0887 231.51 68.4166 229.764C67.8978 228.155 67.8978 228.155 66.2881 227.169C64.9171 225.98 64.9171 225.98 64.7367 224.106C64.7963 223.582 64.8558 223.059 64.9171 222.52C64.4647 222.353 64.0123 222.187 63.5462 222.015C62.0309 221.366 62.0309 221.366 60.8764 220.213C60.7478 219.056 60.6214 217.899 60.554 216.737C60.3929 215.537 60.3929 215.537 59.4288 214.739C58.3139 213.613 58.3177 213.017 58.3149 211.454C58.4002 208.564 59.3579 205.583 61.4537 203.489Z" fill="#F9EFE5"/>
<path id="Vector_9" d="M70.1127 118.138C73.6776 118.578 75.4156 120.639 77.6168 123.328C78.2385 124.471 78.7518 125.627 79.2719 126.818C80.3211 128.621 81.8698 129.765 83.502 131.033C85.0962 132.481 85.6481 133.625 85.8109 135.772C85.7733 137.199 85.7358 138.626 85.6982 140.053C87.7935 140.053 89.8889 140.053 92.0478 140.053C92.3335 141.194 92.3335 141.194 92.625 142.359C91.6116 143.372 90.2954 143.012 88.9474 143.015C88.5419 143.013 88.1363 143.01 87.7185 143.008C87.313 143.01 86.9074 143.013 86.4896 143.015C83.4623 143.009 83.4623 143.009 82.812 142.359C82.6933 140.495 82.6275 138.631 82.5662 136.764C82.1795 134.546 81.4816 133.577 79.9258 131.979C79.5448 131.789 79.1638 131.598 78.7713 131.402C78.8308 131.795 78.8904 132.187 78.9517 132.592C78.6951 135.001 77.4805 136.54 75.8851 138.322C73.7532 139.742 72.009 139.933 69.5355 139.476C67.817 138.331 66.8639 137.533 66.3945 135.475C66.2695 133.348 66.5122 132.207 67.6234 130.357C69.628 128.462 70.9483 127.416 73.7565 127.257C74.5245 127.311 74.5245 127.311 75.3079 127.365C74.0175 124.18 72.1879 122.492 69.5355 120.445C69.726 119.684 69.9165 118.922 70.1127 118.138Z" fill="black"/>
<path id="Vector_10" d="M64.34 194.838C66.469 195.799 68.3028 197.114 70.1845 198.479C70.5332 198.73 70.8818 198.981 71.241 199.239C72.0013 199.787 72.761 200.335 73.5203 200.884C74.7678 201.786 76.0172 202.685 77.267 203.583C79.4562 205.158 81.6418 206.738 83.826 208.32C85.104 209.244 86.385 210.163 87.6663 211.083C88.4533 211.651 89.2403 212.219 90.0271 212.788C90.5717 213.177 90.5717 213.177 91.1273 213.573C92.7387 214.743 93.816 215.655 94.9336 217.329C96.7207 217.041 98.3857 216.581 100.093 215.996C105.847 214.048 111.66 212.553 117.592 211.274C121.076 210.518 124.502 209.622 127.942 208.688C130.425 208.028 132.914 207.405 135.412 206.805C135.823 206.704 136.233 206.603 136.656 206.498C138.758 206 140.682 205.678 142.844 205.796C142.844 206.176 142.844 206.557 142.844 206.949C136.158 208.768 129.447 210.421 122.69 211.959C117.486 213.144 112.296 214.381 107.111 215.648C104.408 216.303 101.73 216.931 98.9743 217.329C99.0368 218.388 99.0368 218.388 99.1006 219.467C99.4818 226.26 99.6208 233.018 99.5515 239.82C99.361 239.82 99.1705 239.82 98.9743 239.82C98.6808 237.334 98.3941 234.847 98.1084 232.36C98.0258 231.66 97.9432 230.961 97.8581 230.241C97.4303 226.485 97.1446 222.839 97.2426 219.06C96.2901 219.06 95.3377 219.06 94.3564 219.06C94.4713 219.958 94.4713 219.958 94.5886 220.875C96.1823 233.407 96.1823 233.407 96.0881 239.244C95.7071 239.244 95.3261 239.244 94.9336 239.244C94.8697 238.671 94.8058 238.098 94.74 237.508C94.5003 235.368 94.2561 233.228 94.0105 231.088C93.9052 230.165 93.8011 229.242 93.6982 228.318C93.5496 226.985 93.3964 225.652 93.2425 224.32C93.1757 223.708 93.1757 223.708 93.1075 223.083C92.6139 218.146 92.6139 218.146 89.9549 214.207C89.3127 213.771 88.6627 213.347 88.0068 212.932C87.2742 212.44 86.5421 211.946 85.8105 211.452C85.4193 211.193 85.0281 210.933 84.6251 210.666C82.4196 209.179 80.2739 207.61 78.1215 206.048C77.6821 205.73 77.2427 205.412 76.7899 205.085C75.5252 204.169 74.2618 203.253 72.9985 202.335C72.4498 201.938 72.4498 201.938 71.89 201.533C70.9218 200.831 69.9573 200.125 68.994 199.416C68.4649 199.029 67.9358 198.641 67.3908 198.242C66.1346 197.198 65.2507 196.187 64.34 194.838Z" fill="#F9EFE5"/>
<path id="Vector_11" d="M115.137 178.114C115.708 178.305 116.28 178.495 116.869 178.691C116.869 179.262 116.869 179.833 116.869 180.421C117.44 180.481 118.012 180.54 118.6 180.601C120.539 180.881 122.239 181.456 124.059 182.187C125.6 182.755 127.16 183.215 128.736 183.674C136.668 186.012 143.608 189.984 150.682 194.183C151.036 194.393 151.39 194.603 151.754 194.819C152.658 195.415 152.658 195.415 153.812 196.568C153.812 197.139 153.812 197.71 153.812 198.299C153.05 198.299 152.288 198.299 151.503 198.299C151.694 197.537 151.884 196.776 152.08 195.992C151.585 195.848 151.089 195.703 150.579 195.555C148.876 194.933 147.493 194.201 145.966 193.242C140.873 190.082 135.418 188.007 129.821 185.936C129.412 185.784 129.004 185.633 128.583 185.477C124.711 184.047 120.85 182.678 116.869 181.574C116.44 181.444 116.012 181.313 115.57 181.178C114.423 180.89 114.423 180.89 112.828 181.574C111.843 181.63 110.857 181.652 109.871 181.656C109.267 181.66 108.664 181.664 108.042 181.669C107.389 181.671 106.736 181.673 106.064 181.676C104.678 181.689 103.292 181.703 101.906 181.717C99.7233 181.738 97.5411 181.755 95.3587 181.762C93.2506 181.771 91.143 181.795 89.035 181.82C88.0696 181.818 88.0696 181.818 87.0846 181.817C80.8882 181.912 75.8952 183.614 71.0143 187.413C66.9328 190.498 66.9328 190.498 64.9172 191.378C64.9172 190.807 64.9172 190.236 64.9172 189.648C66.6855 188.096 68.7131 186.884 70.6896 185.611C71.18 185.291 71.6703 184.97 72.1756 184.64C77.7711 181.121 82.4547 180.169 89.0485 180.187C89.7417 180.181 90.435 180.174 91.1492 180.168C94.098 180.141 97.0468 180.135 99.9958 180.126C102.155 180.117 104.314 180.098 106.474 180.079C107.478 180.081 107.478 180.081 108.502 180.084C109.43 180.075 109.43 180.075 110.377 180.066C110.921 180.065 111.466 180.064 112.027 180.063C113.634 179.808 114.141 179.367 115.137 178.114Z" fill="#F9EFE5"/>
<path id="Vector_12" d="M177.479 189.071C177.86 189.071 178.241 189.071 178.634 189.071C178.733 190.008 178.829 190.945 178.922 191.883C178.976 192.405 179.029 192.926 179.085 193.464C179.251 196.039 179.234 198.603 179.211 201.182C176.844 201.698 174.474 202.198 172.104 202.696C171.43 202.843 170.756 202.99 170.062 203.142C169.416 203.276 168.771 203.409 168.106 203.547C167.51 203.674 166.915 203.801 166.301 203.932C164.78 204.065 164.78 204.065 163.048 202.912C163.048 202.531 163.048 202.151 163.048 201.759C163.39 201.584 163.731 201.409 164.083 201.229C164.539 200.988 164.995 200.746 165.465 200.497C166.138 200.146 166.138 200.146 166.825 199.787C168.51 198.704 169.747 197.439 171.129 195.992C171.632 195.496 172.135 195 172.654 194.489C173.151 193.998 173.648 193.506 174.16 193C174.663 192.504 175.166 192.008 175.684 191.497C176.919 190.332 176.919 190.332 177.479 189.071Z" fill="#F9EFE5"/>
<path id="Vector_13" d="M163.625 69.696C165.645 70.9805 166.764 72.1115 167.666 74.3096C167.839 75.6094 167.839 75.6094 167.846 76.9407C167.856 77.3816 167.865 77.8224 167.875 78.2766C167.612 79.8139 167.176 80.307 165.934 81.2299C163.986 81.5543 163.986 81.5543 161.893 81.2299C160.102 79.7369 158.546 77.7925 158.313 75.4292C158.304 74.9764 158.295 74.5237 158.286 74.0573C158.263 73.3804 158.263 73.3804 158.24 72.6899C158.702 69.608 160.869 69.3106 163.625 69.696Z" fill="black"/>
<path id="Vector_14" d="M145.082 74.5977C147.264 74.9465 148.202 75.6693 149.772 77.1928C150.476 78.5996 150.465 79.5878 150.493 81.1575C150.516 81.9047 150.516 81.9047 150.538 82.6669C150.31 84.4118 149.845 85.1711 148.617 86.4199C146.669 86.8524 146.669 86.8524 144.577 86.4199C142.553 84.4635 141.523 82.1576 141.402 79.3554C141.784 76.4893 142.092 75.1172 145.082 74.5977Z" fill="black"/>
<path id="Vector_15" d="M189.024 112.372C189.024 113.133 189.024 113.894 189.024 114.678C187.565 115.218 186.939 115.354 185.489 114.715C182.617 113.654 179.604 113.462 176.737 114.647C173.71 116.445 171.916 118.691 169.975 121.599C169.213 121.408 168.451 121.218 167.666 121.022C167.745 117.872 169.041 116.204 171.13 114.007C175.995 109.545 183.3 109.104 189.024 112.372Z" fill="black"/>
<path id="Vector_16" d="M31.4378 97.3774C31.2474 98.1387 31.0569 98.8999 30.8606 99.6842C30.3591 99.7073 29.8576 99.7303 29.3408 99.7541C25.4256 100.032 25.4256 100.032 22.1276 101.928C20.4028 104.467 19.3754 107.075 18.7386 110.065C19.0169 109.857 19.2952 109.648 19.5819 109.434C19.9465 109.166 20.3111 108.899 20.6868 108.623C21.0484 108.355 21.41 108.088 21.7826 107.812C22.7793 107.181 22.7793 107.181 23.9337 107.181C24.8718 108.046 24.8718 108.046 25.6655 108.911C25.8559 107.96 26.0464 107.008 26.2427 106.028C28.5517 106.028 28.5517 106.028 29.7061 106.605C29.7061 105.653 29.7061 104.701 29.7061 103.721C30.2776 103.721 30.8491 103.721 31.4378 103.721C31.6477 106.307 31.6477 106.307 30.7524 107.578C29.5009 108.483 28.2689 108.958 26.8199 109.488C26.4271 109.714 26.0342 109.94 25.6294 110.173C24.511 110.641 24.511 110.641 23.3565 110.317C22.9755 110.234 22.5945 110.15 22.202 110.065C21.4294 110.637 20.6599 111.214 19.8931 111.795C18.3057 111.903 18.3057 111.903 17.0069 111.795C15.8976 108.674 17.3886 105.987 18.7386 103.144C20.2346 100.566 21.6136 98.8914 24.52 97.9924C26.8439 97.5859 29.0798 97.3774 31.4378 97.3774Z" fill="black"/>
<path id="Vector_17" d="M70.74 80.4346C75.0188 81.5174 75.0188 81.5174 76.4628 82.9599C76.3545 84.1133 76.3545 84.1133 75.8855 85.2667C74.1538 86.4201 74.1538 86.4201 72.4221 86.4201C72.2316 87.1813 72.0411 87.9426 71.8448 88.7269C71.2019 88.8815 70.559 89.0361 69.8967 89.1954C67.6781 89.6831 67.6781 89.6831 66.6497 91.6103C65.1104 91.2259 63.5711 90.8414 62.0318 90.457C62.2223 89.886 62.4128 89.3151 62.609 88.7269C63.371 88.7269 64.1329 88.7269 64.918 88.7269C64.918 89.1075 64.918 89.4881 64.918 89.8803C65.4895 89.8803 66.0609 89.8803 66.6497 89.8803C66.6497 89.119 66.6497 88.3578 66.6497 87.5735C67.7926 87.5735 68.9356 87.5735 70.1131 87.5735C70.006 87.2048 69.8988 86.836 69.7884 86.4561C69.7051 86.0636 69.6218 85.6711 69.5359 85.2667C70.1131 84.69 70.1131 84.69 71.8809 84.654C72.7203 84.6718 72.7203 84.6718 73.5766 84.69C71.4725 82.4924 70.1353 82.2458 67.0826 82.1309C64.3731 82.0998 64.3731 82.0998 61.9619 83.1559C60.9417 84.2044 60.9417 84.2044 59.7228 85.8434C59.3419 85.8434 58.9609 85.8434 58.5684 85.8434C59.0103 83.5868 59.7975 82.3396 61.4613 80.7726C64.2745 79.0664 67.6694 79.8172 70.74 80.4346Z" fill="black"/>
<path id="Vector_18" d="M153.812 55.2788C155.515 55.5291 156.706 55.8603 158.213 56.7205C160.926 57.925 163.572 58.0108 166.511 58.1623C166.872 59.2436 166.872 59.2436 167.088 60.4691C165.686 61.8699 165.266 61.8082 163.336 61.8387C159.697 61.7753 155.862 60.7871 153.235 58.1623C153.451 56.6485 153.451 56.6485 153.812 55.2788Z" fill="black"/>
<path id="Vector_19" d="M142.267 58.7378C143.029 59.1184 143.791 59.499 144.576 59.8912C144.366 64.0871 141.719 66.9968 138.732 69.731C137.072 70.8484 137.072 70.8484 135.701 70.7402C135.392 70.5856 135.082 70.431 134.763 70.2717C135.092 68.0733 136.06 67.0242 137.577 65.4419C139.4 63.4678 140.644 61.7733 141.69 59.3145C141.881 59.1242 142.071 58.9339 142.267 58.7378Z" fill="black"/>
<path id="Vector_20" d="M50.4865 160.813C51.4899 160.84 51.4899 160.84 52.7955 161.39C53.8833 162.572 54.8352 163.714 55.7899 164.994C56.05 165.325 56.31 165.656 56.578 165.996C58.0136 167.884 58.9169 169.392 59.1451 171.77C58.3832 171.96 57.6212 172.151 56.8362 172.347C55.7833 171.066 54.7385 169.78 53.6974 168.49C53.3994 168.129 53.1014 167.768 52.7944 167.397C50.018 163.934 50.018 163.934 49.9093 161.39C50.0998 161.199 50.2903 161.009 50.4865 160.813Z" fill="black"/>
<path id="Vector_21" d="M71.8438 154.47C72.7963 154.47 73.7487 154.47 74.73 154.47C74.73 158.466 74.73 162.463 74.73 166.58C73.7776 166.771 72.8252 166.961 71.8438 167.157C71.2666 166.58 71.2666 166.58 71.1899 165.193C71.1991 161.569 71.3644 158.062 71.8438 154.47Z" fill="black"/>
<path id="Vector_22" d="M37.2105 179.268C41.0574 179.524 44.5648 180.877 48.1781 182.151C48.3686 183.103 48.5591 184.054 48.7553 185.035C47.8534 185.431 47.8534 185.431 46.4464 185.611C45.4759 185.231 44.5069 184.843 43.5669 184.392C41.8553 183.639 40.0651 183.18 38.2613 182.694C37.2105 182.151 37.2105 182.151 36.737 180.977C36.7028 180.603 36.6686 180.23 36.6333 179.844C36.8238 179.654 37.0143 179.464 37.2105 179.268Z" fill="black"/>
<path id="Vector_23" d="M75.8849 130.249C76.0831 132.378 76.0128 133.483 74.9469 135.367C73.5759 136.592 73.5759 136.592 71.772 136.845C70.1125 136.592 70.1125 136.592 68.958 135.439C69.0108 133.434 69.4094 132.688 70.798 131.222C72.668 130.101 73.7422 130.049 75.8849 130.249Z" fill="#F9EFE5"/>
<path id="Vector_24" d="M36.6324 78.9224C37.0134 78.9224 37.3943 78.9224 37.7869 78.9224C38.1754 79.8459 38.5593 80.7714 38.9413 81.6977C39.1556 82.2129 39.3699 82.728 39.5907 83.2588C40.0958 84.6893 40.0958 84.6893 40.0958 86.4194C36.7767 85.9869 36.7767 85.9869 35.4779 84.6893C35.3246 83.608 35.3246 83.608 35.3336 82.3825C35.3306 81.9781 35.3277 81.5737 35.3246 81.1571C35.4779 80.0758 35.4779 80.0758 36.6324 78.9224Z" fill="#F9EFE5"/>
<path id="Vector_25" d="M47.6002 91.0337C50.3196 90.9165 50.3196 90.9165 51.8213 91.9708C53.0666 93.7219 53.0646 94.6932 52.7954 96.8006C52.2239 97.657 52.2239 97.657 51.6409 98.5307C51.0694 98.3404 50.498 98.1501 49.9092 97.954C49.235 96.3839 49.235 96.3839 48.6465 94.4578C48.4478 93.8207 48.2491 93.1836 48.0444 92.5272C47.8978 92.0343 47.7512 91.5415 47.6002 91.0337Z" fill="#F9EFE5"/>
<path id="Vector_26" d="M68.9587 80.0758C69.1491 80.4564 69.3396 80.837 69.5359 81.2292C68.9812 81.2214 68.9812 81.2214 68.4152 81.2134C65.3603 81.318 63.6127 81.5994 61.4546 83.8603C61.145 84.2298 60.8355 84.5993 60.5165 84.9799C60.2546 85.2647 59.9927 85.5494 59.7228 85.8427C59.3419 85.8427 58.9609 85.8427 58.5684 85.8427C59.0093 83.5913 59.8065 82.3537 61.4365 80.7651C63.7376 79.4123 66.3837 79.8286 68.9587 80.0758Z" fill="black"/>
<path id="Vector_27" d="M238.089 191.955C238.47 192.145 238.851 192.335 239.244 192.531C239.053 193.483 238.863 194.434 238.667 195.415C237.714 195.415 236.762 195.415 235.78 195.415C235.971 194.463 236.161 193.512 236.358 192.531C236.929 192.341 237.501 192.151 238.089 191.955Z" fill="black"/>
<path id="Vector_28" d="M119.755 371.883C120.136 372.074 120.517 372.264 120.91 372.46C120.91 372.841 120.91 373.221 120.91 373.613C121.481 373.994 122.053 374.375 122.641 374.767C121.499 374.767 120.356 374.767 119.178 374.767C118.797 374.006 118.416 373.244 118.024 372.46C118.595 372.27 119.166 372.079 119.755 371.883Z" fill="#B4B3B4"/>
<path id="Vector_29" d="M191.333 9.71973C191.333 10.1003 191.333 10.481 191.333 10.8731C189.333 11.7295 189.333 11.7295 187.292 12.6032C186.911 12.2226 186.53 11.842 186.138 11.4498C189.385 9.71973 189.385 9.71973 191.333 9.71973Z" fill="black"/>
</g>
</g>
</svg>
