<svg width="143" height="176" viewBox="0 0 143 176" fill="none" xmlns="http://www.w3.org/2000/svg">
<rect width="143" height="176" fill="#1E1E1E"/>
<rect width="1440" height="1024" transform="translate(-784.241 -455.615)" fill="#F9EFE5"/>
<rect x="-186.241" y="-307.615" width="786" height="820" rx="12" fill="white"/>
<rect x="-185.741" y="-307.115" width="785" height="819" rx="11.5" stroke="black" stroke-opacity="0.5"/>
<rect x="-41.2412" y="-13.615" width="205" height="205" rx="10" fill="white" stroke="#99BBE0" stroke-width="4"/>
<path d="M54.4112 1.62781C55.1902 1.91779 55.9692 2.20757 56.7483 2.49717C57.1584 2.65017 57.5686 2.80318 57.9911 2.96082C68.2037 6.76428 78.5197 10.1868 88.9113 13.4667C88.9113 14.0899 88.9113 14.713 88.9113 15.3551C88.4626 15.5693 88.0139 15.7835 87.5516 16.0042C86.0722 16.678 86.0722 16.678 85.1278 17.7155C81.997 17.5668 79.1838 16.6485 76.2308 15.6501C75.786 15.5065 75.3413 15.3629 74.8831 15.2149C74.4567 15.0725 74.0302 14.9301 73.5909 14.7834C73.2063 14.6554 72.8217 14.5273 72.4255 14.3954C71.3598 13.9149 70.7577 13.3956 69.994 12.5226C73.2332 12.6958 76.0735 13.491 79.1339 14.4979C82.3432 15.6887 82.3432 15.6887 85.6007 15.3551C85.6007 15.0435 85.6007 14.7319 85.6007 14.4109C85.2165 14.3603 84.8322 14.3098 84.4363 14.2577C82.4469 13.8785 80.6048 13.2716 78.6934 12.6129C78.3011 12.4795 77.9088 12.3461 77.5046 12.2087C76.2318 11.7749 74.9602 11.3375 73.6888 10.8998C73.257 10.7519 72.8253 10.6041 72.3804 10.4517C53.063 3.83626 53.063 3.83626 49.6579 2.13677C49.892 3.53885 49.892 3.53885 50.1308 4.96926C50.599 4.81347 51.0672 4.65768 51.5496 4.49718C52.729 4.88959 53.8386 5.31001 54.9784 5.7954C55.2826 5.92076 55.5868 6.04612 55.9002 6.17528C56.5115 6.42818 57.1214 6.6842 57.7301 6.94333C58.3487 7.20495 58.9702 7.45987 59.5941 7.70862C61.9026 8.64309 61.9026 8.64309 62.4271 9.69007C59.9365 9.40881 57.7242 8.83415 55.3626 8.00828C55.0392 7.89783 54.7158 7.78738 54.3826 7.67359C53.595 7.4042 52.8087 7.13126 52.0226 6.85758C52.0226 7.48073 52.0226 8.10388 52.0226 8.74591C52.477 8.87462 52.477 8.87462 52.9407 9.00593C55.4012 9.71967 57.7315 10.5162 60.0624 11.5784C58.1831 12.3167 56.8399 11.749 54.9784 11.1358C54.4248 10.9563 53.8713 10.7768 53.3009 10.5918C52.6681 10.3791 52.6681 10.3791 52.0226 10.1622C52.0226 10.7853 52.0226 11.4085 52.0226 12.0505C52.3031 12.1233 52.5837 12.1961 52.8727 12.2711C56.7251 13.2936 60.5245 14.4667 64.3256 15.6626C65.4051 16.0019 66.4853 16.3387 67.5656 16.6754C71.391 17.8735 75.1713 19.1306 78.9209 20.5509C80.5147 21.0569 82.0503 21.2991 83.709 21.4921C83.709 22.1153 83.709 22.7384 83.709 23.3804C81.5676 23.2221 79.8057 22.9225 77.8269 22.0822C75.7206 21.1885 73.5823 20.5209 71.3832 19.8988C68.5893 19.1073 65.8615 18.2156 63.1365 17.2139C59.191 15.772 55.1818 14.8107 51.0767 13.9388C50.9206 14.2504 50.7646 14.562 50.6038 14.883C51.122 15.0071 51.6401 15.1313 52.174 15.2592C54.6512 15.8782 57.089 16.6154 59.5304 17.3614C60.0091 17.5075 60.4879 17.6535 60.9811 17.804C68.4659 20.1009 75.8526 22.6684 83.2361 25.2688C83.2361 24.8014 83.2361 24.334 83.2361 23.8525C85.2495 24.0758 86.2295 25.1792 87.4925 26.685C87.4925 27.3082 87.4925 27.9313 87.4925 28.5733C86.322 28.807 86.322 28.807 85.1278 29.0454C84.3528 32.6945 83.5948 36.2881 83.3358 40.0176C83.2361 40.8475 83.2361 40.8475 82.7632 41.3195C81.5001 41.3862 80.2451 41.3396 78.9797 41.3195C78.8236 41.7869 78.6676 42.2543 78.5068 42.7358C71.9748 42.8531 65.5666 42.5912 59.0653 41.9549C57.6726 41.8187 56.2794 41.6889 54.886 41.5602C53.9906 41.476 53.0952 41.3915 52.1999 41.3066C51.5822 41.2483 51.5822 41.2483 50.952 41.1889C49.0761 41.0045 47.2423 40.797 45.4015 40.3754C45.4015 41.1543 45.4015 41.9333 45.4015 42.7358C45.7783 42.7644 46.155 42.793 46.5432 42.8225C51.5205 43.2153 51.5205 43.2153 53.9143 43.68C53.9143 43.8357 53.9143 43.9915 53.9143 44.152C50.949 44.152 47.9837 44.152 44.9286 44.152C44.9286 44.7752 44.9286 45.3983 44.9286 46.0404C45.9379 46.0883 46.9471 46.1363 47.9564 46.1841C48.8426 46.2263 49.7287 46.2691 50.6148 46.3125C52.9589 46.4263 55.3026 46.5311 57.6479 46.6157C58.0925 46.6331 58.5371 46.6505 58.9952 46.6684C59.8485 46.7015 60.7019 46.7314 61.5554 46.7576C63.6143 46.8413 65.2807 46.981 67.1564 47.9287C67.1564 48.0845 67.1564 48.2403 67.1564 48.4008C59.4061 48.5918 51.7077 48.0096 43.9827 47.4566C43.9827 47.7682 43.9827 48.0798 43.9827 48.4008C43.6706 48.4008 43.3584 48.4008 43.0368 48.4008C43.0368 48.7123 43.0368 49.0239 43.0368 49.3449C43.4148 49.3429 43.7928 49.3408 44.1822 49.3387C47.746 49.3278 51.2992 49.3832 54.8601 49.522C55.376 49.541 55.8918 49.5601 56.4233 49.5797C59.3737 49.6986 62.3168 49.8667 65.261 50.0918C65.8828 50.1387 66.5046 50.1856 67.1453 50.234C68.3564 50.3283 69.5671 50.4276 70.7773 50.5323C71.3272 50.5756 71.8771 50.6189 72.4436 50.6634C72.93 50.7049 73.4165 50.7464 73.9176 50.7892C75.2757 50.7594 75.9087 50.4307 77.088 49.817C78.3885 50.3481 78.3885 50.3481 79.4526 51.2333C79.4526 51.8564 79.4526 52.4796 79.4526 53.1216C79.1563 53.1338 78.8601 53.1459 78.5548 53.1585C78.1683 53.1852 77.7818 53.212 77.3836 53.2396C76.9995 53.2615 76.6154 53.2834 76.2197 53.306C75.1379 53.497 75.1379 53.497 74.594 54.4124C74.2089 55.611 74.1245 56.5847 74.1321 57.8424C74.1297 58.2416 74.1273 58.6408 74.1247 59.0521C74.2573 60.2664 74.5839 61.0433 75.1962 62.0911C76.435 62.0548 77.2871 61.8571 78.2334 61.0345C79.6485 59.4434 80.7859 57.7311 81.906 55.9246C85.3179 50.5076 89.3656 45.9111 93.8475 41.3491C94.2622 40.9207 94.6768 40.4923 95.1041 40.0509C95.4984 39.6572 95.8927 39.2634 96.299 38.8577C96.6522 38.5018 97.0055 38.1458 97.3694 37.779C98.3699 37.0708 98.3699 37.0708 99.4078 37.1373C100.618 37.7124 100.826 38.3856 101.326 39.6082C101.484 39.9819 101.643 40.3555 101.806 40.7405C102.153 41.7916 102.153 41.7916 102.153 43.2079C102.466 43.2079 102.778 43.2079 103.099 43.2079C102.943 42.6237 102.787 42.0395 102.626 41.4376C102.248 40.0232 102.153 39.053 102.153 37.5429C110.159 39.7474 116.724 45.1246 122.726 50.6432C124.787 52.4943 126.951 54.2203 129.111 55.9541C127.242 57.9781 125.104 58.7164 122.399 58.8751C121.007 58.8751 119.623 58.849 118.233 58.7866C118.172 59.5661 118.172 59.5661 118.109 60.3614C117.613 66.3406 116.958 72.3006 116.263 78.2596C116.158 79.1643 116.054 80.0691 115.951 80.974C115.804 82.2642 115.652 83.5538 115.499 84.8433C115.455 85.2343 115.411 85.6254 115.366 86.0283C114.963 89.3437 114.963 89.3437 113.977 90.8881C113.731 90.7358 113.486 90.5834 113.233 90.4264C112.112 89.7326 110.99 89.0416 109.868 88.3507C109.482 88.1109 109.096 87.8712 108.698 87.6241C108.133 87.2773 108.133 87.2773 107.557 86.9234C107.213 86.7108 106.868 86.4982 106.514 86.2791C105.405 85.6626 104.286 85.1972 103.099 84.7511C102.848 85.1259 102.597 85.5008 102.338 85.887C102.004 86.369 101.67 86.8509 101.326 87.3475C100.997 87.8295 100.667 88.3114 100.328 88.808C99.9941 89.1829 99.66 89.5577 99.3158 89.944C97.2082 89.944 96.3127 89.4883 94.4682 88.5277C93.9586 88.2648 93.4489 88.0019 92.9238 87.7311C92.5361 87.5266 92.1483 87.3221 91.7489 87.1115C92.2902 87.6373 92.2902 87.6373 92.8425 88.1737C94.9029 90.2782 94.9029 90.2782 95.5323 91.3602C95.4412 92.8255 95.017 93.2922 93.9787 94.3624C93.5452 94.7348 93.1118 95.1072 92.6652 95.4909C92.0132 96.0569 92.0132 96.0569 91.348 96.6342C91.0121 96.919 90.6762 97.2038 90.3301 97.4973C90.5578 98.013 90.5578 98.013 90.7901 98.5392C91.8254 101.349 91.6487 104.115 90.4483 106.85C87.8682 111.483 83.6794 115.312 79.4803 118.464C78.6067 119.136 77.8457 119.832 77.088 120.629C77.7491 120.948 77.7491 120.948 78.4236 121.273C84.9271 124.506 90.3036 128.483 94.1135 134.792C94.2928 135.083 94.472 135.375 94.6567 135.675C97.5444 141.612 95.164 149.725 93.1677 155.563C91.517 160.159 89.7587 164.712 87.9654 169.254C88.2835 169.313 88.6016 169.372 88.9293 169.432C89.3501 169.513 89.7709 169.593 90.2044 169.676C90.6201 169.754 91.0357 169.833 91.4639 169.914C94.9693 170.723 97.2741 172.45 99.3158 175.391C99.3158 175.547 99.3158 175.702 99.3158 175.863C91.3563 175.863 83.3969 175.863 75.1962 175.863C75.5026 173.111 75.7739 170.922 76.4931 168.333C76.7373 167.44 76.7373 167.44 76.9864 166.529C77.1579 165.913 77.3297 165.297 77.5018 164.68C81.2745 152.956 81.2745 152.956 80.3671 140.96C77.1198 135.723 70.4498 132.708 64.6624 131.209C60.3538 130.302 55.9359 130.243 51.5496 130.071C51.4314 130.403 51.3131 130.734 51.1912 131.076C44.187 147.236 26.2844 156.832 11.8233 165.005C12.0574 166.874 12.0574 166.874 12.2962 168.782C12.8717 168.967 13.4472 169.152 14.0402 169.342C15.9603 170.066 17.1567 170.922 18.4444 172.558C18.7418 173.816 18.7418 173.816 18.9173 174.919C15.3454 175.572 11.529 176.157 8.03985 174.919C5.31939 172.484 3.89123 169.024 2.44895 165.737C1.96375 164.688 1.44777 163.785 0.788836 162.84C0 161.7 0 161.7 0 160.756C0.921849 160.004 0.921849 160.004 2.21687 159.104C2.69361 158.766 3.17035 158.427 3.66153 158.079C3.91499 157.899 4.16845 157.719 4.42958 157.534C8.86938 154.35 13.0708 150.891 17.1747 147.291C17.9347 146.626 18.7009 145.969 19.4678 145.312C25.3477 140.2 30.6072 133.775 33.1053 126.294C35.2208 126.536 36.2187 127.317 37.8346 128.655C39.855 129.856 41.1682 130.278 43.5098 130.071C44.7022 129.58 45.7812 129.083 46.909 128.478C47.2001 128.328 47.4912 128.178 47.7911 128.024C49.0947 127.347 50.326 126.636 51.5496 125.822C51.7218 124.672 51.7218 124.672 51.6383 123.403C51.6255 122.973 51.6127 122.543 51.5995 122.101C51.5748 121.606 51.5748 121.606 51.5496 121.101C51.1595 121.062 50.7693 121.023 50.3673 120.983C48.349 120.552 46.7293 119.722 44.9286 118.741C45.2944 119.267 45.2944 119.267 45.6675 119.803C46.3474 121.101 46.3474 121.101 46.3474 122.105C45.6507 123.408 44.8432 123.801 43.5098 124.406C41.9608 124.632 41.3732 124.554 40.0515 123.698C39.7881 123.464 39.5247 123.23 39.2534 122.99C39.5675 123.952 39.5675 123.952 40.1992 124.878C41.2328 125.208 41.2328 125.208 42.3866 125.232C42.7731 125.259 43.1596 125.286 43.5578 125.313C43.8541 125.325 44.1504 125.338 44.4556 125.35C44.4556 125.817 44.4556 126.285 44.4556 126.766C41.1501 127.051 41.1501 127.051 39.7891 126.241C39.1074 125.663 38.467 125.037 37.8346 124.406C37.8143 125.318 37.8143 125.318 38.3075 126.294C40.6018 127.577 42.266 127.873 44.9286 127.71C44.9286 128.022 44.9286 128.334 44.9286 128.655C43.3902 129.422 41.8613 129.39 40.1992 129.127C38.8051 128.506 37.5604 127.778 36.4158 126.766C36.1817 126.065 36.1817 126.065 35.9429 125.35C35.6615 125.364 35.3801 125.379 35.0902 125.393C26.54 125.814 18.0163 125.878 9.45865 125.822C9.17541 123.984 8.89752 122.144 8.62443 120.304C8.48501 119.372 8.34143 118.441 8.1978 117.51C8.11093 116.921 8.02405 116.332 7.93455 115.726C7.85282 115.184 7.77109 114.643 7.68688 114.085C7.57239 112.671 7.68067 111.607 8.03985 110.243C8.97626 110.088 9.91266 109.932 10.8774 109.771C10.7604 109.041 10.7604 109.041 10.641 108.296C10.2613 105.339 10.3668 102.361 10.4045 99.3856C9.15597 99.3856 7.90743 99.3856 6.62105 99.3856C6.38141 97.7141 6.14615 96.042 5.91165 94.3697C5.84398 93.8981 5.77631 93.4265 5.70659 92.9406C5.38976 90.6665 5.10777 88.4701 5.20226 86.1673C6.919 86.0115 8.63574 85.8557 10.4045 85.6952C10.0924 81.9563 9.78024 78.2175 9.45865 74.3653C7.7419 74.3653 6.02516 74.3653 4.25639 74.3653C4.49049 73.4305 4.49049 73.4305 4.72932 72.4769C5.14237 70.7686 5.21562 69.3621 5.04153 67.6141C4.99733 67.1532 4.95313 66.6922 4.9076 66.2172C4.85852 65.7417 4.80944 65.2661 4.75888 64.7761C4.71163 64.2914 4.66439 63.8067 4.61571 63.3073C4.49902 62.1148 4.37915 60.9226 4.25639 59.7307C2.85178 59.7307 1.44717 59.7307 0 59.7307C0.120099 59.2567 0.240198 58.7826 0.363936 58.2942C1.3925 54.2193 2.38237 50.1394 3.31053 46.0404C2.21805 45.8846 1.12558 45.7288 0 45.5683C0.751406 42.7223 1.53042 39.9065 2.52723 37.1354C2.86758 36.132 2.86758 36.132 2.97061 35.0737C3.10362 34.0613 3.10362 34.0613 3.78346 32.35C5.30965 31.5946 6.84105 31.2293 8.51278 30.9338C8.35671 29.6875 8.20065 28.4412 8.03985 27.1571C7.55701 27.2739 7.55701 27.2739 7.06443 27.3931C5.47822 27.6626 3.97079 27.6606 2.36466 27.6292C2.27216 22.5816 2.55831 17.5606 2.83759 12.5226C6.32919 11.3187 9.85708 10.3094 13.4195 9.33601C14.0198 9.17114 14.6201 9.00626 15.2386 8.83639C19.263 7.73457 23.2985 6.68046 27.3414 5.64788C32.4504 4.3428 37.5158 2.91696 42.5713 1.41943C42.9788 1.29977 43.3864 1.18012 43.8063 1.05684C44.5056 0.847286 45.2026 0.629935 45.8957 0.400808C49.062 -0.617282 51.4086 0.493097 54.4112 1.62781Z" fill="black"/>
<path d="M103.1 46.5122C103.412 46.5122 103.724 46.5122 104.046 46.5122C104.659 47.4287 104.659 47.4287 105.346 48.6661C108.081 53.329 111.243 56.3271 116.342 58.3142C116.083 63.4163 115.602 68.4469 114.923 73.5094C114.373 77.6489 113.874 81.7647 113.667 85.939C113.505 87.1112 113.505 87.1112 112.559 88.0554C112.294 87.8813 112.029 87.7072 111.756 87.5279C110.559 86.7447 109.357 85.969 108.154 85.1934C107.529 84.7822 107.529 84.7822 106.892 84.3626C106.491 84.1055 106.09 83.8484 105.677 83.5835C105.308 83.3437 104.939 83.1039 104.559 82.8569C103.52 82.2265 103.52 82.2265 102.154 82.8625C101.27 84.0604 100.494 85.3069 99.7026 86.5672C99.4192 86.9025 99.1357 87.2379 98.8436 87.5833C96.9795 87.5833 96.6081 87.477 95.0897 86.6392C92.3796 85.3722 89.489 85.2274 86.5474 85.695C86.2352 86.1623 85.9231 86.6297 85.6015 87.1112C86.0697 87.1307 86.5379 87.1502 87.0203 87.1702C89.3357 87.495 91.0541 88.8075 92.6955 90.4158C93.2774 91.454 93.2774 91.454 93.6414 92.3041C92.8934 92.9837 92.1444 93.6621 91.3949 94.34C90.9779 94.7179 90.5609 95.0958 90.1313 95.4852C87.3571 97.9145 87.3571 97.9145 86.0874 98.1203C82.0053 97.7395 78.6041 95.4737 75.8473 92.5107C74.6995 91.0696 74.5459 89.8631 74.2511 88.0554C73.1116 87.4666 73.1116 87.4666 71.8865 87.1112C70.5441 85.1013 70.5847 83.333 70.9406 80.9742C71.5722 79.6213 72.1175 79.1469 73.3053 78.1417C74.8719 77.7286 74.8719 77.7286 76.1429 77.6696C76.1715 77.3173 76.2002 76.9649 76.2297 76.6019C76.7447 74.8775 77.5149 74.4728 79.01 73.5094C79.4447 73.224 79.8794 72.9386 80.3272 72.6445C80.6631 72.4333 80.999 72.2222 81.3451 72.0046C80.9779 70.5532 80.9779 70.5532 79.9263 69.6442C78.5695 68.2898 78.5135 67.3583 78.3597 65.4545C78.3741 63.8976 78.5087 63.5054 79.3943 62.1204C80.882 60.679 80.882 60.679 82.3187 60.6654C82.69 60.6977 83.0612 60.7299 83.4438 60.7632C83.8138 60.7893 84.1839 60.8155 84.5651 60.8425C85.9637 61.2531 86.3217 61.7724 87.0203 63.0351C87.2623 64.2522 87.2623 64.2522 87.3454 65.5135C87.3765 65.9346 87.4076 66.3557 87.4397 66.7896C87.4662 67.2679 87.4662 67.2679 87.4932 67.7559C87.9614 67.7559 88.4296 67.7559 88.912 67.7559C89.7716 66.7926 89.7716 66.7926 90.5932 65.5061C90.9202 65.0214 91.2472 64.5366 91.5842 64.0372C91.935 63.5065 92.2857 62.9758 92.6364 62.445C92.9956 61.9093 93.3553 61.374 93.7154 60.8389C95.4419 58.2654 97.1387 55.6737 98.8159 53.0679C99.2371 52.4141 99.2371 52.4141 99.6669 51.7471C100.194 50.9242 100.718 50.099 101.239 49.2714C101.588 48.7226 101.588 48.7226 101.945 48.1626C102.147 47.8422 102.348 47.5218 102.556 47.1916C102.735 46.9674 102.915 46.7432 103.1 46.5122Z" fill="white"/>
<path d="M76.6164 65.3958C76.8066 66.2721 76.8066 66.2721 77.0007 67.1661C77.3944 68.7808 77.9571 69.7465 78.9811 71.0607C78.3402 72.9799 77.4166 73.4084 75.6706 74.3653C74.636 74.3653 74.636 74.3653 73.7788 73.8932C73.291 73.2752 72.8162 72.6465 72.36 72.0049C72.0479 72.0049 71.7358 72.0049 71.4142 72.0049C71.4142 72.4723 71.4142 72.9396 71.4142 73.4211C70.9844 73.5015 70.5546 73.5818 70.1118 73.6646C65.7564 74.5028 61.4986 75.534 57.2262 76.7257C60.1845 76.446 62.9985 75.9673 65.8868 75.28C66.6234 75.1053 67.3605 74.9325 68.0981 74.7618C68.4177 74.6857 68.7374 74.6096 69.0667 74.5312C69.9954 74.3653 69.9954 74.3653 71.8871 74.3653C71.8871 74.8327 71.8871 75.3 71.8871 75.7815C71.1482 75.9532 71.1482 75.9532 70.3944 76.1282C69.7096 76.2879 69.0248 76.4477 68.3401 76.6077C67.9768 76.6925 67.6136 76.7774 67.2393 76.8648C64.821 77.4328 62.4117 78.0297 60.0047 78.6435C56.4229 79.5534 52.8173 80.2871 49.1864 80.9744C49.1864 80.3513 49.1864 79.7282 49.1864 79.0861C48.8742 79.0861 48.5621 79.0861 48.2405 79.0861C48.2405 80.0208 48.2405 80.9556 48.2405 81.9186C47.7732 81.9614 47.7732 81.9614 47.2964 82.005C44.0433 82.303 40.7902 82.6018 37.5372 82.9012C36.3244 83.0126 35.1116 83.1239 33.8987 83.2349C32.1518 83.3949 30.405 83.5557 28.6581 83.7166C28.119 83.7658 27.58 83.815 27.0245 83.8657C24.8627 84.0654 22.705 84.2685 20.5518 84.5473C18.8082 84.7649 17.1279 84.7975 15.3717 84.7806C14.7913 84.7763 14.2109 84.7721 13.613 84.7677C13.1789 84.7622 12.7449 84.7567 12.2976 84.7511C12.1374 83.5614 11.9802 82.3713 11.8247 81.181C11.7796 80.8484 11.7345 80.5158 11.688 80.1732C11.6453 79.8431 11.6026 79.5129 11.5587 79.1728C11.5191 78.8737 11.4794 78.5745 11.4386 78.2663C11.3201 76.8078 11.3468 75.3559 11.3518 73.8932C15.6189 73.3371 19.8862 72.783 24.1539 72.2313C26.1357 71.9751 28.1174 71.7182 30.0989 71.4597C32.0121 71.2102 33.9256 70.9625 35.8393 70.7159C36.5683 70.6217 37.2972 70.5268 38.0261 70.4313C39.0491 70.2974 40.0725 70.1657 41.0959 70.0345C41.9687 69.9213 41.9687 69.9213 42.859 69.8058C44.3514 69.6551 45.796 69.6143 47.2946 69.6445C47.7628 70.5792 47.7628 70.5792 48.2405 71.5328C48.3972 71.077 48.5538 70.6212 48.7153 70.1516C49.6593 68.7003 49.6593 68.7003 51.2979 68.267C52.0021 68.2115 52.7075 68.1702 53.4132 68.1397C54.2138 68.0811 55.0143 68.0214 55.8148 67.9609C56.4801 67.916 56.4801 67.916 57.1588 67.8703C60.0553 67.6479 62.9404 67.3074 65.8277 66.989C66.9872 66.8645 68.1467 66.7403 69.3063 66.6165C70.1666 66.5243 71.0268 66.4321 71.8871 66.3399C72.0432 66.8073 72.1992 67.2746 72.36 67.7562C72.8282 67.9898 72.8282 67.9898 73.3059 68.2282C73.3449 67.9361 73.3839 67.644 73.4241 67.3431C73.7788 66.3399 73.7788 66.3399 74.6951 65.7498C75.6706 65.3958 75.6706 65.3958 76.6164 65.3958Z" fill="white"/>
<path d="M47.7672 2.60871C47.839 6.88406 47.6208 11.0948 47.2943 15.3549C43.2978 17.3482 39.2035 18.6675 34.9093 19.8397C34.5798 19.9309 34.2502 20.0221 33.9107 20.1161C24.2801 22.7772 14.313 25.3897 4.25742 25.2686C4.18872 21.4667 4.39261 17.7254 4.73035 13.9387C7.44906 12.8631 10.1337 12.0718 12.9771 11.4012C16.0073 10.6674 19.0085 9.88508 21.9924 8.98181C24.9284 8.09447 27.88 7.31886 30.8599 6.5919C34.8386 5.62086 38.7306 4.48756 42.6277 3.22647C44.3983 2.67942 45.9218 2.57797 47.7672 2.60871Z" fill="white"/>
<path d="M40.1995 36.5986C40.2752 41.0292 40.0339 45.3999 39.7266 49.8169C34.7651 51.3085 29.7726 52.496 24.711 53.5936C23.9929 53.7507 23.2749 53.9081 22.557 54.0657C21.4826 54.3013 20.4082 54.5366 19.3334 54.7704C17.4693 55.176 15.6068 55.5872 13.746 56.0079C13.364 56.094 12.9819 56.18 12.5883 56.2686C11.8618 56.4325 11.1355 56.5975 10.4096 56.7638C7.88181 57.3326 5.42134 57.6759 2.83789 57.8423C3.0679 54.2637 3.74386 50.9028 4.72962 47.4565C4.8405 46.9817 4.95138 46.5068 5.06561 46.0176C5.67548 44.624 5.67548 44.624 6.80921 44.0082C7.28552 43.8859 7.76184 43.7635 8.2526 43.6374C9.06389 43.4208 9.06389 43.4208 9.89158 43.1997C10.4804 43.0563 11.0692 42.9129 11.6758 42.7652C12.2877 42.6076 12.8994 42.4493 13.5109 42.2901C35.6508 36.5986 35.6508 36.5986 40.1995 36.5986Z" fill="white"/>
<path d="M72.8319 90.416C73.3954 91.126 73.3954 91.126 74.0438 92.0978C76.4809 95.434 80.0951 98.3826 84.1823 99.3856C85.7981 99.3946 87.3264 99.2174 88.9116 98.9135C89.9072 100.528 90.0228 101.755 89.8575 103.634C87.068 111.365 79.456 117.298 72.2999 120.718C66.5718 123.352 60.2837 125.947 53.9146 125.822C53.7544 125.154 53.5974 124.485 53.4417 123.816C53.3539 123.443 53.2661 123.071 53.1757 122.687C52.9688 121.573 52.9688 121.573 52.9688 119.685C53.8101 119.385 53.8101 119.385 54.6684 119.078C64.4373 115.56 72.7175 111.55 80.8718 105.051C81.1347 104.852 81.3977 104.653 81.6687 104.448C83.202 103.262 83.202 103.262 84.1232 101.598C84.1427 101.336 84.1622 101.073 84.1823 100.802C83.7647 101.133 83.3471 101.464 82.9168 101.805C73.0043 109.639 73.0043 109.639 69.9943 110.716C69.3552 108.802 69.1982 107.049 69.5214 105.051C70.5531 103.75 71.3525 102.956 72.8319 102.218C73.1403 101.262 73.1403 101.262 73.3048 100.33C72.9439 100.271 72.583 100.213 72.2112 100.153C70.9402 99.8576 70.9402 99.8576 69.5214 98.9135C69.3496 97.7683 69.3496 97.7683 69.3736 96.4056C69.3754 95.9595 69.3772 95.5134 69.3791 95.0538C69.5299 93.6408 69.8165 92.6224 70.4672 91.3602C71.886 90.416 71.886 90.416 72.8319 90.416Z" fill="white"/>
<path d="M45.8756 18.6597C49.2952 18.9039 52.5183 19.4932 55.8367 20.3415C56.3238 20.4643 56.811 20.5872 57.3129 20.7138C61.94 21.9095 66.4753 23.3568 71.0149 24.8447C73.8188 25.7627 76.6412 26.6041 79.4786 27.4127C81.7308 28.0576 81.7308 28.0576 82.7643 28.5734C82.5056 32.0868 82.035 35.5043 81.3455 38.9592C74.1778 38.4976 67.1707 36.3868 60.2113 34.7104C59.883 34.6315 59.5546 34.5525 59.2164 34.4712C55.6352 33.6083 52.0603 32.7234 48.497 31.7894C47.9137 31.6367 47.3304 31.484 46.7294 31.3266C45.4026 30.9338 45.4026 30.9338 44.9297 30.4617C44.9608 29.2743 45.021 28.1048 45.107 26.9211C45.1302 26.5794 45.1533 26.2377 45.1771 25.8857C45.3465 23.4683 45.5744 21.0646 45.8756 18.6597Z" fill="white"/>
<path d="M41.619 98.9138C41.619 102.03 41.619 105.145 41.619 108.355C31.9933 108.935 22.4179 109.471 12.7702 109.3C12.2327 104.37 12.2327 104.37 12.2677 101.923C12.2719 101.528 12.2762 101.132 12.2806 100.725C12.2861 100.439 12.2916 100.153 12.2972 99.858C13.8746 99.0707 15.6436 99.1974 17.3813 99.1204C17.8194 99.1003 18.2575 99.0803 18.7088 99.0596C26.3386 98.7607 33.9852 98.8783 41.619 98.9138Z" fill="white"/>
<path d="M39.255 53.5935C50.4919 53.5935 61.7288 53.5935 73.3062 53.5935C72.994 54.2167 72.6819 54.8398 72.3603 55.4818C57.846 55.7155 57.846 55.7155 43.0385 55.9539C43.0385 56.2655 43.0385 56.5771 43.0385 56.8981C52.5586 56.8981 62.0787 56.8981 71.8874 56.8981C71.8874 57.3654 71.8874 57.8328 71.8874 58.3143C68.9221 58.3143 65.9568 58.3143 62.9016 58.3143C62.9016 58.6259 62.9016 58.9375 62.9016 59.2585C66.023 59.2585 69.1444 59.2585 72.3603 59.2585C72.3603 59.7258 72.3603 60.1932 72.3603 60.6747C72.0801 60.6855 71.7999 60.6963 71.5112 60.7074C68.5958 60.82 65.6806 60.9353 62.7654 61.0522C61.6773 61.0955 60.5892 61.138 59.5011 61.1799C57.9373 61.2402 56.3737 61.303 54.8101 61.3663C54.3233 61.3845 53.8365 61.4027 53.335 61.4215C52.8806 61.4403 52.4263 61.4592 51.9582 61.4786C51.3596 61.5022 51.3596 61.5022 50.7488 61.5263C49.7054 61.615 48.7776 61.8244 47.7678 62.091C47.0196 62.1219 46.2702 62.1315 45.5214 62.1205C45.1434 62.1162 44.7654 62.112 44.376 62.1076C44.0907 62.1021 43.8054 62.0966 43.5114 62.091C43.5114 62.4025 43.5114 62.7141 43.5114 63.0351C44.114 62.9922 44.7166 62.9493 45.3375 62.9051C47.6123 62.7439 49.8873 62.5865 52.1624 62.4301C53.1398 62.3624 54.117 62.2937 55.0942 62.224C59.8753 61.8835 64.6566 61.5553 69.4507 61.4861C69.7833 61.4769 70.1159 61.4678 70.4586 61.4583C71.3739 61.4557 71.3739 61.4557 72.8332 61.6189C73.3014 62.3199 73.3014 62.3199 73.7791 63.0351C70.0996 63.4072 66.4199 63.7767 62.7399 64.1431C61.0306 64.3133 59.3215 64.4844 57.6126 64.6575C55.9599 64.8248 54.3071 64.9898 52.6541 65.1533C51.7241 65.2459 50.7943 65.3408 49.8645 65.4358C46.6304 65.7535 43.4509 65.9565 40.2009 65.8676C40.0378 64.885 39.8816 63.9013 39.728 62.9171C39.6402 62.3694 39.5524 61.8217 39.4619 61.2575C39.1988 58.7154 39.255 56.1491 39.255 53.5935Z" fill="white"/>
<path d="M76.6151 65.3958C76.7419 65.98 76.8687 66.5642 76.9993 67.1661C77.393 68.7808 77.9557 69.7465 78.9797 71.0607C78.3388 72.9799 77.4153 73.4084 75.6692 74.3653C74.6347 74.3653 74.6347 74.3653 73.7775 73.8932C73.2897 73.2752 72.8149 72.6465 72.3587 72.0049C72.0465 72.0049 71.7344 72.0049 71.4128 72.0049C71.4128 72.4723 71.4128 72.9396 71.4128 73.4211C70.983 73.5015 70.5532 73.5818 70.1104 73.6646C65.7551 74.5028 61.4972 75.534 57.2248 76.7257C60.1832 76.446 62.9972 75.9673 65.8854 75.28C66.6221 75.1053 67.3592 74.9325 68.0968 74.7618C68.4164 74.6857 68.736 74.6096 69.0654 74.5312C69.994 74.3653 69.994 74.3653 71.8858 74.3653C71.8858 74.8327 71.8858 75.3 71.8858 75.7815C71.1469 75.9532 71.1469 75.9532 70.3931 76.1282C69.7083 76.2879 69.0235 76.4477 68.3388 76.6077C67.9755 76.6925 67.6122 76.7774 67.2379 76.8648C64.8196 77.4328 62.4103 78.0297 60.0033 78.6435C56.4216 79.5534 52.8159 80.2871 49.185 80.9744C49.185 80.3513 49.185 79.7282 49.185 79.0861C48.8729 79.0861 48.5607 79.0861 48.2391 79.0861C48.2391 80.0208 48.2391 80.9556 48.2391 81.9186C48.0831 81.9186 47.927 81.9186 47.7662 81.9186C47.7106 80.4238 47.6774 78.9293 47.648 77.4338C47.6242 76.8058 47.6242 76.8058 47.5999 76.1651C47.5594 73.4101 47.7121 70.822 49.6579 68.7003C51.0928 68.2527 51.9824 68.1124 53.4414 68.0807C54.2377 68.0311 55.0339 67.9799 55.8301 67.9277C56.2706 67.9037 56.7111 67.8797 57.165 67.855C60.061 67.6614 62.9423 67.3101 65.8263 66.989C66.9858 66.8643 68.1453 66.7401 69.3049 66.6165C70.1652 66.5243 71.0255 66.4321 71.8858 66.3399C72.1199 67.041 72.1199 67.041 72.3587 67.7562C72.6708 67.9119 72.983 68.0677 73.3045 68.2282C73.3436 67.9361 73.3826 67.644 73.4228 67.3431C73.7775 66.3399 73.7775 66.3399 74.6938 65.7498C75.6692 65.3958 75.6692 65.3958 76.6151 65.3958Z" fill="black"/>
<path d="M45.4018 40.3755C52.0302 40.804 58.6496 41.2321 65.2548 41.9406C69.3478 42.3677 73.4507 42.5595 77.5612 42.7359C77.2582 43.0243 76.9552 43.3128 76.643 43.61C75.4995 44.8013 75.2357 45.3429 75.1965 46.9846C75.8308 48.5272 75.8308 48.5272 76.6153 49.8171C75.5436 50.7941 74.9576 51.2179 73.4884 51.315C73.0218 51.271 72.5552 51.227 72.0744 51.1817C71.2816 51.1146 71.2816 51.1146 70.4728 51.0461C69.9052 50.991 69.3376 50.936 68.7528 50.8793C67.554 50.7773 66.355 50.6772 65.1559 50.5787C64.5455 50.528 63.935 50.4772 63.306 50.425C60.503 50.2164 57.6989 50.1147 54.89 50.0237C50.9275 49.8903 46.9854 49.72 43.0371 49.345C43.0371 49.0335 43.0371 48.7219 43.0371 48.4009C43.3492 48.4009 43.6614 48.4009 43.983 48.4009C43.983 48.0893 43.983 47.7777 43.983 47.4567C47.5261 47.4063 51.0308 47.4562 54.5648 47.6928C58.4508 47.9519 62.3176 47.9759 66.2108 47.9288C64.5193 47.366 62.9133 47.3064 61.1489 47.2207C60.7914 47.2015 60.4338 47.1823 60.0655 47.1626C58.9217 47.1014 57.7778 47.0428 56.6339 46.9846C55.4968 46.9263 54.3596 46.8674 53.2226 46.8067C52.5157 46.769 51.8088 46.7326 51.1018 46.6979C49.0163 46.5871 46.9892 46.3634 44.9288 46.0405C44.9288 45.4173 44.9288 44.7942 44.9288 44.1521C47.9722 43.9185 47.9722 43.9185 51.077 43.6801C48.2677 43.2127 48.2677 43.2127 45.4018 42.7359C45.4018 41.957 45.4018 41.178 45.4018 40.3755Z" fill="black"/>
<path d="M69.5224 80.0302C69.3663 80.4975 69.2102 80.9649 69.0494 81.4464C68.1023 81.8372 68.1023 81.8372 66.8566 82.1379C66.4006 82.2516 65.9447 82.3652 65.475 82.4823C64.9866 82.5981 64.4982 82.7139 63.995 82.8331C63.0016 83.0804 62.0083 83.3281 61.0151 83.5763C60.5295 83.6958 60.0438 83.8153 59.5434 83.9384C57.7584 84.3816 55.984 84.8514 54.2112 85.3411C53.4449 85.5492 53.4449 85.5492 52.6631 85.7615C51.4736 86.0514 51.4736 86.0514 51.078 87.1114C51.3467 87.033 51.6153 86.9546 51.8921 86.8738C65.6813 82.8626 65.6813 82.8626 69.0494 82.8626C69.0494 83.1742 69.0494 83.4858 69.0494 83.8068C67.6751 84.4001 66.7812 84.751 65.266 84.751C65.266 85.0625 65.266 85.3741 65.266 85.6951C66.5145 85.5393 67.7631 85.3836 69.0494 85.2231C69.0494 85.5346 69.0494 85.8462 69.0494 86.1672C68.7794 86.2357 68.5093 86.3042 68.231 86.3748C62.3429 87.874 56.4886 89.4433 50.6808 91.2311C47.957 92.0499 45.4029 92.5524 42.5652 92.7764C42.5652 93.2437 42.5652 93.7111 42.5652 94.1926C43.0461 94.0486 43.5271 93.9045 44.0226 93.7561C48.6944 92.3656 53.3819 91.057 58.1018 89.8389C59.194 89.5559 60.2846 89.2672 61.3754 88.9785C62.0822 88.7953 62.7891 88.6124 63.4962 88.4299C63.8159 88.3444 64.1357 88.2588 64.4651 88.1707C66.5065 87.6527 68.3662 87.5055 70.4682 87.5835C70.2341 88.2845 70.2341 88.2845 69.9953 88.9997C68.9534 89.3482 68.9534 89.3482 67.5124 89.6193C64.6824 90.2108 61.9232 90.9365 59.1474 91.7437C55.5276 92.7891 51.9038 93.8163 48.27 94.8122C47.6194 94.9923 47.6194 94.9923 46.9557 95.1761C44.8693 95.7457 42.8199 96.253 40.6735 96.553C40.4335 95.4325 40.1977 94.3113 39.9641 93.1894C39.8964 92.8754 39.8287 92.5614 39.759 92.2379C39.3676 90.3402 39.1822 88.5753 39.2547 86.6393C42.5576 85.8433 45.8617 85.0522 49.1664 84.2637C50.5039 83.9443 51.8411 83.6236 53.178 83.302C54.9951 82.8651 56.8128 82.431 58.631 81.9986C59.3477 81.8276 60.0641 81.6558 60.7804 81.4829C61.7947 81.2384 62.8097 80.9972 63.825 80.7567C64.411 80.6165 64.997 80.4763 65.6008 80.3319C66.9625 80.068 68.1423 79.9658 69.5224 80.0302Z" fill="white"/>
<path d="M68.5743 104.106C67.1169 105.799 65.9818 106.34 63.8209 106.852C63.2659 106.989 62.7108 107.126 62.1389 107.266C61.2715 107.469 61.2715 107.469 60.3866 107.677C56.992 108.49 53.7858 109.283 50.6028 110.716C49.1416 111.06 49.1416 111.06 47.7948 111.276C47.3418 111.351 46.8889 111.426 46.4222 111.503C46.0851 111.555 45.7479 111.606 45.4006 111.66C45.4006 112.127 45.4006 112.594 45.4006 113.076C45.6613 112.991 45.922 112.905 46.1906 112.818C51.2883 111.157 56.3965 109.563 61.569 108.149C62.0122 108.027 62.4555 107.904 62.9122 107.779C63.5303 107.612 63.5303 107.612 64.1609 107.442C64.5231 107.345 64.8853 107.247 65.2586 107.147C66.2096 106.939 66.2096 106.939 67.6284 106.939C67.6284 107.251 67.6284 107.562 67.6284 107.883C66.7028 108.2 65.7765 108.514 64.8499 108.827C64.0763 109.09 64.0763 109.09 63.287 109.358C61.9532 109.771 61.9532 109.771 61.0074 109.771C61.0074 110.083 61.0074 110.395 61.0074 110.716C61.3609 110.613 61.7145 110.511 62.0788 110.406C62.7775 110.209 62.7775 110.209 63.4903 110.007C63.9511 109.876 64.412 109.745 64.8869 109.609C66.2096 109.299 66.2096 109.299 68.1013 109.299C68.1013 109.611 68.1013 109.923 68.1013 110.244C66.066 110.842 64.03 111.438 61.9934 112.033C61.3015 112.235 60.6098 112.438 59.9183 112.641C58.9209 112.935 57.9228 113.226 56.9246 113.517C56.6186 113.607 56.3125 113.698 55.9972 113.791C54.2093 114.309 52.4449 114.696 50.6028 114.964C50.6028 115.432 50.6028 115.899 50.6028 116.381C51.1637 116.204 51.7246 116.026 52.3024 115.844C53.8983 115.34 55.4945 114.838 57.0909 114.336C58.6686 113.839 60.245 113.339 61.8202 112.834C62.4951 112.62 63.17 112.405 63.845 112.191C64.1586 112.089 64.4723 111.988 64.7954 111.883C66.1173 111.465 67.177 111.188 68.5743 111.188C68.5743 111.499 68.5743 111.811 68.5743 112.132C66.2522 113.066 63.9295 113.999 61.6061 114.93C60.8161 115.247 60.0261 115.564 59.2364 115.882C58.1005 116.339 56.9639 116.794 55.8273 117.249C55.475 117.391 55.1227 117.533 54.7597 117.68C50.5127 119.376 50.5127 119.376 48.5338 118.534C47.968 118.291 47.4023 118.048 46.8194 117.797C45.2621 117.678 45.2621 117.678 43.9818 117.797C43.9467 119.375 43.9508 120.537 44.4547 122.046C43.5183 122.279 43.5183 122.279 42.563 122.518C40.9341 114.63 40.9341 114.63 41.1442 110.716C41.5929 110.618 42.0416 110.52 42.5039 110.419C47.1948 109.368 51.8014 108.105 56.4064 106.727C65.5755 103.995 65.5755 103.995 68.5743 104.106Z" fill="white"/>
<path d="M66.8535 94.5322C67.6291 95.6088 67.6291 95.6088 67.6882 97.2316C67.0471 99.2579 66.07 100.17 64.3185 101.274C63.0173 101.812 61.6958 102.154 60.3282 102.483C59.774 102.626 59.774 102.626 59.2086 102.772C58.449 102.968 57.6885 103.161 56.9273 103.351C55.8498 103.623 54.7773 103.909 53.7053 104.202C48.8662 105.522 48.8662 105.522 47.7659 105.522C47.922 105.055 48.078 104.588 48.2388 104.106C49.0498 103.751 49.0498 103.751 50.101 103.501C50.4857 103.406 50.8704 103.31 51.2667 103.212C51.6721 103.118 52.0775 103.023 52.4952 102.926C53.2838 102.736 54.072 102.544 54.8599 102.351C55.4466 102.207 55.4466 102.207 56.0451 102.061C57.5758 101.652 59.0615 101.143 60.5516 100.607C61.8239 100.227 63.0026 100.229 64.3185 100.33C64.0844 99.1612 64.0844 99.1612 63.8456 97.9692C63.603 98.1122 63.3603 98.2552 63.1103 98.4025C60.4127 99.8759 57.6899 100.833 54.7417 101.657C54.1967 101.812 54.1967 101.812 53.6408 101.97C51.6329 102.511 49.8652 102.807 47.7659 102.69C47.922 102.378 48.078 102.067 48.2388 101.746C49.6379 101.318 51.0576 101.085 52.4952 100.802C50.9345 100.802 49.3739 100.802 47.7659 100.802C47.7659 100.49 47.7659 100.179 47.7659 99.8575C48.3707 99.7662 48.9754 99.675 49.5985 99.5809C50.4065 99.4568 51.2144 99.3327 52.0223 99.2084C52.4192 99.1488 52.816 99.0891 53.2249 99.0277C55.1204 98.7343 56.9781 98.4064 58.8355 97.9249C60.4301 97.5235 61.7384 97.4155 63.3727 97.4971C63.3727 97.0297 63.3727 96.5624 63.3727 96.0809C62.8856 96.2062 62.3985 96.3316 61.8966 96.4607C57.0471 97.6731 52.2678 98.441 47.293 98.9134C47.293 98.6018 47.293 98.2902 47.293 97.9692C48.5298 97.6843 48.5298 97.6843 49.7666 97.3994C50.5572 97.2173 50.5572 97.2173 51.3637 97.0315C51.9224 96.9028 52.4812 96.7741 53.0568 96.6415C53.5918 96.5182 54.1267 96.395 54.6779 96.268C55.7634 96.018 56.8496 95.7708 57.9365 95.5265C59.0643 95.2605 60.1866 94.9706 61.3029 94.6602C62.1198 94.4406 62.1198 94.4406 62.9533 94.2165C63.443 94.0767 63.9328 93.937 64.4373 93.7929C65.7373 93.7205 65.7373 93.7205 66.8535 94.5322Z" fill="white"/>
<path d="M70.9393 69.6443C70.9393 69.9558 70.9393 70.2674 70.9393 70.5884C68.4422 71.2116 65.9452 71.8347 63.3724 72.4768C67.118 72.2431 67.118 72.2431 70.9393 72.0047C70.7833 72.472 70.6272 72.9394 70.4664 73.4209C69.359 73.8267 69.359 73.8267 67.8967 74.1456C67.3648 74.2646 66.8329 74.3836 66.2848 74.5062C65.7237 74.6251 65.1625 74.7441 64.5843 74.8667C64.0396 74.9875 63.4949 75.1083 62.9337 75.2327C61.3476 75.582 59.7596 75.9199 58.1702 76.2534C57.7116 76.3513 57.2531 76.4492 56.7807 76.5501C56.3656 76.6366 55.9505 76.7231 55.5228 76.8122C54.9842 76.9248 54.9842 76.9248 54.4346 77.0398C53.4408 77.1976 53.4408 77.1976 51.5491 77.1976C51.7052 76.5744 51.8612 75.9513 52.022 75.3093C54.1289 74.8419 54.1289 74.8419 56.2784 74.3651C54.5617 74.3651 52.8449 74.3651 51.0762 74.3651C51.4881 73.2513 51.4881 73.2513 52.495 72.0047C54.0408 71.4255 55.6266 71.1943 57.2538 70.9425C57.6815 70.867 58.1092 70.7916 58.5498 70.7138C62.674 70.0076 66.754 69.5669 70.9393 69.6443Z" fill="white"/>
<path d="M42.0911 37.0708C47.7186 37.2911 53.3183 37.6212 58.9263 38.143C61.7684 38.4034 64.6009 38.5764 67.4521 38.6936C70.9541 38.8458 74.1765 39.4263 77.561 40.3754C77.4049 40.6869 77.2489 40.9985 77.0881 41.3195C70.1893 41.5841 63.4601 41.1472 56.6042 40.4344C56.2025 40.3932 55.8008 40.3521 55.387 40.3097C51.2255 39.879 47.1234 39.4101 43.037 38.487C42.9784 38.9447 42.9199 39.4023 42.8596 39.8738C42.7621 40.3509 42.6645 40.828 42.564 41.3195C42.0958 41.5532 42.0958 41.5532 41.6182 41.7916C41.7742 40.2337 41.9303 38.6759 42.0911 37.0708Z" fill="white"/>
<path d="M45.4023 40.3755C55.0392 40.9827 64.642 41.7925 74.2512 42.7359C73.9391 43.359 73.6269 43.9822 73.3053 44.6242C68.014 44.7413 62.7721 44.5804 57.4917 44.2112C56.9435 44.1741 56.3952 44.1371 55.8304 44.0989C52.3123 43.8377 48.871 43.3773 45.4023 42.7359C45.4023 41.957 45.4023 41.178 45.4023 40.3755Z" fill="white"/>
<path d="M117.287 25.7409C119.62 26.5464 121.082 27.8532 122.179 30.0523C122.695 31.5181 122.692 32.7109 122.489 34.2384C121.869 35.3891 121.869 35.3891 121.071 36.1267C120.602 36.1267 120.134 36.1267 119.652 36.1267C119.486 35.7859 119.32 35.4451 119.149 35.094C117.538 32.7596 114.723 31.8117 112.085 30.9338C112.085 30.1549 112.085 29.3759 112.085 28.5734C112.397 28.5734 112.709 28.5734 113.031 28.5734C113.031 27.7945 113.031 27.0155 113.031 26.213C114.506 25.4768 115.653 25.6072 117.287 25.7409Z" fill="black"/>
<path d="M43.983 47.4567C48.7033 47.3025 53.3369 47.6419 58.0375 48.0298C63.4363 48.4658 68.838 48.6918 74.2506 48.873C74.4847 49.574 74.4847 49.574 74.7236 50.2892C64.1583 50.3668 53.5653 50.3449 43.0371 49.3451C43.0371 49.0335 43.0371 48.7219 43.0371 48.4009C43.3492 48.4009 43.6614 48.4009 43.983 48.4009C43.983 48.0893 43.983 47.7778 43.983 47.4567Z" fill="white"/>
<path d="M44.9297 44.152C48.0061 44.1159 51.0427 44.2047 54.1094 44.4452C54.714 44.4907 54.714 44.4907 55.3309 44.5371C56.1754 44.601 57.0199 44.6657 57.8643 44.7312C59.1456 44.8305 60.4271 44.9272 61.7086 45.0234C62.5353 45.0862 63.3621 45.1492 64.1887 45.2124C64.5657 45.2409 64.9427 45.2695 65.3311 45.2989C67.8387 45.4944 70.334 45.7522 72.8327 46.0404C73.0668 46.7414 73.0668 46.7414 73.3056 47.4566C67.586 47.6049 61.8999 47.3408 56.1914 47.014C55.8247 46.9935 55.458 46.9729 55.0802 46.9517C54.0151 46.8914 52.9501 46.8287 51.8851 46.7651C51.2632 46.728 50.6412 46.6909 50.0004 46.6527C48.2897 46.5164 46.6246 46.3019 44.9297 46.0404C44.9297 45.4172 44.9297 44.7941 44.9297 44.152Z" fill="white"/>
<path d="M12.6225 13.939C14.1891 14.411 14.1891 14.411 15.135 15.8273C15.3482 17.7429 15.3239 18.7982 14.3665 20.4891C12.9935 21.7154 12.2454 22.0026 10.4057 21.9644C9.28244 21.2857 9.28244 21.2857 8.51393 20.076C8.17638 17.7174 8.15157 16.8365 9.48935 14.8536C10.8786 13.939 10.8786 13.939 12.6225 13.939Z" fill="black"/>
<path d="M130.53 64.9237C137.554 64.4365 137.554 64.4365 139.723 66.1925C140.643 67.1934 140.917 67.6796 141.23 69.025C140.873 70.3453 140.712 70.8394 139.516 71.5329C137.949 71.5919 137.949 71.5919 136.205 71.0608C135.396 70.2948 134.746 69.483 134.072 68.5971C133.361 67.7486 132.709 67.2429 131.772 66.6645C131.362 66.4017 130.952 66.1388 130.53 65.8679C130.53 65.5563 130.53 65.2448 130.53 64.9237Z" fill="black"/>
<path d="M141.407 47.4567C142.323 48.0468 142.323 48.0468 142.826 48.8729C142.973 50.0826 142.973 50.0826 142.826 51.2333C141.653 52.4044 141.236 52.3145 139.615 52.373C139.17 52.3912 138.725 52.4095 138.266 52.4283C137.801 52.4429 137.335 52.4575 136.855 52.4725C136.151 52.4999 136.151 52.4999 135.432 52.5279C134.271 52.5724 133.11 52.6128 131.948 52.6496C132.557 50.7987 133.165 49.879 134.756 48.7549C135.082 48.5188 135.409 48.2827 135.745 48.0394C137.739 46.7939 139.163 46.9767 141.407 47.4567Z" fill="black"/>
<path d="M34.5241 40.8472C35.7288 41.8894 35.9188 42.5466 36.1203 44.1223C35.9213 45.744 35.4945 46.6245 34.5241 47.9284C33.1863 48.5962 32.2192 48.5511 30.7407 48.4005C29.536 47.3584 29.3461 46.7012 29.1445 45.1255C29.3435 43.5037 29.7703 42.6232 30.7407 41.3193C32.0785 40.6516 33.0456 40.6966 34.5241 40.8472Z" fill="black"/>
<path d="M75.9051 28.8093C77.5603 29.0454 77.5603 29.0454 78.4766 29.8125C79.1391 31.2907 79.2416 32.1612 78.9791 33.7662C77.9446 35.1529 77.9446 35.1529 76.6145 36.1266C75.2373 36.1266 74.55 35.8405 73.3926 35.1234C72.4961 33.7105 72.6592 32.5624 72.831 30.9337C73.5906 29.1943 74.0026 29.0806 75.9051 28.8093Z" fill="black"/>
<path d="M71.886 74.365C71.886 74.8324 71.886 75.2997 71.886 75.7812C71.1471 75.9528 71.1471 75.9528 70.3933 76.1279C66.913 76.9393 63.4381 77.7651 59.974 78.6432C56.553 79.5088 53.115 80.2625 49.6582 80.9741C49.6582 80.1952 49.6582 79.4163 49.6582 78.6137C50.2605 78.559 50.8629 78.5042 51.4834 78.4478C53.9657 78.1717 56.3418 77.623 58.7621 77.0204C59.6359 76.8083 60.5098 76.5962 61.3836 76.3842C61.8039 76.2813 62.2241 76.1784 62.6571 76.0724C64.2442 75.6838 65.8325 75.3013 67.4227 74.9256C67.8818 74.8154 68.3408 74.7053 68.8138 74.5918C69.9943 74.365 69.9943 74.365 71.886 74.365Z" fill="white"/>
<path d="M18.2084 75.0732C19.8022 75.3914 20.3445 75.8799 21.2825 77.1976C21.592 79.013 21.421 79.7946 20.4844 81.3873C19.3907 82.3905 19.3907 82.3905 18.2084 82.6856C17.0261 82.3905 17.0261 82.3905 15.9324 81.3873C14.9958 79.7946 14.8248 79.013 15.1343 77.1976C16.0723 75.8799 16.6145 75.3914 18.2084 75.0732Z" fill="black"/>
<path d="M71.886 66.3396C71.7299 66.807 71.5739 67.2743 71.4131 67.7558C67.0748 68.6306 62.7327 69.3648 58.3483 69.9687C57.6848 70.0617 57.6848 70.0617 57.0078 70.1565C54.8565 70.4455 52.7809 70.6641 50.6041 70.5883C50.6041 71.0557 50.6041 71.5231 50.6041 72.0046C50.2919 72.0046 49.9798 72.0046 49.6582 72.0046C49.6582 70.9141 49.6582 69.8236 49.6582 68.7C50.4172 68.6224 50.4172 68.6224 51.1915 68.5433C56.4457 68.0009 61.6934 67.4119 66.9394 66.7954C67.4458 66.7363 67.9522 66.6771 68.4739 66.6162C69.1534 66.5362 69.1534 66.5362 69.8466 66.4546C70.9402 66.3396 70.9402 66.3396 71.886 66.3396Z" fill="white"/>
<path d="M37.6287 23.1443C38.7815 23.3803 38.7815 23.3803 39.6387 23.8819C40.5466 25.3606 40.4308 26.4041 40.2003 28.1011C39.5082 29.1998 38.7525 29.9956 37.8356 30.9336C36.7124 30.7861 36.7124 30.7861 35.471 30.4616C34.2926 28.6972 34.3085 27.8305 34.5251 25.7407C35.4139 24.1963 35.8518 23.4904 37.6287 23.1443Z" fill="white"/>
<path d="M15.0369 27.3149C16.1897 27.551 16.1897 27.551 17.0469 28.0526C17.9548 29.5312 17.839 30.5748 17.6085 32.2718C16.9164 33.3704 16.1607 34.1662 15.2438 35.1043C14.1206 34.9568 14.1206 34.9568 12.8792 34.6322C11.7008 32.8679 11.7167 32.0011 11.9333 29.9114C12.8221 28.367 13.26 27.661 15.0369 27.3149Z" fill="white"/>
<path d="M43.9827 72.4765C44.8399 72.9486 44.8399 72.9486 45.4015 73.8927C45.7592 77.1063 45.7592 77.1063 44.633 78.8791C43.5097 79.5577 43.5097 79.5577 42.0318 79.5282C40.6721 79.0856 40.6721 79.0856 39.7263 77.6694C39.5226 75.8054 39.4398 74.7779 40.5244 73.2141C41.8309 72.3329 42.4373 72.1996 43.9827 72.4765Z" fill="black"/>
<path d="M32.8686 57.1636C34.051 57.3701 34.051 57.3701 34.9082 58.1077C35.6903 59.7103 35.6867 60.7998 35.4698 62.563C34.5239 63.9497 34.5239 63.9497 33.578 64.9234C31.3316 64.5694 31.3316 64.5694 30.2675 63.5072C30.1253 62.4321 30.1253 62.4321 30.1197 61.1763C30.1118 60.7631 30.1039 60.3499 30.0957 59.9241C30.3665 58.1305 31.103 57.472 32.8686 57.1636Z" fill="white"/>
<path d="M34.7319 113.843C35.9438 114.02 35.9438 114.02 36.801 114.758C37.5702 116.334 37.5518 117.482 37.3626 119.213C36.801 120.157 36.801 120.157 35.9438 120.629C34.4809 120.593 33.7993 120.348 32.6924 119.39C31.9259 117.775 32.2219 116.67 32.6333 114.964C33.5792 114.02 33.5792 114.02 34.7319 113.843Z" fill="white"/>
<path d="M33.372 89.0586C34.5248 89.4717 34.5248 89.4717 35.4707 90.8879C35.6464 92.191 35.5551 93.3374 35.4707 94.6646C34.5248 95.6088 34.5248 95.6088 33.372 95.7858C32.1601 95.6088 32.1601 95.6088 31.3029 94.8711C30.5337 93.295 30.5522 92.1466 30.7413 90.4159C31.5218 89.1038 31.8424 88.9842 33.372 89.0586Z" fill="white"/>
<path d="M16.759 101.126C17.9709 101.274 17.9709 101.274 18.8281 101.805C19.6543 103.107 19.5751 104.011 19.3897 105.522C18.6803 106.644 18.6803 106.644 17.9709 107.411C16.6112 107.263 16.6112 107.263 15.1333 106.939C14.1874 105.522 14.1874 105.522 14.3057 103.841C14.7008 102.033 14.8672 101.368 16.759 101.126Z" fill="black"/>
<path d="M38.7808 101.274C39.8049 102.807 39.9875 103.271 39.7266 105.051C38.9286 106.172 38.9286 106.172 37.8349 106.939C36.231 106.863 35.6675 106.664 34.5244 105.523C34.2653 102.678 34.2653 102.678 35.0564 101.274C36.4247 100.546 37.3319 100.843 38.7808 101.274Z" fill="black"/>
<path d="M102.154 62.5632C102.622 62.5632 103.09 62.5632 103.572 62.5632C103.26 64.1211 102.948 65.679 102.627 67.284C102.939 67.284 103.251 67.284 103.572 67.284C103.709 66.9141 103.846 66.5441 103.986 66.1629C104.518 64.9236 104.518 64.9236 105.464 63.9795C105.932 63.9795 106.401 63.9795 106.883 63.9795C106.769 66.3715 106.049 67.5396 104.343 69.1115C103.572 69.6445 103.572 69.6445 102.242 69.851C101.208 69.6445 101.208 69.6445 100.735 69.1724C100.514 67.1172 100.535 65.3883 101.356 63.4779C101.619 63.1761 101.882 62.8742 102.154 62.5632Z" fill="black"/>
<path d="M109.247 65.3958C109.871 65.5515 110.495 65.7073 111.138 65.8678C111.423 68.7123 111.423 68.7123 110.612 70.0225C110.029 70.7095 109.404 71.3604 108.774 72.0049C106.941 71.5918 106.941 71.5918 106.409 71.0607C106.202 70.0576 106.202 70.0576 106.409 68.7003C107.259 67.5053 108.226 66.4476 109.247 65.3958Z" fill="black"/>
<path d="M103.101 57.8425C103.426 57.8821 103.75 57.9216 104.085 57.9624C104.724 58.0345 104.724 58.0345 105.377 58.1081C105.799 58.1574 106.222 58.2067 106.657 58.2574C107.893 58.3885 107.893 58.3885 109.249 57.8425C108.894 60.0849 108.894 60.0849 107.83 61.1471C106.244 61.3192 105.291 61.304 103.869 60.557C103.101 59.7309 103.101 59.7309 103.101 57.8425Z" fill="black"/>
<path d="M114.924 27.6294C117.461 27.8061 118.469 28.5716 120.126 30.4619C120.282 30.6177 120.438 30.7735 120.599 30.934C120.619 31.7205 120.619 32.5078 120.599 33.2944C120.354 33.1009 120.108 32.9073 119.855 32.708C118.12 31.37 116.573 30.1794 114.451 29.5177C114.607 28.8946 114.763 28.2714 114.924 27.6294Z" fill="white"/>
<path d="M68.576 111.188C68.576 111.499 68.576 111.811 68.576 112.132C67.3087 112.702 66.038 113.261 64.7629 113.813C64.4072 113.975 64.0515 114.137 63.685 114.303C61.2793 115.332 59.7805 115.584 57.2256 114.964C58.2525 113.939 58.8181 113.735 60.1796 113.308C60.5755 113.183 60.9715 113.059 61.3794 112.93C61.7937 112.803 62.2079 112.676 62.6347 112.545C63.0472 112.414 63.4596 112.283 63.8845 112.148C66.9687 111.188 66.9687 111.188 68.576 111.188Z" fill="white"/>
<path d="M111.139 59.2585C112.026 59.2881 112.026 59.2881 113.03 59.7306C114.025 61.2365 114.499 62.1074 114.301 63.9204C114.194 64.2514 114.087 64.5824 113.976 64.9235C112.388 64.2675 111.524 63.5898 110.666 62.091C110.548 60.8223 110.548 60.8223 110.666 59.7306C110.822 59.5748 110.978 59.4191 111.139 59.2585Z" fill="black"/>
<path d="M44.4561 97.9694C43.9879 98.1252 43.5197 98.281 43.0373 98.4415C43.0428 98.7275 43.0483 99.0135 43.054 99.3082C43.0852 102.199 42.907 105.013 42.5644 107.883C42.4083 107.883 42.2523 107.883 42.0915 107.883C41.6351 104.865 41.5803 101.967 41.6185 98.9136C39.7457 98.9136 37.8729 98.9136 35.9434 98.9136C35.9434 98.7578 35.9434 98.602 35.9434 98.4415C36.9187 98.3617 37.8941 98.2833 38.8696 98.2054C39.6844 98.1397 39.6844 98.1397 40.5157 98.0727C41.8364 97.9861 43.1334 97.9495 44.4561 97.9694Z" fill="black"/>
<path d="M2.36621 21.9644C2.52228 21.9644 2.67835 21.9644 2.83914 21.9644C2.99521 22.8991 3.15128 23.8338 3.31208 24.7968C4.87275 24.9526 6.43343 25.1084 8.0414 25.2689C7.72926 25.5805 7.41713 25.8921 7.09553 26.2131C7.40767 26.5247 7.7198 26.8362 8.0414 27.1573C6.12472 27.6211 4.33426 27.6679 2.36621 27.6293C2.36621 25.7599 2.36621 23.8904 2.36621 21.9644Z" fill="black"/>
<path d="M77.0889 17.7153C79.5827 17.9255 81.8266 18.2269 84.1829 19.1316C84.1829 19.5989 84.1829 20.0663 84.1829 20.5478C81.4522 20.3207 79.4731 19.5165 77.0889 18.1874C77.0889 18.0316 77.0889 17.8758 77.0889 17.7153Z" fill="black"/>
<path d="M32.1608 42.7358C33.1658 42.9129 33.1658 42.9129 34.0525 43.2079C34.1707 44.2996 34.1707 44.2996 34.0525 45.5683C33.1066 46.424 33.1066 46.424 32.1608 46.9846C31.2149 46.0404 31.2149 46.0404 31.0967 44.8602C31.2149 43.68 31.2149 43.68 32.1608 42.7358Z" fill="white"/>
<path d="M11.3515 15.8271C12.3565 16.0042 12.3565 16.0042 13.2433 16.2992C13.3024 17.4204 13.3024 17.4204 13.2433 18.6596C12.9311 18.9712 12.619 19.2828 12.2974 19.6038C11.6731 19.6038 11.0489 19.6038 10.4057 19.6038C10.3465 18.2466 10.3465 18.2466 10.4057 16.7713C10.7178 16.4597 11.0299 16.1482 11.3515 15.8271Z" fill="white"/>
<path d="M38.3076 123.934C38.5734 124.084 38.8392 124.233 39.1131 124.387C40.2712 124.91 41.1849 125.062 42.4458 125.173C42.8238 125.208 43.2017 125.244 43.5912 125.28C43.8765 125.303 44.1618 125.326 44.4557 125.35C44.4557 125.817 44.4557 126.285 44.4557 126.766C41.0425 126.997 41.0425 126.997 39.2535 125.881C38.3076 124.878 38.3076 124.878 38.3076 123.934Z" fill="black"/>
<path d="M70.4682 87.5836C70.3121 88.0509 70.156 88.5183 69.9952 88.9998C68.2785 89.1556 66.5617 89.3114 64.793 89.4719C66.3172 87.1897 67.892 87.535 70.4682 87.5836Z" fill="white"/>
<path d="M17.4998 77.1978C18.1241 77.1978 18.7484 77.1978 19.3916 77.1978C19.3916 78.1325 19.3916 79.0672 19.3916 80.0302C18.4752 80.2958 18.4752 80.2958 17.4998 80.5023C17.0269 80.0302 17.0269 80.0302 16.9678 78.85C17.0269 77.6698 17.0269 77.6698 17.4998 77.1978Z" fill="white"/>
<path d="M16.2713 103.093C16.8956 103.093 17.5198 103.093 18.163 103.093C18.163 104.028 18.163 104.962 18.163 105.926C17.2467 106.191 17.2467 106.191 16.2713 106.398C15.7984 105.926 15.7984 105.926 15.7393 104.745C15.7984 103.565 15.7984 103.565 16.2713 103.093Z" fill="white"/>
<path d="M140.46 48.8731C140.46 49.4963 140.46 50.1194 140.46 50.7615C139.056 50.7615 137.651 50.7615 136.204 50.7615C136.204 50.4499 136.204 50.1383 136.204 49.8173C137.687 48.9403 138.746 48.778 140.46 48.8731Z" fill="white"/>
<path d="M75.6709 30.4614C75.983 30.4614 76.2951 30.4614 76.6167 30.4614C77.1488 33.1759 77.1488 33.1759 76.6167 34.2381C75.9925 34.0823 75.3682 33.9265 74.725 33.766C74.6659 32.6448 74.6659 32.6448 74.725 31.4056C75.0371 31.094 75.3493 30.7824 75.6709 30.4614Z" fill="white"/>
<path d="M42.5634 73.8933C43.0316 74.2049 43.4999 74.5165 43.9822 74.8375C43.8262 75.7722 43.6701 76.7069 43.5093 77.67C42.885 77.5142 42.2608 77.3584 41.6176 77.1979C41.5585 76.0767 41.5585 76.0767 41.6176 74.8375C41.9297 74.5259 42.2419 74.2143 42.5634 73.8933Z" fill="white"/>
<path d="M90.3311 99.8579C90.6432 99.8579 90.9554 99.8579 91.277 99.8579C91.277 101.416 91.277 102.974 91.277 104.579C90.8088 104.812 90.8088 104.812 90.3311 105.051C89.5619 103.515 89.804 102.033 89.8582 100.33C90.0142 100.174 90.1703 100.018 90.3311 99.8579Z" fill="black"/>
<path d="M48.7123 87.1117C47.5672 88.2547 46.9146 88.3053 45.3427 88.5869C44.697 88.7056 44.697 88.7056 44.0384 88.8267C43.708 88.8839 43.3775 88.9411 43.0371 89C43.0371 88.5326 43.0371 88.0653 43.0371 87.5838C44.92 86.9572 46.7498 87.079 48.7123 87.1117Z" fill="black"/>
<path d="M34.5237 115.436C34.9919 115.592 35.4601 115.748 35.9425 115.908C35.9425 116.843 35.9425 117.778 35.9425 118.741C35.4743 118.897 35.0061 119.052 34.5237 119.213C34.3437 118.115 34.1867 117.013 34.0508 115.908C34.2068 115.753 34.3629 115.597 34.5237 115.436Z" fill="black"/>
<path d="M70.9411 69.6444C70.9411 69.956 70.9411 70.2676 70.9411 70.5886C67.8978 70.8222 67.8978 70.8222 64.793 71.0606C65.2659 70.1165 65.2659 70.1165 66.0049 69.8214C67.6608 69.5671 69.266 69.6165 70.9411 69.6444Z" fill="white"/>
<path d="M135.26 66.8118C137.979 67.1658 137.979 67.1658 139.043 68.228C139.043 68.6954 139.043 69.1627 139.043 69.6443C137.504 69.4796 137.143 69.1621 136.087 67.9625C135.814 67.5827 135.541 67.203 135.26 66.8118Z" fill="white"/>
<path d="M36.417 125.822C37.8021 126.118 38.9524 126.571 40.2005 127.238C40.2005 127.706 40.2005 128.173 40.2005 128.655C37.5229 127.957 37.5229 127.957 36.7126 126.707C36.615 126.415 36.5175 126.123 36.417 125.822Z" fill="black"/>
<path d="M35.9434 102.69C36.5676 102.69 37.1919 102.69 37.8351 102.69C37.8351 103.469 37.8351 104.248 37.8351 105.05C37.2108 104.895 36.5865 104.739 35.9434 104.578C35.9434 103.955 35.9434 103.332 35.9434 102.69Z" fill="white"/>
<path d="M3.31082 21.9644C3.62296 21.9644 3.93509 21.9644 4.25669 21.9644C4.3158 23.3216 4.3158 23.3216 4.25669 24.7968C3.94455 25.1084 3.63242 25.42 3.31082 25.741C3.13081 24.6429 2.97376 23.5408 2.83789 22.4364C2.99396 22.2807 3.15003 22.1249 3.31082 21.9644Z" fill="black"/>
<rect x="-1028.24" y="-830.615" width="4257" height="7751" stroke="white" stroke-width="4"/>
</svg>
