<svg width="152" height="224" viewBox="0 0 152 224" fill="none" xmlns="http://www.w3.org/2000/svg">
<path d="M65.6189 36.7421C67.7251 36.3133 69.9588 38.23 70.5782 41.0042C70.8605 42.269 70.7808 43.5424 70.3528 44.5906C69.8678 45.7796 68.9615 46.5896 67.8595 46.8105C67.6568 46.8516 67.4473 46.8711 67.2401 46.8711C65.2865 46.8711 63.4604 45.0519 62.9025 42.5462C62.6202 41.2814 62.6999 40.008 63.128 38.9598C63.6107 37.773 64.5192 36.9652 65.6189 36.7421Z" fill="black"/>
<path d="M55.7484 38.1372C57.85 37.704 60.0905 39.625 60.7076 42.3992C60.9899 43.664 60.9102 44.9375 60.4821 45.9857C59.9971 47.1746 59.091 47.9846 57.9889 48.2055C57.7863 48.2467 57.5768 48.2662 57.3673 48.2662C55.4114 48.2662 53.5852 46.4469 53.0297 43.9412C52.7473 42.6765 52.827 41.403 53.2551 40.3548C53.7378 39.168 54.6486 38.3581 55.7484 38.1372Z" fill="black"/>
<path d="M59.4135 26.5274L71.0815 28.5991L70.014 34.0384L58.346 31.9668L59.4135 26.5274Z" fill="black"/>
<path d="M51.0152 25.6976L54.2397 30.2983L44.3894 36.544L41.1649 31.9433L51.0152 25.6976Z" fill="black"/>
<path d="M4.40047 187.161H3.86993L7.79994 142.671L34.3243 114.246L32.8693 74.6659L25.0274 70.9799C28.2539 41.7776 14.3052 55.2244 15.1909 27.7828C15.874 6.59146 29.5517 8.43881 35.7496 10.3793C37.0042 7.52922 43.9216 -5.06216 65.7235 2.25357C80.4531 7.19787 89.1489 0.451709 89.1489 0.451709C89.1489 0.451709 82.5616 16.4541 68.8953 21.2294L102.032 64.9203L72.8254 64.054L75.7376 80.2816L74.6105 80.4592C73.768 80.5913 72.4155 80.7494 70.7487 80.7494C66.632 80.7494 59.4118 79.7315 53.8902 73.4921C54.1725 76.13 55.1356 79.9069 58.0889 83.0884C61.9119 87.2054 68.0757 89.3082 76.4093 89.3364L77.2586 89.3386L84.2079 111.84L110.363 129.735L131.928 101.35L132.133 101.503C131.229 98.6814 131.439 97.7935 131.792 97.3235C132.026 97.0117 132.382 96.8384 132.791 96.8384C133.361 96.8384 134.214 97.1178 136.07 99.121C138.035 92.3381 139.433 92.3381 139.893 92.3381C140.207 92.3381 140.508 92.4658 140.738 92.6932C141.177 93.1329 141.601 94.1074 141.562 97.7047C143.7 95.2336 145.205 93.984 146.05 93.984C146.421 93.984 146.747 94.1529 146.943 94.4453C147.289 94.9651 147.416 95.814 145.435 100.054C146.838 99.5434 148.673 98.9608 149.75 98.9608C150.741 98.9608 151.069 99.4481 151.176 99.7383C151.433 100.436 151.298 101.352 147.204 104.633C150.545 105.15 150.586 106.04 150.604 106.409C150.65 107.32 150.051 108.187 142.719 109.495L143.044 109.744L114.15 143.895L85.5308 131.568L87.7872 168.688L87.8464 169.814L87.1065 169.827C91.3826 179.806 91.2824 194.951 87.876 207.278C83.2493 224.021 73.9798 238.046 70.323 243.158C83.839 243.036 87.876 251.036 87.876 251.036H61.6273H55.8256H29.5791L31.2117 245.254H30.228C30.228 245.254 53.6169 208.201 40.768 194.8C31.0431 184.653 29.4721 176.434 30.2189 170.853L28.9711 170.869L32.2636 136.373L19.3168 151.31L18.8591 187.159H18.0166C20.9107 189.099 21.1635 189.994 20.9585 190.659C20.6557 191.638 19.2917 191.638 18.8409 191.638C18.1829 191.638 17.3473 191.553 16.4615 191.354C17.6364 194.068 18.8682 197.539 18.0668 198.676C17.8482 198.988 17.4975 199.168 17.1059 199.168C16.4274 199.168 15.446 198.698 13.0256 195.67C12.9527 197.946 12.7022 200.452 11.9986 201.128C11.7869 201.331 11.5159 201.444 11.2359 201.444C10.4549 201.444 9.73766 201.015 8.46028 196.088C6.89145 198.577 5.64369 199.835 4.73518 199.835C4.37999 199.835 4.05887 199.685 3.83345 199.415C3.39627 198.886 3.14357 197.767 4.11356 193.465C3.15041 193.957 1.99829 194.453 1.26054 194.453C0.49321 194.453 0.199463 194 0.108383 193.805C-0.214951 193.119 -0.0828552 191.986 4.40047 187.161ZM75.5464 91.4934C66.9622 91.3202 60.5139 88.9769 56.3789 84.5221C50.5954 78.2913 51.5358 70.2847 51.5791 69.9469L51.9729 66.8521L53.6807 69.5137C58.4941 77.0114 65.6188 78.5859 70.7465 78.5859C71.6482 78.5859 72.4428 78.5361 73.1009 78.4689L70.109 61.8082L97.4757 62.6225L67.3379 22.8819C58.8722 25.0801 49.6027 22.6805 39.9165 15.7979L40.1077 51.833L38.1518 50.3256C35.2305 48.3007 31.2185 46.6136 30.055 51.5189C27.8509 60.8163 35.2259 63.5386 39.0079 64.5564H40.085V79.268L35.235 76.9876L36.5761 113.508L81.7214 111.487L75.5464 91.4934ZM145.187 105.93L144.755 104.585C147.826 102.233 148.971 101.059 149.395 100.505C147.983 100.68 145.217 101.748 144.188 102.181L143.145 101.165C144.538 98.3414 145.13 96.8211 145.374 96.0111C144.356 96.8969 142.676 98.7464 141.325 100.433L139.895 99.9375C140.069 96.3728 139.891 94.8308 139.738 94.1789C139.233 94.9239 138.415 96.7193 137.603 99.5217C137.286 100.607 135.82 101.025 135.05 100.226C134 99.1405 133.395 98.6814 133.076 98.4908C133.087 98.9326 133.231 99.918 133.964 101.978L141.986 108.085C146.148 107.359 147.879 106.816 148.593 106.504C147.863 106.277 146.508 106.04 145.187 105.93ZM57.1098 246.467L57.4513 245.254H55.6822C64.3551 229.349 70.175 217.223 71.8463 207.62C75.3642 187.391 66.1356 179.557 66.1356 179.557H53.0568C68.1781 201.606 50.5476 234.627 45.4996 243.162C50.8481 243.346 54.596 244.825 57.1098 246.467ZM35.194 129.586L31.4621 168.668L85.4397 167.691L83.033 128.12L113.476 141.235L139.836 110.082L132.407 104.416L110.876 132.759L82.8782 113.605L82.2405 113.633L67.6521 114.287L71.6869 117.374L68.8293 125.257L73.9388 151.598L66.525 160.564L58.9792 152.287L62.5221 125.705L56.98 118.287L60.3818 114.617L55.5911 114.831L36.0092 115.708L10.0018 143.579L6.34502 185.002H16.6004L17.0399 150.528L35.194 129.586ZM4.8627 191.287L6.06949 192.099C5.15189 195.761 5.00613 197.357 5.02663 198.035C5.7393 197.34 6.98483 195.566 8.06183 193.665L9.54184 193.86C10.2568 196.905 10.7691 198.451 11.0993 199.235C11.3338 197.94 11.4681 195.503 11.4522 193.385L12.9004 192.944C15.0863 195.893 16.2179 197 16.7348 197.414C16.6596 196.539 16.1496 194.637 14.9815 191.939C14.7607 191.438 14.8084 190.888 15.1021 190.466C15.3663 190.087 15.7989 189.87 16.2816 189.87L16.5457 189.894C17.7776 190.091 18.7726 190.158 19.2234 190.111C18.9115 189.749 18.0941 188.995 15.9606 187.677H6.0444C3.19138 190.704 2.16449 192.153 1.7979 192.82C2.58116 192.554 3.85857 191.902 4.8627 191.287Z" fill="black"/>
</svg>
