<svg width="122" height="168" viewBox="0 0 122 168" fill="none" xmlns="http://www.w3.org/2000/svg">
<rect width="122" height="168" fill="#1E1E1E"/>
<rect id="Rectangle 34" x="-939" y="-735" width="6835" height="1503" stroke="white" stroke-width="4"/>
<g id="Balanced Achiever">
<rect width="1440" height="1024" transform="translate(-784 -461)" fill="#F9EFE5"/>
<g id="Rectangle 4">
<rect x="-186" y="-313" width="786" height="820" rx="12" fill="white"/>
<rect x="-185.5" y="-312.5" width="785" height="819" rx="11.5" stroke="black" stroke-opacity="0.5"/>
</g>
<rect id="Rectangle 49" x="-41" y="-19" width="205" height="205" rx="10" fill="white" stroke="#99BBE0" stroke-width="4"/>
<g id="Group 75">
<path id="Vector" d="M51.6534 16.2468C55.4111 15.8487 58.4501 16.7459 61.9571 18.0122C63.637 18.6162 65.3298 19.0996 67.0531 19.5619C70.4246 20.4775 73.5921 21.6208 76.7421 23.1392C77.081 23.2968 77.4199 23.4543 77.7691 23.6167C79.2341 24.3585 80.0637 24.8153 80.7064 26.3603C80.6637 28.1499 79.7738 29.1363 78.7098 30.5238C79.018 30.5479 79.3262 30.5721 79.6437 30.5969C80.0458 30.6337 80.4478 30.6705 80.862 30.7084C81.2615 30.7427 81.661 30.777 82.0727 30.8123C83.1372 31.0161 83.1372 31.0161 84.1211 32.0008C83.9656 35.7457 82.2756 39.3183 80.8928 42.7393C79.3812 46.5867 78.3459 49.7967 78.2909 53.9413C78.1786 55.7835 77.4989 56.776 76.2501 58.0932C73.5877 60.4478 72.8487 60.0624 68.8711 60.0624C67.7347 63.4742 66.5984 66.8859 65.4276 70.401C71.8598 66.3696 77.7304 62.0821 83.2698 56.8855C84.7177 55.5339 86.2001 54.2309 87.703 52.9413C87.982 52.6919 88.261 52.4424 88.5485 52.1855C88.9087 51.8942 89.2689 51.6029 89.64 51.3028C90.8336 49.8228 90.6556 48.947 90.5163 47.0778C90.421 44.2465 90.5725 42.9441 92.484 40.8623C93.4679 39.8777 93.4679 39.8777 95.0052 39.8162C95.4719 39.8365 95.9386 39.8568 96.4195 39.8777C96.5717 39.563 96.7239 39.2482 96.8807 38.9239C97.4034 37.9085 97.4034 37.9085 97.8953 37.4162C101.105 37.2994 101.105 37.2994 102.323 37.9085C102.323 38.2334 102.323 38.5583 102.323 38.8931C102.688 38.9946 103.053 39.0962 103.43 39.2008C105.212 40.0929 105.761 41.1164 106.75 42.8316C107.034 43.3088 107.318 43.7861 107.611 44.2778C108.354 46.0987 108.403 47.2735 108.226 49.2316C106.346 52.4532 103.809 55.1643 100.355 56.6163C99.868 56.6163 99.3809 56.6163 98.8792 56.6163C98.9321 57.1754 98.9321 57.1754 98.9862 57.7458C98.8792 59.0778 98.8792 59.0778 98.162 59.9271C97.8337 60.1812 97.5053 60.4353 97.167 60.6971C95.6696 61.9158 94.2713 63.1552 92.9202 64.5355C92.5832 64.8795 92.2462 65.2235 91.899 65.5779C91.382 66.1071 91.382 66.1071 90.8545 66.6471C88.1391 69.3973 85.4194 71.9783 82.3744 74.3606C81.1539 75.3366 80.0306 76.3748 78.8943 77.4472C77.3938 78.8566 75.895 80.0013 74.1344 81.0529C69.7507 83.5146 69.7507 83.5146 67.0917 87.5549C66.7273 89.3058 66.6118 91.0649 66.5126 92.848C66.3244 95.0501 65.8237 97.1958 65.3661 99.355C65.2005 100.179 65.0352 101.002 64.8703 101.826C64.6604 102.865 64.4401 103.892 64.1741 104.918C63.9075 106.032 63.9042 107.042 63.921 108.186C63.9254 108.579 63.9299 108.973 63.9345 109.378C63.9402 109.675 63.9459 109.972 63.9518 110.278C64.2358 109.943 64.5199 109.608 64.8126 109.263C65.1779 108.948 65.5432 108.633 65.9195 108.309C66.8938 108.382 66.8938 108.382 67.8872 108.801C68.5656 109.607 68.5656 109.607 69.1478 110.617C69.4551 111.149 69.4551 111.149 69.7685 111.692C69.9594 112.037 70.1503 112.383 70.3469 112.74C70.6513 113.268 70.9557 113.796 71.2693 114.34C71.8861 115.849 71.8674 116.182 71.3308 117.663C70.5078 118.857 69.5882 119.813 68.3792 120.617C66.7189 120.555 66.7189 120.555 65.4276 120.124C65.6711 121.343 65.6711 121.343 65.9195 122.586C67.5948 122.586 68.5971 121.131 69.7627 120.032C70.1475 119.675 70.1475 119.675 70.54 119.312C71.776 118.161 72.978 116.995 74.1594 115.788C75.2445 114.73 75.7415 114.32 77.234 114.217C77.5587 114.379 77.8834 114.542 78.2179 114.709C78.0555 114.303 77.8932 113.897 77.7259 113.478C77.7259 111.755 77.7259 111.755 78.5695 110.682C79.5729 109.69 80.5934 108.738 81.6614 107.817C83.7828 108.767 84.7447 109.872 86.0888 111.755C85.9265 112.242 85.7642 112.73 85.5969 113.232C85.8861 113.357 86.1752 113.482 86.4732 113.611C90.0756 115.61 92.7514 120.233 93.9598 124.063C94.0521 125.417 94.0521 125.417 93.9598 126.524C93.7975 126.687 93.6351 126.849 93.4679 127.017C89.7065 127.017 87.0352 125.379 84.1211 123.078C82.1534 120.871 82.1534 120.871 82.1534 119.632C81.8287 119.632 81.504 119.632 81.1695 119.632C81.342 119.916 81.5145 120.201 81.6922 120.494C82.2557 121.847 82.1579 122.21 81.6614 123.57C77.8972 129.001 71.0035 138.417 64.3553 140.086C61.893 140.253 60.3673 139.398 58.5405 137.847C54.5871 133.943 52.1439 128.67 49.5011 123.847C49.2329 123.365 48.9647 122.883 48.6883 122.387C48.4353 121.925 48.1823 121.463 47.9216 120.988C47.5788 120.366 47.5788 120.366 47.2291 119.731C46.734 118.647 46.734 118.647 46.734 117.17C46.4093 117.17 46.0847 117.17 45.7501 117.17C45.7501 119.445 45.7501 121.719 45.7501 124.063C46.2372 123.738 46.7242 123.413 47.2259 123.078C47.713 123.078 48.2 123.078 48.7017 123.078C49.473 124.425 50.2264 125.781 50.9769 127.14C51.1964 127.522 51.4158 127.905 51.6418 128.299C51.8448 128.671 52.0477 129.042 52.2568 129.424C52.4474 129.765 52.638 130.105 52.8344 130.456C53.1292 131.447 53.1292 131.447 52.7585 132.508C51.0757 135.001 47.1367 136.746 44.2743 137.355C42.3441 137.647 40.6727 137.759 38.8842 136.884C36.2128 134.863 35.1125 132.038 33.9437 128.986C33.6989 128.386 33.4541 127.786 33.2019 127.169C32.3136 124.784 31.8682 122.347 31.4225 119.847C31.3394 119.401 31.2564 118.954 31.1708 118.494C29.7066 110.539 29.4538 103.394 31.484 95.5088C31.6419 94.8221 31.7975 94.1349 31.951 93.4472C32.8191 89.5849 33.8024 85.8303 35.1063 82.0856C35.5238 80.2913 35.372 79.0783 34.4656 77.446C33.8402 76.4666 33.1902 75.5087 32.5294 74.5529C32.291 74.2005 32.0527 73.848 31.8071 73.4849C31.0472 72.362 30.2823 71.2427 29.5163 70.124C28.7507 69.0033 27.9863 67.8818 27.2254 66.7579C26.7525 66.0596 26.2769 65.3631 25.7982 64.6687C25.5831 64.3515 25.3681 64.0343 25.1465 63.7075C24.862 63.2923 24.862 63.2923 24.5717 62.8687C24.0573 61.9461 23.825 61.0935 23.613 60.0624C24.3436 59.8188 24.3436 59.8188 25.0888 59.5701C25.411 60.1127 25.7331 60.6553 26.065 61.2144C29.2836 66.5858 32.7294 71.7318 36.4034 76.801C37.1186 75.3798 37.7907 73.9493 38.4326 72.4933C38.6063 72.0998 38.7801 71.7064 38.9591 71.301C39.0898 71.004 39.2204 70.707 39.355 70.401C39.842 70.401 40.329 70.401 40.8308 70.401C41.6214 71.9835 41.351 73.5695 41.3227 75.3241C41.9686 74.7602 42.6142 74.196 43.2597 73.6317C43.6193 73.3176 43.9788 73.0035 44.3493 72.6798C44.826 72.2592 45.3008 71.8353 45.7501 71.3856C47.3913 71.3154 49.0263 71.3648 50.6695 71.3856C52.374 74.5536 52.374 74.5536 54.113 77.7856C56.2566 76.713 58.0209 75.3635 59.8952 73.8971C61.8817 72.3702 61.8817 72.3702 62.9679 72.3702C62.9679 72.0453 62.9679 71.7204 62.9679 71.3856C62.6927 71.397 62.4174 71.4084 62.1339 71.4202C58.4077 71.5041 54.8344 70.9942 51.1614 70.401C51.1614 70.2385 51.1614 70.076 51.1614 69.9087C55.3822 69.9087 59.603 69.9087 63.9518 69.9087C64.1141 68.7714 64.2764 67.6342 64.4437 66.4625C64.8876 65.1875 64.8876 65.1875 65.3968 64.0317C66.2911 61.9066 66.8958 59.8501 67.3953 57.6009C67.7574 57.6536 68.1195 57.7062 68.4925 57.7605C71.4546 58.1615 71.4546 58.1615 74.3131 57.5086C75.8045 56.1124 76.1814 55.1976 76.4346 53.1701C76.3545 51.6663 76.3545 51.6663 75.4815 50.4932C74.2738 49.562 74.2738 49.562 72.5299 49.7547C70.8431 50.2151 70.4758 50.4735 69.363 51.6932C68.7137 51.6932 68.0643 51.6932 67.3953 51.6932C67.6819 48.3106 68.3486 45.202 69.2708 41.9393C69.4021 41.4658 69.5335 40.9923 69.6688 40.5044C70.6119 37.1405 71.6277 33.8134 72.8066 30.5238C72.2061 30.5111 71.6055 30.4984 70.9868 30.4854C65.9812 30.3303 61.791 29.7901 57.0647 28.0623C56.4101 27.8929 55.7543 27.7278 55.0969 27.57C48.2846 35.3343 48.2846 35.3343 41.9569 43.4931C41.2961 44.3427 40.6714 45.0915 39.8469 45.7854C39.3599 45.7854 38.8729 45.7854 38.3711 45.7854C39.1156 43.3932 40.4881 41.8616 42.1221 40.0316C42.6602 39.4174 43.1976 38.8027 43.7344 38.1873C43.9962 37.8879 44.258 37.5884 44.5277 37.2799C45.8135 35.7866 47.0192 34.2321 48.2271 32.6758C49.319 31.3571 50.5124 30.1726 51.7149 28.9546C52.8334 27.7834 52.8334 27.7834 53.6211 26.5854C53.5846 24.7138 53.5846 24.7138 52.6372 23.1392C51.7003 20.6909 51.564 18.8389 51.6534 16.2468Z" fill="black"/>
<path id="Vector_2" d="M13.2823 13.7847C15.2151 13.8706 16.0149 14.0578 17.4023 15.4462C18.2017 16.7385 18.2017 16.7385 18.2017 18.2155C18.6278 18.2459 18.6278 18.2459 19.0626 18.277C20.8197 18.9608 21.2964 20.0089 22.1372 21.6616C22.5477 24.8454 21.7905 26.8155 20.1694 29.5386C20.47 29.6558 20.7706 29.7731 21.0803 29.8939C22.4006 30.6801 22.6827 31.3214 23.3055 32.7155C23.6164 33.3935 23.6164 33.3935 23.9336 34.0853C24.1525 34.575 24.3713 35.0648 24.5968 35.5694C29.284 45.6795 34.6352 55.077 41.3226 64.0003C42.6214 58.639 43.9201 53.2778 45.2581 47.7541C43.4724 47.2667 41.6867 46.7793 39.8468 46.2771C39.6845 45.7898 39.5222 45.3024 39.3549 44.8002C39.6593 44.7596 39.9637 44.719 40.2773 44.6771C41.385 44.4233 41.385 44.4233 41.7243 43.4867C42.5207 41.9163 43.6497 40.6741 44.7969 39.354C45.2867 38.7832 45.7761 38.212 46.2651 37.6406C46.5095 37.3554 46.754 37.0702 47.0058 36.7764C48.0502 35.5475 49.0682 34.2978 50.0852 33.0463C51.726 31.0292 53.3947 29.0425 55.0968 27.077C55.412 27.1722 55.7272 27.2674 56.0519 27.3655C56.4774 27.4937 56.9029 27.6219 57.3413 27.754C57.7579 27.8796 58.1745 28.0053 58.6038 28.1347C59.0699 28.2731 59.536 28.4114 60.0162 28.554C60.5387 28.7215 61.0612 28.8891 61.5996 29.0617C63.845 29.6374 66.0449 29.8786 68.3484 30.0924C68.7786 30.135 69.2089 30.1775 69.6522 30.2213C70.7034 30.3248 71.7549 30.4244 72.8065 30.5232C71.674 35.1793 70.4021 39.7866 69.0824 44.3925C68.9353 44.9116 68.7882 45.4308 68.6366 45.9656C68.5043 46.4282 68.372 46.8907 68.2357 47.3673C67.8712 48.8016 67.6186 50.2301 67.3952 51.6926C68.72 51.2138 69.7223 50.8273 70.7773 49.8772C71.8226 49.231 71.8226 49.231 73.5752 49.2618C75.2662 49.7233 75.2662 49.7233 76.2193 50.5541C76.9161 52.0717 76.974 52.988 76.742 54.6464C75.9302 56.1552 75.2386 57.2595 73.8519 58.2772C71.478 58.9759 69.6014 58.6393 67.3952 57.6003C67.3648 58.1181 67.3344 58.636 67.303 59.1695C66.9916 61.7696 65.9942 64.0744 65.0124 66.4849C64.3834 68.0014 64.3834 68.0014 63.9517 69.908C60.8672 70.0705 57.7828 70.233 54.6049 70.4003C57.3647 70.7253 60.1244 71.0502 62.9678 71.385C62.9678 71.7099 62.9678 72.0348 62.9678 72.3696C62.2453 73.0237 62.2453 73.0237 61.246 73.758C60.8909 74.0214 60.5358 74.2848 60.1699 74.5561C59.6068 74.9664 59.6068 74.9664 59.0323 75.385C58.4692 75.801 58.4692 75.801 57.8947 76.2254C56.9641 76.9122 56.0315 77.596 55.0968 78.2773C53.2143 77.4323 52.6624 76.7143 51.7763 74.8311C51.5657 74.3945 51.3552 73.9579 51.1383 73.508C50.6694 72.3696 50.6694 72.3696 50.6694 71.385C47.4837 71.3322 47.4837 71.3322 44.6912 72.6773C44.1021 73.2956 43.5309 73.9317 42.9829 74.5869C42.6481 74.9515 42.6481 74.9515 42.3065 75.3234C41.9818 75.3234 41.6572 75.3234 41.3226 75.3234C41.1603 73.6988 40.998 72.0742 40.8307 70.4003C40.3437 70.4003 39.8567 70.4003 39.3549 70.4003C39.2598 70.6916 39.1647 70.9829 39.0667 71.283C38.3985 73.3122 37.7214 75.321 36.8952 77.2927C34.7141 75.2858 33.1561 73.0643 31.5454 70.585C31.2881 70.1931 31.0308 69.8012 30.7657 69.3974C30.0183 68.2567 29.2751 67.1133 28.5323 65.9695C28.1494 65.3861 27.7664 64.8028 27.3832 64.2195C25.0888 60.6863 25.0888 60.6863 25.0888 59.5695C24.1147 60.0569 24.1147 60.0569 23.121 60.5541C19.6596 54.2482 16.2431 47.9327 13.1286 41.4463C12.9017 40.9773 12.6748 40.5083 12.441 40.0251C12.2335 39.5872 12.026 39.1494 11.8123 38.6983C11.632 38.3182 11.4517 37.9382 11.2659 37.5467C10.8226 36.4309 10.8226 36.4309 10.5573 35.0998C10.4373 33.9482 10.4373 33.9482 9.65045 33.3078C9.36763 33.12 9.0848 32.9321 8.79341 32.7386C6.1827 30.6614 4.665 27.6769 3.44361 24.6155C3.22153 21.9262 3.22153 21.9262 4.08928 20.8924C4.36322 20.6589 4.63717 20.4253 4.91942 20.1847C5.16292 19.7582 5.40643 19.3318 5.65732 18.8924C6.39522 17.7231 6.39522 17.7231 7.87103 17.2308C8.07395 16.9161 8.27688 16.6013 8.48595 16.277C9.70171 14.843 11.0019 14.7079 12.7904 14.277C12.9527 14.1145 13.1151 13.9521 13.2823 13.7847Z" fill="white"/>
<path id="Vector_3" d="M90.5164 52.1851C92.3271 52.9415 93.462 54.0467 94.8208 55.4466C95.4106 56.0501 95.4106 56.0501 96.0122 56.6659C96.309 56.9743 96.6058 57.2827 96.9116 57.6005C96.0922 59.7334 94.5137 61.1134 92.9146 62.6774C92.48 63.107 92.48 63.107 92.0366 63.5453C90.2689 65.2816 88.4706 66.9643 86.5809 68.5678C85.3836 69.5999 84.2337 70.6782 83.0759 71.7544C80.2303 74.3504 77.2379 76.7219 74.186 79.0691C73.2773 79.7709 72.3747 80.4801 71.4731 81.191C70.8929 81.6456 70.3125 82.1001 69.7321 82.5544C69.4621 82.7683 69.192 82.9822 68.9138 83.2025C67.0154 84.6775 67.0154 84.6775 65.9196 84.6775C65.9012 84.9465 65.8828 85.2155 65.8639 85.4927C65.539 89.4074 64.753 93.2066 63.9519 97.0468C62.7733 102.646 62.7733 102.646 61.9841 108.308C54.4519 107.672 47.0425 106.446 39.5994 105.158C37.06 104.721 34.5182 104.299 31.9761 103.878C32.0712 103.389 32.1663 102.9 32.2643 102.397C33.0072 98.5308 33.6678 94.6845 34.1283 90.7718C34.5196 88.6544 35.2027 86.7067 35.9116 84.6775C36.248 83.6722 36.5829 82.6664 36.9166 81.6602C37.8934 78.7275 38.8702 75.7948 39.847 72.8621C40.9057 74.4512 40.9297 74.9711 40.8309 76.8006C41.2165 76.567 41.602 76.3335 41.9993 76.0929C42.7443 75.6491 43.499 75.2194 44.2745 74.8313C45.1062 76.594 45.3579 77.4198 44.7664 79.2621C44.4473 80.105 44.1272 80.9475 43.798 81.7864C42.5004 85.1058 41.3554 88.4521 40.3697 91.8776C40.2599 92.2445 40.15 92.6113 40.0368 92.9894C39.271 95.7404 39.2085 97.6977 40.5407 100.32C40.809 100.743 41.0772 101.165 41.3536 101.601C41.6231 102.031 41.8926 102.461 42.1703 102.905C42.3776 103.226 42.585 103.547 42.7987 103.878C45.6771 102.813 47.6867 101.72 49.1938 98.9545C49.8913 95.54 49.6569 91.9581 49.5935 88.4929C49.5806 87.0647 49.5733 85.6368 49.5739 84.2085C49.5729 83.323 49.5634 82.4374 49.5445 81.5521C49.5225 78.5809 49.5225 78.5809 50.3692 77.0068C51.1616 76.3083 51.1616 76.3083 52.1454 76.3083C52.6324 77.4455 53.1195 78.5827 53.6212 79.7544C55.4536 78.9389 56.9491 77.7976 58.5406 76.5852C59.0479 76.2 59.5552 75.8148 60.0779 75.4179C60.8767 74.8085 61.6704 74.192 62.4453 73.5525C63.5537 72.7983 64.7025 72.3413 65.9379 71.8337C67.8148 70.9618 69.4981 69.7742 71.2079 68.6159C71.599 68.3522 71.9901 68.0885 72.393 67.8169C78.2694 63.8105 83.7531 59.1254 88.6736 53.9793C89.5325 53.1697 89.5325 53.1697 90.5164 53.1697C90.5164 52.8448 90.5164 52.5198 90.5164 52.1851Z" fill="white"/>
<path id="Vector_4" d="M13.2823 13.7847C15.2151 13.8706 16.0149 14.0578 17.4023 15.4462C18.2017 16.7385 18.2017 16.7385 18.2017 18.2155C18.6278 18.2459 18.6278 18.2459 19.0626 18.277C20.8197 18.9608 21.2964 20.0089 22.1372 21.6616C22.5477 24.8454 21.7905 26.8155 20.1694 29.5386C20.47 29.6558 20.7706 29.7731 21.0803 29.8939C22.4006 30.6801 22.6827 31.3214 23.3055 32.7155C23.6164 33.3935 23.6164 33.3935 23.9336 34.0853C24.1525 34.575 24.3713 35.0648 24.5968 35.5694C29.284 45.6795 34.6352 55.077 41.3226 64.0003C42.6214 58.6391 43.9201 53.2778 45.2581 47.7541C43.4724 47.2667 41.6867 46.7793 39.8468 46.2771C39.6845 45.7898 39.5222 45.3024 39.3549 44.8002C39.8419 44.6377 40.3289 44.4753 40.8307 44.3079C40.8307 44.6328 40.8307 44.9578 40.8307 45.2925C41.1725 45.3528 41.5143 45.4131 41.8665 45.4752C43.423 45.8137 44.8882 46.2863 46.3957 46.8002C46.9214 46.9785 47.4471 47.1569 47.9888 47.3406C48.5852 47.5453 48.5852 47.5453 49.1936 47.7541C49.1936 48.079 49.1936 48.4039 49.1936 48.7387C48.3819 48.7387 47.5702 48.7387 46.7339 48.7387C45.9498 51.9983 45.3834 55.2719 44.879 58.5847C44.3709 61.7884 43.5953 64.7491 42.7985 67.9388C46.8569 68.4262 50.9154 68.9136 55.0968 69.4157C54.9345 69.7407 54.7722 70.0656 54.6049 70.4003C57.3647 70.7253 60.1244 71.0502 62.9678 71.385C62.9678 71.7099 62.9678 72.0348 62.9678 72.3696C62.2453 73.0237 62.2453 73.0237 61.246 73.7581C60.8909 74.0214 60.5358 74.2848 60.1699 74.5561C59.6068 74.9664 59.6068 74.9664 59.0323 75.385C58.4692 75.801 58.4692 75.801 57.8947 76.2254C56.9641 76.9122 56.0315 77.596 55.0968 78.2773C53.2143 77.4323 52.6624 76.7143 51.7763 74.8311C51.5657 74.3945 51.3552 73.9579 51.1383 73.5081C50.6694 72.3696 50.6694 72.3696 50.6694 71.385C47.4837 71.3322 47.4837 71.3322 44.6912 72.6773C44.1021 73.2956 43.5309 73.9318 42.9829 74.5869C42.6481 74.9515 42.6481 74.9515 42.3065 75.3234C41.9818 75.3234 41.6572 75.3234 41.3226 75.3234C41.1603 73.6988 40.998 72.0742 40.8307 70.4003C40.3437 70.4003 39.8567 70.4003 39.3549 70.4003C39.2598 70.6916 39.1647 70.9829 39.0667 71.283C38.3985 73.3122 37.7214 75.321 36.8952 77.2927C34.7141 75.2858 33.1561 73.0643 31.5454 70.585C31.2881 70.1931 31.0308 69.8012 30.7657 69.3975C30.0183 68.2567 29.2751 67.1133 28.5323 65.9696C28.1494 65.3861 27.7664 64.8028 27.3832 64.2195C25.0888 60.6863 25.0888 60.6863 25.0888 59.5695C24.1147 60.0569 24.1147 60.0569 23.121 60.5541C19.6596 54.2482 16.2431 47.9327 13.1286 41.4463C12.9017 40.9773 12.6748 40.5083 12.441 40.0251C12.2335 39.5872 12.026 39.1494 11.8123 38.6983C11.632 38.3182 11.4517 37.9382 11.2659 37.5467C10.8226 36.4309 10.8226 36.4309 10.5573 35.0998C10.4373 33.9482 10.4373 33.9482 9.65045 33.3078C9.36763 33.12 9.0848 32.9321 8.79341 32.7386C6.1827 30.6614 4.665 27.6769 3.44361 24.6155C3.22153 21.9262 3.22153 21.9262 4.08928 20.8924C4.36322 20.6589 4.63717 20.4253 4.91942 20.1847C5.16292 19.7582 5.40643 19.3318 5.65732 18.8924C6.39522 17.7231 6.39522 17.7231 7.87103 17.2308C8.07395 16.9161 8.27688 16.6013 8.48595 16.277C9.70171 14.843 11.0019 14.7079 12.7904 14.277C12.9527 14.1145 13.1151 13.9521 13.2823 13.7847Z" fill="black"/>
<path id="Vector_5" d="M19.7084 31.5992C20.9334 32.1142 21.168 32.5852 21.7566 33.7652C22.0419 34.3236 22.0419 34.3236 22.3329 34.8933C22.5321 35.299 22.7313 35.7048 22.9364 36.1229C23.3739 36.9819 23.8114 37.8408 24.2489 38.6998C24.6929 39.5844 25.1368 40.469 25.5806 41.3537C29.1938 48.4876 32.9272 55.5409 38.0672 61.7092C41.1863 65.4827 41.1863 65.4827 41.0458 67.7846C40.5165 69.8687 39.524 71.7894 38.4958 73.6692C37.8684 74.8507 37.371 76.043 36.8951 77.2923C34.7335 75.2991 33.1766 73.1045 31.5761 70.6461C31.3158 70.2496 31.0554 69.8532 30.7872 69.4447C30.0314 68.2888 29.2808 67.1297 28.5322 65.9692C28.1853 65.4335 27.8385 64.8979 27.4811 64.3461C25.0924 60.5574 22.968 56.6332 20.8428 52.6922C19.5169 50.2349 18.1642 47.8082 16.7258 45.4152C15.479 43.3176 14.5193 41.2144 13.6877 38.921C13.2732 37.7842 13.2732 37.7842 12.2983 36.4306C12.2983 35.9432 12.2983 35.4558 12.2983 34.9536C13.3195 34.3615 14.3442 33.7785 15.3729 33.1998C15.8057 32.947 15.8057 32.947 16.2473 32.6892C18.4155 31.4823 18.4155 31.4823 19.7084 31.5992Z" fill="white"/>
<path id="Vector_6" d="M56.7631 161.842C58.4087 161.847 60.0541 161.842 61.6998 161.836C66.9811 161.832 72.224 161.959 77.4878 162.409C78.1607 162.466 78.1607 162.466 78.8472 162.524C81.7991 162.805 84.6689 163.304 87.5648 163.939C87.5648 164.427 87.5648 164.914 87.5648 165.416C83.6429 167.028 80.0315 167.462 75.8028 167.449C75.2524 167.451 75.2524 167.451 74.6909 167.452C73.4902 167.454 72.2895 167.453 71.0888 167.451C70.2459 167.451 69.403 167.452 68.5602 167.452C66.7979 167.453 65.0356 167.452 63.2733 167.45C61.0262 167.447 58.779 167.449 56.5318 167.452C54.7922 167.453 53.0525 167.453 51.3128 167.451C50.4848 167.451 49.6568 167.452 48.8288 167.453C37.2749 167.465 37.2749 167.465 32.468 165.416C32.468 164.929 32.468 164.442 32.468 163.939C40.415 161.81 48.5844 161.811 56.7631 161.842Z" fill="#C6C6C6"/>
<path id="Vector_7" d="M13.2824 13.7847C15.2152 13.8706 16.015 14.0578 17.4024 15.4462C18.2018 16.7385 18.2018 16.7385 18.2018 18.2155C18.496 18.2561 18.7903 18.2967 19.0934 18.3385C20.5614 18.8422 20.9358 19.2923 21.6453 20.677C21.9219 22.789 21.874 24.2722 20.6615 26.0924C20.4991 25.93 20.3368 25.7675 20.1695 25.6001C19.4325 27.2597 19.1856 28.1623 19.1856 30.0309C16.9129 31.1681 14.6402 32.3054 12.2985 33.4771C11.6492 32.9897 10.9998 32.5023 10.3308 32.0001C10.3308 32.3251 10.3308 32.65 10.3308 32.9848C8.97002 32.8389 8.41762 32.5471 7.44068 31.5694C3.11673 25.2058 3.11673 25.2058 3.44371 21.6616C4.08937 20.8924 4.08937 20.8924 4.91951 20.1847C5.16302 19.7582 5.40653 19.3318 5.65742 18.8924C6.39532 17.7231 6.39532 17.7231 7.87113 17.2308C8.07405 16.9161 8.27697 16.6013 8.48605 16.277C9.70181 14.843 11.002 14.7079 12.7905 14.277C12.9528 14.1145 13.1152 13.9521 13.2824 13.7847Z" fill="black"/>
<path id="Vector_8" d="M95.4358 41.2925C96.8275 42.0759 97.8023 43.1402 98.8793 44.3079C98.717 44.7953 98.5546 45.2827 98.3874 45.7848C97.9917 45.7747 97.596 45.7645 97.1883 45.754C95.9604 45.6389 95.9604 45.6389 95.4358 46.2771C95.9228 46.602 96.4098 46.927 96.9116 47.2617C96.7492 48.399 96.5869 49.5362 96.4196 50.7079C97.2313 50.0581 98.043 49.4082 98.8793 48.7387C99.691 49.7134 100.503 50.6882 101.339 51.6925C102.555 51.523 102.555 51.523 103.799 51.2002C103.961 50.8753 104.123 50.5504 104.291 50.2156C103.317 50.3781 102.343 50.5405 101.339 50.7079C101.339 50.2205 101.339 49.7331 101.339 49.231C102.144 48.7146 102.965 48.2222 103.799 47.7541C103.961 47.4291 104.123 47.1042 104.291 46.7694C103.925 47.0131 103.56 47.2568 103.184 47.5079C101.831 48.2464 101.831 48.2464 99.8632 48.2464C100.631 46.2489 102.069 44.5657 103.799 43.3233C104.448 43.3233 105.097 43.3233 105.766 43.3233C105.517 44.391 105.275 45.2923 104.783 46.2771C105.432 46.2771 106.081 46.2771 106.75 46.2771C107.027 47.8614 106.984 48.877 106.087 50.2348C103.447 53.336 100.868 55.1731 96.9116 56.1233C92.681 51.8725 92.681 51.8725 91.9615 49.4156C91.9716 48.8673 91.9818 48.319 91.9922 47.7541C91.9586 47.4241 91.925 47.094 91.8904 46.754C91.7317 44.7745 91.9149 43.9208 93.0991 42.3079C94.4519 41.354 94.4519 41.354 95.4358 41.2925Z" fill="white"/>
<path id="Vector_9" d="M19.1855 19.692C20.4127 21.5343 20.3909 23.4637 20.1694 25.5997C19.8676 26.4303 19.5441 27.2537 19.1855 28.0613C19.1855 28.7111 19.1855 29.361 19.1855 30.0305C15.7764 31.7364 15.7764 31.7364 12.2984 33.4767C7.94124 30.4525 7.94124 30.4525 7.37903 28.0613C7.81531 27.9293 8.2516 27.7973 8.7011 27.6613C10.2182 27.117 11.4227 26.4362 12.7903 25.5997C13.115 25.5997 13.4397 25.5997 13.7742 25.5997C13.7742 26.5745 13.7742 27.5493 13.7742 28.5536C14.0989 28.5536 14.4235 28.5536 14.7581 28.5536C14.682 27.8682 14.682 27.8682 14.6043 27.169C14.6804 26.3922 14.6804 26.3922 14.7581 25.5997C15.9572 24.7382 15.9572 24.7382 17.2177 24.1228C17.3801 23.7979 17.5424 23.473 17.7097 23.1382C16.8878 23.2905 16.8878 23.2905 16.0494 23.4459C15.1667 23.5373 15.1667 23.5373 14.2661 23.6305C13.9414 23.3056 13.6168 22.9807 13.2823 22.6459C13.2823 22.1585 13.2823 21.6711 13.2823 21.1689C16.8664 19.481 16.8664 19.481 19.1855 19.692Z" fill="white"/>
<path id="Vector_10" d="M60.5081 51.2003C59.1715 54.9698 57.1337 58.9121 53.9899 61.4465C52.1326 62.2491 50.7151 62.1336 48.7016 62.0311C47.453 59.3402 47.6471 57.0874 47.7177 54.1541C50.9645 54.3166 54.2113 54.4791 57.5564 54.6464C57.7188 53.9966 57.8811 53.3467 58.0484 52.6772C54.8016 52.8397 51.5548 53.0021 48.2097 53.1695C48.2097 52.6821 48.2097 52.1947 48.2097 51.6926C49.8899 51.5127 51.5708 51.3404 53.252 51.1695C53.9664 51.0929 53.9664 51.0929 54.6951 51.0147C55.1549 50.9687 55.6146 50.9227 56.0883 50.8753C56.5108 50.8314 56.9333 50.7876 57.3686 50.7425C58.5247 50.7084 59.4083 50.8605 60.5081 51.2003Z" fill="black"/>
<path id="Vector_11" d="M41.8148 69.4155C43.2374 69.53 44.6418 69.6745 46.0577 69.8463C46.6446 69.9139 46.6446 69.9139 47.2433 69.9828C48.9642 70.1836 50.6766 70.4012 52.3894 70.6636C54.5099 70.9451 56.6205 71.0643 58.7558 71.1694C59.366 71.2013 59.366 71.2013 59.9885 71.2338C60.9816 71.2855 61.9748 71.3353 62.968 71.3848C62.968 71.7097 62.968 72.0346 62.968 72.3694C62.2455 73.0235 62.2455 73.0235 61.2462 73.7579C60.8911 74.0212 60.536 74.2846 60.1701 74.5559C59.7947 74.8295 59.4193 75.103 59.0325 75.3848C58.6571 75.6621 58.2817 75.9394 57.8949 76.2252C56.9643 76.912 56.0317 77.5958 55.097 78.2771C53.2144 77.4321 52.6626 76.7141 51.7765 74.8309C51.5659 74.3943 51.3554 73.9577 51.1385 73.5079C50.6696 72.3694 50.6696 72.3694 50.6696 71.3848C47.4839 71.332 47.4839 71.332 44.6914 72.6771C44.1023 73.2954 43.5311 73.9316 42.9831 74.5867C42.7599 74.8298 42.5367 75.0728 42.3067 75.3233C41.982 75.3233 41.6573 75.3233 41.3228 75.3233C41.3096 74.431 41.3 73.5386 41.2921 72.6463C41.2864 72.1494 41.2807 71.6525 41.2748 71.1405C41.3228 69.9078 41.3228 69.9078 41.8148 69.4155Z" fill="white"/>
<path id="Vector_12" d="M115.113 23.1387C115.6 23.1387 116.087 23.1387 116.589 23.1387C116.691 23.4712 116.793 23.8038 116.898 24.1464C117.952 27.2846 117.952 27.2846 120.401 29.3541C120.929 29.5775 121.456 29.8009 122 30.031C121.508 31.0156 121.508 31.0156 120.094 31.6003C117.822 32.9191 117.43 34.6989 116.742 37.1387C116.666 37.5195 116.666 37.5195 116.589 37.908C116.102 37.7455 115.615 37.5831 115.113 37.4157C114.888 36.433 114.664 35.4499 114.454 34.4637C113.953 32.9424 112.987 32.3442 111.669 31.5079C111.182 31.183 110.695 30.8581 110.194 30.5233C110.194 30.1984 110.194 29.8735 110.194 29.5387C110.66 29.3153 111.127 29.0919 111.608 28.8618C113.499 27.9063 113.499 27.9063 114.44 26.1195C114.52 25.7653 114.6 25.4112 114.683 25.0464C114.825 24.4168 114.967 23.7873 115.113 23.1387Z" fill="black"/>
<path id="Vector_13" d="M37.8793 0C38.204 0 38.5287 0 38.8632 0C38.9526 0.302713 39.042 0.605426 39.1341 0.917312C39.3196 1.51417 39.3196 1.51417 39.5088 2.12309C39.6886 2.71423 39.6886 2.71423 39.872 3.31732C40.6019 5.05765 41.4261 5.73584 43.1369 6.49234C43.7 6.69034 43.7 6.69034 44.2745 6.89234C44.2745 7.21727 44.2745 7.54219 44.2745 7.87696C43.8179 8.08004 43.3613 8.28312 42.8909 8.49235C40.5998 9.75115 40.0491 10.6844 39.2629 13.1693C39.131 13.6973 38.9991 14.2253 38.8632 14.7693C38.3762 14.6068 37.8891 14.4444 37.3874 14.277C37.0415 13.3289 37.0415 13.3289 36.7725 12.1539C36.2334 10.3228 35.7779 9.5185 34.0976 8.58466C33.5598 8.35112 33.0221 8.11758 32.468 7.87696C32.468 7.55204 32.468 7.22711 32.468 6.89234C32.9956 6.66896 33.5232 6.44557 34.0668 6.21542C36.5199 4.851 37.092 2.56429 37.8793 0Z" fill="black"/>
<path id="Vector_14" d="M5.41129 63.5078C5.89831 63.5078 6.38532 63.5078 6.8871 63.5078C7.01266 63.9619 7.01266 63.9619 7.14075 64.4251C7.84526 66.8983 7.84526 66.8983 9.34678 68.9232C10.3886 69.4736 10.3886 69.4736 11.8065 69.9078C11.8065 70.2328 11.8065 70.5577 11.8065 70.8925C10.8226 71.5489 9.83871 72.2053 8.85484 72.8617C7.47799 74.338 6.96314 75.861 6.39516 77.7848C6.07048 77.7848 5.74581 77.7848 5.41129 77.7848C5.32188 77.4821 5.23246 77.1794 5.14034 76.8675C4.95486 76.2706 4.95486 76.2706 4.76563 75.6617C4.64577 75.2676 4.52592 74.8735 4.40244 74.4675C3.9058 73.2832 3.45639 72.6751 2.45968 71.8771C1.17764 71.5217 1.17764 71.5217 0 71.3848C0 70.8974 0 70.41 0 69.9078C0.527601 69.7657 1.0552 69.6235 1.59879 69.4771C2.95838 68.9168 3.38166 68.5418 4.11035 67.2367C4.59297 66.0039 5.0288 64.775 5.41129 63.5078Z" fill="black"/>
<path id="Vector_15" d="M84.1211 136.862C84.4458 136.862 84.7705 136.862 85.105 136.862C85.1944 137.165 85.2838 137.467 85.3759 137.779C85.5614 138.376 85.5614 138.376 85.7507 138.985C85.9304 139.576 85.9304 139.576 86.1138 140.179C86.9268 142.118 88.149 142.913 90.0243 143.754C90.0243 144.079 90.0243 144.404 90.0243 144.739C89.4765 145.023 88.9286 145.307 88.3641 145.6C86.8923 146.45 86.0929 146.99 85.5969 148.677C85.4086 149.658 85.2398 150.642 85.105 151.631C84.618 151.631 84.131 151.631 83.6292 151.631C83.5512 151.252 83.4732 150.872 83.3928 150.481C83.278 149.987 83.1633 149.494 83.045 148.985C82.9366 148.494 82.8281 148.003 82.7164 147.496C82.2685 146.119 82.2685 146.119 80.9601 145.581C80.5422 145.466 80.1243 145.35 79.6937 145.231C79.2067 145.069 78.7197 144.906 78.2179 144.739C78.2179 144.414 78.2179 144.089 78.2179 143.754C78.7556 143.582 79.2934 143.409 79.8474 143.231C81.5039 142.529 81.6467 142.305 82.5531 140.585C82.8422 139.717 82.8422 139.717 83.1373 138.831C83.4584 138.171 83.7828 137.513 84.1211 136.862Z" fill="black"/>
<path id="Vector_16" d="M88.0568 96.0005C91.0949 96.4059 93.0323 99.2392 94.9439 101.416C98.6325 106.323 98.6325 106.323 98.3874 109.293C96.9116 108.801 96.9116 108.801 96.3121 107.776C96.1041 107.332 95.8961 106.888 95.6818 106.431C94.2638 103.683 92.5068 101.625 90.3666 99.4336C89.2475 98.2819 88.5726 97.5493 88.0568 96.0005Z" fill="black"/>
<path id="Vector_17" d="M19.6772 119.631C20.1642 119.631 20.6513 119.631 21.153 119.631C21.2253 120.184 21.2976 120.737 21.3721 121.306C22.1722 126.842 22.1722 126.842 24.9867 131.612C25.5805 132.431 25.5805 132.431 25.5805 133.908C23.026 132.851 21.9237 130.868 20.6611 128.493C19.6016 125.577 19.5798 122.703 19.6772 119.631Z" fill="black"/>
<path id="Vector_18" d="M96.9112 82.7085C98.3538 83.3589 99.3644 84.0606 100.47 85.1893C100.893 85.6176 100.893 85.6176 101.325 86.0547C101.614 86.3517 101.902 86.6487 102.2 86.9547C102.496 87.2555 102.792 87.5563 103.097 87.8662C103.825 88.6063 104.55 89.3494 105.274 90.0932C105.112 90.5805 104.949 91.0679 104.782 91.5701C103.34 90.9196 102.329 90.218 101.223 89.0893C100.941 88.8037 100.659 88.5181 100.368 88.2239C100.08 87.9269 99.7912 87.6299 99.4939 87.3239C99.1978 87.0231 98.9016 86.7223 98.5965 86.4124C97.8685 85.6723 97.1436 84.9291 96.4193 84.1854C96.5817 83.698 96.744 83.2107 96.9112 82.7085Z" fill="black"/>
<path id="Vector_19" d="M105.274 71.877C107.735 72.6056 109.864 73.6649 112.1 74.8924C112.439 75.0758 112.777 75.2592 113.126 75.4481C113.953 75.8967 114.779 76.3481 115.605 76.8001C115.443 77.125 115.28 77.4499 115.113 77.7847C112.461 77.5243 110.566 76.5719 108.287 75.2924C107.779 75.0139 107.779 75.0139 107.261 74.7299C106.433 74.275 105.607 73.815 104.782 73.3539C104.945 72.8665 105.107 72.3791 105.274 71.877Z" fill="black"/>
<path id="Vector_20" d="M8.85519 18.708C9.3634 19.5763 9.86421 20.4489 10.3617 21.3234C10.6414 21.8089 10.9211 22.2944 11.2092 22.7946C11.8068 24.1234 11.8068 24.1234 11.3149 25.6004C10.8279 25.6004 10.3408 25.6004 9.83906 25.6004C9.04928 24.7003 9.04928 24.7003 8.27102 23.508C8.01039 23.1196 7.74976 22.7313 7.48123 22.3311C6.88745 21.1696 6.88745 21.1696 6.88745 19.2003C7.87132 18.708 7.87132 18.708 8.85519 18.708Z" fill="white"/>
<path id="Vector_21" d="M14.7581 126.031C15.2451 126.031 15.7321 126.031 16.2339 126.031C16.2821 126.358 16.3303 126.685 16.38 127.022C16.8361 129.717 17.3062 131.347 19.1855 133.416C19.1855 133.903 19.1855 134.391 19.1855 134.893C17.9711 134.706 17.3545 134.542 16.4876 133.647C14.8182 131.048 14.4389 129.098 14.7581 126.031Z" fill="black"/>
<path id="Vector_22" d="M60.6003 38.0615C60.8946 38.1732 61.1888 38.2849 61.492 38.4C61.8302 39.5077 61.8302 39.5077 61.9839 40.8615C61.2767 42 61.2767 42 60.5081 42.8308C58.6018 42.4 58.6018 42.4 58.0484 41.8461C57.8997 40.4322 57.8645 39.6607 58.6633 38.4615C59.5242 37.9077 59.5242 37.9077 60.6003 38.0615Z" fill="black"/>
<path id="Vector_23" d="M37.8791 4.43066C38.2038 4.43066 38.5285 4.43066 38.863 4.43066C40.8307 6.63158 40.8307 6.63158 40.8307 7.87684C40.195 8.55283 39.5397 9.21117 38.863 9.84608C37.3905 9.35486 36.921 8.98345 35.9114 7.87684C36.5036 6.6492 37.1187 5.57212 37.8791 4.43066Z" fill="white"/>
<path id="Vector_24" d="M5.9034 67.4463C7.14598 68.6096 7.81615 69.2504 8.36308 70.8925C7.55139 71.7048 6.73969 72.5171 5.9034 73.354C5.09171 72.3792 4.28002 71.4045 3.44373 70.4002C4.25542 69.4254 5.06711 68.4506 5.9034 67.4463Z" fill="white"/>
<path id="Vector_25" d="M115.605 27.5693C116.579 28.3816 117.553 29.194 118.557 30.0309C117.583 31.493 117.583 31.493 116.589 32.9847C114.775 32.3795 114.265 31.538 113.145 30.0309C113.957 29.2186 114.769 28.4063 115.605 27.5693Z" fill="white"/>
<path id="Vector_26" d="M5.41161 21.6616C7.47966 22.4008 8.30966 23.7159 9.3471 25.6001C9.18476 26.0875 9.02242 26.5749 8.85516 27.077C7.71756 26.9847 7.71756 26.9847 6.39548 26.5847C5.47311 25.477 5.47311 25.477 4.91968 24.1232C5.07341 22.7385 5.07341 22.7385 5.41161 21.6616Z" fill="white"/>
<path id="Vector_27" d="M84.1209 141.293C84.9326 142.106 85.7443 142.918 86.5806 143.755C85.9445 145.175 85.2724 146.154 84.1209 147.201C83.4716 146.389 82.8222 145.577 82.1532 144.74C82.7454 143.512 83.3605 142.435 84.1209 141.293Z" fill="white"/>
<path id="Vector_28" d="M97.4033 96.0005C99.7738 96.989 100.753 98.6577 101.831 100.924C101.984 102.401 101.984 102.401 101.831 103.385C101.506 103.385 101.181 103.385 100.847 103.385C100.14 102.377 100.14 102.377 99.3711 101.047C99.1174 100.613 98.8637 100.179 98.6024 99.7313C98.0077 98.6638 97.4451 97.5918 96.9114 96.4928C97.0737 96.3303 97.2361 96.1679 97.4033 96.0005Z" fill="black"/>
<path id="Vector_29" d="M52.6373 35.939C53.9286 36.1236 53.9286 36.1236 55.097 36.4313C54.728 38.7697 54.728 38.7697 53.6212 39.8774C52.3298 39.6928 52.3298 39.6928 51.1615 39.3851C51.5305 37.0467 51.5305 37.0467 52.6373 35.939Z" fill="black"/>
<path id="Vector_30" d="M10.3308 16.7388C11.2532 16.8926 11.2532 16.8926 12.2985 17.2311C13.2824 18.708 13.2824 18.708 13.1902 19.6926C12.7416 20.7977 12.2074 21.3773 11.3147 22.1542C9.84141 19.8992 9.84141 19.8992 9.34692 18.708C9.71588 17.508 9.71588 17.508 10.3308 16.7388Z" fill="white"/>
<path id="Vector_31" d="M102.968 40.9851C103.379 41.1679 103.379 41.1679 103.799 41.3543C103.09 43.0094 102.201 44.1071 100.847 45.2928C100.522 45.2928 100.198 45.2928 99.863 45.2928C99.7007 44.4805 99.5384 43.6682 99.3711 42.8313C101.551 40.8317 101.551 40.8317 102.968 40.9851Z" fill="white"/>
<path id="Vector_32" d="M51.0864 58.5366C52.0953 58.5526 53.1041 58.5687 54.113 58.5847C54.113 58.9096 54.113 59.2345 54.113 59.5693C52.9802 60.661 52.379 61.0303 50.7924 61.1386C50.2445 61.0929 50.2445 61.0929 49.6855 61.0462C49.6855 58.6107 49.6855 58.6107 51.0864 58.5366Z" fill="black"/>
<path id="Vector_33" d="M13.2822 15.7538C14.4506 15.6615 14.4506 15.6615 15.7419 15.7538C16.7258 17.2307 16.7258 17.2307 16.7258 18.7077C15.9141 18.8701 15.1024 19.0326 14.2661 19.2C13.2822 17.723 13.2822 17.723 13.2822 15.7538Z" fill="white"/>
<path id="Vector_34" d="M101.339 38.8925C101.339 39.3799 101.339 39.8673 101.339 40.3694C100.478 41.231 100.478 41.231 99.3711 41.8464C98.2642 41.6925 98.2642 41.6925 97.4033 41.3541C97.5878 40.4002 97.5878 40.4002 97.8953 39.3848C99.1068 38.7786 100 38.8573 101.339 38.8925Z" fill="white"/>
<path id="Vector_35" d="M61.4923 32.9849C62.8215 33.1646 63.7473 33.3288 64.8436 34.1233C65.4278 34.9541 65.4278 34.9541 65.4278 36.9233C64.9408 36.7609 64.4538 36.5984 63.952 36.431C63.952 36.1061 63.952 35.7812 63.952 35.4464C62.7344 34.959 62.7344 34.959 61.4923 34.4618C61.4923 33.9744 61.4923 33.487 61.4923 32.9849Z" fill="black"/>
<path id="Vector_36" d="M54.1128 31.0156C55.2492 31.0156 56.3855 31.0156 57.5563 31.0156C57.7187 31.503 57.881 31.9904 58.0483 32.4926C56.5872 32.4926 55.1262 32.4926 53.6208 32.4926C53.7832 32.0052 53.9455 31.5178 54.1128 31.0156Z" fill="black"/>
<path id="Vector_37" d="M29.5162 68.9238C30.0033 68.9238 30.4903 68.9238 30.992 68.9238C31.1544 70.0611 31.3167 71.1983 31.484 72.37C30.5001 71.4777 30.5001 71.4777 29.5162 70.4008C29.5162 69.9134 29.5162 69.426 29.5162 68.9238Z" fill="black"/>
</g>
</g>
</svg>
