<svg width="780" height="750" viewBox="0 0 780 750" fill="none" xmlns="http://www.w3.org/2000/svg">
<path d="M51.9741 539.929C68.1885 579.292 105.659 682.654 91.2171 767H693.27C693.27 767 682.919 607.74 724.619 541.921C326.082 500.819 113.964 528.841 51.9741 539.929Z" fill="black"/>
<path d="M192.694 138.518C193.583 138.518 194.488 138.401 195.409 138.174C198.101 137.501 200.2 135.9 201.516 133.544C206.611 124.401 198.519 104.698 197.576 102.479L191.5 104.582C194.656 112.015 198.58 125.768 195.713 130.906C195.219 131.793 194.595 132.287 193.667 132.514C187.537 134.355 179.453 118.932 175.977 108.216L169.733 109.857C171.369 114.886 179.696 138.518 192.694 138.518Z" fill="black"/>
<path d="M236.835 124.744C236.34 125.637 235.717 126.125 234.789 126.352C228.659 128.193 220.575 112.777 217.107 102.047L210.863 103.695C212.483 108.717 220.81 132.356 233.808 132.356C234.698 132.356 235.61 132.239 236.53 132.012C239.223 131.346 241.322 129.732 242.637 127.382C247.741 118.246 239.641 98.5363 238.698 96.3174L232.621 98.4195C235.778 105.866 239.702 119.606 236.835 124.744Z" fill="black"/>
<path d="M173.126 73.2556L164.38 64.8127L141.184 84.4738L149.93 92.9234L173.126 73.2556Z" fill="black"/>
<path d="M233.815 67.8632L203.546 59.0425L199.592 70.0338L229.861 78.8684L233.815 67.8632Z" fill="black"/>
<path d="M458.063 438.841C464.855 439.734 478.422 441.953 493.024 446.803C500.219 449.194 502.888 449.468 504.265 449.468C507.178 449.468 508.052 447.909 508.296 447.236C508.585 446.446 509.056 445.106 505.801 441.898C510.273 443.052 514.791 444.007 517.422 444.007C520.32 444.007 521.384 442.825 521.765 441.829C522.685 439.418 520.038 437.288 517.483 435.475C515.285 433.915 513.163 432.576 511.163 431.415C513.399 431.58 515.589 431.683 517.513 431.683C520.114 431.669 524.966 431.628 525.369 428.495C525.643 426.428 525.894 424.456 505.923 419.64C513.368 416.267 512.965 414.337 512.73 413.189C512.098 410.112 507.436 410.112 504.934 410.112C499.413 410.112 489.701 411.129 476.012 413.128C475.928 413.148 467.638 414.454 459.942 414.935L457.653 415.085L455.614 438.532L458.063 438.841ZM462.588 419.558C469.798 418.987 476.605 417.916 476.886 417.868C489.769 415.979 498.995 414.982 504.333 414.914C502.257 415.896 499.496 417.03 496.759 417.985L497.078 422.56C505.162 424.36 510.478 425.741 513.954 426.778C506.425 426.386 496.394 424.902 496.279 424.882L495.093 429.567C495.177 429.587 503.444 431.861 513.384 438.69C507.421 437.536 498.226 434.76 494.401 433.531L491.952 437.742C495.002 439.707 498.34 442.131 500.592 444.014C499.192 443.657 497.329 443.114 494.85 442.296C481.396 437.831 468.802 435.523 461.288 434.424L462.588 419.558Z" fill="black"/>
<path d="M132.78 229.198L135.19 342.5L138.681 342.39L131.274 451.831C199.842 447.751 263.764 445.608 322.652 444.845L322.135 442.963L241.124 439.7L183.468 391.577C172.197 382.173 170.867 366.503 180.419 355.656L180.586 355.463L250.904 412.736L314.484 414.962L309.388 396.317L290.322 337.636L297.03 337.43L261.354 182.12L344.197 179.132L230.91 46.2373C251.71 39.766 269.841 26.4524 279.933 1.86572C279.933 1.86572 234.659 31.4743 195.743 7.62954C155.884 -16.7854 108.99 24.2542 108.466 35.0809C108.466 35.0809 114.976 37.657 125.524 40.7552L102.351 37.973C91.1561 175.23 102.351 222.191 102.351 222.191L132.78 229.198ZM240.082 377.206C239.336 373.187 240.987 369.587 243.77 369.161C246.554 368.736 249.421 371.655 250.166 375.688C250.919 379.713 249.261 383.306 246.478 383.732C243.694 384.165 240.827 381.245 240.082 377.206ZM251.687 406.519C248.904 406.945 246.037 404.018 245.291 399.993C244.546 395.96 246.196 392.36 248.98 391.928C251.763 391.515 254.631 394.435 255.376 398.461C256.121 402.487 254.471 406.093 251.687 406.519ZM131.319 160.467C133.913 161.25 136.559 162.493 138.993 163.902C144.682 167.192 149.222 171.156 149.222 171.156L137.153 77.1165L136.46 44.5953L138.78 44.3068C161.786 49.9194 194.245 54.8519 223.099 48.3119L329.215 172.798L252.098 175.587L263.597 225.626C235.945 226.581 210.315 194.63 210.049 194.3L199.599 200.984C200.839 202.557 228.453 237.304 262.335 237.304C263.605 237.304 264.913 237.105 266.206 236.995L287.767 330.849L142.651 335.397L140.43 230.964L152.561 233.76L141.48 201.225C141.001 201.287 140.423 201.17 139.799 200.984C137.738 200.352 134.985 198.477 132.087 195.921C124.779 189.478 116.626 178.884 116.778 173.794C117.166 159.917 124.018 158.248 131.319 160.467Z" fill="black"/>
<path d="M474.68 373.565C474.68 373.565 526.913 366.475 589.816 368.687C587.207 357.476 583.389 350.689 583.389 350.689L625.963 347.625C628.367 356.26 629.888 364.181 630.778 371.518C660.324 374.623 690.25 380.297 716.77 390.1C716.77 390.1 798.085 312.013 766.257 193.593C766.257 193.593 613.613 149.867 464.002 191.992C464.01 191.978 483.913 269.778 474.68 373.565Z" fill="black"/>
<path d="M618.83 422.285C624.382 412.832 630.017 394.47 627.287 372.019C626.557 366.043 625.317 359.571 623.355 352.53L588.622 355.031C588.622 355.031 591.733 360.575 593.862 369.718C596.547 381.239 596.897 401.738 588.173 421.275L618.83 422.285Z" fill="black"/>
<path d="M534.412 421.783C534.412 421.783 533.066 437.776 532.366 446.15C532.351 446.274 532.344 446.418 532.336 446.542L658.21 455.136C658.21 455.136 658.324 454.902 658.514 454.456C659.86 451.378 665.291 438.222 665.405 426.118L615.758 424.476L583.329 423.404L534.412 421.783Z" fill="black"/>
<path d="M182.305 359.304C172.966 368.331 175.285 384.412 185.773 392.759L243.147 438.147L315.929 440.167L355.484 442.681L356.427 419.105L249.17 415.464L182.305 359.304Z" fill="black"/>
<path d="M774.943 472.509C773.46 472.303 771.923 472.132 770.433 471.925C755.945 469.672 719.219 464.389 662.613 459.278C662.416 459.725 662.309 459.965 662.294 459.979C631.934 457.368 600.95 455.266 569.35 453.659L527.773 450.822C527.788 450.684 527.795 450.533 527.811 450.396C491.518 448.816 451.53 447.682 408.18 447.277C408.218 447.208 408.317 447.187 408.355 447.126C408.819 446.315 409.078 444.976 407.709 443.258C407.222 442.654 406.5 441.98 405.648 441.273C409.709 442.022 413.801 442.619 416.455 442.619C417.535 442.619 420.805 442.619 421.619 440.201C422.227 438.374 420.858 436.842 419.01 435.495L454.177 439.404L454.359 437.24L456.017 418.101L456.428 413.368L354.351 402.534L297.41 340.687H294.391L312.879 397.575L332.501 416.727L358.092 417.62V441.603L360.526 441.788C368.139 442.372 379.881 443.725 392.574 446.878L393.434 447.078C398.415 448.349 401.906 448.953 404.089 448.953C404.804 448.953 405.328 448.781 405.884 448.637C405.23 449.455 402.035 449.338 394.156 447.346C393.86 447.263 393.578 447.201 393.282 447.133C370.633 447.009 347.08 447.091 322.667 447.407C263.78 448.163 199.858 450.313 131.289 454.394C89.2398 456.888 45.4489 460.109 0 464.183L30.0178 540.547L33.2729 539.75C33.3413 539.736 39.897 538.142 52.7195 535.848C93.6356 528.532 185.142 516.249 338.235 516.249C455.15 516.249 585.002 523.531 724.185 537.888L731.783 538.658C735.601 539.042 739.426 539.427 743.343 539.846L746.043 540.142L780 473.217L774.943 472.509ZM424.014 426.826C425.627 427.726 424.851 428.378 422.706 428.791C423.406 428.317 423.893 427.684 424.014 426.826ZM410.249 413.505C412.941 414.337 408.355 417.105 404.302 419.166C404.165 419.146 404.051 419.118 403.914 419.097C408.842 416.398 410.044 414.666 410.249 413.505ZM400.651 443.76C399.229 443.505 397.35 443.093 394.871 442.468L393.989 442.262L393.981 442.255C382.186 439.329 371.204 437.907 363.408 437.22V421.667C369.477 420.643 374.626 419.455 374.831 419.4C389.814 416.102 397.738 414.879 401.921 414.522C399.944 415.642 397.297 416.961 394.658 418.101L395.373 422.642C403.594 423.865 409.009 424.868 412.569 425.658C411.96 425.672 411.336 425.679 410.698 425.679C403.45 425.679 394.856 425.019 394.772 425.012L393.989 429.759C394.057 429.766 400.879 431.126 409.853 435.832C410.873 436.368 411.914 436.938 412.979 437.556C406.857 436.821 397.411 434.678 393.639 433.75L391.563 438.133C394.126 439.521 397.951 441.795 400.651 443.76ZM741.533 532.75C738.536 532.434 735.578 532.138 732.627 531.836L725.052 531.067C585.58 516.682 455.439 509.393 338.235 509.393C184.488 509.393 92.4264 521.751 51.2364 529.123C43.2966 530.538 37.76 531.685 34.5582 532.386L11.7729 474.804C58.6439 469.645 199.729 455.967 378.566 455.967C518.585 455.967 649.935 464.362 769.087 480.925L741.533 532.75Z" fill="black"/>
</svg>
