<svg width="18" height="18" viewBox="0 0 18 18" fill="none" xmlns="http://www.w3.org/2000/svg">
<g clip-path="url(#clip0_27_22)">
<path d="M9 17.3571C13.6155 17.3571 17.3571 13.6155 17.3571 8.99996C17.3571 4.38444 13.6155 0.642822 9 0.642822C4.38447 0.642822 0.642853 4.38444 0.642853 8.99996C0.642853 13.6155 4.38447 17.3571 9 17.3571Z" stroke="#000001" stroke-linecap="round" stroke-linejoin="round"/>
<path d="M4.75714 10.2856C5.4 12.5999 7.97143 14.0142 10.2857 13.3714C11.7 12.8571 12.8571 11.6999 13.2429 10.2856" stroke="#000001" stroke-linecap="round" stroke-linejoin="round"/>
<path d="M6.17142 6.94275C6.0294 6.94275 5.91428 6.82763 5.91428 6.68561C5.91428 6.54359 6.0294 6.42847 6.17142 6.42847" stroke="#000001" stroke-linecap="round" stroke-linejoin="round"/>
<path d="M6.17145 6.94275C6.31346 6.94275 6.42859 6.82763 6.42859 6.68561C6.42859 6.54359 6.31346 6.42847 6.17145 6.42847" stroke="#000001" stroke-linecap="round" stroke-linejoin="round"/>
<path d="M11.8286 6.94275C11.6865 6.94275 11.5714 6.82763 11.5714 6.68561C11.5714 6.54359 11.6865 6.42847 11.8286 6.42847" stroke="#000001" stroke-linecap="round" stroke-linejoin="round"/>
<path d="M11.8286 6.94275C11.9706 6.94275 12.0857 6.82763 12.0857 6.68561C12.0857 6.54359 11.9706 6.42847 11.8286 6.42847" stroke="#000001" stroke-linecap="round" stroke-linejoin="round"/>
</g>
<defs>
<clipPath id="clip0_27_22">
<rect width="18" height="18" fill="white"/>
</clipPath>
</defs>
</svg>
